<svg width="19" height="18" viewBox="0 0 19 18" xmlns="http://www.w3.org/2000/svg">
    <path d="M9.33997 12.8097C9.35898 12.8341 9.38327 12.8539 9.41099 12.8675C9.43872 12.8811 9.46916 12.8881 9.5 12.8881C9.53084 12.8881 9.56128 12.8811 9.589 12.8675C9.61673 12.8539 9.64102 12.8341 9.66003 12.8097L12.5049 9.18665C12.6091 9.05369 12.5151 8.85682 12.3449 8.85682H10.4627V0.204545C10.4627 0.0920455 10.3713 0 10.2595 0H8.73543C8.62366 0 8.53222 0.0920455 8.53222 0.204545V8.85426H6.65508C6.48489 8.85426 6.39091 9.05114 6.49505 9.18409L9.33997 12.8097ZM18.7968 11.9148H17.2727C17.161 11.9148 17.0695 12.0068 17.0695 12.1193V16.0568H1.93048V12.1193C1.93048 12.0068 1.83904 11.9148 1.72727 11.9148H0.203209C0.0914438 11.9148 0 12.0068 0 12.1193V17.1818C0 17.6344 0.363235 18 0.812834 18H18.1872C18.6368 18 19 17.6344 19 17.1818V12.1193C19 12.0068 18.9086 11.9148 18.7968 11.9148Z"/>
</svg>
