<svg width="145" height="37" viewBox="0 0 145 37" fill="none" xmlns="http://www.w3.org/2000/svg">
    <path d="M18.4719 37C22.1253 37 25.6967 35.9158 28.7344 33.8844C31.7721 31.8531 34.1397 28.9658 35.5378 25.5878C36.9359 22.2097 37.3017 18.4927 36.5889 14.9066C35.8762 11.3205 34.1169 8.02645 31.5336 5.44102C28.9502 2.85559 25.6588 1.09489 22.0756 0.381572C18.4924 -0.331746 14.7783 0.0343555 11.403 1.43358C8.02773 2.8328 5.14281 5.20231 3.11309 8.24245C1.08337 11.2826 1.02473e-05 14.8568 1.02473e-05 18.5132C1.02473e-05 23.4162 1.94615 28.1184 5.41031 31.5853C8.87447 35.0523 13.5729 37 18.4719 37Z" fill="white"/>
    <path d="M18.4608 1.53293e-06H18.2286V5.38262C18.3072 5.38262 18.3821 5.38262 18.4608 5.38262C21.5703 5.38463 24.5774 6.49538 26.9426 8.51563C29.3079 10.5359 30.8765 13.3334 31.3671 16.4065H36.8016C36.2932 11.892 34.1407 7.72326 30.7553 4.69675C27.3699 1.67023 22.9889 -0.00184813 18.4495 1.53293e-06" fill="#E60013"/>
    <path d="M31.5546 18.4156C31.5546 18.4381 31.5546 18.4568 31.5546 18.4793C31.5546 20.2021 31.2155 21.9081 30.5567 23.4998C29.898 25.0915 28.9324 26.5377 27.7151 27.756C26.4979 28.9742 25.0528 29.9406 23.4624 30.5999C21.872 31.2592 20.1674 31.5985 18.4459 31.5985C18.371 31.5985 18.2924 31.5985 18.21 31.5985H18.1313V36.9774H18.4721C20.8968 36.9779 23.2977 36.5004 25.5379 35.5721C27.7781 34.6438 29.8136 33.283 31.5283 31.5673C33.2429 29.8517 34.603 27.8148 35.531 25.573C36.459 23.3312 36.9366 20.9284 36.9366 18.5018V18.4381L31.5546 18.4156Z" fill="#008CD6"/>
    <path d="M13.056 10.8927L13.1047 10.9564L13.1721 11.2113L13.3519 11.4699L13.3069 11.8448L13.5279 12.0659L13.6403 12.3808L13.4755 12.6581L13.3743 13.2691L13.7264 14.2662L14.277 14.6785L14.4979 15.3569L14.7863 16.3428C14.7863 16.3428 15.4792 17.2311 15.4867 17.2649C15.6223 17.3453 15.7638 17.4155 15.9099 17.4748L15.689 17.0999L15.468 16.6464L15.6777 16.4177L15.5878 16.1778H15.8126L15.9361 15.5669L16.4717 15.3907L16.5466 14.6897L16.9212 14.0413L16.6665 13.4753L15.7639 13.1004L15.4418 12.5457L15.0185 12.422L14.7601 12.0172L14.0485 11.7585L13.7227 12.1034L13.5242 11.901L13.4905 11.3687L13.3369 11.2225L13.5579 10.754L13.4717 10.5853L13.2807 10.7315L13.5691 9.98183L13.8463 9.88062L14.0111 10.3454L14.1122 9.86938L14.6141 9.45331L14.8575 8.89856L15.0822 8.98477L15.6927 8.77486L15.9699 8.44126L16.071 8.67366L16.3519 8.52747L16.4717 7.96147L16.2845 7.74032L15.6627 8.06268L15.6815 7.77031L16.0935 7.58289L16.5616 7.36924L16.5841 7.60538L16.9961 7.44795V7.21555L16.9774 7.09186C16.0609 7.35206 15.2232 7.83535 14.5389 8.49859C13.8547 9.16182 13.3452 9.98434 13.056 10.8927Z" fill="#45BDCF"/>
    <path d="M23.8539 12.2983L23.8315 11.5711L23.5431 11.6386L23.2397 11.3162L22.7828 10.4129L23.2622 10.9264L23.4981 11.3012L23.7753 11.0688L23.5768 10.3529L23.3745 10.0905L23.5655 9.98932H23.6217C22.9539 8.70979 21.8315 7.72691 20.4757 7.23428V7.43669L20.1273 7.34673H19.8277L19.618 7.6541L19.8951 7.91273L20.3184 7.85651L20.3858 8.07016H20.0112L20.0037 8.26883L19.8277 8.42626L19.5581 8.51622L19.7715 8.71488L19.6816 8.85732H19.3783L19.2472 9.17967L19.5356 9.38958L19.9476 9.31086L20.2135 8.87981L20.5056 8.78984L20.9813 9.07847L20.9513 9.33335L21.1498 9.2359L20.9738 8.80109L21.3483 9.14594L21.5805 9.20216L21.6479 8.86856L21.6704 8.5537L22.2172 8.83482L21.8689 8.96976L21.7715 9.22465L22.0712 9.37833L22.3708 9.33335L22.5056 9.81689H22.0936L21.6255 9.69319L21.5468 9.83938L20.8801 9.69319L20.7004 9.31836L20.0562 9.44206L19.8127 9.58824L19.4981 9.61073L19.2547 10.143L18.8801 10.3866L18.6779 11.1363L18.7528 11.6423L19.6554 12.6356L20.8015 12.3358L20.9139 12.5569H21.2884L21.412 12.7144L21.2884 13.0704L21.588 13.5015V14.1612L21.367 14.4273L21.5019 15.1733L21.3708 15.4394L21.5019 15.863L21.4195 16.1778L22.0337 16.0204L22.9139 15.2407V14.7947L23.4419 13.8913L23.4082 13.4228L23.8539 12.2983Z" fill="#ABCD05"/>
    <path d="M17.5954 7.1144L17.5505 7.27183L17.3407 7.37304L17.1722 7.69539L17.2471 7.86032L17.7827 7.51547L18.2209 7.48174L18.4718 7.28308L18.5392 6.9907L18.1535 6.96821L17.5954 7.1144Z" fill="#45BDCF"/>
    <path d="M19.2209 8.00652L19.0187 8.10773L19.0412 8.25016L19.1872 8.27265L19.3221 8.06275L19.412 8.18644L19.352 8.3851H19.5543L19.7678 8.19769L19.4344 7.96154L19.2209 7.87158V8.00652Z" fill="#ABCD05"/>
    <path d="M13.8654 10.8851L14.2549 11.1625L14.4871 10.9039L13.8317 10.604L13.8654 10.8851Z" fill="#45BDCF"/>
    <path d="M18.3186 7.54919L18.386 7.69538L18.7455 7.62791L18.5433 7.48172L18.3186 7.54919Z" fill="#45BDCF"/>
    <path d="M17.9926 27.9475L17.3597 28.8022C17.2542 28.9231 17.1051 28.9973 16.9451 29.0086C16.7851 29.0198 16.6271 28.9671 16.5058 28.8621C16.4387 28.8204 16.3806 28.7659 16.3347 28.7016C16.2888 28.6373 16.256 28.5646 16.2382 28.4877C16.2205 28.4107 16.2181 28.331 16.2312 28.2531C16.2444 28.1752 16.2728 28.1006 16.3147 28.0337L16.944 27.1791C17.0554 27.0776 17.1983 27.0174 17.3487 27.0085C17.4991 26.9996 17.6481 27.0426 17.7707 27.1303C17.8933 27.2179 17.9822 27.345 18.0226 27.4903C18.063 27.6356 18.0524 27.7903 17.9926 27.9288M15.7267 27.6139C15.6859 27.6952 15.6274 27.7662 15.5555 27.8218C15.4836 27.8774 15.4001 27.9161 15.3112 27.9351C15.2224 27.9541 15.1304 27.9529 15.042 27.9315C14.9537 27.9101 14.8713 27.8692 14.8009 27.8117C14.7305 27.7541 14.6739 27.6815 14.6353 27.5992C14.5967 27.5169 14.5771 27.4269 14.5779 27.336C14.5787 27.245 14.5999 27.1554 14.6399 27.0738C14.6799 26.9921 14.7377 26.9205 14.8091 26.8643L15.7267 25.7398C15.7662 25.6557 15.8243 25.5818 15.8966 25.5237C15.9689 25.4655 16.0535 25.4245 16.144 25.404C16.2345 25.3834 16.3284 25.3838 16.4187 25.405C16.5091 25.4262 16.5933 25.4678 16.6652 25.5265C16.7371 25.5852 16.7946 25.6596 16.8335 25.7439C16.8724 25.8282 16.8915 25.9202 16.8895 26.0131C16.8875 26.1059 16.8644 26.197 16.8219 26.2796C16.7794 26.3621 16.7187 26.4339 16.6443 26.4894L15.7267 27.6139ZM13.2623 26.928C12.9739 26.7181 12.9851 26.2083 13.2885 25.8035L14.3447 24.3641C14.6518 23.9518 15.1312 23.7869 15.4196 23.9893C15.708 24.1917 15.6968 24.7052 15.3934 25.1138L14.3372 26.5494C14.0301 26.9655 13.5507 27.1266 13.2623 26.9242M11.9964 25.4249C11.8733 25.3494 11.7844 25.2289 11.7488 25.0889C11.7131 24.9489 11.7334 24.8005 11.8054 24.6752L12.3634 23.9256C12.459 23.8236 12.5902 23.7624 12.7297 23.7547C12.8692 23.747 13.0063 23.7934 13.1125 23.8843C13.2356 23.9598 13.3244 24.0803 13.3601 24.2203C13.3958 24.3603 13.3755 24.5088 13.3035 24.634L12.7492 25.3837C12.6512 25.49 12.5154 25.5535 12.3711 25.5605C12.2267 25.5676 12.0854 25.5175 11.9777 25.4211M25.4608 23.5732C25.1425 23.3596 24.2623 22.6061 24.2623 22.6061C22.9327 21.5341 18.8803 19.2139 18.8803 19.2139C18.46 19.3867 18.0313 19.5381 17.5956 19.6674C17.3372 19.9636 17.1013 20.1997 17.1013 20.1997C15.884 21.834 15.135 21.148 15.135 21.148C14.7904 21.0393 15.884 19.6487 15.884 19.6487L16.7417 18.3368C16.8054 18.0182 18.5207 17.932 18.5207 17.932C20.4945 17.5871 21.5844 17.932 21.5844 17.932C23.4945 18.6179 24.3934 18.1231 24.3934 18.1231L29.6893 13.6251C29.5807 13.3852 29.4683 13.1453 29.3485 12.9129L24.2061 17.351C24.0844 17.4621 23.9383 17.543 23.7795 17.5873C23.6208 17.6316 23.4539 17.6379 23.2923 17.6059C22.1897 17.3212 21.0594 17.1578 19.9215 17.1186C19.9215 17.1186 17.0638 17.0923 16.3784 17.7483L16.0039 18.1231C15.2548 17.9545 10.2099 15.3456 7.296 13.8163C7.21361 14.0074 7.14245 14.1911 7.07128 14.4048C9.502 15.5892 13.5956 17.7295 13.5956 17.7295C14.3079 18.046 14.9985 18.4091 15.6631 18.8166C14.5732 20.3909 14.4908 20.8744 14.4908 20.8744C14.3484 22.0476 15.6631 21.8752 15.6631 21.8752C16.9177 21.7628 17.9814 20.2634 17.9814 20.2634C18.6443 19.9411 18.8616 20.046 18.8616 20.046C20.7342 20.9081 23.3559 22.8798 23.3559 22.8798C24.0808 23.3879 24.768 23.9479 25.4121 24.5553C25.4945 25.6236 24.532 25.3237 24.532 25.3237L21.3035 23.412C20.8878 23.2434 20.7904 23.412 20.7904 23.412C20.7166 23.4771 20.6712 23.5686 20.6642 23.6667C20.6572 23.7649 20.6891 23.8619 20.7529 23.9368L24.0114 25.8859C24.0114 26.8118 23.0676 26.5644 23.0676 26.5644L20.3784 25.0088C19.8691 24.8214 19.8016 25.095 19.8016 25.095C19.5432 25.3724 19.884 25.6086 19.884 25.6086L22.6069 27.1304C22.5245 28.2549 21.4833 27.7339 21.4833 27.7339L19.532 26.7668C19.0413 26.4332 18.8691 26.8118 18.8691 26.8118C18.6106 27.2616 19.1687 27.4115 19.1687 27.4115L21.075 28.2886C20.3897 29.3869 18.3971 28.4198 18.3971 28.4198C18.6331 28.2249 18.6331 27.7114 18.6331 27.7114C18.8054 26.5531 17.5582 26.2945 17.5582 26.2945C17.5582 24.7952 16.3822 24.6415 16.3822 24.6415C16.1874 23.7869 15.869 23.592 15.869 23.592C15.7342 23.4645 15.5713 23.3706 15.3934 23.3179C15.2155 23.2653 15.0277 23.2554 14.8453 23.289C14.6629 23.3225 14.4909 23.3987 14.3434 23.5113C14.1959 23.6238 14.077 23.7696 13.9964 23.9368C13.0975 22.6061 11.8728 23.592 11.8728 23.592L6.72672 21.8227C6.80162 22.0889 6.88027 22.3588 6.97016 22.6211L11.4308 24.158C11.4308 24.158 10.8578 25.1363 11.3896 25.7323C11.4879 25.9188 11.6365 26.074 11.8186 26.18C12.0008 26.2861 12.209 26.3387 12.4196 26.332C12.4196 26.332 12.1911 27.6777 13.9627 27.7901C13.9627 27.7901 14.3634 29.0495 15.5919 28.7347C15.5919 28.7347 15.7642 29.9679 17.15 29.6493C17.5076 29.549 17.8116 29.3121 17.9964 28.9896C17.9964 28.9896 20.311 30.0653 21.3934 29.0196C21.5462 28.8655 21.6638 28.68 21.738 28.476C21.738 28.476 23.2361 28.6222 23.281 27.3066C23.63 27.3307 23.9747 27.2177 24.2418 26.9917C24.5089 26.7656 24.6775 26.4443 24.7118 26.0958C24.9561 26.1071 25.199 26.0525 25.415 25.9378C25.6311 25.823 25.8125 25.6524 25.9402 25.4436C26.0813 25.2633 26.1673 25.046 26.1879 24.818C26.2085 24.5899 26.1628 24.3607 26.0563 24.158C26.0563 24.158 26.4533 23.8806 27.3185 23.2284L30.547 21.0693C30.6069 20.7657 30.6443 20.4621 30.6855 20.151C28.2923 21.7628 25.4833 23.592 25.4833 23.592" fill="#008CD6"/>
    <path d="M5.36705 18.4792C5.36705 18.4568 5.36705 18.438 5.36705 18.4155H1.02473e-05V18.4792C0.000238016 23.3216 1.90044 27.9703 5.29153 31.4244C8.68261 34.8786 13.2934 36.8618 18.1311 36.9473V31.5685C14.725 31.471 11.4906 30.05 9.11352 27.6066C6.73642 25.1632 5.40341 21.8895 5.39701 18.4792" fill="#293BDB"/>
    <path d="M18.1199 0.0115656C13.3568 0.0964287 8.81104 2.02152 5.43379 5.38403C2.05653 8.74654 0.10947 13.2859 0 18.0523H5.38577C5.49079 14.7123 6.86827 11.539 9.2359 9.18266C11.6035 6.82637 14.782 5.46558 18.1199 5.37919H18.2285V0.0115656H18.1199Z" fill="#D7083B"/>
    <path d="M31.5546 18.4156L36.9252 18.4157C36.9252 18.2995 36.9252 18.1795 36.9252 18.0633H31.5357C31.5357 18.1795 31.5357 18.2957 31.5357 18.4157" fill="white"/>
    <path d="M18.2286 18.0669H18.1238V18.4193H18.2286V18.0669Z" fill="white"/>
    <path d="M45.2997 11.285H48.8165V18.0283L52.7416 11.285H56.427L51.8877 18.7329L56.8952 26.2634H52.6143L48.8165 19.7862V26.2634H45.2997V11.285Z" fill="#F5F5F5"/>
    <path d="M60.6368 18.7516C60.6368 21.0418 62.0675 23.1859 64.4308 23.1859C66.9252 23.1859 68.1349 20.7157 68.1349 18.7928C68.1349 16.8699 66.9252 14.3585 64.3896 14.3585C61.9514 14.3585 60.6443 16.6263 60.6443 18.7328L60.6368 18.7516ZM57.1199 18.9352C57.1199 14.0362 60.5806 11 64.3784 11C68.6181 11 71.6555 14.6022 71.6555 18.7703C71.6555 22.9385 68.6368 26.5444 64.3596 26.5444C60.0225 26.5444 57.1199 22.796 57.1199 18.954V18.9352Z" fill="#F5F5F5"/>
    <path d="M74.0187 11.285H78.5131C80.6741 11.285 82.0112 11.7085 82.7752 12.357C83.9288 13.3278 84.4494 14.8047 84.4494 16.4465C84.4669 17.3965 84.2289 18.3338 83.7603 19.1603C83.3406 19.8617 82.7174 20.4187 81.9737 20.757L84.8239 26.2634H81.191L77.6067 19.0403H78.1835C79.0786 19.0403 79.8426 18.9541 80.3071 18.6317C80.5675 18.4037 80.7731 18.1197 80.9087 17.8011C81.0442 17.4824 81.1061 17.1372 81.0898 16.7913C81.103 16.4562 81.0354 16.1229 80.8926 15.8195C80.7498 15.5161 80.5362 15.2516 80.2696 15.0483C79.8384 14.7829 79.3414 14.6439 78.8352 14.6472H77.5355V26.2671H74.0187V11.285Z" fill="#F5F5F5"/>
    <path d="M90.1163 11.285V20.3335C90.0919 20.9441 90.1743 21.5542 90.3598 22.1364C90.466 22.4604 90.6757 22.7404 90.9566 22.9334C91.2374 23.1264 91.5738 23.2217 91.9141 23.2047C92.2404 23.2364 92.568 23.158 92.8448 22.9822C93.1217 22.8063 93.3319 22.5429 93.4422 22.2339C93.6244 21.6268 93.6992 20.9926 93.6631 20.3597V11.285H97.1575V20.3335C97.1575 22.8411 96.6556 23.9581 95.783 24.9289C95.2971 25.4631 94.7004 25.8844 94.0346 26.1635C93.3689 26.4426 92.6503 26.5726 91.929 26.5445C90.9253 26.5445 89.1013 26.2821 87.9665 24.9477C86.8317 23.6133 86.5882 22.5375 86.5882 20.3335V11.285H90.1163Z" fill="#F5F5F5"/>
    <path d="M102.809 21.3042C102.809 23.0434 103.798 23.347 104.24 23.347C104.608 23.3343 104.955 23.176 105.207 22.9068C105.458 22.6377 105.593 22.2797 105.581 21.9114C105.581 21.1205 105.004 20.8769 102.884 19.9061C101.918 19.4825 99.5131 18.4067 99.5131 15.6142C99.5131 12.6155 102.022 11 104.333 11C106.228 11 108.91 12.0533 108.966 15.6554H105.487C105.412 15.1494 105.3 14.1973 104.217 14.1973C104.061 14.1949 103.906 14.2233 103.761 14.2809C103.615 14.3386 103.483 14.4244 103.371 14.5334C103.259 14.6424 103.169 14.7724 103.108 14.9161C103.046 15.0598 103.013 15.2142 103.011 15.3706C103.011 16.0603 103.386 16.2439 105.858 17.4584C108.427 18.7103 109.079 20.0073 109.079 21.7502C109.079 24.1379 107.925 26.5444 104.277 26.5444C100.629 26.5444 99.2172 24.2391 99.3071 21.2967L102.809 21.3042Z" fill="#F5F5F5"/>
    <path d="M112.88 14.6472H110.161V11.285H119.094V14.6472H116.397V26.2634H112.88V14.6472Z" fill="#F5F5F5"/>
    <path d="M120.978 11.285H128.775V14.6472H124.494V16.975H128.644V20.3335H124.494V22.9048H128.775V26.2634H120.978V11.285Z" fill="#F5F5F5"/>
    <path d="M144.929 20.6557C144.128 24.1979 141.3 26.5444 137.967 26.5444C133.652 26.5444 130.708 22.796 130.708 18.7553C130.708 14.9283 133.427 11 137.929 11C142.247 11 144.555 14.6246 144.929 16.9711H141.244C140.869 15.8466 139.813 14.3473 137.91 14.3473C135.547 14.3473 134.229 16.5963 134.229 18.7178C134.229 20.9856 135.641 23.1709 137.929 23.1709C140.128 23.1709 141.019 21.1655 141.244 20.6407L144.929 20.6557Z" fill="#F5F5F5"/>
</svg>
