<svg width="251" height="64" viewBox="0 0 251 64" fill="none" xmlns="http://www.w3.org/2000/svg">
    <path d="M31.9755 63.9966C38.2997 63.9966 44.4818 62.1213 49.7402 58.6078C54.9985 55.0943 59.0969 50.1004 61.5171 44.2576C63.9372 38.4149 64.5705 31.9856 63.3367 25.783C62.1029 19.5804 59.0575 13.8829 54.5857 9.411C50.1138 4.93914 44.4163 1.89376 38.2137 0.659981C32.011 -0.573802 25.5818 0.0594213 19.739 2.47957C13.8963 4.89973 8.90237 8.99811 5.38885 14.2565C1.87533 19.5148 0 25.697 0 32.0211C0 40.5016 3.36884 48.6347 9.36542 54.6312C15.362 60.6278 23.4951 63.9966 31.9755 63.9966Z" fill="white"/>
    <path d="M31.9562 2.65143e-06H31.5542V9.30999C31.6904 9.30999 31.82 9.30999 31.9562 9.30999C37.3389 9.31347 42.5443 11.2347 46.6386 14.729C50.7329 18.2233 53.4482 23.062 54.2976 28.3773H63.7048C62.8248 20.5689 59.0987 13.3585 53.2384 8.12367C47.3781 2.88889 39.7946 -0.00319659 31.9367 2.65143e-06" fill="#E60013"/>
    <path d="M54.622 31.8523C54.622 31.8912 54.622 31.9236 54.622 31.9625C54.622 34.9424 54.0351 37.8931 52.8947 40.6462C51.7543 43.3992 50.0829 45.9007 47.9758 48.0078C45.8687 50.1149 43.3672 51.7864 40.6142 52.9267C37.8611 54.0671 34.9104 54.654 31.9305 54.654C31.8008 54.654 31.6647 54.654 31.5221 54.654H31.3859V63.9575H31.9759C36.173 63.9584 40.3291 63.1324 44.2069 61.5269C48.0848 59.9213 51.6084 57.5676 54.5764 54.6001C57.5445 51.6326 59.899 48.1095 61.5053 44.232C63.1117 40.3545 63.9385 36.1985 63.9385 32.0014V31.8912L54.622 31.8523Z" fill="#008CD6"/>
    <path d="M22.6004 18.8404L22.6846 18.9506L22.8013 19.3915L23.1125 19.8388L23.0347 20.4872L23.4173 20.8697L23.6118 21.4143L23.3265 21.894L23.1514 22.9508L23.7609 24.6753L24.7139 25.3885L25.0964 26.562L25.5956 28.2671C25.5956 28.2671 26.795 29.8036 26.808 29.862C27.0428 30.0011 27.2877 30.1225 27.5406 30.225L27.1581 29.5767L26.7756 28.7922L27.1387 28.3967L26.9831 27.9818H27.3721L27.586 26.925L28.5131 26.6203L28.6428 25.408L29.2911 24.2864L28.8502 23.3074L27.2878 22.659L26.7302 21.6995L25.9976 21.4856L25.5503 20.7854L24.3184 20.338L23.7544 20.9345L23.4108 20.5844L23.3524 19.6638L23.0866 19.4109L23.4691 18.6005L23.32 18.3088L22.9894 18.5616L23.4886 17.265L23.9683 17.0899L24.2536 17.8938L24.4286 17.0705L25.2974 16.3508L25.7188 15.3913L26.1078 15.5404L27.1646 15.1773L27.6444 14.6003L27.8194 15.0023L28.3056 14.7494L28.5131 13.7705L28.1889 13.388L27.1127 13.9455L27.1451 13.4398L27.8583 13.1157L28.6687 12.7461L28.7076 13.1546L29.4208 12.8823V12.4803L29.3884 12.2664C27.802 12.7164 26.3519 13.5523 25.1674 14.6995C23.9829 15.8466 23.101 17.2693 22.6004 18.8404Z" fill="#45BDCF"/>
    <path d="M41.292 21.2716L41.2531 20.0138L40.7538 20.1305L40.2287 19.573L39.4377 18.0105L40.2676 18.8987L40.676 19.5471L41.1558 19.1451L40.8122 17.9068L40.4621 17.453L40.7927 17.2779H40.89C39.7339 15.0648 37.791 13.3648 35.444 12.5127V12.8628L34.8411 12.7072H34.3224L33.9594 13.2388L34.4391 13.6862L35.1717 13.5889L35.2884 13.9585H34.6401L34.6271 14.3021L34.3224 14.5744L33.8556 14.73L34.2252 15.0736L34.0696 15.32H33.5444L33.3175 15.8775L33.8167 16.2406L34.5299 16.1044L34.9902 15.3589L35.4959 15.2033L36.3193 15.7025L36.2674 16.1433L36.611 15.9748L36.3063 15.2227L36.9546 15.8192L37.3566 15.9164L37.4733 15.3394L37.5122 14.7948L38.4588 15.2811L37.8558 15.5145L37.6873 15.9553L38.2059 16.2211L38.7246 16.1433L38.958 16.9797H38.2448L37.4344 16.7657L37.2983 17.0186L36.1442 16.7657L35.833 16.1174L34.7179 16.3313L34.2965 16.5842L33.7519 16.6231L33.3305 17.5437L32.6822 17.9651L32.3321 19.2618L32.4617 20.137L34.0242 21.8551L36.0081 21.3364L36.2026 21.719H36.8509L37.0649 21.9912L36.8509 22.6072L37.3696 23.3527V24.4938L36.9871 24.9541L37.2205 26.2443L36.9935 26.7046L37.2205 27.4372L37.0778 27.9818L38.1411 27.7095L39.6647 26.361V25.5895L40.5788 24.027L40.5204 23.2166L41.292 21.2716Z" fill="#ABCD05"/>
    <path d="M30.4583 12.3053L30.3805 12.5776L30.0174 12.7527L29.7256 13.3102L29.8553 13.5955L30.7824 12.999L31.541 12.9407L31.9753 12.5971L32.092 12.0914L31.4243 12.0525L30.4583 12.3053Z" fill="#45BDCF"/>
    <path d="M33.2721 13.8484L32.922 14.0234L32.9609 14.2698L33.2137 14.3087L33.4471 13.9456L33.6027 14.1596L33.499 14.5032H33.8491L34.2187 14.179L33.6416 13.7706L33.2721 13.615V13.8484Z" fill="#ABCD05"/>
    <path d="M24.0014 18.8273L24.6757 19.3071L25.0776 18.8597L23.9431 18.3411L24.0014 18.8273Z" fill="#45BDCF"/>
    <path d="M31.71 13.0574L31.8267 13.3102L32.4491 13.1935L32.099 12.9407L31.71 13.0574Z" fill="#45BDCF"/>
    <path d="M31.1459 48.3391L30.0502 49.8173C29.8676 50.0265 29.6095 50.1549 29.3325 50.1743C29.0555 50.1938 28.7821 50.1027 28.572 49.9211C28.456 49.8489 28.3553 49.7546 28.2759 49.6434C28.1964 49.5323 28.1397 49.4065 28.1089 49.2734C28.0782 49.1402 28.0741 49.0023 28.0968 48.8676C28.1196 48.7329 28.1687 48.604 28.2414 48.4883L29.3305 47.0101C29.5235 46.8345 29.7708 46.7304 30.0312 46.715C30.2916 46.6997 30.5494 46.774 30.7617 46.9256C30.9739 47.0772 31.1278 47.297 31.1977 47.5483C31.2676 47.7996 31.2493 48.0673 31.1459 48.3067M27.2235 47.7621C27.1528 47.9027 27.0515 48.0256 26.9271 48.1217C26.8026 48.2179 26.6581 48.2848 26.5042 48.3177C26.3504 48.3505 26.1911 48.3484 26.0383 48.3114C25.8854 48.2744 25.7427 48.2036 25.6209 48.1041C25.499 48.0047 25.4011 47.8791 25.3342 47.7367C25.2674 47.5943 25.2334 47.4387 25.2348 47.2814C25.2362 47.1241 25.2728 46.9691 25.3421 46.8279C25.4114 46.6867 25.5115 46.5628 25.6351 46.4655L27.2235 44.5205C27.2918 44.3752 27.3924 44.2473 27.5176 44.1467C27.6427 44.0461 27.7892 43.9753 27.9458 43.9397C28.1024 43.9042 28.265 43.9048 28.4214 43.9415C28.5777 43.9782 28.7236 44.0501 28.848 44.1516C28.9724 44.2532 29.0721 44.3818 29.1393 44.5276C29.2066 44.6734 29.2398 44.8327 29.2363 44.9932C29.2328 45.1538 29.1928 45.3114 29.1192 45.4542C29.0457 45.597 28.9406 45.7211 28.8119 45.8172L27.2235 47.7621ZM22.9575 46.5757C22.4583 46.2126 22.4777 45.3309 23.0029 44.6307L24.8312 42.1411C25.3628 41.428 26.1926 41.1427 26.6919 41.4928C27.1911 41.8429 27.1716 42.7311 26.6465 43.4378L24.8182 45.9209C24.2866 46.6405 23.4567 46.9193 22.9575 46.5692M20.7661 43.9759C20.553 43.8454 20.3992 43.6369 20.3375 43.3947C20.2757 43.1526 20.3109 42.8959 20.4355 42.6792L21.4015 41.3826C21.567 41.2062 21.794 41.1003 22.0355 41.0871C22.277 41.0738 22.5143 41.1541 22.6982 41.3113C22.9113 41.4418 23.0651 41.6503 23.1268 41.8925C23.1886 42.1346 23.1534 42.3913 23.0288 42.6079L22.0693 43.9046C21.8997 44.0885 21.6646 44.1984 21.4148 44.2105C21.1649 44.2227 20.9203 44.1361 20.7337 43.9694M44.0735 40.7732C43.5224 40.4036 41.9989 39.1005 41.9989 39.1005C39.6973 37.2463 32.6824 33.2331 32.6824 33.2331C31.9549 33.5321 31.2127 33.7939 30.4586 34.0176C30.0113 34.5298 29.6028 34.9382 29.6028 34.9382C27.4958 37.7649 26.1991 36.5785 26.1991 36.5785C25.6027 36.3905 27.4958 33.9852 27.4958 33.9852L28.9805 31.716C29.0907 31.1649 32.06 31.0158 32.06 31.0158C35.4767 30.4194 37.3633 31.0158 37.3633 31.0158C40.6698 32.2023 42.2258 31.3465 42.2258 31.3465L51.3931 23.5665C51.2051 23.1516 51.0106 22.7367 50.8032 22.3347L41.9016 30.0109C41.6909 30.2031 41.4379 30.3431 41.1632 30.4197C40.8884 30.4963 40.5995 30.5073 40.3197 30.4518C38.4112 29.9594 36.4546 29.6768 34.4848 29.609C34.4848 29.609 29.538 29.5636 28.3516 30.6981L27.7032 31.3465C26.4066 31.0547 17.6736 26.5424 12.6296 23.8972C12.487 24.2278 12.3638 24.5455 12.2406 24.9151C16.4483 26.9638 23.5345 30.6657 23.5345 30.6657C24.7675 31.2131 25.963 31.8412 27.1133 32.5459C25.2266 35.2689 25.084 36.1052 25.084 36.1052C24.8376 38.1345 27.1133 37.8362 27.1133 37.8362C29.2852 37.6417 31.1264 35.0484 31.1264 35.0484C32.274 34.4909 32.65 34.6724 32.65 34.6724C35.8916 36.1636 40.4299 39.5738 40.4299 39.5738C41.6847 40.4527 42.8742 41.4212 43.9892 42.4718C44.1319 44.3195 42.4657 43.8009 42.4657 43.8009L36.8771 40.4944C36.1574 40.2026 35.9889 40.4944 35.9889 40.4944C35.861 40.6069 35.7826 40.7651 35.7705 40.9349C35.7583 41.1048 35.8135 41.2725 35.924 41.402L41.5645 44.7733C41.5645 46.3747 39.9307 45.9468 39.9307 45.9468L35.2757 43.2563C34.394 42.9321 34.2773 43.4054 34.2773 43.4054C33.8299 43.8851 34.4199 44.2936 34.4199 44.2936L39.1333 46.9258C38.9906 48.8708 37.1883 47.9696 37.1883 47.9696L33.8105 46.2969C32.9612 45.7199 32.663 46.3747 32.663 46.3747C32.2156 47.1527 33.1816 47.412 33.1816 47.412L36.4816 48.9291C35.2952 50.8287 31.8461 49.156 31.8461 49.156C32.2545 48.8189 32.2545 47.9307 32.2545 47.9307C32.5527 45.9274 30.3938 45.48 30.3938 45.48C30.3938 42.8867 28.3581 42.6209 28.3581 42.6209C28.0209 41.1427 27.4698 40.8056 27.4698 40.8056C27.2365 40.5851 26.9544 40.4227 26.6465 40.3316C26.3385 40.2406 26.0135 40.2234 25.6977 40.2815C25.3819 40.3396 25.0843 40.4713 24.829 40.666C24.5736 40.8607 24.3678 41.1129 24.2282 41.402C22.6722 39.1005 20.5522 40.8056 20.5522 40.8056L11.6442 37.7455C11.7738 38.2058 11.91 38.6726 12.0656 39.1264L19.7872 41.7846C19.7872 41.7846 18.7952 43.4767 19.7158 44.5075C19.8859 44.8302 20.1432 45.0986 20.4585 45.282C20.7737 45.4654 21.1342 45.5565 21.4987 45.5449C21.4987 45.5449 21.1033 47.8724 24.1699 48.0669C24.1699 48.0669 24.8636 50.2452 26.9901 49.7006C26.9901 49.7006 27.2883 51.8336 29.6871 51.2826C30.3063 51.1092 30.8326 50.6993 31.1523 50.1415C31.1523 50.1415 35.159 52.0022 37.0327 50.1934C37.2972 49.9269 37.5007 49.6061 37.6291 49.2533C37.6291 49.2533 40.2225 49.5061 40.3003 47.2305C40.9044 47.2722 41.5009 47.0768 41.9634 46.6858C42.4258 46.2949 42.7176 45.7391 42.7769 45.1364C43.1998 45.1558 43.6203 45.0614 43.9943 44.863C44.3683 44.6645 44.6823 44.3694 44.9034 44.0083C45.1476 43.6964 45.2965 43.3206 45.3322 42.9261C45.3679 42.5316 45.2887 42.1352 45.1044 41.7846C45.1044 41.7846 45.7916 41.3048 47.2892 40.1767L52.8778 36.4423C52.9816 35.9172 53.0464 35.392 53.1177 34.8539C48.9749 37.6417 44.1124 40.8056 44.1124 40.8056" fill="#008CD6"/>
    <path d="M9.29054 31.9624C9.29054 31.9235 9.29054 31.8911 9.29054 31.8522H0V31.9624C0.000394275 40.338 3.28972 48.3786 9.1598 54.3529C15.0299 60.3273 23.0112 63.7577 31.3856 63.9055V54.602C25.4894 54.4335 19.8907 51.9757 15.7758 47.7495C11.661 43.5233 9.35348 37.8609 9.34241 31.9624" fill="#293BDB"/>
    <path d="M31.3852 0.0390625C23.1401 0.185845 15.2713 3.51556 9.42515 9.33149C3.579 15.1474 0.20857 22.9989 0.0190735 31.2431H9.34203C9.52382 25.466 11.9083 19.9773 16.0067 15.9017C20.1052 11.8262 25.6072 9.47254 31.3852 9.32312H31.5732V0.0390625H31.3852Z" fill="#D7083B"/>
    <path d="M54.622 31.8523L63.9187 31.8525C63.9187 31.6515 63.9187 31.444 63.9187 31.243H54.5893C54.5893 31.444 54.5893 31.645 54.5893 31.8525" fill="white"/>
    <path d="M31.5544 31.2493H31.3728V31.8587H31.5544V31.2493Z" fill="white"/>
    <path d="M19.4761 10.7492L17.1875 9.4979L17.1226 10.4834L17.9784 11.7541L17.2199 12.2598L14.3802 8.04565L15.1388 7.53347L16.3771 9.37472L16.5067 6.61933L17.4338 6.00342L17.2718 8.53838L20.3578 10.1527L19.4761 10.7492Z" fill="white"/>
    <path d="M21.5567 5.30342C21.4551 5.25638 21.3445 5.23202 21.2325 5.23202C21.1206 5.23202 21.01 5.25638 20.9084 5.30342C20.8039 5.34627 20.7105 5.41231 20.6352 5.49654C20.56 5.58078 20.5048 5.68101 20.474 5.78967C20.3897 6.05548 20.4416 6.28888 20.8241 7.19005C21.2066 8.09123 21.3363 8.29221 21.5826 8.42188C21.6841 8.46935 21.7948 8.49395 21.9068 8.49395C22.0188 8.49395 22.1295 8.46935 22.231 8.42188C22.3355 8.37903 22.4289 8.31299 22.5041 8.22876C22.5794 8.14452 22.6345 8.04429 22.6653 7.93563C22.7431 7.6763 22.6653 7.43642 22.3217 6.53524C21.9781 5.63407 21.7966 5.43957 21.5502 5.30991M23.4952 8.22738C23.4215 8.45445 23.2984 8.66235 23.1348 8.83612C22.9711 9.00989 22.7709 9.14519 22.5486 9.23229C22.3313 9.33324 22.0946 9.38554 21.8549 9.38554C21.6153 9.38554 21.3786 9.33324 21.1612 9.23229C20.5129 8.94054 20.2925 8.35056 19.9489 7.54015C19.6052 6.72974 19.3459 6.15273 19.5793 5.49144C19.656 5.26498 19.781 5.05786 19.9455 4.88437C20.1101 4.71088 20.3103 4.57515 20.5323 4.48653C20.7484 4.38527 20.9842 4.33278 21.2228 4.33278C21.4615 4.33278 21.6972 4.38527 21.9133 4.48653C22.5616 4.77828 22.7885 5.36177 23.1321 6.17218C23.4758 6.98259 23.7286 7.56609 23.4952 8.2209" fill="white"/>
    <path d="M26.1595 3.68909L25.3167 3.87062L25.6019 5.16727L26.4383 4.98574C26.5251 4.96904 26.6077 4.93475 26.6808 4.88497C26.7539 4.83519 26.816 4.77097 26.8634 4.69628C26.9108 4.62158 26.9424 4.53798 26.9562 4.45062C26.9701 4.36326 26.9659 4.27399 26.944 4.1883C26.9279 4.10224 26.8945 4.02034 26.8459 3.94753C26.7973 3.87472 26.7344 3.81251 26.6611 3.76465C26.5878 3.71678 26.5056 3.68427 26.4194 3.66905C26.3332 3.65384 26.2448 3.65624 26.1595 3.67612M27.7349 7.62444L26.4383 5.83505L25.7899 5.97768L26.2114 7.92267L25.3231 8.11716L24.2534 3.19635L26.0428 2.80736C26.2409 2.75812 26.447 2.75062 26.6482 2.78534C26.8493 2.82006 27.041 2.89624 27.2111 3.00904C27.3812 3.12184 27.526 3.26879 27.6363 3.44055C27.7466 3.61231 27.8199 3.80514 27.8516 4.00676C27.9254 4.28146 27.9113 4.57238 27.8113 4.83866C27.7113 5.10495 27.5304 5.33322 27.2941 5.49144L28.7787 7.43642L27.7349 7.62444Z" fill="white"/>
    <path d="M31.4308 7.32614C31.1988 7.33705 30.9671 7.29972 30.7503 7.21652C30.5335 7.13332 30.3363 7.00605 30.1711 6.84276C30.006 6.67947 29.8766 6.48371 29.791 6.26784C29.7054 6.05197 29.6655 5.82069 29.6738 5.58862L29.6089 2.24325H30.5166L30.5879 5.54324C30.5879 6.12673 30.9251 6.47034 31.4113 6.45738C31.8975 6.44441 32.2152 6.08783 32.2087 5.50433L32.1374 2.20435H33.0451L33.1099 5.53675C33.1287 5.76875 33.0993 6.00212 33.0234 6.22217C32.9476 6.44222 32.827 6.64418 32.6692 6.81533C32.5115 6.98647 32.32 7.1231 32.1069 7.21659C31.8937 7.31008 31.6635 7.35842 31.4308 7.35855" fill="white"/>
    <path d="M35.7033 7.62446C35.3867 7.59714 35.0804 7.49834 34.8075 7.33551C34.5346 7.17267 34.3022 6.95004 34.1278 6.68439L34.8215 6.14627C34.9422 6.31565 35.0978 6.45714 35.2779 6.56116C35.458 6.66519 35.6583 6.72932 35.8653 6.74922C36.397 6.83999 36.7146 6.66494 36.7795 6.26297C36.8103 6.11013 36.785 5.95132 36.7082 5.81563C36.613 5.69608 36.4807 5.61168 36.3321 5.57575L35.7875 5.4007C35.4558 5.31039 35.1637 5.11187 34.9577 4.83665C34.7731 4.52429 34.7151 4.15311 34.7956 3.79933C34.8212 3.58836 34.8915 3.38529 35.0019 3.20372C35.1124 3.02216 35.2603 2.8663 35.4359 2.74658C35.6115 2.62686 35.8106 2.54606 36.02 2.50959C36.2294 2.47311 36.4441 2.48181 36.6498 2.53509C36.9282 2.56494 37.1968 2.65454 37.4374 2.79776C37.678 2.94098 37.8848 3.13445 38.0437 3.36495L37.3954 3.88361C37.2904 3.74305 37.1571 3.62601 37.0041 3.54004C36.8511 3.45406 36.6819 3.40105 36.5072 3.3844C36.4193 3.35944 36.3271 3.35334 36.2367 3.36649C36.1463 3.37965 36.0597 3.41176 35.9826 3.46074C35.9054 3.50971 35.8395 3.57443 35.7891 3.65066C35.7388 3.72689 35.7051 3.8129 35.6903 3.90306C35.6763 3.96837 35.6754 4.0358 35.6877 4.10145C35.6999 4.1671 35.7251 4.22968 35.7616 4.28557C35.8635 4.41211 36.0014 4.50479 36.1571 4.55139L36.6887 4.72644C36.8678 4.76038 37.0376 4.83168 37.1873 4.93569C37.3369 5.0397 37.4629 5.17409 37.5571 5.33008C37.6514 5.48607 37.7116 5.66017 37.734 5.84102C37.7564 6.02187 37.7404 6.20541 37.6871 6.37967C37.6504 6.59386 37.5694 6.79804 37.4492 6.97913C37.3291 7.16023 37.1725 7.31428 36.9894 7.43143C36.8064 7.54857 36.6009 7.62625 36.3862 7.65949C36.1714 7.69273 35.9521 7.6808 35.7422 7.62446" fill="white"/>
    <path d="M41.5906 4.79777L40.2096 8.75905L39.3539 8.45434L40.7283 4.49954L39.5743 4.09757L39.8595 3.26123L43.0299 4.36339L42.7446 5.19973L41.5906 4.79777Z" fill="white"/>
    <path d="M42.2969 9.6018L44.767 5.16724L47.4511 6.67136L47.0232 7.43638L45.1366 6.38609L44.5531 7.42342L46.1674 8.32459L45.733 9.0961L44.1252 8.19493L43.5287 9.27764L45.4154 10.3279L44.9875 11.1059L42.2969 9.6018Z" fill="white"/>
    <path d="M47.1268 12.7915C46.9361 12.6467 46.7794 12.4621 46.6674 12.2504C46.5554 12.0388 46.4909 11.8053 46.4785 11.5662C46.4396 10.866 46.848 10.3798 47.4056 9.69903C47.9631 9.01828 48.3586 8.51907 49.0523 8.40237C49.2823 8.36982 49.5165 8.38589 49.7399 8.44954C49.9632 8.5132 50.1707 8.62303 50.349 8.77192C50.6934 9.04443 50.9189 9.43974 50.9781 9.8749C51.0373 10.3101 50.9257 10.7513 50.6667 11.1059L49.947 10.5159C50.055 10.3513 50.0988 10.1527 50.0701 9.95795C50.0414 9.76317 49.9422 9.58568 49.7914 9.45914C49.7048 9.38123 49.6004 9.32572 49.4874 9.29746C49.3744 9.26921 49.2562 9.26907 49.1431 9.29706C48.8708 9.34893 48.6763 9.49804 48.0604 10.2631C47.4445 11.0281 47.3213 11.2356 47.3278 11.5143C47.3279 11.6253 47.3531 11.7347 47.4014 11.8346C47.4496 11.9345 47.5197 12.0223 47.6065 12.0914C47.7608 12.2148 47.9552 12.2771 48.1525 12.2663C48.3499 12.2556 48.5363 12.1725 48.6763 12.033L49.3894 12.6165C49.0939 12.9403 48.6847 13.1372 48.2473 13.1662C47.8099 13.1952 47.3782 13.054 47.0425 12.7721" fill="white"/>
    <path d="M5.36154 34.1086L5.38748 34.4262L6.00987 34.3744L6.47018 34.6856L5.47824 35.3793L5.51066 35.7553L6.72951 34.8801L7.62421 35.496L7.58531 35.1005L6.44425 34.3355L7.50751 34.2382L7.48157 33.9141L5.36154 34.1086Z" fill="white"/>
    <path d="M6.87224 36.7602C6.91863 36.6919 6.93718 36.6084 6.9241 36.5268C6.91915 36.4856 6.90564 36.4458 6.88443 36.4101C6.86322 36.3743 6.83477 36.3434 6.80092 36.3194C6.66179 36.2621 6.50567 36.2621 6.36654 36.3194C6.22074 36.3266 6.08253 36.3865 5.97754 36.4879C5.9529 36.521 5.93554 36.5588 5.9266 36.5991C5.91766 36.6393 5.91735 36.681 5.92568 36.7213C5.93062 36.7626 5.94414 36.8023 5.96535 36.8381C5.98656 36.8738 6.01501 36.9047 6.04886 36.9288C6.18153 36.9951 6.3343 37.009 6.47676 36.9677C6.62584 36.9609 6.76695 36.8984 6.87224 36.7926M5.90623 37.1881C5.83656 37.1399 5.77798 37.0773 5.73438 37.0047C5.69079 36.932 5.66317 36.8509 5.65338 36.7667C5.63739 36.6849 5.63835 36.6007 5.65619 36.5193C5.67403 36.4379 5.70838 36.361 5.75711 36.2934C5.82653 36.2102 5.91257 36.1425 6.0097 36.0945C6.10682 36.0465 6.21291 36.0193 6.32116 36.0146C6.42385 35.9861 6.53119 35.9783 6.63693 35.9917C6.74266 36.005 6.84469 36.0393 6.93707 36.0924C7.07195 36.1927 7.16261 36.3415 7.18992 36.5074C7.22321 36.6759 7.18824 36.8508 7.09267 36.9936C6.94786 37.1551 6.74517 37.253 6.52862 37.2659C6.42119 37.2994 6.30787 37.3098 6.19613 37.2964C6.08439 37.283 5.97675 37.2461 5.88029 37.1881" fill="white"/>
    <path d="M7.19018 38.394C7.21667 38.3594 7.23508 38.3194 7.24405 38.2767C7.25303 38.2341 7.25234 38.19 7.24204 38.1477C7.23093 38.1071 7.21174 38.0693 7.1856 38.0364C7.15947 38.0035 7.12695 37.9762 7.08999 37.9562C7.05304 37.9362 7.01242 37.9239 6.97058 37.9201C6.92874 37.9162 6.88656 37.9208 6.84656 37.9337L5.94539 38.1347L5.87407 37.8429L7.35226 37.5058L7.42357 37.7976L7.26149 37.83C7.32947 37.866 7.38859 37.9167 7.43456 37.9783C7.48053 38.04 7.51221 38.1111 7.52731 38.1866C7.5455 38.2508 7.5497 38.3182 7.53963 38.3841C7.52957 38.4501 7.50547 38.5132 7.46896 38.5691L7.19018 38.394Z" fill="white"/>
    <path d="M7.49496 39.7815C7.54268 39.7404 7.5777 39.6866 7.59591 39.6264C7.61411 39.5661 7.61474 39.5019 7.59772 39.4413C7.5807 39.3807 7.54673 39.3262 7.49982 39.2843C7.4529 39.2423 7.39499 39.2146 7.33287 39.2044C7.26278 39.1857 7.18902 39.1857 7.11893 39.2044L7.31991 39.8528C7.38532 39.8351 7.44542 39.8017 7.49496 39.7555M6.91794 39.2563C6.86371 39.2647 6.81197 39.2849 6.76637 39.3155C6.72077 39.346 6.68242 39.3862 6.654 39.4332C6.62557 39.4801 6.60778 39.5327 6.60185 39.5873C6.59593 39.6419 6.60203 39.6971 6.61971 39.749C6.63521 39.8168 6.66607 39.8801 6.70991 39.9341C6.75375 39.988 6.80939 40.0312 6.87256 40.0602L6.74938 40.2936C6.65412 40.2486 6.57025 40.1827 6.50402 40.1007C6.43779 40.0188 6.39091 39.9229 6.36687 39.8203C6.26313 39.4508 6.36687 39.1072 6.91794 38.9451C7.46902 38.783 7.73484 38.9451 7.84505 39.3406C7.87108 39.4289 7.87801 39.5217 7.86537 39.6129C7.85273 39.7041 7.82081 39.7916 7.77175 39.8695C7.72268 39.9474 7.65758 40.0139 7.58079 40.0647C7.504 40.1155 7.41728 40.1493 7.32639 40.164L7.19672 40.2029L6.91794 39.2563Z" fill="white"/>
    <path d="M7.62436 41.4477L7.50118 41.1171C7.44283 40.942 7.33261 40.8837 7.20295 40.9355C7.07328 40.9874 7.0279 41.0911 7.09921 41.2662C7.17053 41.4412 7.17053 41.4607 7.27426 41.506C7.31117 41.5217 7.35086 41.5298 7.39096 41.5298C7.43106 41.5298 7.47076 41.5217 7.50766 41.506L7.62436 41.4477ZM6.97603 41.6876L7.1057 41.6422C7.03646 41.6119 6.9749 41.5665 6.92553 41.5093C6.87617 41.452 6.84025 41.3845 6.82043 41.3116C6.79154 41.2439 6.77665 41.1711 6.77665 41.0976C6.77665 41.0241 6.79154 40.9513 6.82043 40.8837C6.87891 40.776 6.97633 40.6948 7.09273 40.6567C7.32613 40.566 7.55953 40.6567 7.68271 41.0004L7.81886 41.3829L7.92259 41.3375C8.09764 41.2726 8.15599 41.1495 8.07171 40.929C8.0591 40.8671 8.02932 40.8099 7.98575 40.764C7.94219 40.7181 7.8866 40.6855 7.82534 40.6697L7.92907 40.4169C8.02527 40.4536 8.11132 40.5128 8.1801 40.5895C8.24887 40.6662 8.29839 40.7581 8.32455 40.8577C8.46719 41.2467 8.36994 41.506 8.04577 41.6227L7.09273 41.9728L6.97603 41.6876Z" fill="white"/>
    <path d="M9.6471 43.1852L9.43315 42.7508L8.83669 43.0425L9.04415 43.4769C9.05821 43.5215 9.08212 43.5623 9.11411 43.5964C9.1461 43.6304 9.18535 43.6568 9.22894 43.6736C9.27254 43.6905 9.31936 43.6972 9.36594 43.6935C9.41251 43.6897 9.45764 43.6755 9.49798 43.652C9.5407 43.6337 9.57899 43.6064 9.61025 43.572C9.64151 43.5376 9.66501 43.4969 9.67915 43.4526C9.69329 43.4083 9.69775 43.3615 9.69222 43.3154C9.68669 43.2693 9.6713 43.2248 9.6471 43.1852ZM8.14946 44.3262L8.76537 43.5288L8.58384 43.1592L7.77991 43.5547L7.63728 43.263L9.58226 42.3358L9.93885 43.0814C9.98296 43.1547 10.011 43.2365 10.0211 43.3214C10.0311 43.4064 10.023 43.4925 9.99726 43.574C9.97151 43.6556 9.9287 43.7307 9.87168 43.7944C9.81466 43.8582 9.74474 43.9091 9.66655 43.9437C9.55341 44.0042 9.42303 44.0243 9.29691 44.0008C9.17079 43.9772 9.05648 43.9113 8.97284 43.814L8.32451 44.6633L8.14946 44.3262Z" fill="white"/>
    <path d="M9.01815 45.9016L9.14781 45.8238C9.07531 45.8077 9.00711 45.7762 8.94783 45.7314C8.88855 45.6867 8.83957 45.6297 8.8042 45.5644C8.76556 45.507 8.73927 45.4423 8.72699 45.3742C8.71471 45.3061 8.71672 45.2362 8.73288 45.1689C8.75337 45.0938 8.79012 45.0241 8.84054 44.9647C8.89095 44.9053 8.9538 44.8577 9.02463 44.8253L9.86746 44.3326L10.0231 44.5984L9.21913 45.0652C9.17884 45.0806 9.14247 45.1048 9.11264 45.136C9.08281 45.1671 9.06027 45.2045 9.04663 45.2454C9.03298 45.2864 9.02859 45.3298 9.03375 45.3726C9.03892 45.4155 9.05352 45.4566 9.0765 45.4931C9.09684 45.5325 9.12552 45.567 9.16056 45.5941C9.19559 45.6213 9.23612 45.6404 9.27933 45.6503C9.32254 45.6602 9.36738 45.6605 9.41073 45.6513C9.45408 45.6421 9.4949 45.6235 9.53033 45.5968L10.3278 45.1365L10.4834 45.3959L9.18671 46.1609L9.01815 45.9016Z" fill="white"/>
    <path d="M9.75076 47.0946C9.6797 47.0037 9.62759 46.8995 9.59753 46.7881C9.56746 46.6768 9.56004 46.5605 9.57571 46.4462L9.86097 46.4981C9.8467 46.5772 9.84913 46.6585 9.86811 46.7367C9.88709 46.8148 9.9222 46.8881 9.97119 46.9519C10.0749 47.101 10.2111 47.1918 10.3278 47.1075C10.4445 47.0232 10.4315 46.9714 10.3602 46.8417L10.2435 46.6278C10.1073 46.3749 10.1268 46.1674 10.3472 46.0248C10.4064 45.9893 10.4724 45.9666 10.5409 45.9581C10.6094 45.9497 10.6789 45.9558 10.7449 45.976C10.8109 45.9961 10.872 46.03 10.9241 46.0752C10.9762 46.1205 11.0182 46.1762 11.0474 46.2388C11.1719 46.3995 11.2341 46.5998 11.2225 46.8028L10.9566 46.7445C10.9595 46.6118 10.9185 46.4819 10.8399 46.3749C10.7362 46.2258 10.613 46.1934 10.5223 46.2582C10.4315 46.323 10.4185 46.3879 10.5223 46.5305L10.639 46.7185C10.6824 46.7647 10.7146 46.8203 10.7332 46.8809C10.7518 46.9415 10.7563 47.0056 10.7462 47.0681C10.7362 47.1307 10.712 47.1902 10.6754 47.242C10.6388 47.2938 10.5909 47.3365 10.5352 47.3668C10.2759 47.5419 9.98416 47.4122 9.78317 47.1075" fill="white"/>
    <path d="M10.678 48.3912C10.5998 48.3036 10.5404 48.2009 10.5036 48.0893C10.4668 47.9778 10.4533 47.8599 10.4641 47.7429L10.7493 47.7818C10.7405 47.8607 10.748 47.9406 10.7714 48.0164C10.7949 48.0923 10.8337 48.1625 10.8855 48.2227C10.9957 48.3718 11.1383 48.4496 11.2485 48.3653C11.3588 48.281 11.3523 48.2162 11.2485 48.093L11.1189 47.8855C10.9633 47.6392 10.9698 47.4382 11.1772 47.2761C11.2349 47.2369 11.3002 47.2102 11.3689 47.1977C11.4376 47.1853 11.5081 47.1874 11.5759 47.2039C11.6437 47.2204 11.7073 47.2509 11.7626 47.2935C11.8179 47.3361 11.8636 47.3898 11.8969 47.4512C12.0276 47.6054 12.1009 47.8001 12.1043 48.0022L11.832 47.9633C11.8292 47.8292 11.7786 47.7005 11.6894 47.6003C11.5792 47.4576 11.4625 47.4317 11.3717 47.4965C11.281 47.5614 11.2745 47.6327 11.3717 47.7688L11.5014 47.9763C11.5462 48.0203 11.5805 48.0739 11.6016 48.133C11.6227 48.1922 11.63 48.2554 11.6232 48.3178C11.6163 48.3802 11.5954 48.4403 11.5619 48.4934C11.5285 48.5466 11.4834 48.5914 11.4301 48.6246C11.1772 48.8191 10.8855 48.7024 10.6651 48.4107" fill="white"/>
    <path d="M11.3849 49.2535L11.5794 49.4933L12.7399 48.5209L12.5454 48.2875L11.3849 49.2535ZM12.7723 48.0865L12.9733 48.3328L13.2197 48.1254L13.0187 47.8855L12.7723 48.0865Z" fill="white"/>
    <path d="M13.0123 50.0769L12.7724 49.8176C12.6427 49.6879 12.526 49.6749 12.4223 49.7657C12.3186 49.8565 12.325 49.9797 12.4547 50.1158C12.4838 50.1578 12.5213 50.1933 12.5648 50.2201C12.6083 50.2469 12.6569 50.2644 12.7076 50.2714C12.7489 50.2689 12.7893 50.2578 12.8261 50.2388C12.863 50.2199 12.8955 50.1934 12.9215 50.1612L13.0123 50.0769ZM12.5195 50.5437L12.6233 50.4465C12.5479 50.446 12.4736 50.4282 12.4062 50.3945C12.3387 50.3607 12.2799 50.312 12.2343 50.252C12.1792 50.2032 12.1351 50.1434 12.1049 50.0763C12.0747 50.0092 12.0592 49.9365 12.0592 49.863C12.0691 49.7431 12.1248 49.6316 12.2148 49.5518C12.2627 49.5072 12.3197 49.4736 12.3819 49.4534C12.4441 49.4332 12.51 49.427 12.5749 49.435C12.6398 49.443 12.7021 49.4652 12.7575 49.4999C12.813 49.5347 12.8601 49.5811 12.8956 49.6361L13.1679 49.9343L13.2522 49.863C13.3883 49.7333 13.3948 49.5972 13.2522 49.4221C13.2131 49.3709 13.1617 49.3303 13.1027 49.3043C13.0438 49.2782 12.9792 49.2674 12.915 49.273V49.0007C13.0184 48.9969 13.1212 49.0178 13.2148 49.0618C13.3084 49.1058 13.3901 49.1715 13.4531 49.2535C13.7319 49.5647 13.7514 49.837 13.492 50.0704L12.7465 50.7577L12.5195 50.5437Z" fill="white"/>
    <path d="M14.1403 52.1386C14.0297 52.0541 13.9387 51.9466 13.8738 51.8234C13.8089 51.7003 13.7715 51.5645 13.7643 51.4254H14.0625C14.0714 51.5247 14.1001 51.6211 14.1468 51.7091C14.1936 51.7971 14.2575 51.8748 14.3348 51.9376C14.5488 52.1256 14.7433 52.1451 14.8859 51.983C14.9407 51.9227 14.9708 51.844 14.9702 51.7626C14.9585 51.6776 14.9172 51.5995 14.8535 51.5421L14.6914 51.3476C14.5888 51.2388 14.523 51.1004 14.5034 50.9521C14.4989 50.8775 14.5098 50.8027 14.5354 50.7324C14.5611 50.6621 14.6009 50.5979 14.6525 50.5437C14.7132 50.4779 14.7869 50.4254 14.8689 50.3895C14.9509 50.3535 15.0395 50.335 15.129 50.335C15.2186 50.335 15.3071 50.3535 15.3892 50.3895C15.4712 50.4254 15.5448 50.4779 15.6056 50.5437C15.7021 50.6234 15.7813 50.722 15.8382 50.8335C15.8951 50.9451 15.9284 51.0671 15.9362 51.192H15.6445C15.6371 51.1085 15.6126 51.0274 15.5724 50.9537C15.5322 50.8801 15.4773 50.8156 15.4111 50.7641C15.3794 50.7272 15.3401 50.6975 15.2959 50.6771C15.2517 50.6568 15.2036 50.6463 15.155 50.6463C15.1063 50.6463 15.0582 50.6568 15.014 50.6771C14.9698 50.6975 14.9305 50.7272 14.8989 50.7641C14.8738 50.7909 14.8545 50.8226 14.8422 50.8572C14.8299 50.8918 14.8249 50.9285 14.8276 50.9651C14.8408 51.0533 14.8816 51.135 14.9443 51.1985L15.0999 51.3865C15.2002 51.4943 15.2657 51.6299 15.2879 51.7755C15.2944 51.8548 15.284 51.9346 15.2571 52.0096C15.2303 52.0845 15.1877 52.1528 15.1323 52.2099C15.0686 52.2799 14.9904 52.3351 14.9032 52.3716C14.816 52.4082 14.7218 52.4252 14.6272 52.4215C14.5327 52.4178 14.4402 52.3935 14.356 52.3502C14.2719 52.3069 14.1983 52.2458 14.1403 52.171" fill="white"/>
    <path d="M15.5992 53.3509C15.5179 53.2943 15.4506 53.2199 15.4026 53.1333C15.3545 53.0467 15.3269 52.9503 15.3219 52.8514C15.3169 52.7525 15.3346 52.6538 15.3737 52.5628C15.4128 52.4718 15.4722 52.391 15.5473 52.3265C15.592 52.2385 15.6562 52.1618 15.7351 52.1024C15.8139 52.0429 15.9053 52.0023 16.0022 51.9835C16.0992 51.9647 16.1991 51.9684 16.2944 51.9941C16.3897 52.0198 16.4779 52.067 16.5522 52.132C16.6303 52.1828 16.6947 52.2518 16.7399 52.3332C16.7851 52.4146 16.8097 52.5057 16.8116 52.5988L16.5263 52.6312C16.5268 52.5749 16.5142 52.5191 16.4894 52.4685C16.4647 52.4179 16.4285 52.3737 16.3837 52.3395C16.3426 52.306 16.2941 52.2826 16.2423 52.2714C16.1905 52.2601 16.1367 52.2612 16.0854 52.2746C15.9616 52.3183 15.8564 52.403 15.7872 52.5145C15.6942 52.6062 15.6367 52.728 15.6251 52.8581C15.6256 52.9125 15.6388 52.966 15.6635 53.0144C15.6883 53.0628 15.724 53.1047 15.7678 53.1369C15.8107 53.1741 15.8625 53.1996 15.9181 53.2109C15.9738 53.2223 16.0314 53.2191 16.0854 53.2017L16.1243 53.487C16.0322 53.5036 15.9375 53.5 15.8468 53.4765C15.7562 53.453 15.6717 53.4101 15.5992 53.3509Z" fill="white"/>
    <path d="M16.3575 53.8954L16.6038 54.0704L17.4856 52.8321L17.2327 52.6571L16.3575 53.8954ZM17.4013 52.3978L17.6671 52.5858L17.8551 52.3264L17.5893 52.1384L17.4013 52.3978Z" fill="white"/>
    <path d="M18.4193 53.9539C18.4289 53.8912 18.4199 53.827 18.3934 53.7694C18.3669 53.7118 18.324 53.6632 18.2702 53.6297C18.2179 53.5932 18.1557 53.5736 18.0919 53.5736C18.0281 53.5736 17.9659 53.5932 17.9136 53.6297C17.8537 53.6659 17.8045 53.7174 17.771 53.7788L18.3415 54.1484C18.3827 54.0907 18.4094 54.024 18.4193 53.9539ZM17.6543 53.9539C17.6183 53.9958 17.592 54.0451 17.5772 54.0984C17.5625 54.1516 17.5596 54.2075 17.5689 54.262C17.5782 54.3164 17.5994 54.3682 17.6309 54.4135C17.6625 54.4589 17.7037 54.4968 17.7515 54.5244C17.8083 54.5643 17.8734 54.5909 17.9418 54.6021C18.0103 54.6133 18.0805 54.6089 18.147 54.5892L18.2183 54.8486C18.1154 54.8772 18.0074 54.8827 17.902 54.8648C17.7967 54.8469 17.6966 54.8059 17.6089 54.7448C17.52 54.6977 17.4432 54.6306 17.3847 54.5488C17.3262 54.4669 17.2876 54.3725 17.2719 54.2732C17.2561 54.1738 17.2638 54.0721 17.2941 53.9762C17.3245 53.8802 17.3768 53.7927 17.4468 53.7205C17.4807 53.6296 17.5346 53.5475 17.6044 53.4802C17.6743 53.4129 17.7584 53.3622 17.8504 53.3317C17.9425 53.3012 18.0403 53.2918 18.1365 53.3041C18.2327 53.3164 18.3249 53.3501 18.4063 53.4028C18.4851 53.4517 18.5525 53.517 18.6038 53.5942C18.6552 53.6714 18.6895 53.7588 18.7042 53.8503C18.719 53.9419 18.7139 54.0356 18.6893 54.125C18.6648 54.2144 18.6214 54.2976 18.5619 54.3688L18.4841 54.479L17.6543 53.9539Z" fill="white"/>
    <path d="M19.392 55.7951L19.8329 54.9782C19.8672 54.9428 19.892 54.8993 19.905 54.8517C19.918 54.8041 19.9186 54.754 19.907 54.7061C19.8953 54.6582 19.8717 54.614 19.8384 54.5777C19.805 54.5413 19.763 54.5141 19.7162 54.4984C19.6788 54.4756 19.6368 54.4612 19.5932 54.4565C19.5496 54.4517 19.5055 54.4566 19.464 54.4709C19.4225 54.4851 19.3847 54.5083 19.3532 54.5389C19.3217 54.5694 19.2973 54.6065 19.2818 54.6475L18.841 55.4644L18.5687 55.3153L19.2948 53.9797L19.5606 54.1224L19.4893 54.2585C19.5601 54.2326 19.6357 54.2227 19.7108 54.2294C19.7859 54.2362 19.8586 54.2594 19.9237 54.2974C20.0481 54.3611 20.1433 54.4702 20.1895 54.6021C20.208 54.6777 20.2113 54.7562 20.199 54.833C20.1868 54.9098 20.1593 54.9834 20.1182 55.0495L19.6579 55.8988L19.392 55.7951Z" fill="white"/>
    <path d="M20.708 56.4435C20.5532 56.3396 20.4404 56.1839 20.39 56.0044C20.3396 55.8249 20.3547 55.6332 20.4328 55.4639C20.5108 55.2945 20.6466 55.1585 20.8159 55.0802C20.9851 55.0019 21.1767 54.9865 21.3563 55.0367C21.4422 55.0735 21.5192 55.1285 21.5818 55.1979C21.6445 55.2673 21.6914 55.3494 21.7194 55.4386L21.4406 55.5359C21.4304 55.4805 21.4067 55.4285 21.3717 55.3844C21.3366 55.3403 21.2913 55.3055 21.2396 55.283C21.1917 55.2575 21.1383 55.2441 21.084 55.2441C21.0298 55.2441 20.9763 55.2575 20.9284 55.283C20.8154 55.3506 20.7303 55.4564 20.6885 55.5813C20.6188 55.691 20.5912 55.8223 20.6107 55.9508C20.6224 56.0048 20.6467 56.0553 20.6817 56.0981C20.7166 56.1409 20.7612 56.1749 20.8117 56.1972C20.8619 56.2228 20.9175 56.2361 20.9738 56.2361C21.0302 56.2361 21.0857 56.2228 21.1359 56.1972L21.2396 56.4695C21.1543 56.509 21.0614 56.5294 20.9673 56.5294C20.8733 56.5294 20.7804 56.509 20.695 56.4695" fill="white"/>
    <path d="M22.8019 56.1323C22.7984 56.0681 22.7764 56.0063 22.7384 55.9545C22.7004 55.9027 22.6481 55.8631 22.588 55.8405C22.5303 55.8155 22.4664 55.809 22.4049 55.8217C22.3433 55.8345 22.2873 55.866 22.2443 55.9118C22.1899 55.9581 22.1494 56.0188 22.1276 56.0869L22.776 56.3397C22.8034 56.2741 22.8166 56.2034 22.8149 56.1323M22.0628 56.2879C22.036 56.3356 22.02 56.3885 22.0158 56.443C22.0116 56.4975 22.0193 56.5523 22.0384 56.6036C22.0575 56.6548 22.0876 56.7012 22.1266 56.7397C22.1655 56.7781 22.2123 56.8075 22.2638 56.826C22.3268 56.855 22.3954 56.8701 22.4648 56.8701C22.5342 56.8701 22.6027 56.855 22.6658 56.826L22.7825 57.0659C22.6822 57.1176 22.5711 57.1446 22.4583 57.1446C22.3455 57.1446 22.2344 57.1176 22.1341 57.0659C21.7776 56.9297 21.5701 56.6315 21.784 56.0934C21.998 55.5553 22.3027 55.445 22.6658 55.6071C22.7513 55.6409 22.8286 55.6925 22.8927 55.7584C22.9567 55.8243 23.006 55.9032 23.0373 55.9896C23.0686 56.0761 23.0811 56.1682 23.074 56.2598C23.067 56.3515 23.0405 56.4406 22.9964 56.5213L22.9445 56.6444L22.0628 56.2879Z" fill="white"/>
    <path d="M25.1424 56.0739C25.1161 56.0639 25.0879 56.0598 25.0599 56.0618C25.0318 56.0637 25.0045 56.0718 24.9798 56.0854C24.9552 56.0989 24.9338 56.1177 24.9171 56.1403C24.9004 56.1629 24.8888 56.1889 24.8831 56.2165C24.8744 56.3321 24.9016 56.4475 24.9609 56.5471L25.0776 56.5082C25.1748 56.4693 25.2591 56.4304 25.2915 56.3332C25.3055 56.2791 25.2977 56.2216 25.2698 56.1731C25.242 56.1247 25.1962 56.089 25.1424 56.0739ZM24.7858 56.8583C24.6043 56.9232 24.4487 56.9815 24.4033 57.1695C24.3888 57.2173 24.3844 57.2675 24.3905 57.317C24.3966 57.3665 24.413 57.4142 24.4386 57.457C24.4643 57.4997 24.4987 57.5366 24.5395 57.5653C24.5803 57.594 24.6267 57.6137 24.6756 57.6234C24.8208 57.665 24.9765 57.6488 25.11 57.578L24.7858 56.8583ZM25.3369 58.0772L25.2267 57.8308C25.1283 57.8841 25.0204 57.9173 24.909 57.9284C24.7977 57.9396 24.6853 57.9284 24.5784 57.8957C24.4927 57.8775 24.4116 57.8421 24.3399 57.7917C24.2683 57.7412 24.2076 57.6768 24.1615 57.6023C24.1155 57.5277 24.085 57.4447 24.072 57.358C24.0589 57.2714 24.0636 57.183 24.0856 57.0982C24.1321 56.9776 24.2092 56.8712 24.3092 56.7894C24.4092 56.7076 24.5288 56.6531 24.6562 56.6314C24.6082 56.5586 24.5755 56.4768 24.5599 56.3911C24.5443 56.3053 24.5462 56.2173 24.5654 56.1322C24.6078 56.009 24.6957 55.9066 24.811 55.8458C24.9263 55.7851 25.0604 55.7706 25.1861 55.8053C25.3117 55.84 25.4194 55.9213 25.4872 56.0327C25.5549 56.144 25.5777 56.277 25.5509 56.4045C25.5287 56.4795 25.487 56.5472 25.43 56.6008C25.3731 56.6543 25.3029 56.6917 25.2267 56.7092L25.0516 56.7741L25.3434 57.4224C25.4558 57.3217 25.5331 57.1876 25.5638 57.0399L25.8491 57.1177C25.7958 57.3483 25.6597 57.5513 25.4666 57.6882L25.7 58.1939L25.3369 58.0772Z" fill="white"/>
    <path d="M27.1519 56.5926L27.7289 56.6834L27.4372 58.5052L27.7549 58.5571L28.0531 56.7418L28.6301 56.8325L28.6755 56.5408L27.1973 56.3074L27.1519 56.5926Z" fill="white"/>
    <path d="M29.7645 57.6884C29.7441 57.6275 29.7061 57.5741 29.6554 57.5348C29.6046 57.4956 29.5433 57.4723 29.4793 57.4679C29.4155 57.4606 29.351 57.4728 29.2943 57.5029C29.2376 57.533 29.1913 57.5796 29.1616 57.6365C29.1292 57.6987 29.1115 57.7674 29.1097 57.8375L29.758 57.9023C29.7722 57.8317 29.7722 57.759 29.758 57.6884M29.1097 58.0449C29.1097 58.3108 29.2134 58.4858 29.4598 58.5053C29.5283 58.5168 29.5984 58.5123 29.6648 58.492C29.7312 58.4718 29.792 58.4363 29.8423 58.3886L30.0174 58.5831C29.939 58.6559 29.8454 58.7106 29.7434 58.7431C29.6414 58.7756 29.5335 58.7852 29.4274 58.7711C29.0514 58.7711 28.7791 58.5117 28.818 57.9282C28.8569 57.3447 29.1421 57.1827 29.5311 57.2151C29.6236 57.2229 29.7133 57.2506 29.7942 57.2961C29.8751 57.3416 29.9453 57.404 30 57.479C30.0547 57.554 30.0927 57.6398 30.1113 57.7308C30.13 57.8217 30.1289 57.9156 30.1081 58.006V58.1357L29.1097 58.0449Z" fill="white"/>
    <path d="M31.1457 58.8683C30.8086 58.8683 30.4974 58.6414 30.4974 58.0709C30.4974 57.5004 30.8605 57.3059 31.1976 57.3124C31.2912 57.3123 31.3838 57.3326 31.4688 57.3718C31.5539 57.411 31.6295 57.4681 31.6903 57.5393L31.4764 57.7402C31.4435 57.6946 31.4008 57.657 31.3514 57.63C31.3021 57.6031 31.2473 57.5876 31.1911 57.5847C31.1367 57.5821 31.0824 57.5925 31.0328 57.6151C30.9832 57.6376 30.9397 57.6716 30.9059 57.7143C30.8286 57.8188 30.7917 57.9478 30.8021 58.0774C30.7878 58.2086 30.8175 58.3408 30.8864 58.4534C30.917 58.4988 30.9587 58.5357 31.0074 58.5606C31.0562 58.5856 31.1105 58.5978 31.1652 58.596C31.2213 58.5995 31.2774 58.5888 31.3284 58.565C31.3793 58.5413 31.4235 58.5051 31.4569 58.4599L31.6644 58.6674C31.599 58.7364 31.5192 58.7901 31.4307 58.8249C31.3422 58.8596 31.2471 58.8744 31.1522 58.8683" fill="white"/>
    <path d="M33.0453 58.8294L33.0128 57.8958C33.0128 57.6624 32.8637 57.5651 32.6952 57.5716C32.6519 57.5711 32.609 57.58 32.5695 57.5978C32.53 57.6155 32.4948 57.6416 32.4664 57.6743C32.4381 57.707 32.4171 57.7455 32.4051 57.7871C32.3931 57.8287 32.3903 57.8724 32.3969 57.9152V58.8488H32.0922L32.0144 56.7093H32.3256V57.4808C32.3735 57.4254 32.432 57.3802 32.4977 57.3479C32.5634 57.3156 32.635 57.2968 32.7081 57.2928C32.7814 57.2871 32.855 57.2972 32.9241 57.3224C32.9931 57.3477 33.0559 57.3875 33.1082 57.4391C33.1604 57.4908 33.201 57.5531 33.2271 57.6218C33.2531 57.6906 33.2641 57.7641 33.2592 57.8374L33.2981 58.8164L33.0453 58.8294Z" fill="white"/>
    <path d="M34.8282 58.6802L34.731 57.7402C34.731 57.5003 34.5624 57.416 34.3939 57.4354C34.3506 57.4383 34.3085 57.4504 34.2703 57.4708C34.2321 57.4912 34.1987 57.5195 34.1723 57.5539C34.146 57.5883 34.1272 57.6278 34.1173 57.67C34.1075 57.7122 34.1067 57.756 34.1151 57.7985L34.2123 58.7191H33.9076L33.752 57.215H34.0503V57.3641C34.1135 57.271 34.205 57.2007 34.3113 57.1635C34.4176 57.1263 34.533 57.1243 34.6405 57.1577C34.748 57.1912 34.8419 57.2582 34.9084 57.3491C34.9749 57.4399 35.0104 57.5498 35.0098 57.6623L35.107 58.6219L34.8282 58.6802Z" fill="white"/>
    <path d="M36.3 57.2799C36.267 57.2553 36.2291 57.2379 36.1889 57.229C36.1486 57.22 36.107 57.2197 36.0666 57.2281C36.0266 57.2342 35.9882 57.2483 35.9537 57.2694C35.9192 57.2906 35.8893 57.3184 35.8656 57.3512C35.8121 57.4888 35.8121 57.6415 35.8656 57.7791C35.8675 57.8524 35.8839 57.9245 35.914 57.9913C35.944 58.0581 35.9871 58.1182 36.0407 58.1681C36.0732 58.1939 36.1108 58.2124 36.1511 58.2225C36.1913 58.2325 36.2332 58.2339 36.2741 58.2265C36.3549 58.2099 36.4266 58.1636 36.475 58.0968C36.5429 57.962 36.5545 57.8058 36.5075 57.6624C36.5051 57.5903 36.4884 57.5193 36.4584 57.4536C36.4283 57.3879 36.3855 57.3289 36.3324 57.2799M36.7344 58.233C36.6352 58.3703 36.4863 58.4634 36.3194 58.4923C36.2377 58.5083 36.1535 58.5073 36.072 58.4895C35.9906 58.4716 35.9138 58.4373 35.8462 58.3886C35.7646 58.3191 35.6979 58.2339 35.65 58.1381C35.6021 58.0424 35.574 57.9379 35.5674 57.831C35.5321 57.7241 35.5202 57.6109 35.5325 57.4991C35.5448 57.3872 35.581 57.2793 35.6387 57.1827C35.6856 57.1132 35.747 57.0546 35.8186 57.011C35.8902 56.9674 35.9704 56.9397 36.0536 56.9298C36.2201 56.8983 36.3923 56.9332 36.5334 57.0271C36.6757 57.1829 36.7703 57.3763 36.806 57.5843C36.8416 57.7924 36.8167 58.0062 36.7344 58.2006" fill="white"/>
    <path d="M37.8105 58.1681C37.7571 58.1846 37.7008 58.1893 37.6454 58.1817C37.59 58.1741 37.537 58.1545 37.49 58.1242C37.4431 58.0939 37.4033 58.0537 37.3736 58.0064C37.3438 57.9591 37.3248 57.9059 37.3178 57.8504L36.9353 56.1777L37.2335 56.1129L37.6095 57.7402C37.6095 57.8504 37.6873 57.9023 37.804 57.8763H37.9402L37.9921 58.1292L37.8105 58.1681Z" fill="white"/>
    <path d="M38.8738 56.6704C38.8359 56.6542 38.7951 56.6459 38.7538 56.6459C38.7126 56.6459 38.6718 56.6542 38.6339 56.6704C38.5942 56.6794 38.5569 56.6968 38.5244 56.7214C38.492 56.746 38.4652 56.7773 38.4459 56.8131C38.3942 56.951 38.3942 57.103 38.4459 57.241C38.472 57.3871 38.5476 57.5199 38.6598 57.617C38.6977 57.6332 38.7385 57.6416 38.7798 57.6416C38.821 57.6416 38.8618 57.6332 38.8997 57.617C38.9807 57.5929 39.0499 57.5398 39.0942 57.4679C39.1246 57.3255 39.1199 57.1779 39.0803 57.0378C39.0408 56.8977 38.9677 56.7694 38.8673 56.664M39.3665 57.5846C39.2781 57.73 39.136 57.8348 38.971 57.8763C38.8924 57.903 38.809 57.9127 38.7263 57.9049C38.6436 57.897 38.5635 57.8719 38.4913 57.831C38.3296 57.6919 38.2126 57.5082 38.1549 57.3029C38.0972 57.0976 38.1015 56.8798 38.1671 56.6769C38.2078 56.603 38.2633 56.5383 38.3303 56.487C38.3973 56.4356 38.4741 56.3988 38.5561 56.3787C38.7187 56.3319 38.8932 56.3505 39.0423 56.4306C39.1312 56.4907 39.2069 56.5682 39.2649 56.6585C39.3228 56.7488 39.3618 56.8499 39.3795 56.9557C39.423 57.0583 39.4454 57.1685 39.4454 57.2799C39.4454 57.3913 39.423 57.5015 39.3795 57.604" fill="white"/>
    <path d="M40.1831 56.1648C39.9237 56.2555 39.9626 56.4889 40.0469 56.7158C40.1312 56.9427 40.2349 57.1502 40.4943 57.0659C40.7536 56.9817 40.7082 56.7353 40.6304 56.5084C40.5526 56.2815 40.4424 56.074 40.1831 56.1648ZM40.773 57.9606C40.6833 58.0007 40.5861 58.0214 40.4878 58.0214C40.3895 58.0214 40.2923 58.0007 40.2025 57.9606L40.3192 57.7078C40.3763 57.7336 40.4381 57.7469 40.5007 57.7469C40.5633 57.7469 40.6252 57.7336 40.6823 57.7078C40.7299 57.6934 40.7737 57.6687 40.8106 57.6354C40.8475 57.6022 40.8766 57.5611 40.8959 57.5153C40.9151 57.4694 40.9239 57.4199 40.9217 57.3702C40.9195 57.3206 40.9064 57.272 40.8833 57.228L40.8249 57.04C40.798 57.105 40.7584 57.1639 40.7086 57.2135C40.6587 57.2631 40.5995 57.3023 40.5344 57.3288C40.4692 57.3553 40.3995 57.3687 40.3292 57.3681C40.2589 57.3675 40.1894 57.3529 40.1247 57.3253C39.9547 57.1895 39.8263 57.0088 39.754 56.8036C39.6818 56.5984 39.6687 56.377 39.7163 56.1648C39.7791 56.0464 39.8864 55.9577 40.0145 55.9184C40.0847 55.8896 40.1608 55.8781 40.2364 55.8848C40.312 55.8916 40.3849 55.9165 40.4489 55.9573L40.397 55.7952L40.6758 55.698L41.175 57.1178C41.2085 57.1974 41.2245 57.2832 41.2219 57.3694C41.2194 57.4557 41.1984 57.5404 41.1603 57.6179C41.1222 57.6953 41.0679 57.7637 41.0011 57.8184C40.9343 57.873 40.8565 57.9127 40.773 57.9347" fill="white"/>
    <path d="M42.3034 57.014C42.3187 57.0845 42.3187 57.1574 42.3034 57.2279C42.2525 57.3332 42.1649 57.4162 42.0571 57.4613L41.9469 57.5067L41.8367 57.2539H41.908C42.0247 57.202 42.0506 57.1501 42.0441 57.0205V56.7676L40.9873 55.6395L41.2856 55.5164L42.0376 56.3592L41.9404 55.2376L42.2451 55.1079L42.3034 57.014Z" fill="white"/>
    <path d="M44.4815 55.6396C44.3924 55.6922 44.2934 55.7257 44.1907 55.738C44.0881 55.7503 43.9839 55.7411 43.885 55.711C43.5997 55.6267 43.4895 55.4192 43.295 55.0626C43.1005 54.706 42.9838 54.4921 43.0681 54.2133C43.0975 54.1131 43.1464 54.0196 43.212 53.9384C43.2777 53.8572 43.3588 53.7898 43.4506 53.74C43.6112 53.6453 43.8019 53.6154 43.9838 53.6563C44.1657 53.6973 44.3251 53.806 44.4296 53.9605L44.1443 54.1096C44.0821 54.0266 43.9915 53.9695 43.8898 53.9492C43.7882 53.9289 43.6826 53.9467 43.5933 53.9994C43.5407 54.0252 43.4941 54.0616 43.4561 54.1062C43.4182 54.1508 43.3899 54.2027 43.3728 54.2587C43.3339 54.4143 43.3728 54.531 43.5803 54.907C43.7878 55.2831 43.8656 55.3803 44.0082 55.4322C44.0639 55.4498 44.1228 55.4555 44.1809 55.4488C44.239 55.4421 44.295 55.4231 44.3453 55.3933C44.4389 55.3469 44.5124 55.268 44.5518 55.1712C44.5912 55.0745 44.5938 54.9667 44.5593 54.8681L44.838 54.7125C44.9094 54.8842 44.9122 55.0767 44.8459 55.2504C44.7796 55.4241 44.6491 55.5657 44.4815 55.6461" fill="white"/>
    <path d="M45.6485 53.5714C45.609 53.5617 45.5679 53.5601 45.5277 53.5668C45.4876 53.5734 45.4492 53.5883 45.4151 53.6103C45.3443 53.6544 45.2932 53.7241 45.2724 53.8048C45.2641 53.9534 45.3128 54.0995 45.4086 54.2133C45.4993 54.3559 45.5901 54.4791 45.7198 54.5115C45.8026 54.5282 45.8887 54.5119 45.9597 54.4661C46.0271 54.42 46.0755 54.3508 46.0958 54.2716C46.1041 54.1231 46.0554 53.977 45.9597 53.8632C45.9304 53.7959 45.8877 53.7353 45.8342 53.6852C45.7807 53.635 45.7175 53.5963 45.6485 53.5714ZM46.3876 54.3041C46.3488 54.469 46.2471 54.6122 46.1041 54.7031C45.9612 54.794 45.7883 54.8253 45.6225 54.7903C45.5198 54.7565 45.4249 54.7024 45.3436 54.6311C45.2623 54.5598 45.1962 54.4728 45.1492 54.3754C45.0828 54.2922 45.0336 54.1966 45.0046 54.0942C44.9757 53.9917 44.9675 53.8845 44.9807 53.7789C44.9973 53.6965 45.0313 53.6185 45.0805 53.5503C45.1297 53.4821 45.193 53.4252 45.2659 53.3834C45.4087 53.2879 45.5836 53.2529 45.7522 53.2862C45.8532 53.32 45.9464 53.3735 46.0266 53.4436C46.1067 53.5137 46.1721 53.599 46.219 53.6946C46.2882 53.7788 46.3389 53.8765 46.368 53.9814C46.397 54.0864 46.4037 54.1963 46.3876 54.3041Z" fill="white"/>
    <path d="M46.9455 52.6249C46.9053 52.6197 46.8644 52.6228 46.8254 52.6339C46.7864 52.6451 46.75 52.664 46.7186 52.6897C46.684 52.7122 46.6546 52.7417 46.6322 52.7763C46.6099 52.811 46.5951 52.8499 46.5889 52.8907C46.6144 53.0299 46.6723 53.1611 46.7579 53.2737C46.8435 53.3863 46.9544 53.4772 47.0817 53.539C47.1229 53.5444 47.1649 53.5414 47.2049 53.5303C47.245 53.5191 47.2825 53.5001 47.3151 53.4742C47.349 53.4517 47.3777 53.4221 47.399 53.3874C47.4202 53.3526 47.4337 53.3137 47.4383 53.2732C47.4405 53.1996 47.4272 53.1264 47.3993 53.0582C47.3713 52.9901 47.3294 52.9286 47.2762 52.8777C47.2421 52.8118 47.1954 52.7532 47.1386 52.7054C47.0819 52.6576 47.0163 52.6214 46.9455 52.599M47.7365 53.2862C47.706 53.4507 47.6131 53.597 47.4772 53.6946C47.4115 53.7474 47.3353 53.7857 47.2537 53.807C47.1721 53.8282 47.087 53.8319 47.0039 53.8178C46.8995 53.7923 46.8014 53.7458 46.7156 53.6812C46.6297 53.6165 46.558 53.5351 46.5047 53.4418C46.4332 53.3631 46.3781 53.271 46.3425 53.1708C46.3069 53.0707 46.2915 52.9644 46.2972 52.8583C46.309 52.7748 46.3382 52.6948 46.3829 52.6233C46.4275 52.5519 46.4867 52.4906 46.5565 52.4434C46.6222 52.3905 46.6984 52.3523 46.78 52.331C46.8615 52.3098 46.9467 52.3061 47.0298 52.3202C47.1333 52.3457 47.2305 52.3923 47.3152 52.457C47.4 52.5217 47.4706 52.6031 47.5225 52.6962C47.5966 52.7747 47.6537 52.8676 47.6905 52.9691C47.7273 53.0705 47.743 53.1784 47.7365 53.2862Z" fill="white"/>
    <path d="M48.0736 51.6264C47.8596 51.808 47.9828 52.0154 48.1579 52.2164C48.3329 52.4174 48.5145 52.5795 48.7219 52.3979C48.9294 52.2164 48.8127 52.0154 48.6376 51.808C48.4626 51.6005 48.2811 51.4514 48.0736 51.6264ZM49.1563 52.2164C49.137 52.3496 49.0674 52.4702 48.9618 52.5535C48.9087 52.6075 48.8428 52.6471 48.7702 52.6687C48.6977 52.6902 48.6208 52.693 48.5469 52.6767L49.0461 53.2667L48.8127 53.4677L47.4317 51.8339L47.6651 51.6459L47.7624 51.7691C47.7592 51.6921 47.7753 51.6156 47.8092 51.5465C47.8432 51.4774 47.894 51.418 47.9569 51.3736C48.0574 51.2814 48.1901 51.2325 48.3264 51.2374C48.5496 51.288 48.7447 51.4227 48.871 51.6135C49.0392 51.771 49.1412 51.9865 49.1563 52.2164Z" fill="white"/>
    <path d="M49.6162 50.4595C49.5594 50.4327 49.4956 50.4246 49.4339 50.4362C49.3722 50.4479 49.3158 50.4787 49.2726 50.5243C49.2244 50.567 49.19 50.6232 49.1739 50.6855C49.1577 50.7479 49.1605 50.8136 49.1818 50.8744C49.2091 50.9397 49.2487 50.9991 49.2985 51.0494L49.7913 50.5762C49.7439 50.5229 49.6836 50.4827 49.6162 50.4595ZM49.4476 51.205C49.4801 51.2487 49.5215 51.2848 49.5692 51.3108C49.6169 51.3369 49.6697 51.3523 49.7239 51.356C49.7782 51.3597 49.8326 51.3516 49.8834 51.3322C49.9342 51.3129 49.9801 51.2828 50.0182 51.2439C50.0701 51.1975 50.1114 51.1405 50.1394 51.0768C50.1673 51.013 50.1813 50.944 50.1803 50.8744H50.4461C50.448 50.9806 50.4269 51.0859 50.3844 51.1833C50.3419 51.2806 50.2789 51.3676 50.1997 51.4384C49.9274 51.7043 49.5514 51.7691 49.1689 51.3542C49.0893 51.2994 49.023 51.2275 48.9748 51.1437C48.9266 51.06 48.8977 50.9666 48.8902 50.8703C48.8828 50.7739 48.8969 50.6772 48.9317 50.587C48.9664 50.4969 49.0209 50.4156 49.0911 50.3493C49.1573 50.2848 49.2365 50.2353 49.3234 50.2039C49.4103 50.1726 49.5029 50.1602 49.595 50.1676C49.687 50.175 49.7765 50.2019 49.8573 50.2467C49.9381 50.2914 50.0084 50.3529 50.0636 50.4271L50.1543 50.5243L49.4476 51.205Z" fill="white"/>
    <path d="M50.699 49.2147C50.6561 49.2114 50.613 49.2185 50.5735 49.2354C50.534 49.2524 50.4992 49.2786 50.472 49.312C50.4436 49.3447 50.4221 49.3828 50.4089 49.424C50.3957 49.4653 50.3911 49.5088 50.3953 49.552C50.3996 49.5951 50.4126 49.6369 50.4336 49.6748C50.4546 49.7126 50.4831 49.7458 50.5174 49.7723L51.1657 50.4206L50.9583 50.6475L49.8432 49.6102L50.0441 49.3963L50.1608 49.5065C50.1509 49.43 50.1586 49.3523 50.1833 49.2793C50.208 49.2062 50.2491 49.1398 50.3035 49.0851C50.3463 49.0335 50.3997 48.9917 50.4601 48.9626C50.5206 48.9336 50.5865 48.9178 50.6536 48.9165L50.699 49.2147Z" fill="white"/>
    <path d="M51.9308 48.5145L51.6974 48.7932C51.5872 48.9294 51.5937 49.0526 51.6974 49.1433C51.8012 49.2341 51.9179 49.2146 52.041 49.0591C52.0796 49.0255 52.1096 48.9834 52.1288 48.9361C52.1479 48.8888 52.1556 48.8376 52.1513 48.7868C52.1459 48.7466 52.1314 48.7082 52.109 48.6745C52.0865 48.6408 52.0566 48.6126 52.0216 48.5923L51.9308 48.5145ZM52.4495 48.9359L52.3458 48.8516C52.3536 48.9254 52.3456 49.0001 52.3221 49.0706C52.2986 49.1411 52.2602 49.2057 52.2096 49.26C52.1694 49.3221 52.116 49.3746 52.0533 49.4138C51.9905 49.453 51.92 49.478 51.8465 49.4869C51.7262 49.4943 51.6078 49.4548 51.5159 49.3767C51.3149 49.2146 51.289 48.9618 51.5159 48.6895L51.7687 48.3783L51.6845 48.3135C51.5353 48.1903 51.4057 48.2097 51.2566 48.3913C51.2093 48.4347 51.1751 48.4905 51.1579 48.5524C51.1407 48.6143 51.1412 48.6798 51.1593 48.7414H50.887C50.8672 48.6412 50.8728 48.5377 50.9034 48.4402C50.9339 48.3428 50.9885 48.2546 51.0621 48.1838C51.3214 47.8596 51.5937 47.8078 51.8595 48.0282L52.644 48.6765L52.4495 48.9359Z" fill="white"/>
    <path d="M53.2667 47.8661C53.2366 47.9133 53.1967 47.9535 53.1497 47.9838C53.1027 48.0142 53.0497 48.034 52.9943 48.042C52.9389 48.05 52.8824 48.046 52.8287 48.0302C52.7751 48.0144 52.7254 47.9872 52.6832 47.9504L52.0349 47.4577L51.9312 47.5938L51.7431 47.4577L51.8469 47.315L51.4838 47.0428L51.6653 46.7964L52.0349 47.0687L52.2099 46.8353L52.398 46.9714L52.2229 47.2113L52.8712 47.6976C52.8881 47.7135 52.9083 47.7255 52.9304 47.7326C52.9525 47.7397 52.9759 47.7417 52.9989 47.7386C53.0219 47.7355 53.0439 47.7273 53.0633 47.7146C53.0828 47.7019 53.0991 47.685 53.1111 47.6651L53.1889 47.5679L53.3964 47.717L53.2667 47.8661Z" fill="white"/>
    <path d="M52.3914 46.4787L53.6492 47.328L53.8177 47.0752L52.56 46.2259L52.3914 46.4787ZM51.8663 46.1286L52.1386 46.3166L52.3201 46.0508L52.0478 45.8628L51.8663 46.1286Z" fill="white"/>
    <path d="M53.539 45.3051C53.4574 45.3251 53.3871 45.3766 53.3433 45.4482C53.2996 45.5199 53.286 45.606 53.3056 45.6877C53.3056 45.8173 53.4676 45.9081 53.6103 45.9924C53.7254 46.0853 53.8711 46.1315 54.0187 46.122C54.0591 46.1127 54.0972 46.0953 54.1307 46.0708C54.1641 46.0463 54.1922 46.0152 54.2132 45.9794C54.2575 45.9078 54.2715 45.8215 54.2521 45.7395C54.2521 45.6099 54.09 45.5126 53.9539 45.4348C53.8381 45.3385 53.689 45.2919 53.539 45.3051ZM54.5309 45.6358C54.5701 45.8016 54.5424 45.9763 54.4539 46.1219C54.3653 46.2675 54.2229 46.3723 54.0576 46.4138C53.9504 46.4292 53.8411 46.4228 53.7364 46.395C53.6316 46.3671 53.5336 46.3184 53.4482 46.2517C53.351 46.2078 53.2639 46.1443 53.1925 46.065C53.1211 45.9858 53.0669 45.8926 53.0333 45.7914C52.9921 45.6246 53.0189 45.4483 53.1076 45.3012C53.1963 45.1541 53.3398 45.0483 53.5065 45.0069C53.7208 44.9824 53.9364 45.0404 54.1095 45.169C54.2073 45.2148 54.295 45.2797 54.3673 45.3598C54.4397 45.44 54.4953 45.5338 54.5309 45.6358Z" fill="white"/>
    <path d="M55.4516 44.2873L54.6347 43.8594C54.6 43.8331 54.5597 43.8149 54.517 43.8062C54.4743 43.7975 54.4302 43.7985 54.3879 43.809C54.3456 43.8196 54.3062 43.8395 54.2726 43.8673C54.2391 43.8951 54.2121 43.9301 54.1938 43.9696C54.171 44.0071 54.1567 44.0491 54.1519 44.0927C54.1472 44.1363 54.1521 44.1804 54.1663 44.2219C54.1806 44.2634 54.2038 44.3012 54.2343 44.3327C54.2648 44.3642 54.3019 44.3885 54.343 44.404L55.1663 44.8319L55.0237 45.1042L53.6817 44.3975L53.8178 44.1252L53.954 44.1966C53.9281 44.1258 53.9181 44.0501 53.9249 43.975C53.9316 43.8999 53.9548 43.8273 53.9929 43.7622C54.0516 43.6374 54.1561 43.5399 54.2846 43.4899C54.3611 43.4697 54.4409 43.4656 54.519 43.4778C54.5971 43.4901 54.6719 43.5185 54.7384 43.5612L55.5942 44.0085L55.4516 44.2873Z" fill="white"/>
    <path d="M56.4564 42.0636C56.4205 42.1613 56.3653 42.2507 56.294 42.3264C56.2226 42.4022 56.1368 42.4628 56.0414 42.5045C55.7691 42.6212 55.5487 42.5045 55.1662 42.3813C54.7837 42.2581 54.5633 42.1479 54.4466 41.8756C54.4048 41.7794 54.3832 41.6757 54.3832 41.5709C54.3832 41.466 54.4048 41.3623 54.4466 41.2662C54.5074 41.0899 54.6332 40.9436 54.7982 40.8568C54.9632 40.7701 55.1551 40.7496 55.3348 40.7994L55.2116 41.1106C55.1103 41.0865 55.0037 41.1003 54.9118 41.1492C54.8199 41.1982 54.749 41.2789 54.7124 41.3764C54.6899 41.4297 54.6783 41.487 54.6783 41.5449C54.6783 41.6028 54.6899 41.6601 54.7124 41.7135C54.7837 41.8561 54.8874 41.921 55.2894 42.083C55.6913 42.2451 55.808 42.2646 55.9377 42.2062C55.992 42.183 56.0411 42.1493 56.0823 42.107C56.1234 42.0647 56.1558 42.0147 56.1776 41.9599C56.2169 41.8633 56.2203 41.7558 56.1869 41.657C56.1536 41.5582 56.0859 41.4747 55.9961 41.4218L56.1192 41.117C56.2821 41.2055 56.4058 41.3518 56.4658 41.5271C56.5259 41.7024 56.5179 41.8939 56.4434 42.0636" fill="white"/>
    <path d="M56.0996 39.7296C56.0364 39.7325 55.976 39.7565 55.9278 39.7975C55.8797 39.8386 55.8466 39.8945 55.8337 39.9565C55.812 40.0162 55.809 40.0811 55.8252 40.1425C55.8415 40.2039 55.8761 40.2589 55.9245 40.3001C55.9748 40.3488 56.0377 40.3824 56.106 40.3973L56.3135 39.749C56.2434 39.7303 56.1697 39.7303 56.0996 39.749M56.307 40.4816C56.3567 40.5054 56.411 40.518 56.466 40.5185C56.5211 40.519 56.5756 40.5074 56.6257 40.4845C56.6758 40.4616 56.7203 40.428 56.7559 40.3861C56.7916 40.3441 56.8176 40.2949 56.8322 40.2417C56.8552 40.177 56.8636 40.108 56.8569 40.0396C56.8502 39.9713 56.8285 39.9053 56.7933 39.8463L57.0202 39.7101C57.0802 39.806 57.1167 39.9147 57.1269 40.0273C57.137 40.1399 57.1204 40.2534 57.0785 40.3584C56.9683 40.7215 56.6831 40.9484 56.1385 40.7734C55.5939 40.5983 55.4901 40.3001 55.5874 39.9305C55.6149 39.8428 55.6608 39.7619 55.722 39.6933C55.7832 39.6246 55.8582 39.5698 55.9423 39.5324C56.0263 39.495 56.1173 39.4759 56.2092 39.4763C56.3012 39.4768 56.392 39.4968 56.4756 39.5351L56.6053 39.5804L56.307 40.4816Z" fill="white"/>
    <path d="M57.6038 38.2902L56.7027 38.0763C56.6624 38.0602 56.6191 38.0531 56.5758 38.0555C56.5326 38.0579 56.4903 38.0697 56.452 38.09C56.4138 38.1104 56.3804 38.1389 56.3543 38.1734C56.3281 38.208 56.3099 38.2479 56.3007 38.2902C56.2881 38.333 56.285 38.378 56.2917 38.4221C56.2984 38.4662 56.3147 38.5082 56.3395 38.5453C56.3642 38.5824 56.3968 38.6137 56.4349 38.6368C56.473 38.6599 56.5157 38.6744 56.56 38.6792L57.4612 38.8997L57.3899 39.1914L55.9117 38.8413L55.983 38.5431L56.1256 38.582C56.0849 38.5182 56.0581 38.4466 56.0469 38.3717C56.0357 38.2969 56.0405 38.2205 56.0608 38.1476C56.0725 38.081 56.0975 38.0174 56.1343 37.9606C56.171 37.9038 56.2188 37.855 56.2748 37.817C56.3423 37.7762 56.4181 37.751 56.4966 37.7431C56.575 37.7353 56.6543 37.745 56.7286 37.7716L57.6751 37.9985L57.6038 38.2902Z" fill="white"/>
    <path d="M57.8634 36.9936C57.8569 37.049 57.8386 37.1023 57.8096 37.15C57.7807 37.1977 57.7419 37.2386 57.6958 37.2699C57.6497 37.3013 57.5973 37.3224 57.5424 37.3317C57.4874 37.3411 57.431 37.3385 57.3771 37.3242L56.5538 37.1751V37.3437L56.3269 37.3048V37.1362L55.873 37.0519L55.9314 36.7537L56.3787 36.838L56.4371 36.5462L56.664 36.5851L56.6121 36.8769L57.416 37.0195C57.4382 37.0275 57.4619 37.0303 57.4853 37.0278C57.5087 37.0253 57.5313 37.0176 57.5513 37.0051C57.5713 36.9926 57.5881 36.9757 57.6006 36.9558C57.6132 36.9358 57.621 36.9133 57.6235 36.8898V36.7667L57.8828 36.812L57.8634 36.9936Z" fill="white"/>
    <path d="M57.0142 35.3144C56.9527 35.3305 56.8978 35.3653 56.8571 35.4142C56.8164 35.463 56.792 35.5233 56.7873 35.5867C56.7759 35.6495 56.7841 35.7143 56.8108 35.7723C56.8375 35.8303 56.8813 35.8787 56.9364 35.9109C56.9975 35.9478 57.0663 35.97 57.1374 35.9757L57.2282 35.295C57.1575 35.2808 57.0848 35.2808 57.0142 35.295M57.3513 35.9822C57.4036 35.9967 57.4584 35.9995 57.5119 35.9904C57.5654 35.9813 57.6162 35.9605 57.6608 35.9296C57.7053 35.8986 57.7425 35.8583 57.7697 35.8113C57.7969 35.7644 57.8134 35.7121 57.8181 35.658C57.8319 35.5896 57.8298 35.5189 57.8118 35.4514C57.7938 35.3839 57.7605 35.3215 57.7144 35.269L57.9154 35.1005C57.9856 35.1801 58.0372 35.2743 58.0664 35.3764C58.0955 35.4785 58.1015 35.5858 58.084 35.6904C58.0321 36.0665 57.7922 36.3388 57.2217 36.2739C56.6511 36.2091 56.4826 35.9238 56.5345 35.5348C56.549 35.4476 56.5813 35.3643 56.6292 35.29C56.6772 35.2157 56.7398 35.152 56.8133 35.1028C56.8867 35.0537 56.9695 35.02 57.0565 35.004C57.1434 34.988 57.2327 34.9899 57.3189 35.0097H57.4486L57.3513 35.9822Z" fill="white"/>
    <path d="M57.0789 33.6872C57.0444 33.713 57.016 33.7462 56.9958 33.7843C56.9756 33.8224 56.9642 33.8645 56.9622 33.9076C56.9604 33.9507 56.9675 33.9936 56.9832 34.0338C56.9988 34.074 57.0226 34.1104 57.0531 34.1409C57.0836 34.1714 57.12 34.1952 57.1602 34.2108C57.2004 34.2265 57.2433 34.2336 57.2864 34.2318L58.2005 34.2901V34.5948L56.6705 34.4976V34.1994H56.8325C56.7768 34.1465 56.7338 34.0817 56.7069 34.0098C56.6799 33.9379 56.6697 33.8609 56.6769 33.7844C56.6795 33.7176 56.6957 33.652 56.7247 33.5918C56.7537 33.5316 56.7949 33.478 56.8455 33.4343L57.0789 33.6872Z" fill="white"/>
    <path d="M81.0084 49.3768L79.5432 46.8029L78.6614 47.8597V49.3768H77.8705V44.1577H78.6614V46.7834L80.7944 44.1577H81.7669L80.0683 46.1999L81.942 49.3768H81.0084Z" fill="#898989"/>
    <path d="M84.3409 46.4916C84.1925 46.3506 83.9945 46.2737 83.7899 46.2777C83.5871 46.274 83.3913 46.351 83.2453 46.4916C83.0337 46.7861 82.9411 47.1497 82.9859 47.5095C82.9413 47.8714 83.0338 48.2368 83.2453 48.5339C83.3913 48.6745 83.5871 48.7515 83.7899 48.7478C83.9945 48.7518 84.1925 48.6749 84.3409 48.5339C84.5507 48.2362 84.6409 47.8706 84.5938 47.5095C84.6405 47.1505 84.5502 46.787 84.3409 46.4916ZM84.905 48.9812C84.7586 49.1263 84.5843 49.2402 84.3926 49.3159C84.2009 49.3917 83.9959 49.4278 83.7899 49.4221C83.5847 49.4285 83.3804 49.3926 83.1897 49.3168C82.999 49.241 82.8259 49.1267 82.6812 48.9812C82.5133 48.7777 82.3877 48.5427 82.312 48.2899C82.2363 48.0372 82.2119 47.7718 82.2404 47.5095C82.2128 47.2502 82.2375 46.9881 82.3133 46.7386C82.389 46.4891 82.5141 46.2574 82.6812 46.0572C82.825 45.9104 82.9979 45.7954 83.1889 45.7194C83.3798 45.6435 83.5845 45.6084 83.7899 45.6164C83.9961 45.6091 84.2016 45.6445 84.3935 45.7203C84.5854 45.7962 84.7595 45.9109 84.905 46.0572C85.0709 46.2579 85.1949 46.4899 85.2695 46.7393C85.3441 46.9888 85.3679 47.2507 85.3394 47.5095C85.3705 47.7714 85.3481 48.037 85.2734 48.29C85.1988 48.543 85.0734 48.7782 84.905 48.9812Z" fill="#898989"/>
    <path d="M88.2115 46.5305C88.1459 46.4469 88.0607 46.3806 87.9635 46.3377C87.8662 46.2947 87.7599 46.2763 87.6539 46.2841C87.5497 46.2863 87.447 46.31 87.3523 46.3537C87.2576 46.3974 87.1729 46.4601 87.1035 46.538C87.0342 46.6159 86.9816 46.7072 86.9491 46.8063C86.9167 46.9054 86.905 47.0101 86.9148 47.114V49.3702H86.1692V45.6552H86.9019V46.0702C87.0206 45.9247 87.1713 45.8087 87.3422 45.7311C87.5132 45.6535 87.6997 45.6165 87.8873 45.6228C88.0519 45.6131 88.2166 45.6394 88.37 45.6999C88.5234 45.7604 88.6618 45.8535 88.7755 45.9729L88.2115 46.5305Z" fill="#898989"/>
    <path d="M91.3167 46.7185C91.2564 46.5756 91.154 46.4544 91.0231 46.3711C90.8923 46.2877 90.7392 46.2461 90.5841 46.2517C90.4282 46.2456 90.274 46.287 90.1421 46.3704C90.0101 46.4537 89.9066 46.5751 89.845 46.7185C89.7762 46.878 89.743 47.0506 89.7478 47.2242H91.4205C91.4264 47.0498 91.3909 46.8765 91.3167 46.7185ZM89.7348 47.7299C89.7168 47.8629 89.728 47.9983 89.7678 48.1265C89.8076 48.2548 89.8749 48.3727 89.9651 48.4722C90.0553 48.5716 90.1661 48.6501 90.2899 48.7022C90.4136 48.7543 90.5472 48.7787 90.6814 48.7737C90.851 48.7842 91.0207 48.7551 91.1771 48.6887C91.3335 48.6223 91.4723 48.5205 91.5826 48.3912L92.0623 48.8386C91.8886 49.0341 91.6731 49.1881 91.4318 49.2891C91.1906 49.3901 90.9296 49.4355 90.6684 49.4221C89.7348 49.4221 88.9957 48.9293 88.9957 47.4771C88.9957 46.2777 89.644 45.584 90.5712 45.584C91.4983 45.584 92.1466 46.3166 92.1466 47.3733V47.6975L89.7348 47.7299Z" fill="#898989"/>
    <path d="M94.9541 47.7299H94.0789C93.638 47.7299 93.4305 47.9309 93.4305 48.268C93.4305 48.6051 93.6445 48.7931 94.1113 48.7931C94.2365 48.8097 94.3638 48.7992 94.4846 48.7623C94.6054 48.7254 94.7169 48.6629 94.8115 48.5792C94.8734 48.5038 94.9196 48.4168 94.9475 48.3232C94.9753 48.2297 94.9842 48.1316 94.9736 48.0346L94.9541 47.7299ZM94.9541 49.3766V49.0395C94.827 49.1722 94.6722 49.2752 94.5008 49.3413C94.3294 49.4074 94.1455 49.435 93.9622 49.422C93.7811 49.436 93.5991 49.4127 93.4274 49.3536C93.2557 49.2945 93.0979 49.2008 92.9638 49.0784C92.7669 48.8604 92.6624 48.5745 92.672 48.281C92.672 47.6326 93.1064 47.2112 93.9687 47.2112H94.9541V46.9519C94.9541 46.4786 94.7207 46.2517 94.1372 46.2517C93.9826 46.233 93.8258 46.2563 93.6832 46.319C93.5406 46.3817 93.4175 46.4816 93.3268 46.6083L92.8341 46.148C92.9955 45.9556 93.2017 45.8058 93.4346 45.712C93.6675 45.6181 93.92 45.5831 94.1696 45.6098C95.1875 45.6098 95.6997 46.0442 95.6997 46.9065V49.3896L94.9541 49.3766Z" fill="#898989"/>
    <path d="M100.29 44.8642H99.1164V46.5045H100.29C100.404 46.5146 100.518 46.501 100.627 46.4643C100.735 46.4277 100.834 46.369 100.919 46.2918C101.003 46.2147 101.07 46.1208 101.116 46.0163C101.162 45.9117 101.186 45.7986 101.186 45.6844C101.186 45.5701 101.162 45.457 101.116 45.3525C101.07 45.2479 101.003 45.154 100.919 45.0769C100.834 44.9997 100.735 44.941 100.627 44.9044C100.518 44.8678 100.404 44.8541 100.29 44.8642ZM101.21 49.4025L100.108 47.2047H99.1164V49.4025H98.3254V44.2159H100.348C100.557 44.1976 100.768 44.2236 100.967 44.2924C101.165 44.3611 101.347 44.471 101.5 44.6149C101.653 44.7587 101.774 44.9332 101.854 45.127C101.935 45.3208 101.974 45.5295 101.969 45.7395C101.982 46.0546 101.885 46.3645 101.696 46.6172C101.508 46.8698 101.238 47.0498 100.932 47.1269L102.131 49.4349L101.21 49.4025Z" fill="#898989"/>
    <path d="M105.094 49.3766V49.0005C104.969 49.137 104.817 49.2452 104.647 49.3178C104.477 49.3905 104.293 49.426 104.109 49.422C103.771 49.4309 103.443 49.3076 103.194 49.0783C103.059 48.942 102.955 48.7782 102.889 48.5981C102.823 48.418 102.797 48.2258 102.812 48.0345V45.6552H103.564V47.9243C103.549 48.0302 103.557 48.1382 103.588 48.2406C103.619 48.3429 103.673 48.4371 103.744 48.5164C103.816 48.5957 103.905 48.6582 104.004 48.6993C104.102 48.7404 104.209 48.7591 104.316 48.7542C104.423 48.7588 104.53 48.7399 104.63 48.6989C104.729 48.6579 104.818 48.5957 104.891 48.5167C104.964 48.4377 105.019 48.3438 105.051 48.2415C105.084 48.1392 105.094 48.0309 105.081 47.9243V45.6552H105.827V49.3766H105.094Z" fill="#898989"/>
    <path d="M108.031 49.422C107.748 49.446 107.464 49.4105 107.196 49.3178C106.928 49.2251 106.682 49.0773 106.475 48.8839L106.961 48.3912C107.103 48.5256 107.272 48.6295 107.456 48.6964C107.64 48.7633 107.835 48.7918 108.031 48.7801C108.485 48.7801 108.848 48.6181 108.848 48.268C108.848 48.0151 108.711 47.8595 108.348 47.8271L107.758 47.7752C107.058 47.7169 106.656 47.3992 106.656 46.7509C106.656 46.1026 107.305 45.6163 108.05 45.6163C108.546 45.5821 109.037 45.7296 109.431 46.0312L108.964 46.5045C108.7 46.3129 108.376 46.2189 108.05 46.2387C107.596 46.2387 107.369 46.4332 107.369 46.712C107.369 46.9908 107.493 47.101 107.888 47.1334L108.472 47.1917C109.172 47.2436 109.58 47.5807 109.58 48.2355C109.58 49.0135 108.932 49.422 108.031 49.422Z" fill="#898989"/>
    <path d="M111.506 49.4221C111.222 49.4462 110.937 49.4108 110.668 49.3181C110.399 49.2255 110.152 49.0776 109.943 48.884L110.436 48.3912C110.578 48.5264 110.746 48.6307 110.93 48.6976C111.114 48.7646 111.31 48.7927 111.506 48.7802C111.96 48.7802 112.316 48.6182 112.316 48.2681C112.316 48.0152 112.18 47.8596 111.824 47.8272L111.227 47.7753C110.527 47.717 110.125 47.3993 110.125 46.751C110.125 46.1026 110.773 45.6164 111.525 45.6164C112.021 45.5846 112.511 45.7318 112.906 46.0313L112.433 46.5046C112.168 46.313 111.845 46.219 111.519 46.2388C111.072 46.2388 110.871 46.4333 110.871 46.7121C110.871 46.9909 110.987 47.1011 111.383 47.1335L111.966 47.1918C112.666 47.2437 113.075 47.5808 113.075 48.2356C113.075 49.0136 112.427 49.4221 111.532 49.4221" fill="#898989"/>
    <path d="M113.775 49.3767H114.521V45.6553H113.775V49.3767ZM113.775 44.9227H114.566V44.1252H113.724L113.775 44.9227Z" fill="#898989"/>
    <path d="M117.509 47.7298H116.641C116.2 47.7298 115.992 47.9307 115.992 48.2679C115.992 48.605 116.206 48.793 116.673 48.793C116.797 48.8099 116.924 48.7996 117.044 48.7626C117.163 48.7257 117.274 48.663 117.367 48.5791C117.429 48.5037 117.475 48.4166 117.503 48.3231C117.531 48.2296 117.54 48.1315 117.529 48.0345L117.509 47.7298ZM117.509 49.3765V49.0394C117.383 49.1728 117.228 49.2763 117.057 49.3425C116.885 49.4087 116.701 49.4358 116.518 49.4219C116.336 49.4379 116.154 49.4155 115.982 49.3563C115.81 49.2971 115.652 49.2024 115.519 49.0783C115.322 48.8602 115.218 48.5744 115.227 48.2808C115.227 47.6325 115.655 47.2111 116.524 47.2111H117.503V46.9518C117.503 46.4785 117.27 46.2516 116.693 46.2516C116.537 46.2338 116.38 46.2574 116.236 46.32C116.093 46.3826 115.968 46.482 115.876 46.6082L115.389 46.1478C115.546 45.9603 115.746 45.8135 115.972 45.7198C116.198 45.6261 116.443 45.5883 116.686 45.6097C117.704 45.6097 118.223 46.0441 118.223 46.9064V49.3895L117.509 49.3765Z" fill="#898989"/>
    <path d="M122.268 49.4219C121.928 49.4452 121.587 49.3953 121.269 49.2756C120.95 49.1559 120.66 48.9693 120.42 48.7281L120.952 48.2095C121.125 48.3838 121.334 48.5186 121.565 48.6048C121.795 48.6909 122.042 48.7264 122.287 48.7087C122.936 48.7087 123.363 48.4169 123.363 47.9113C123.37 47.8109 123.355 47.7102 123.32 47.6161C123.284 47.5221 123.228 47.437 123.156 47.3667C122.996 47.2303 122.795 47.1525 122.585 47.1462L121.969 47.0619C121.604 47.0236 121.259 46.8768 120.978 46.6405C120.848 46.5103 120.747 46.3539 120.682 46.1818C120.617 46.0096 120.59 45.8257 120.602 45.6421C120.602 45.4239 120.65 45.2083 120.74 45.0098C120.831 44.8114 120.963 44.6345 121.127 44.4909C121.292 44.3474 121.485 44.2405 121.694 44.1774C121.903 44.1143 122.123 44.0965 122.339 44.125C122.637 44.1074 122.935 44.1513 123.215 44.2539C123.495 44.3565 123.751 44.5157 123.966 44.7215L123.454 45.2142C123.304 45.0732 123.126 44.9647 122.932 44.8956C122.738 44.8264 122.532 44.798 122.326 44.8122C121.678 44.8122 121.367 45.1623 121.367 45.6291C121.365 45.7187 121.382 45.8075 121.417 45.8901C121.451 45.9726 121.503 46.0471 121.568 46.1089C121.735 46.243 121.938 46.3263 122.151 46.3488L122.747 46.4395C123.105 46.4608 123.446 46.5973 123.72 46.8285C123.866 46.9642 123.98 47.1305 124.054 47.3154C124.128 47.5004 124.16 47.6994 124.148 47.8983C124.148 48.8578 123.363 49.4348 122.268 49.4348" fill="#898989"/>
    <path d="M126.405 49.4218C125.568 49.4218 124.745 48.9032 124.745 47.4768C124.745 46.0505 125.568 45.5837 126.405 45.5837C126.635 45.5719 126.865 45.6124 127.077 45.7022C127.289 45.7921 127.478 45.9289 127.63 46.1024L127.118 46.5951C127.034 46.4854 126.926 46.3966 126.803 46.3359C126.679 46.2751 126.543 46.244 126.405 46.245C126.271 46.2412 126.139 46.2692 126.018 46.3267C125.897 46.3842 125.792 46.4695 125.711 46.5757C125.538 46.8425 125.462 47.1608 125.497 47.4768C125.462 47.797 125.538 48.1195 125.711 48.391C125.793 48.4952 125.899 48.5787 126.02 48.635C126.14 48.6912 126.272 48.7187 126.405 48.7151C126.543 48.7177 126.68 48.6873 126.804 48.6264C126.928 48.5655 127.035 48.4759 127.118 48.365L127.63 48.8578C127.479 49.0329 127.29 49.1717 127.078 49.2637C126.866 49.3558 126.636 49.3987 126.405 49.3894" fill="#898989"/>
    <path d="M128.304 49.3767H129.056V45.6553H128.304V49.3767ZM128.304 44.9227H129.102V44.1252H128.304V44.9227Z" fill="#898989"/>
    <path d="M132.175 46.7186C132.114 46.5757 132.012 46.4545 131.881 46.3711C131.75 46.2878 131.597 46.2461 131.442 46.2518C131.286 46.2457 131.132 46.2871 131 46.3704C130.868 46.4538 130.765 46.5752 130.703 46.7186C130.634 46.8781 130.601 47.0507 130.606 47.2243H132.279C132.284 47.0499 132.249 46.8766 132.175 46.7186ZM130.58 47.73C130.562 47.863 130.573 47.9984 130.613 48.1266C130.653 48.2548 130.72 48.3728 130.81 48.4722C130.9 48.5717 131.011 48.6502 131.135 48.7023C131.259 48.7544 131.392 48.7788 131.526 48.7738C131.696 48.7833 131.865 48.7537 132.022 48.6874C132.178 48.6211 132.317 48.5198 132.428 48.3913L132.901 48.8386C132.729 49.034 132.514 49.188 132.274 49.2891C132.034 49.3901 131.774 49.4356 131.514 49.4221C130.58 49.4221 129.841 48.9294 129.841 47.4771C129.841 46.2777 130.489 45.584 131.416 45.584C132.343 45.584 132.992 46.3166 132.992 47.3734V47.6976L130.58 47.73Z" fill="#898989"/>
    <path d="M136.084 49.3767V47.1076C136.099 47.0022 136.091 46.8948 136.061 46.793C136.03 46.6911 135.977 46.5972 135.906 46.5181C135.835 46.4389 135.747 46.3763 135.649 46.3348C135.551 46.2933 135.445 46.2738 135.339 46.2777C135.231 46.2731 135.124 46.292 135.025 46.333C134.926 46.374 134.836 46.4362 134.764 46.5152C134.691 46.5942 134.636 46.6881 134.603 46.7904C134.57 46.8927 134.56 47.001 134.574 47.1076V49.3767H133.822V45.6553H134.554V46.0314C134.679 45.8949 134.831 45.7867 135.001 45.7141C135.171 45.6414 135.355 45.6059 135.54 45.6099C135.879 45.5975 136.209 45.7185 136.46 45.9471C136.593 46.0871 136.696 46.2535 136.76 46.4356C136.825 46.6176 136.851 46.8112 136.836 47.0039V49.3767H136.084Z" fill="#898989"/>
    <path d="M139.267 49.4221C138.431 49.4221 137.608 48.9034 137.608 47.4771C137.608 46.0508 138.431 45.584 139.267 45.584C139.497 45.5717 139.726 45.612 139.937 45.7019C140.148 45.7918 140.336 45.9289 140.486 46.1027L139.974 46.5954C139.892 46.4854 139.786 46.3964 139.663 46.3355C139.54 46.2747 139.405 46.2438 139.267 46.2453C139.134 46.2409 139.001 46.2687 138.88 46.3262C138.76 46.3838 138.655 46.4694 138.574 46.5759C138.399 46.8419 138.321 47.1603 138.353 47.4771C138.32 47.7981 138.398 48.1209 138.574 48.3913C138.658 48.4966 138.764 48.5817 138.885 48.6402C139.007 48.6986 139.139 48.729 139.274 48.729C139.409 48.729 139.541 48.6986 139.663 48.6402C139.784 48.5817 139.89 48.4966 139.974 48.3913L140.486 48.884C140.337 49.0593 140.149 49.1984 139.938 49.2905C139.727 49.3826 139.498 49.4254 139.267 49.4156" fill="#898989"/>
    <path d="M143.287 46.7186C143.227 46.5756 143.124 46.4545 142.993 46.3711C142.863 46.2877 142.709 46.2461 142.554 46.2518C142.398 46.2457 142.244 46.287 142.112 46.3704C141.98 46.4537 141.877 46.5751 141.815 46.7186C141.743 46.8771 141.71 47.0504 141.718 47.2243H143.391C143.393 47.0501 143.358 46.8775 143.287 46.7186ZM141.718 47.7429C141.7 47.876 141.711 48.0113 141.751 48.1395C141.791 48.2678 141.858 48.3857 141.948 48.4852C142.039 48.5846 142.149 48.6632 142.273 48.7152C142.397 48.7673 142.53 48.7917 142.665 48.7867C142.834 48.7962 143.003 48.7667 143.16 48.7003C143.316 48.634 143.455 48.5327 143.566 48.4042L144.039 48.8516C143.866 49.0475 143.65 49.2017 143.409 49.3028C143.168 49.4038 142.906 49.449 142.645 49.4351C141.718 49.4351 140.979 48.9423 140.979 47.4901C140.979 46.2907 141.627 45.597 142.554 45.597C143.481 45.597 144.13 46.3296 144.13 47.3863V47.7105L141.718 47.7429Z" fill="#898989"/>
    <path d="M148.175 44.7736C148.107 44.7699 148.039 44.7806 147.975 44.805C147.911 44.8294 147.853 44.867 147.805 44.9153C147.756 44.9637 147.719 45.0216 147.694 45.0855C147.67 45.1493 147.659 45.2176 147.663 45.2858C147.663 45.4933 147.806 45.6943 148.065 46.0055L148.318 45.8304C148.424 45.7832 148.516 45.7083 148.583 45.6137C148.65 45.519 148.691 45.408 148.7 45.2923C148.703 45.2229 148.692 45.1536 148.666 45.089C148.641 45.0244 148.602 44.9658 148.552 44.917C148.503 44.8681 148.444 44.8302 148.379 44.8055C148.314 44.7808 148.245 44.77 148.175 44.7736ZM147.858 46.8677C147.475 47.1335 147.151 47.3734 147.151 47.8532C147.15 47.9755 147.174 48.0966 147.222 48.2092C147.27 48.3217 147.34 48.4231 147.429 48.5071C147.518 48.5911 147.623 48.6558 147.738 48.6973C147.853 48.7387 147.976 48.7559 148.098 48.7479C148.283 48.7503 148.467 48.7154 148.638 48.6452C148.81 48.575 148.965 48.471 149.096 48.3394L147.858 46.8677ZM149.971 49.3832L149.543 48.8711C149.152 49.2378 148.634 49.4378 148.098 49.4286C147.881 49.4563 147.66 49.4362 147.452 49.3697C147.244 49.3031 147.053 49.1918 146.892 49.0435C146.731 48.8952 146.605 48.7136 146.522 48.5113C146.439 48.309 146.402 48.091 146.412 47.8726C146.439 47.5575 146.548 47.2549 146.729 46.9955C146.91 46.736 147.156 46.5287 147.443 46.3945C147.133 46.1007 146.942 45.7042 146.905 45.2793C146.927 44.9622 147.069 44.6655 147.302 44.4489C147.535 44.2322 147.841 44.1118 148.159 44.1118C148.477 44.1118 148.783 44.2322 149.016 44.4489C149.249 44.6655 149.391 44.9622 149.414 45.2793C149.408 45.467 149.354 45.6501 149.258 45.8112C149.161 45.9723 149.025 46.1062 148.863 46.2L148.48 46.4658L149.576 47.7624C149.785 47.454 149.883 47.0837 149.854 46.7121H150.574C150.595 47.2923 150.411 47.8614 150.055 48.32L150.924 49.3638L149.971 49.3832Z" fill="#898989"/>
    <path d="M155.1 44.8709V49.3768H154.309V44.8709H152.876V44.1577H156.539V44.8709H155.1Z" fill="#898989"/>
    <path d="M159.281 46.7186C159.221 46.5757 159.118 46.4545 158.988 46.3711C158.857 46.2877 158.704 46.2461 158.549 46.2518C158.393 46.2457 158.238 46.2871 158.107 46.3704C157.975 46.4537 157.871 46.5751 157.809 46.7186C157.738 46.8771 157.704 47.0504 157.712 47.2243H159.385C159.391 47.0499 159.355 46.8765 159.281 46.7186ZM157.712 47.7429C157.694 47.876 157.705 48.0113 157.745 48.1395C157.785 48.2678 157.852 48.3857 157.942 48.4852C158.033 48.5846 158.144 48.6632 158.267 48.7152C158.391 48.7673 158.525 48.7917 158.659 48.7867C158.828 48.7962 158.998 48.7667 159.154 48.7003C159.31 48.634 159.449 48.5327 159.56 48.4042L160.04 48.8516C159.866 49.0468 159.65 49.2005 159.409 49.3015C159.168 49.4024 158.907 49.4481 158.646 49.4351C157.712 49.4351 156.973 48.9423 156.973 47.4901C156.973 46.2907 157.621 45.597 158.549 45.597C159.476 45.597 160.124 46.3296 160.124 47.3863V47.7105L157.712 47.7429Z" fill="#898989"/>
    <path d="M162.394 49.422C161.557 49.422 160.74 48.9033 160.74 47.477C160.74 46.0507 161.557 45.5839 162.394 45.5839C162.624 45.5715 162.854 45.6118 163.066 45.7017C163.278 45.7916 163.467 45.9287 163.619 46.1025L163.107 46.5953C163.024 46.4844 162.917 46.3948 162.792 46.3339C162.668 46.273 162.532 46.2426 162.394 46.2452C162.261 46.2419 162.13 46.2701 162.01 46.3276C161.891 46.3851 161.786 46.4702 161.706 46.5758C161.531 46.8418 161.453 47.1602 161.486 47.477C161.452 47.798 161.53 48.1207 161.706 48.3911C161.79 48.4965 161.897 48.5816 162.018 48.64C162.139 48.6985 162.272 48.7289 162.406 48.7289C162.541 48.7289 162.674 48.6985 162.795 48.64C162.916 48.5816 163.023 48.4965 163.107 48.3911L163.619 48.8839C163.468 49.0594 163.28 49.1984 163.067 49.2905C162.855 49.3825 162.625 49.4253 162.394 49.4155" fill="#898989"/>
    <path d="M166.549 49.3766V47.0945C166.563 46.9899 166.555 46.8835 166.523 46.7827C166.492 46.682 166.439 46.5893 166.368 46.5114C166.296 46.4334 166.209 46.3721 166.112 46.3317C166.014 46.2913 165.909 46.2728 165.803 46.2776C165.697 46.272 165.591 46.2898 165.493 46.3297C165.394 46.3696 165.305 46.4307 165.233 46.5086C165.161 46.5865 165.106 46.6794 165.074 46.7806C165.041 46.8819 165.031 46.989 165.045 47.0945V49.3766H164.293V44.19H165.038V46.0637C165.16 45.9305 165.309 45.8243 165.474 45.7517C165.639 45.6791 165.818 45.6418 165.998 45.6422C166.177 45.6328 166.356 45.6623 166.522 45.7287C166.689 45.7951 166.839 45.8969 166.962 46.0269C167.085 46.157 167.179 46.3123 167.236 46.4821C167.294 46.6518 167.314 46.832 167.295 47.0102V49.409L166.549 49.3766Z" fill="#898989"/>
    <path d="M170.523 49.3767V47.1075C170.523 46.5305 170.199 46.2777 169.778 46.2777C169.67 46.2731 169.563 46.2919 169.464 46.3329C169.365 46.3739 169.275 46.4361 169.203 46.5151C169.13 46.5941 169.075 46.688 169.042 46.7903C169.009 46.8927 168.999 47.0009 169.013 47.1075V49.3767H168.26V45.6553H168.993V46.0313C169.12 45.896 169.274 45.7886 169.445 45.7161C169.615 45.6435 169.799 45.6074 169.985 45.6099C170.322 45.5991 170.65 45.7201 170.899 45.947C171.032 46.087 171.135 46.2535 171.199 46.4355C171.264 46.6175 171.29 46.8111 171.275 47.0038V49.3767H170.523Z" fill="#898989"/>
    <path d="M174.154 46.4916C174.082 46.4213 173.997 46.3662 173.903 46.3294C173.81 46.2927 173.71 46.2751 173.609 46.2776C173.407 46.2739 173.211 46.3509 173.065 46.4916C172.855 46.787 172.765 47.1504 172.812 47.5094C172.765 47.8705 172.855 48.2361 173.065 48.5338C173.211 48.6745 173.407 48.7514 173.609 48.7477C173.71 48.7503 173.81 48.7326 173.903 48.6959C173.997 48.6592 174.082 48.604 174.154 48.5338C174.365 48.2368 174.458 47.8713 174.413 47.5094C174.458 47.1496 174.366 46.7861 174.154 46.4916ZM174.724 48.9811C174.578 49.1256 174.403 49.2391 174.212 49.3148C174.02 49.3906 173.815 49.427 173.609 49.422C173.404 49.4284 173.2 49.3926 173.009 49.3167C172.819 49.2409 172.645 49.1267 172.501 48.9811C172.333 48.7776 172.207 48.5426 172.132 48.2899C172.056 48.0371 172.031 47.7718 172.06 47.5094C172.032 47.2502 172.057 46.988 172.133 46.7385C172.209 46.4891 172.334 46.2573 172.501 46.0572C172.645 45.9104 172.817 45.7953 173.008 45.7194C173.199 45.6434 173.404 45.6083 173.609 45.6163C173.815 45.6098 174.021 45.6455 174.213 45.7214C174.404 45.7972 174.579 45.9115 174.724 46.0572C174.892 46.2573 175.017 46.4891 175.092 46.7385C175.168 46.988 175.193 47.2502 175.165 47.5094C175.194 47.7718 175.169 48.0371 175.094 48.2899C175.018 48.5426 174.892 48.7776 174.724 48.9811Z" fill="#898989"/>
    <path d="M176.987 49.3767C176.849 49.3876 176.711 49.3683 176.581 49.3203C176.451 49.2722 176.334 49.1965 176.236 49.0984C176.139 49.0003 176.064 48.8822 176.017 48.7523C175.969 48.6223 175.951 48.4837 175.963 48.3459V44.1577H176.715V48.3005C176.715 48.5923 176.819 48.7414 177.117 48.7414H177.447V49.3897L176.987 49.3767Z" fill="#898989"/>
    <path d="M180.002 46.4915C179.852 46.3544 179.657 46.2783 179.454 46.2783C179.251 46.2783 179.056 46.3544 178.906 46.4915C178.697 46.7869 178.607 47.1504 178.653 47.5094C178.606 47.8705 178.697 48.2361 178.906 48.5338C179.056 48.6709 179.251 48.747 179.454 48.747C179.657 48.747 179.852 48.6709 180.002 48.5338C180.213 48.2367 180.306 47.8713 180.261 47.5094C180.306 47.1496 180.214 46.786 180.002 46.4915ZM180.566 48.9811C180.421 49.126 180.248 49.2398 180.057 49.3156C179.866 49.3914 179.662 49.4276 179.457 49.422C179.252 49.4292 179.048 49.3937 178.857 49.3178C178.666 49.2419 178.493 49.1273 178.349 48.9811C178.181 48.7776 178.055 48.5426 177.979 48.2898C177.904 48.0371 177.879 47.7717 177.908 47.5094C177.88 47.2502 177.905 46.988 177.981 46.7385C178.056 46.489 178.182 46.2573 178.349 46.0572C178.492 45.91 178.665 45.7947 178.856 45.7188C179.047 45.6428 179.252 45.6079 179.457 45.6163C179.663 45.6091 179.867 45.6446 180.058 45.7205C180.249 45.7963 180.422 45.911 180.566 46.0572C180.733 46.2573 180.858 46.489 180.934 46.7385C181.01 46.988 181.034 47.2502 181.007 47.5094C181.035 47.7717 181.011 48.0371 180.935 48.2898C180.859 48.5426 180.734 48.7776 180.566 48.9811Z" fill="#898989"/>
    <path d="M183.166 46.2776C182.517 46.2776 182.401 46.8611 182.401 47.4446C182.401 48.0281 182.491 48.6116 183.166 48.6116C183.84 48.6116 183.918 48.0346 183.918 47.4446C183.918 46.8546 183.84 46.2776 183.166 46.2776ZM183.081 50.9196C182.843 50.933 182.604 50.896 182.381 50.8111C182.157 50.7262 181.954 50.5953 181.785 50.4269L182.265 49.9536C182.367 50.0633 182.492 50.1496 182.63 50.2066C182.769 50.2637 182.919 50.2902 183.068 50.2843C183.191 50.2901 183.313 50.269 183.426 50.2223C183.54 50.1757 183.642 50.1047 183.724 50.0144C183.807 49.9241 183.869 49.8167 183.906 49.6997C183.943 49.5828 183.953 49.4592 183.937 49.3377V48.8644C183.823 49.0053 183.677 49.117 183.512 49.1903C183.346 49.2636 183.165 49.2963 182.984 49.2859C182.821 49.2932 182.659 49.2677 182.506 49.2109C182.354 49.1541 182.214 49.0671 182.096 48.9552C181.82 48.4996 181.674 47.9772 181.674 47.4446C181.674 46.912 181.82 46.3896 182.096 45.934C182.341 45.7147 182.662 45.6006 182.991 45.6163C183.176 45.603 183.362 45.6357 183.531 45.7115C183.701 45.7873 183.849 45.9038 183.963 46.0507V45.6552H184.689V49.3507C184.701 49.5614 184.667 49.7722 184.591 49.969C184.515 50.1659 184.398 50.3444 184.248 50.4927C184.098 50.641 183.918 50.7557 183.72 50.8293C183.523 50.9029 183.311 50.9337 183.101 50.9196" fill="#898989"/>
    <path d="M186.835 50.1158C186.782 50.2885 186.688 50.4461 186.563 50.5761C186.46 50.6703 186.339 50.743 186.208 50.7897C186.077 50.8365 185.937 50.8565 185.798 50.8484H185.5V50.2001H185.694C186.005 50.2001 186.122 50.1028 186.226 49.7981L186.433 49.2276L185.137 45.6813H185.928L186.809 48.2746L187.678 45.6813H188.475L186.835 50.1158Z" fill="#898989"/>
    <path d="M192.262 49.422C192.008 49.4251 191.756 49.3774 191.521 49.2816C191.286 49.1859 191.073 49.044 190.894 48.8644C190.382 48.3458 190.388 47.7688 190.388 46.7639C190.388 45.7589 190.388 45.1819 190.894 44.6698C191.072 44.489 191.285 44.3463 191.52 44.2505C191.756 44.1546 192.008 44.1076 192.262 44.1122C192.718 44.093 193.164 44.2476 193.511 44.5448C193.858 44.8421 194.078 45.2598 194.129 45.7136H193.318C193.283 45.5205 193.195 45.3409 193.065 45.1937C192.935 45.0466 192.768 44.9376 192.581 44.8783C192.394 44.819 192.194 44.8118 192.003 44.8572C191.812 44.9027 191.637 44.9993 191.497 45.1366C191.237 45.4153 191.179 45.7136 191.179 46.7639C191.179 47.8141 191.237 48.1124 191.497 48.3912C191.595 48.4945 191.714 48.5761 191.846 48.6308C191.977 48.6855 192.119 48.7121 192.262 48.7088C192.518 48.7136 192.767 48.6258 192.964 48.4614C193.16 48.297 193.291 48.0671 193.331 47.8141H194.116C194.065 48.2685 193.845 48.6869 193.498 48.9852C193.152 49.2835 192.706 49.4395 192.249 49.422" fill="#898989"/>
    <path d="M196.826 46.4915C196.752 46.4214 196.666 46.3664 196.571 46.3297C196.477 46.293 196.376 46.2753 196.275 46.2776C196.175 46.2756 196.076 46.2934 195.984 46.3302C195.892 46.3669 195.807 46.4218 195.736 46.4915C195.525 46.786 195.432 47.1496 195.477 47.5094C195.433 47.8713 195.525 48.2367 195.736 48.5338C195.807 48.6035 195.892 48.6584 195.984 48.6951C196.076 48.7319 196.175 48.7497 196.275 48.7477C196.376 48.75 196.477 48.7323 196.571 48.6956C196.666 48.6589 196.752 48.6039 196.826 48.5338C197.037 48.2367 197.13 47.8713 197.085 47.5094C197.13 47.1496 197.037 46.786 196.826 46.4915ZM197.39 48.9811C197.244 49.1265 197.069 49.2406 196.878 49.3164C196.686 49.3922 196.481 49.4281 196.275 49.422C196.07 49.4283 195.867 49.3923 195.678 49.3165C195.488 49.2406 195.316 49.1265 195.172 48.9811C195.005 48.7776 194.879 48.5426 194.803 48.2898C194.728 48.0371 194.703 47.7717 194.732 47.5094C194.704 47.2501 194.729 46.988 194.805 46.7385C194.88 46.489 195.005 46.2573 195.172 46.0572C195.315 45.9105 195.487 45.7955 195.677 45.7195C195.867 45.6436 196.07 45.6084 196.275 45.6163C196.481 45.6086 196.686 45.6438 196.878 45.7197C197.07 45.7956 197.244 45.9105 197.39 46.0572C197.557 46.2573 197.682 46.489 197.758 46.7385C197.833 46.988 197.858 47.2501 197.831 47.5094C197.861 47.7718 197.837 48.0376 197.762 48.2906C197.686 48.5437 197.559 48.7786 197.39 48.9811Z" fill="#898989"/>
    <path d="M200.599 46.4915C200.528 46.4213 200.442 46.3662 200.349 46.3294C200.255 46.2927 200.155 46.2751 200.055 46.2776C199.852 46.2739 199.656 46.3509 199.51 46.4915C199.299 46.786 199.206 47.1496 199.251 47.5094C199.206 47.8713 199.299 48.2367 199.51 48.5338C199.656 48.6744 199.852 48.7514 200.055 48.7477C200.155 48.7502 200.255 48.7326 200.349 48.6959C200.442 48.6591 200.528 48.604 200.599 48.5338C200.814 48.2381 200.907 47.8715 200.859 47.5094C200.907 47.1494 200.814 46.7846 200.599 46.4915ZM201.17 48.9811C201.024 49.1262 200.849 49.2401 200.658 49.3159C200.466 49.3916 200.261 49.4277 200.055 49.422C199.85 49.4292 199.645 49.3937 199.454 49.3178C199.263 49.2419 199.09 49.1273 198.946 48.9811C198.778 48.7776 198.653 48.5426 198.577 48.2898C198.501 48.0371 198.477 47.7717 198.505 47.5094C198.478 47.2502 198.503 46.988 198.578 46.7385C198.654 46.489 198.779 46.2573 198.946 46.0572C199.09 45.91 199.263 45.7947 199.454 45.7188C199.645 45.6428 199.849 45.6079 200.055 45.6163C200.261 45.609 200.467 45.6444 200.658 45.7202C200.85 45.7961 201.024 45.9108 201.17 46.0572C201.336 46.2578 201.46 46.4898 201.534 46.7392C201.609 46.9887 201.633 47.2506 201.604 47.5094C201.635 47.7714 201.613 48.0369 201.538 48.2899C201.464 48.5429 201.338 48.7781 201.17 48.9811Z" fill="#898989"/>
    <path d="M203.932 46.2777C203.283 46.2777 203.154 46.8547 203.154 47.5095C203.154 48.1643 203.257 48.7478 203.932 48.7478C204.606 48.7478 204.697 48.1708 204.697 47.5095C204.697 46.8482 204.606 46.2777 203.932 46.2777ZM205.034 49.0914C204.786 49.3105 204.463 49.4265 204.133 49.4156C203.948 49.4298 203.762 49.3988 203.591 49.3254C203.421 49.252 203.271 49.1384 203.154 48.9942V50.8743H202.408V45.6877H203.141V46.0702C203.256 45.9223 203.407 45.8052 203.579 45.7294C203.751 45.6537 203.939 45.6215 204.126 45.6358C204.459 45.6232 204.784 45.7393 205.034 45.96C205.306 46.4404 205.449 46.9832 205.449 47.5354C205.449 48.0876 205.306 48.6304 205.034 49.1109" fill="#898989"/>
    <path d="M208.379 46.7186C208.319 46.5757 208.216 46.4545 208.086 46.3711C207.955 46.2877 207.802 46.2461 207.647 46.2518C207.491 46.2457 207.337 46.2871 207.205 46.3704C207.073 46.4537 206.969 46.5751 206.908 46.7186C206.836 46.8771 206.802 47.0504 206.81 47.2243H208.483C208.486 47.0501 208.45 46.8775 208.379 46.7186ZM206.81 47.7429C206.792 47.876 206.803 48.0113 206.843 48.1395C206.883 48.2678 206.95 48.3857 207.041 48.4852C207.131 48.5846 207.242 48.6632 207.365 48.7152C207.489 48.7673 207.623 48.7917 207.757 48.7867C207.926 48.7962 208.096 48.7667 208.252 48.7003C208.408 48.634 208.547 48.5327 208.658 48.4042L209.131 48.8516C208.959 49.047 208.745 49.201 208.504 49.302C208.264 49.403 208.004 49.4485 207.744 49.4351C206.81 49.4351 206.065 48.9423 206.065 47.4901C206.065 46.2907 206.713 45.597 207.647 45.597C208.58 45.597 209.222 46.3296 209.222 47.3863V47.7105L206.81 47.7429Z" fill="#898989"/>
    <path d="M212.081 46.5305C212.016 46.4479 211.932 46.3822 211.836 46.3393C211.74 46.2964 211.635 46.2775 211.53 46.2842C211.426 46.2864 211.323 46.3101 211.228 46.3538C211.134 46.3974 211.049 46.4602 210.98 46.5381C210.91 46.6159 210.858 46.7073 210.825 46.8064C210.793 46.9055 210.781 47.0102 210.791 47.114V49.3702H210.039V45.6553H210.771V46.0702C210.891 45.9256 211.042 45.8101 211.212 45.7325C211.383 45.655 211.569 45.6175 211.757 45.6229C211.921 45.6132 212.086 45.6395 212.24 45.7C212.393 45.7604 212.531 45.8536 212.645 45.973L212.081 46.5305Z" fill="#898989"/>
    <path d="M215.057 47.7299H214.214C213.78 47.7299 213.566 47.9309 213.566 48.268C213.566 48.6051 213.78 48.7931 214.247 48.7931C214.371 48.8101 214.497 48.7997 214.617 48.7627C214.737 48.7258 214.847 48.6632 214.94 48.5792C215.002 48.5038 215.049 48.4168 215.076 48.3233C215.104 48.2297 215.113 48.1316 215.102 48.0346L215.057 47.7299ZM215.057 49.3766V49.0395C214.931 49.172 214.778 49.2751 214.607 49.3412C214.437 49.4073 214.254 49.4349 214.072 49.422C213.89 49.438 213.708 49.4156 213.536 49.3565C213.364 49.2973 213.206 49.2025 213.073 49.0784C212.876 48.8604 212.772 48.5745 212.781 48.281C212.781 47.6326 213.216 47.2112 214.078 47.2112H215.057V46.9519C215.057 46.4786 214.824 46.2517 214.247 46.2517C214.091 46.2332 213.933 46.2565 213.79 46.3192C213.646 46.3818 213.522 46.4816 213.43 46.6083L212.937 46.148C213.099 45.956 213.305 45.8066 213.538 45.7128C213.771 45.619 214.023 45.5836 214.273 45.6099C215.291 45.6099 215.803 46.0442 215.803 46.9065V49.3896L215.057 49.3766Z" fill="#898989"/>
    <path d="M217.877 49.3766C217.74 49.3843 217.602 49.3626 217.473 49.313C217.345 49.2634 217.228 49.1871 217.131 49.089C217.034 48.9909 216.959 48.8733 216.911 48.7441C216.863 48.6148 216.844 48.4769 216.853 48.3393V46.2971H216.431V45.7201H216.853V44.592H217.605V45.7201H218.325V46.2971H217.605V48.3004C217.605 48.5727 217.735 48.7413 218.013 48.7413H218.325V49.3896L217.877 49.3766Z" fill="#898989"/>
    <path d="M219.09 49.3767H219.835V45.6553H219.09V49.3767ZM219.09 44.9227H219.881V44.1252H219.09V44.9227Z" fill="#898989"/>
    <path d="M222.766 46.4918C222.617 46.3508 222.419 46.2739 222.215 46.2779C222.012 46.2742 221.816 46.3512 221.67 46.4918C221.461 46.7872 221.37 47.1507 221.417 47.5097C221.37 47.8708 221.46 48.2364 221.67 48.5341C221.816 48.6747 222.012 48.7517 222.215 48.748C222.419 48.752 222.617 48.6751 222.766 48.5341C222.975 48.2364 223.066 47.8708 223.018 47.5097C223.065 47.1507 222.975 46.7872 222.766 46.4918ZM223.33 48.9814C223.183 49.1259 223.008 49.2394 222.817 49.3151C222.625 49.3908 222.42 49.4273 222.215 49.4223C222.009 49.4287 221.805 49.3928 221.614 49.317C221.424 49.2412 221.251 49.1269 221.106 48.9814C220.938 48.7779 220.812 48.5429 220.737 48.2901C220.661 48.0374 220.637 47.772 220.665 47.5097C220.637 47.2504 220.662 46.9883 220.738 46.7388C220.814 46.4893 220.939 46.2576 221.106 46.0575C221.25 45.9106 221.423 45.7956 221.614 45.7196C221.804 45.6437 222.009 45.6086 222.215 45.6166C222.421 45.6101 222.626 45.6458 222.818 45.7216C223.009 45.7975 223.184 45.9117 223.33 46.0575C223.497 46.2576 223.622 46.4893 223.698 46.7388C223.773 46.9883 223.798 47.2504 223.771 47.5097C223.799 47.772 223.775 48.0374 223.699 48.2901C223.623 48.5429 223.498 48.7779 223.33 48.9814Z" fill="#898989"/>
    <path d="M226.856 49.3769V47.1078C226.871 47.0024 226.863 46.895 226.832 46.7932C226.802 46.6913 226.749 46.5974 226.678 46.5183C226.606 46.4391 226.519 46.3765 226.421 46.335C226.323 46.2935 226.217 46.274 226.11 46.2779C226.003 46.2724 225.895 46.2905 225.795 46.3311C225.695 46.3717 225.605 46.4337 225.531 46.5128C225.457 46.5919 225.402 46.6862 225.369 46.789C225.336 46.8918 225.326 47.0006 225.339 47.1078V49.3769H224.587V45.6555H225.319V46.0316C225.567 45.7778 225.902 45.6279 226.256 45.6122C226.61 45.5965 226.957 45.7164 227.226 45.9473C227.358 46.0879 227.459 46.2545 227.522 46.4365C227.586 46.6185 227.611 46.8119 227.595 47.0041V49.3769H226.856Z" fill="#898989"/>
    <path d="M231.919 49.4222C231.406 49.4252 230.912 49.2248 230.545 48.8647C230.033 48.346 230.039 47.769 230.039 46.7641C230.039 45.7592 230.039 45.1822 230.545 44.67C230.725 44.489 230.939 44.3463 231.175 44.2505C231.411 44.1546 231.665 44.1077 231.919 44.1124C232.375 44.0933 232.821 44.2482 233.166 44.5455C233.512 44.8429 233.731 45.2605 233.78 45.7138H232.97C232.934 45.5208 232.847 45.3411 232.717 45.194C232.587 45.0468 232.419 44.9378 232.232 44.8785C232.045 44.8193 231.845 44.812 231.654 44.8575C231.463 44.903 231.288 44.9995 231.148 45.1368C230.895 45.4156 230.837 45.7138 230.837 46.7641C230.837 47.8144 230.895 48.1126 231.148 48.3914C231.247 48.4952 231.367 48.5771 231.5 48.6318C231.633 48.6865 231.776 48.7128 231.919 48.7091C232.175 48.7136 232.423 48.6255 232.619 48.4611C232.814 48.2966 232.944 48.0668 232.983 47.8144H233.78C233.731 48.2682 233.512 48.6865 233.167 48.9849C232.821 49.2833 232.376 49.4396 231.919 49.4222Z" fill="#898989"/>
    <path d="M236.678 46.7188C236.618 46.5759 236.516 46.4547 236.385 46.3713C236.254 46.2879 236.101 46.2463 235.946 46.252C235.79 46.2459 235.636 46.2873 235.504 46.3706C235.372 46.4539 235.268 46.5753 235.207 46.7188C235.138 46.8783 235.105 47.0508 235.109 47.2245H236.782C236.785 47.0504 236.749 46.8778 236.678 46.7188ZM235.109 47.7431C235.091 47.8762 235.103 48.0115 235.142 48.1398C235.182 48.268 235.25 48.3859 235.34 48.4854C235.43 48.5848 235.541 48.6634 235.664 48.7155C235.788 48.7675 235.922 48.7919 236.056 48.7869C236.225 48.7969 236.395 48.7676 236.551 48.7012C236.708 48.6349 236.847 48.5333 236.957 48.4044L237.43 48.8518C237.258 49.0472 237.044 49.2012 236.803 49.3022C236.563 49.4032 236.303 49.4487 236.043 49.4353C235.109 49.4353 234.37 48.9425 234.37 47.4903C234.37 46.2909 235.019 45.5972 235.946 45.5972C236.873 45.5972 237.521 46.3298 237.521 47.3866V47.7107L235.109 47.7431Z" fill="#898989"/>
    <path d="M240.588 49.3768V47.1077C240.603 47.0023 240.595 46.8949 240.564 46.7931C240.533 46.6912 240.48 46.5973 240.409 46.5181C240.338 46.439 240.25 46.3764 240.152 46.3349C240.054 46.2933 239.948 46.2739 239.842 46.2778C239.735 46.2732 239.628 46.2921 239.528 46.3331C239.429 46.3741 239.34 46.4363 239.267 46.5153C239.194 46.5943 239.139 46.6882 239.107 46.7905C239.074 46.8928 239.064 47.001 239.077 47.1077V49.3768H238.325V45.6554H239.057V46.0314C239.184 45.8961 239.338 45.7888 239.509 45.7162C239.68 45.6437 239.864 45.6075 240.049 45.61C240.386 45.5993 240.714 45.7202 240.964 45.9472C241.097 46.0872 241.199 46.2536 241.264 46.4357C241.328 46.6177 241.354 46.8113 241.34 47.0039V49.3768H240.588Z" fill="#898989"/>
    <path d="M243.389 49.3767C243.251 49.3834 243.114 49.361 242.987 49.311C242.859 49.261 242.743 49.1845 242.647 49.0865C242.551 48.9885 242.476 48.8713 242.429 48.7425C242.381 48.6137 242.361 48.4763 242.371 48.3394V46.2971H241.943V45.7201H242.371V44.592H243.123V45.7201H243.836V46.2971H243.123V48.3005C243.123 48.5728 243.252 48.7413 243.531 48.7413H243.836V49.3897L243.389 49.3767Z" fill="#898989"/>
    <path d="M246.747 46.7188C246.681 46.5785 246.577 46.46 246.446 46.3769C246.315 46.2939 246.163 46.2498 246.008 46.2498C245.853 46.2498 245.701 46.2939 245.57 46.3769C245.44 46.46 245.335 46.5785 245.269 46.7188C245.2 46.8783 245.167 47.0508 245.172 47.2245H246.844C246.849 47.0508 246.816 46.8783 246.747 46.7188ZM245.172 47.7431C245.154 47.8762 245.165 48.0115 245.205 48.1398C245.245 48.268 245.312 48.3859 245.402 48.4854C245.492 48.5848 245.603 48.6634 245.727 48.7155C245.851 48.7675 245.984 48.7919 246.118 48.7869C246.289 48.7969 246.459 48.7677 246.617 48.7013C246.774 48.635 246.914 48.5334 247.026 48.4044L247.499 48.8518C247.326 49.0473 247.11 49.2013 246.869 49.3023C246.628 49.4033 246.367 49.4488 246.105 49.4353C245.172 49.4353 244.439 48.9425 244.439 47.4903C244.439 46.2909 245.055 45.5972 246.008 45.5972C246.961 45.5972 247.584 46.3298 247.584 47.3866V47.7107L245.172 47.7431Z" fill="#898989"/>
    <path d="M250.436 46.5306C250.368 46.4498 250.282 46.3856 250.186 46.3429C250.089 46.3002 249.984 46.2802 249.878 46.2843C249.774 46.2865 249.671 46.3102 249.577 46.3539C249.482 46.3975 249.397 46.4603 249.328 46.5382C249.259 46.616 249.206 46.7074 249.174 46.8065C249.141 46.9056 249.129 47.0103 249.139 47.1141V49.3703H248.387V45.6554H249.12V46.0703C249.241 45.9255 249.392 45.81 249.564 45.7325C249.736 45.655 249.923 45.6176 250.112 45.623C250.276 45.6142 250.441 45.6409 250.594 45.7013C250.747 45.7617 250.886 45.8544 251 45.9731L250.436 46.5306Z" fill="#898989"/>
    <path d="M78.4152 12.4868H84.503V24.1502L91.2975 12.4868H97.677L89.8193 25.3691L98.4875 38.394H91.0771L84.503 27.1909V38.394H78.4152V12.4868Z" fill="#F5F5F5"/>
    <path d="M104.964 25.4013C104.964 29.3626 107.441 33.071 111.532 33.071C115.85 33.071 117.944 28.7986 117.944 25.4726C117.944 22.1467 115.85 17.8029 111.461 17.8029C107.24 17.8029 104.977 21.7253 104.977 25.3689L104.964 25.4013ZM98.8765 25.719C98.8765 17.2454 104.867 11.9939 111.441 11.9939C118.78 11.9939 124.038 18.2243 124.038 25.4337C124.038 32.6431 118.813 38.8801 111.409 38.8801C103.901 38.8801 98.8765 32.3968 98.8765 25.7514V25.719Z" fill="#F5F5F5"/>
    <path d="M128.129 12.4868H135.909C139.65 12.4868 141.964 13.2194 143.287 14.341C145.284 16.0202 146.185 18.5746 146.185 21.4143C146.215 23.0576 145.803 24.6788 144.992 26.1082C144.265 27.3215 143.187 28.2848 141.899 28.8701L146.833 38.394H140.544L134.34 25.9007H135.338C136.888 25.9007 138.21 25.7516 139.014 25.194C139.465 24.7996 139.821 24.3085 140.056 23.7573C140.29 23.2061 140.397 22.6091 140.369 22.0108C140.392 21.4312 140.275 20.8546 140.028 20.3298C139.781 19.8051 139.411 19.3476 138.949 18.996C138.203 18.5369 137.343 18.2966 136.466 18.3023H134.217V38.4005H128.129V12.4868Z" fill="#F5F5F5"/>
    <path d="M155.994 12.4868V28.1374C155.952 29.1935 156.095 30.2489 156.416 31.2559C156.6 31.8162 156.963 32.3005 157.449 32.6344C157.935 32.9682 158.517 33.1331 159.106 33.1036C159.671 33.1584 160.238 33.0229 160.718 32.7187C161.197 32.4145 161.561 31.959 161.751 31.4245C162.067 30.3745 162.197 29.2774 162.134 28.1828V12.4868H168.183V28.1374C168.183 32.4748 167.314 34.4068 165.804 36.086C164.962 37.0098 163.929 37.7386 162.777 38.2213C161.625 38.704 160.381 38.9289 159.132 38.8802C157.395 38.8802 154.237 38.4264 152.273 36.1184C150.309 33.8103 149.887 31.9496 149.887 28.1374V12.4868H155.994Z" fill="#F5F5F5"/>
    <path d="M177.966 29.8164C177.966 32.8247 179.677 33.3498 180.442 33.3498C181.079 33.3278 181.681 33.054 182.117 32.5884C182.552 32.1229 182.784 31.5037 182.763 30.8667C182.763 29.4988 181.765 29.0773 178.095 27.3982C176.423 26.6656 172.261 24.8049 172.261 19.9748C172.261 14.7882 176.604 11.9939 180.604 11.9939C183.885 11.9939 188.527 13.8157 188.624 20.0461H182.601C182.472 19.1709 182.277 17.5241 180.404 17.5241C180.133 17.5198 179.864 17.569 179.613 17.6687C179.362 17.7685 179.132 17.9169 178.938 18.1054C178.744 18.2939 178.59 18.5189 178.483 18.7673C178.376 19.0158 178.319 19.2829 178.316 19.5534C178.316 20.7463 178.964 21.064 183.243 23.1646C187.691 25.33 188.819 27.5732 188.819 30.5879C188.819 34.7178 186.822 38.8801 180.507 38.8801C174.193 38.8801 171.748 34.8928 171.904 29.8035L177.966 29.8164Z" fill="#F5F5F5"/>
    <path d="M195.399 18.3023H190.693V12.4868H206.155V18.3023H201.487V38.394H195.399V18.3023Z" fill="#F5F5F5"/>
    <path d="M209.416 12.4868H222.914V18.3023H215.504V22.3284H222.688V28.1375H215.504V32.585H222.914V38.394H209.416V12.4868Z" fill="#F5F5F5"/>
    <path d="M250.877 28.6948C249.49 34.8215 244.595 38.8801 238.825 38.8801C231.356 38.8801 226.26 32.3968 226.26 25.4078C226.26 18.7884 230.967 11.9939 238.76 11.9939C246.235 11.9939 250.229 18.2632 250.877 22.3218H244.498C243.849 20.3768 242.021 17.7835 238.728 17.7835C234.637 17.7835 232.354 21.6734 232.354 25.343C232.354 29.2654 234.799 33.0451 238.76 33.0451C242.566 33.0451 244.109 29.5766 244.498 28.6689L250.877 28.6948Z" fill="#F5F5F5"/>
</svg>
