<svg width="243" height="62" viewBox="0 0 243 62" fill="none" xmlns="http://www.w3.org/2000/svg">
    <path d="M30.9564 62C37.079 62 43.0641 60.1832 48.1549 56.7793C53.2456 53.3754 57.2134 48.5373 59.5564 42.8768C61.8994 37.2163 62.5124 30.9877 61.318 24.9786C60.1235 18.9695 57.1752 13.4497 52.8459 9.11738C48.5165 4.78504 43.0006 1.83468 36.9957 0.63939C30.9907 -0.5559 24.7664 0.0575674 19.1099 2.40221C13.4534 4.74686 8.61863 8.71738 5.21709 13.8117C1.81556 18.906 0 24.8952 0 31.0221C0 39.2379 3.26147 47.1173 9.06692 52.9268C14.8724 58.7363 22.7462 62 30.9564 62Z" fill="white"/>
    <path d="M30.9377 2.56871e-06H30.5485V9.01953C30.6803 9.01953 30.8059 9.01953 30.9377 9.01953C36.1488 9.02289 41.1883 10.8842 45.1521 14.2694C49.1159 17.6547 51.7447 22.3425 52.567 27.492H61.6744C60.8224 19.9272 57.2151 12.9417 51.5416 7.87022C45.8681 2.79876 38.5262 -0.00309686 30.9188 2.56871e-06" fill="#E60013"/>
    <path d="M52.881 30.8585C52.881 30.8962 52.881 30.9276 52.881 30.9653C52.881 33.8522 52.3128 36.7109 51.2088 39.3781C50.1048 42.0452 48.4866 44.4687 46.4467 46.51C44.4068 48.5514 41.985 50.1707 39.3197 51.2755C36.6544 52.3802 33.7977 52.9488 30.9128 52.9488C30.7873 52.9488 30.6555 52.9488 30.5174 52.9488H30.3856V61.9621H30.9567C35.0201 61.9629 39.0437 61.1627 42.798 59.6073C46.5522 58.0518 49.9635 55.7715 52.837 52.8966C55.7104 50.0217 57.9899 46.6085 59.545 42.852C61.1002 39.0955 61.9006 35.0691 61.9006 31.003V30.8962L52.881 30.8585Z" fill="#008CD6"/>
    <path d="M21.88 18.2526L21.9616 18.3594L22.0746 18.7865L22.3759 19.2199L22.3006 19.848L22.6709 20.2185L22.8592 20.7462L22.583 21.2109L22.4135 22.2347L23.0036 23.9055L23.9262 24.5964L24.2965 25.7333L24.7798 27.3852C24.7798 27.3852 25.941 28.8738 25.9536 28.9303C26.1809 29.0651 26.418 29.1827 26.6628 29.282L26.2925 28.6539L25.9222 27.8939L26.2737 27.5108L26.123 27.1088H26.4996L26.7068 26.085L27.6043 25.7898L27.7299 24.6152L28.3575 23.5286L27.9307 22.5802L26.418 21.9521L25.8783 21.0225L25.169 20.8152L24.7359 20.1369L23.5433 19.7035L22.9973 20.2814L22.6646 19.9422L22.6081 19.0503L22.3508 18.8053L22.7211 18.0202L22.5767 17.7375L22.2566 17.9825L22.7399 16.7263L23.2044 16.5567L23.4806 17.3356L23.65 16.5379L24.4911 15.8407L24.8991 14.9111L25.2757 15.0556L26.2988 14.7038L26.7633 14.1448L26.9327 14.5342L27.4035 14.2893L27.6043 13.3408L27.2905 12.9703L26.2486 13.5104L26.28 13.0205L26.9704 12.7065L27.755 12.3484L27.7926 12.7441L28.4831 12.4803V12.0909L28.4517 11.8837C26.9159 12.3197 25.512 13.1295 24.3652 14.2409C23.2185 15.3522 22.3647 16.7305 21.88 18.2526Z" fill="#45BDCF"/>
    <path d="M39.9759 20.6079L39.9382 19.3894L39.4549 19.5025L38.9465 18.9623L38.1808 17.4486L38.9842 18.3091L39.3796 18.9372L39.8441 18.5478L39.5114 17.3481L39.1725 16.9084L39.4926 16.7388H39.5867C38.4675 14.5948 36.5865 12.9478 34.3144 12.1223V12.4615L33.7306 12.3107H33.2285L32.877 12.8258L33.3415 13.2592L34.0507 13.165L34.1637 13.523H33.536L33.5235 13.8559L33.2285 14.1197L32.7766 14.2704L33.1343 14.6033L32.9837 14.842H32.4753L32.2556 15.3822L32.7389 15.7339L33.4293 15.602L33.875 14.8797L34.3646 14.7289L35.1617 15.2126L35.1115 15.6397L35.4441 15.4764L35.1491 14.7478L35.7768 15.3256L36.166 15.4198L36.2789 14.8608L36.3166 14.3332L37.233 14.8043L36.6493 15.0304L36.4861 15.4575L36.9882 15.715L37.4903 15.6397L37.7163 16.4499H37.0259L36.2413 16.2426L36.1095 16.4876L34.9922 16.2426L34.691 15.6145L33.6114 15.8218L33.2034 16.0668L32.6761 16.1045L32.2682 16.9964L31.6405 17.4046L31.3016 18.6608L31.4271 19.5088L32.9398 21.1732L34.8604 20.6708L35.0487 21.0413H35.6764L35.8835 21.3051L35.6764 21.9018L36.1785 22.6241V23.7296L35.8082 24.1756L36.0342 25.4255L35.8145 25.8714L36.0342 26.5812L35.8961 27.1088L36.9254 26.845L38.4004 25.5385V24.7911L39.2854 23.2774L39.229 22.4922L39.9759 20.6079Z" fill="#ABCD05"/>
    <path d="M29.4875 11.9214L29.4122 12.1852L29.0607 12.3548L28.7782 12.895L28.9037 13.1713L29.8013 12.5935L30.5357 12.537L30.9562 12.2041L31.0692 11.7141L30.4227 11.6765L29.4875 11.9214Z" fill="#45BDCF"/>
    <path d="M32.2116 13.4163L31.8727 13.5859L31.9104 13.8246L32.1551 13.8623L32.3811 13.5105L32.5317 13.7178L32.4313 14.0507H32.7703L33.128 13.7367L32.5694 13.341L32.2116 13.1902V13.4163Z" fill="#ABCD05"/>
    <path d="M23.2364 18.2399L23.8892 18.7047L24.2783 18.2713L23.1799 17.7688L23.2364 18.2399Z" fill="#45BDCF"/>
    <path d="M30.6993 12.65L30.8123 12.895L31.4149 12.7819L31.0759 12.5369L30.6993 12.65Z" fill="#45BDCF"/>
    <path d="M30.1532 46.831L29.0924 48.2631C28.9156 48.4657 28.6658 48.5901 28.3976 48.6089C28.1294 48.6278 27.8647 48.5395 27.6613 48.3636C27.549 48.2937 27.4516 48.2023 27.3746 48.0946C27.2977 47.9869 27.2428 47.8651 27.213 47.7361C27.1833 47.6071 27.1793 47.4735 27.2013 47.343C27.2233 47.2125 27.2709 47.0876 27.3412 46.9755L28.3957 45.5434C28.5825 45.3733 28.8219 45.2725 29.074 45.2576C29.3261 45.2427 29.5757 45.3147 29.7812 45.4615C29.9867 45.6084 30.1357 45.8214 30.2034 46.0648C30.2711 46.3083 30.2533 46.5676 30.1532 46.7996M26.3558 46.272C26.2874 46.4082 26.1893 46.5272 26.0688 46.6204C25.9483 46.7135 25.8084 46.7784 25.6595 46.8102C25.5105 46.842 25.3564 46.8399 25.2083 46.8041C25.0603 46.7683 24.9222 46.6997 24.8043 46.6033C24.6863 46.507 24.5915 46.3853 24.5268 46.2473C24.4621 46.1094 24.4292 45.9586 24.4305 45.8063C24.4318 45.6539 24.4673 45.5037 24.5344 45.3669C24.6015 45.2301 24.6984 45.1101 24.818 45.0158L26.3558 43.1315C26.422 42.9907 26.5193 42.8669 26.6405 42.7694C26.7617 42.6719 26.9035 42.6033 27.0551 42.5689C27.2067 42.5344 27.3642 42.535 27.5155 42.5706C27.6669 42.6061 27.8081 42.6758 27.9286 42.7742C28.049 42.8725 28.1455 42.9971 28.2106 43.1384C28.2757 43.2797 28.3078 43.4339 28.3045 43.5895C28.3011 43.745 28.2623 43.8977 28.1911 44.0361C28.1199 44.1744 28.0182 44.2946 27.8936 44.3877L26.3558 46.272ZM22.2258 45.1226C21.7425 44.7708 21.7613 43.9166 22.2697 43.2383L24.0397 40.8264C24.5544 40.1355 25.3578 39.8591 25.8411 40.1983C26.3244 40.5374 26.3056 41.3979 25.7972 42.0826L24.0272 44.4882C23.5125 45.1854 22.7091 45.4555 22.2258 45.1163M20.1043 42.6039C19.8979 42.4774 19.7491 42.2754 19.6893 42.0408C19.6295 41.8062 19.6635 41.5576 19.7842 41.3477L20.7194 40.0915C20.8796 39.9206 21.0994 39.818 21.3332 39.8052C21.567 39.7923 21.7968 39.8701 21.9747 40.0224C22.181 40.1488 22.3299 40.3508 22.3897 40.5854C22.4495 40.82 22.4154 41.0687 22.2948 41.2786L21.3659 42.5348C21.2017 42.713 20.9741 42.8194 20.7322 42.8312C20.4903 42.8429 20.2535 42.759 20.0729 42.5976M42.6688 39.5011C42.1353 39.1431 40.6603 37.8806 40.6603 37.8806C38.4321 36.0842 31.6407 32.1963 31.6407 32.1963C30.9364 32.4859 30.2179 32.7396 29.4878 32.9563C29.0548 33.4525 28.6593 33.8482 28.6593 33.8482C26.6194 36.5867 25.3641 35.4373 25.3641 35.4373C24.7866 35.2551 26.6194 32.9249 26.6194 32.9249L28.0568 30.7265C28.1635 30.1926 31.0382 30.0482 31.0382 30.0482C34.346 29.4703 36.1725 30.0482 36.1725 30.0482C39.3736 31.1976 40.88 30.3685 40.88 30.3685L49.7551 22.8313C49.5731 22.4293 49.3848 22.0273 49.1839 21.6379L40.5661 29.0746C40.3621 29.2608 40.1172 29.3965 39.8512 29.4706C39.5852 29.5448 39.3055 29.5555 39.0346 29.5017C37.1869 29.0247 35.2927 28.7509 33.3856 28.6852C33.3856 28.6852 28.5966 28.6412 27.4479 29.7404L26.8203 30.3685C25.5649 30.0858 17.1103 25.7143 12.2271 23.1516C12.089 23.4719 11.9697 23.7797 11.8505 24.1377C15.924 26.1225 22.7844 29.709 22.7844 29.709C23.9781 30.2393 25.1355 30.8478 26.2491 31.5305C24.4226 34.1685 24.2845 34.9787 24.2845 34.9787C24.046 36.9447 26.2491 36.6558 26.2491 36.6558C28.3518 36.4674 30.1343 33.9549 30.1343 33.9549C31.2453 33.4148 31.6094 33.5906 31.6094 33.5906C34.7477 35.0353 39.1413 38.3391 39.1413 38.3391C40.3561 39.1906 41.5077 40.1289 42.5872 41.1467C42.7253 42.9368 41.1122 42.4343 41.1122 42.4343L35.7017 39.231C35.005 38.9483 34.8418 39.231 34.8418 39.231C34.7181 39.34 34.6421 39.4933 34.6304 39.6578C34.6186 39.8223 34.672 39.9849 34.7791 40.1103L40.2397 43.3765C40.2397 44.9279 38.658 44.5133 38.658 44.5133L34.1514 41.9067C33.2978 41.5927 33.1848 42.0512 33.1848 42.0512C32.7517 42.516 33.3229 42.9117 33.3229 42.9117L37.886 45.4618C37.7479 47.3461 36.003 46.473 36.003 46.473L32.7329 44.8525C31.9106 44.2935 31.6219 44.9279 31.6219 44.9279C31.1888 45.6816 32.124 45.9328 32.124 45.9328L35.3188 47.4026C34.1702 49.2429 30.831 47.6224 30.831 47.6224C31.2265 47.2958 31.2265 46.4353 31.2265 46.4353C31.5152 44.4945 29.4251 44.0611 29.4251 44.0611C29.4251 41.5487 27.4542 41.2912 27.4542 41.2912C27.1278 39.8591 26.5943 39.5325 26.5943 39.5325C26.3684 39.3188 26.0953 39.1615 25.7972 39.0733C25.4991 38.9851 25.1844 38.9685 24.8787 39.0247C24.573 39.081 24.2848 39.2087 24.0376 39.3973C23.7904 39.5859 23.5912 39.8302 23.456 40.1103C21.9496 37.8806 19.8971 39.5325 19.8971 39.5325L11.273 36.5678C11.3986 37.0138 11.5304 37.466 11.681 37.9057L19.1565 40.4809C19.1565 40.4809 18.1962 42.1203 19.0875 43.1189C19.2521 43.4315 19.5012 43.6915 19.8064 43.8692C20.1116 44.0469 20.4606 44.1352 20.8135 44.1239C20.8135 44.1239 20.4307 46.3788 23.3995 46.5672C23.3995 46.5672 24.0711 48.6776 26.1298 48.15C26.1298 48.15 26.4186 50.2165 28.7409 49.6826C29.3404 49.5146 29.8498 49.1176 30.1594 48.5771C30.1594 48.5771 34.0384 50.3798 35.8524 48.6274C36.1085 48.3692 36.3055 48.0585 36.4298 47.7166C36.4298 47.7166 38.9405 47.9616 39.0158 45.757C39.6006 45.7974 40.1782 45.6081 40.6259 45.2293C41.0735 44.8505 41.3561 44.312 41.4135 43.7282C41.8229 43.747 42.23 43.6555 42.5921 43.4633C42.9542 43.271 43.2581 42.9851 43.4722 42.6353C43.7087 42.3332 43.8528 41.9691 43.8874 41.5869C43.9219 41.2046 43.8453 40.8206 43.6668 40.4809C43.6668 40.4809 44.3321 40.0161 45.782 38.9232L51.1925 35.3054C51.2929 34.7966 51.3557 34.2878 51.4247 33.7665C47.4139 36.4673 42.7065 39.5325 42.7065 39.5325" fill="#008CD6"/>
    <path d="M8.99443 30.9652C8.99443 30.9275 8.99443 30.8961 8.99443 30.8585H0V30.9652C0.000381709 39.0795 3.18487 46.8692 8.86786 52.6572C14.5508 58.4451 22.2778 61.7685 30.3852 61.9117V52.8985C24.677 52.7352 19.2567 50.3541 15.273 46.2598C11.2893 42.1655 9.05536 36.6797 9.04464 30.9652" fill="#293BDB"/>
    <path d="M30.3849 0.0378438C22.4026 0.180047 14.7846 3.40588 9.12474 9.04036C3.46493 14.6748 0.201922 22.2814 0.0184656 30.2683H9.04428C9.22028 24.6715 11.5287 19.354 15.4966 15.4056C19.4644 11.4572 24.791 9.177 30.3849 9.03224H30.5669V0.0378438H30.3849Z" fill="#D7083B"/>
    <path d="M52.881 30.8585L61.8815 30.8587C61.8815 30.664 61.8815 30.463 61.8815 30.2683H52.8494C52.8494 30.463 52.8494 30.6577 52.8494 30.8587" fill="white"/>
    <path d="M30.5487 30.2743H30.3729V30.8647H30.5487V30.2743Z" fill="white"/>
    <path d="M18.8553 10.4138L16.6397 9.20158L16.5769 10.1563L17.4054 11.3874L16.6711 11.8773L13.9219 7.79463L14.6563 7.29843L15.8551 9.08224L15.9806 6.41281L16.8782 5.81612L16.7213 8.27199L19.7089 9.83596L18.8553 10.4138Z" fill="white"/>
    <path d="M20.8696 5.13796C20.7713 5.09239 20.6642 5.06878 20.5558 5.06878C20.4474 5.06878 20.3403 5.09239 20.242 5.13796C20.1408 5.17947 20.0504 5.24345 19.9775 5.32506C19.9047 5.40666 19.8513 5.50377 19.8214 5.60903C19.7398 5.86656 19.7901 6.09267 20.1604 6.96573C20.5307 7.83879 20.6562 8.0335 20.8948 8.15912C20.993 8.20511 21.1001 8.22895 21.2086 8.22895C21.317 8.22895 21.4242 8.20511 21.5224 8.15912C21.6236 8.11761 21.714 8.05363 21.7869 7.97203C21.8597 7.89042 21.9131 7.79332 21.9429 7.68805C22.0183 7.43681 21.9429 7.20441 21.6103 6.33135C21.2776 5.45829 21.1019 5.26986 20.8634 5.14424M22.7464 7.97069C22.675 8.19068 22.5559 8.39209 22.3974 8.56044C22.2389 8.72879 22.0451 8.85987 21.83 8.94425C21.6196 9.04205 21.3904 9.09272 21.1584 9.09272C20.9264 9.09272 20.6972 9.04205 20.4868 8.94425C19.8591 8.6616 19.6457 8.09003 19.313 7.30491C18.9804 6.51978 18.7293 5.96077 18.9553 5.32011C19.0296 5.10072 19.1505 4.90006 19.3098 4.73199C19.4691 4.56391 19.6629 4.43241 19.8779 4.34655C20.0871 4.24845 20.3154 4.1976 20.5464 4.1976C20.7774 4.1976 21.0056 4.24845 21.2149 4.34655C21.8425 4.6292 22.0622 5.19449 22.3949 5.97961C22.7275 6.76474 22.9723 7.33003 22.7464 7.96441" fill="white"/>
    <path d="M25.3257 3.57399L24.5098 3.74986L24.7859 5.00606L25.5956 4.83019C25.6797 4.81401 25.7596 4.78079 25.8304 4.73256C25.9012 4.68433 25.9613 4.62212 26.0072 4.54976C26.0531 4.47739 26.0836 4.39639 26.0971 4.31176C26.1105 4.22713 26.1064 4.14064 26.0852 4.05763C26.0696 3.97426 26.0373 3.89491 25.9903 3.82437C25.9432 3.75383 25.8823 3.69356 25.8114 3.64719C25.7404 3.60082 25.6608 3.56932 25.5773 3.55458C25.4939 3.53984 25.4083 3.54217 25.3257 3.56143M26.8509 7.38656L25.5956 5.653L24.968 5.79118L25.3759 7.67549L24.516 7.86391L23.4804 3.09663L25.2127 2.71977C25.4045 2.67207 25.6041 2.6648 25.7988 2.69844C25.9936 2.73208 26.1792 2.80588 26.3438 2.91516C26.5085 3.02444 26.6487 3.1668 26.7555 3.33321C26.8622 3.49961 26.9332 3.68642 26.9639 3.88176C27.0354 4.14789 27.0217 4.42973 26.9249 4.6877C26.8281 4.94568 26.653 5.16683 26.4241 5.32011L27.8615 7.20441L26.8509 7.38656Z" fill="white"/>
    <path d="M30.429 7.09757C30.2044 7.10814 29.9801 7.07197 29.7702 6.99137C29.5603 6.91076 29.3694 6.78747 29.2095 6.62927C29.0497 6.47108 28.9243 6.28142 28.8415 6.07229C28.7586 5.86315 28.7199 5.63909 28.728 5.41426L28.6652 2.17326H29.544L29.613 5.37029C29.613 5.93558 29.9394 6.26847 30.4101 6.25591C30.8809 6.24335 31.1884 5.89789 31.1822 5.3326L31.1131 2.13557H31.9919L32.0546 5.36401C32.0728 5.58877 32.0443 5.81486 31.9709 6.02804C31.8975 6.24123 31.7807 6.43689 31.628 6.60269C31.4753 6.7685 31.2899 6.90086 31.0835 6.99144C30.8772 7.08201 30.6543 7.12884 30.429 7.12897" fill="white"/>
    <path d="M34.5653 7.38659C34.2588 7.36012 33.9623 7.2644 33.6981 7.10665C33.4339 6.94889 33.2089 6.73321 33.0401 6.47584L33.7117 5.95452C33.8285 6.11861 33.9792 6.25568 34.1535 6.35646C34.3279 6.45724 34.5218 6.51937 34.7222 6.53865C35.2369 6.62658 35.5445 6.457 35.6072 6.06757C35.637 5.9195 35.6125 5.76564 35.5382 5.63419C35.446 5.51837 35.3179 5.4366 35.1741 5.40179L34.6469 5.2322C34.3257 5.14471 34.043 4.95238 33.8435 4.68575C33.6648 4.38314 33.6087 4.02354 33.6866 3.68079C33.7113 3.4764 33.7794 3.27967 33.8863 3.10377C33.9933 2.92787 34.1365 2.77687 34.3065 2.66089C34.4765 2.54491 34.6693 2.46663 34.872 2.43129C35.0746 2.39595 35.2825 2.40437 35.4817 2.456C35.7512 2.48491 36.0113 2.57172 36.2442 2.71047C36.4771 2.84923 36.6773 3.03666 36.8312 3.25997L36.2035 3.76245C36.1018 3.62627 35.9728 3.51288 35.8247 3.42959C35.6766 3.3463 35.5127 3.29494 35.3436 3.27881C35.2585 3.25463 35.1693 3.24871 35.0818 3.26146C34.9942 3.2742 34.9104 3.30532 34.8357 3.35276C34.761 3.40021 34.6972 3.46291 34.6485 3.53676C34.5997 3.61061 34.5671 3.69394 34.5528 3.78129C34.5392 3.84456 34.5384 3.90988 34.5502 3.97349C34.5621 4.03709 34.5864 4.09772 34.6218 4.15187C34.7205 4.27446 34.854 4.36424 35.0047 4.40939L35.5194 4.57898C35.6927 4.61186 35.8572 4.68094 36.002 4.7817C36.1469 4.88247 36.2689 5.01266 36.3601 5.16379C36.4513 5.31491 36.5097 5.48358 36.5313 5.65879C36.553 5.83399 36.5376 6.01181 36.486 6.18063C36.4504 6.38814 36.3719 6.58594 36.2556 6.76139C36.1393 6.93684 35.9877 7.08608 35.8105 7.19957C35.6333 7.31306 35.4344 7.38832 35.2264 7.42052C35.0185 7.45272 34.8062 7.44116 34.603 7.38659" fill="white"/>
    <path d="M40.265 4.64808L38.9281 8.48578L38.0995 8.19057L39.4302 4.35915L38.313 3.96973L38.5891 3.15948L41.6584 4.22725L41.3822 5.0375L40.265 4.64808Z" fill="white"/>
    <path d="M40.9488 9.30223L43.3402 5.00602L45.9387 6.46322L45.5245 7.20438L43.698 6.18685L43.1331 7.19181L44.696 8.06487L44.2754 8.81231L42.7188 7.93925L42.1414 8.98818L43.9679 10.0057L43.5536 10.7594L40.9488 9.30223Z" fill="white"/>
    <path d="M45.6247 12.3925C45.4402 12.2521 45.2884 12.0732 45.18 11.8682C45.0716 11.6632 45.0092 11.437 44.9971 11.2054C44.9594 10.527 45.3548 10.0559 45.8946 9.39643C46.4344 8.73692 46.8173 8.25328 47.4889 8.14022C47.7115 8.10869 47.9383 8.12426 48.1545 8.18593C48.3708 8.2476 48.5717 8.354 48.7442 8.49824C49.0777 8.76225 49.2959 9.14522 49.3533 9.56681C49.4106 9.9884 49.3026 10.4158 49.0518 10.7594L48.3551 10.1878C48.4596 10.0283 48.502 9.83598 48.4742 9.64727C48.4465 9.45856 48.3505 9.28661 48.2044 9.16403C48.1206 9.08854 48.0195 9.03476 47.9101 9.00739C47.8007 8.98002 47.6863 8.97988 47.5768 9.007C47.3132 9.05725 47.1249 9.20171 46.5286 9.94287C45.9323 10.684 45.813 10.885 45.8193 11.1551C45.8195 11.2626 45.8438 11.3686 45.8906 11.4654C45.9373 11.5622 46.0052 11.6472 46.0892 11.7141C46.2386 11.8337 46.4268 11.8941 46.6178 11.8836C46.8088 11.8732 46.9893 11.7927 47.1249 11.6576L47.8153 12.2229C47.5292 12.5365 47.133 12.7274 46.7095 12.7555C46.286 12.7836 45.8681 12.6467 45.5431 12.3736" fill="white"/>
    <path d="M5.19066 33.0444L5.21576 33.3522L5.81832 33.3019L6.26396 33.6034L5.30364 34.2755L5.33502 34.6398L6.51503 33.7918L7.3812 34.3885L7.34354 34.0054L6.23885 33.2642L7.26822 33.17L7.24312 32.856L5.19066 33.0444Z" fill="white"/>
    <path d="M6.6532 35.6133C6.69812 35.5471 6.71608 35.4662 6.70341 35.3872C6.69862 35.3472 6.68554 35.3087 6.665 35.2741C6.64447 35.2395 6.61693 35.2096 6.58416 35.1862C6.44946 35.1307 6.29832 35.1307 6.16362 35.1862C6.02247 35.1932 5.88866 35.2513 5.78702 35.3495C5.76317 35.3815 5.74636 35.4182 5.73771 35.4572C5.72905 35.4962 5.72875 35.5365 5.73681 35.5756C5.7416 35.6156 5.75468 35.6541 5.77522 35.6888C5.79576 35.7234 5.82329 35.7533 5.85607 35.7766C5.98451 35.8409 6.13241 35.8543 6.27033 35.8143C6.41466 35.8077 6.55127 35.7472 6.6532 35.6447M5.71798 36.0279C5.65054 35.9811 5.59382 35.9205 5.55162 35.8501C5.50941 35.7798 5.48267 35.7012 5.47319 35.6196C5.45771 35.5404 5.45864 35.4588 5.47591 35.3799C5.49319 35.3011 5.52644 35.2266 5.57362 35.1611C5.64083 35.0805 5.72412 35.0149 5.81815 34.9684C5.91219 34.9218 6.01489 34.8955 6.11969 34.891C6.21911 34.8634 6.32302 34.8558 6.42539 34.8688C6.52776 34.8817 6.62653 34.9149 6.71597 34.9664C6.84655 35.0636 6.93432 35.2077 6.96076 35.3684C6.99299 35.5317 6.95913 35.7011 6.86661 35.8394C6.72642 35.9959 6.53018 36.0907 6.32054 36.1032C6.21653 36.1357 6.10682 36.1458 5.99864 36.1328C5.89046 36.1198 5.78626 36.0841 5.69287 36.0279" fill="white"/>
    <path d="M6.96101 37.1962C6.98666 37.1627 7.00448 37.1238 7.01317 37.0825C7.02186 37.0412 7.02119 36.9985 7.01122 36.9575C7.00047 36.9182 6.98188 36.8816 6.95658 36.8497C6.93128 36.8178 6.89979 36.7914 6.86402 36.772C6.82824 36.7527 6.78892 36.7407 6.74841 36.737C6.70791 36.7332 6.66707 36.7377 6.62835 36.7502L5.75589 36.9449L5.68685 36.6623L7.11792 36.3357L7.18697 36.6183L7.03005 36.6497C7.09586 36.6846 7.15309 36.7337 7.1976 36.7934C7.24211 36.8532 7.27278 36.9221 7.28739 36.9952C7.305 37.0574 7.30907 37.1227 7.29933 37.1866C7.28958 37.2505 7.26625 37.3116 7.2309 37.3657L6.96101 37.1962Z" fill="white"/>
    <path d="M7.25607 38.5403C7.30228 38.5005 7.33618 38.4484 7.35381 38.39C7.37143 38.3317 7.37204 38.2695 7.35556 38.2108C7.33908 38.1521 7.3062 38.0993 7.26078 38.0586C7.21536 38.018 7.15929 37.9912 7.09916 37.9813C7.0313 37.9632 6.95988 37.9632 6.89203 37.9813L7.0866 38.6094C7.14993 38.5923 7.20812 38.56 7.25607 38.5152M6.69745 38.0315C6.64494 38.0397 6.59486 38.0593 6.55071 38.0889C6.50657 38.1185 6.46943 38.1574 6.44192 38.2029C6.4144 38.2484 6.39717 38.2993 6.39144 38.3522C6.3857 38.4051 6.3916 38.4586 6.40873 38.5089C6.42373 38.5746 6.4536 38.6359 6.49604 38.6882C6.53849 38.7404 6.59236 38.7822 6.65352 38.8104L6.53426 39.0365C6.44204 38.9929 6.36084 38.929 6.29672 38.8496C6.2326 38.7702 6.18721 38.6774 6.16394 38.578C6.06351 38.22 6.16394 37.8871 6.69745 37.7301C7.23097 37.573 7.48831 37.7301 7.59501 38.1132C7.62021 38.1987 7.62692 38.2887 7.61468 38.377C7.60244 38.4654 7.57155 38.5501 7.52404 38.6256C7.47654 38.701 7.41352 38.7655 7.33917 38.8147C7.26483 38.8639 7.18087 38.8967 7.09288 38.9109L6.96735 38.9486L6.69745 38.0315Z" fill="white"/>
    <path d="M7.38135 40.1546L7.2621 39.8342C7.20561 39.6646 7.0989 39.6081 6.97337 39.6584C6.84784 39.7086 6.8039 39.8091 6.87294 39.9787C6.94199 40.1483 6.94199 40.1671 7.04241 40.2111C7.07814 40.2263 7.11657 40.2341 7.15539 40.2341C7.19422 40.2341 7.23264 40.2263 7.26837 40.2111L7.38135 40.1546ZM6.75369 40.387L6.87922 40.343C6.81219 40.3136 6.75259 40.2696 6.7048 40.2142C6.65701 40.1588 6.62224 40.0933 6.60305 40.0227C6.57508 39.9571 6.56066 39.8866 6.56066 39.8154C6.56066 39.7441 6.57508 39.6736 6.60305 39.6081C6.65966 39.5038 6.75397 39.4252 6.86667 39.3883C7.09263 39.3003 7.31859 39.3883 7.43784 39.7212L7.56965 40.0918L7.67008 40.0478C7.83955 39.985 7.89604 39.8656 7.81444 39.6521C7.80224 39.592 7.7734 39.5366 7.73123 39.4922C7.68905 39.4478 7.63523 39.4161 7.57593 39.4008L7.67635 39.1559C7.76949 39.1915 7.85279 39.2489 7.91938 39.3231C7.98596 39.3974 8.0339 39.4865 8.05923 39.583C8.19732 39.9599 8.10317 40.2111 7.78933 40.3242L6.86667 40.6633L6.75369 40.387Z" fill="white"/>
    <path d="M9.33962 41.8378L9.13249 41.417L8.55504 41.6996L8.75589 42.1205C8.7695 42.1636 8.79265 42.2032 8.82362 42.2362C8.85459 42.2692 8.89259 42.2948 8.93479 42.3111C8.977 42.3274 9.02233 42.3339 9.06742 42.3303C9.11251 42.3266 9.1562 42.3129 9.19526 42.2901C9.23662 42.2723 9.27369 42.2459 9.30395 42.2126C9.33421 42.1793 9.35696 42.1398 9.37065 42.0969C9.38434 42.054 9.38866 42.0087 9.3833 41.964C9.37795 41.9193 9.36305 41.8763 9.33962 41.8378ZM7.88972 42.9433L8.486 42.1707L8.31025 41.8127L7.53195 42.1958L7.39386 41.9132L9.27685 41.015L9.62207 41.7373C9.66478 41.8083 9.69191 41.8876 9.70166 41.9698C9.71141 42.0521 9.70356 42.1355 9.67863 42.2145C9.65369 42.2935 9.61225 42.3663 9.55705 42.4281C9.50185 42.4898 9.43415 42.5391 9.35845 42.5727C9.24892 42.6313 9.12269 42.6508 9.00059 42.628C8.8785 42.6051 8.76783 42.5413 8.68685 42.4471L8.05919 43.2699L7.88972 42.9433Z" fill="white"/>
    <path d="M8.73072 44.4695L8.85625 44.3941C8.78606 44.3785 8.72003 44.348 8.66264 44.3046C8.60525 44.2613 8.55783 44.2061 8.52359 44.1429C8.48618 44.0873 8.46072 44.0245 8.44884 43.9585C8.43695 43.8926 8.4389 43.8249 8.45455 43.7597C8.47438 43.6869 8.50996 43.6194 8.55877 43.5618C8.60757 43.5043 8.66842 43.4582 8.73699 43.4268L9.55296 42.9495L9.7036 43.207L8.92529 43.6592C8.88629 43.6742 8.85108 43.6976 8.8222 43.7278C8.79332 43.7579 8.77149 43.7942 8.75829 43.8338C8.74508 43.8735 8.74082 43.9155 8.74582 43.957C8.75082 43.9985 8.76496 44.0384 8.78721 44.0738C8.8069 44.1119 8.83467 44.1453 8.86859 44.1716C8.9025 44.1979 8.94175 44.2165 8.98358 44.2261C9.02541 44.2356 9.06882 44.236 9.11079 44.227C9.15276 44.2181 9.19227 44.2001 9.22657 44.1743L9.9986 43.7283L10.1492 43.9795L8.89391 44.7207L8.73072 44.4695Z" fill="white"/>
    <path d="M9.43998 45.6252C9.37118 45.5372 9.32074 45.4363 9.29163 45.3284C9.26252 45.2205 9.25534 45.1079 9.27051 44.9971L9.54668 45.0474C9.53286 45.1241 9.53522 45.2028 9.55359 45.2785C9.57197 45.3542 9.60596 45.4253 9.65338 45.4871C9.75381 45.6315 9.88562 45.7195 9.9986 45.6378C10.1116 45.5561 10.099 45.5059 10.03 45.3803L9.917 45.173C9.78519 44.928 9.80402 44.7271 10.0174 44.5889C10.0747 44.5544 10.1386 44.5324 10.2049 44.5243C10.2712 44.5161 10.3385 44.522 10.4025 44.5416C10.4664 44.5611 10.5255 44.5939 10.5759 44.6377C10.6264 44.6816 10.667 44.7356 10.6953 44.7961C10.8158 44.9519 10.876 45.146 10.8648 45.3426L10.6074 45.2861C10.6102 45.1575 10.5705 45.0317 10.4945 44.9281C10.394 44.7836 10.2748 44.7522 10.1869 44.815C10.099 44.8778 10.0865 44.9406 10.1869 45.0788L10.2999 45.2609C10.3419 45.3057 10.3731 45.3595 10.3911 45.4182C10.4091 45.477 10.4134 45.539 10.4037 45.5997C10.394 45.6603 10.3706 45.7179 10.3352 45.7681C10.2998 45.8182 10.2533 45.8596 10.1995 45.889C9.94839 46.0586 9.66594 45.933 9.47136 45.6378" fill="white"/>
    <path d="M10.3377 46.8815C10.2619 46.7966 10.2045 46.697 10.1688 46.589C10.1332 46.4809 10.1202 46.3667 10.1306 46.2534L10.4067 46.291C10.3982 46.3675 10.4054 46.4449 10.4281 46.5184C10.4508 46.5919 10.4884 46.6599 10.5385 46.7182C10.6452 46.8626 10.7833 46.938 10.89 46.8563C10.9967 46.7747 10.9905 46.7119 10.89 46.5925L10.7645 46.3915C10.6139 46.1529 10.6201 45.9582 10.821 45.8011C10.8769 45.7631 10.9401 45.7372 11.0066 45.7252C11.073 45.7131 11.1413 45.7152 11.207 45.7311C11.2726 45.7471 11.3342 45.7767 11.3877 45.818C11.4412 45.8592 11.4855 45.9113 11.5177 45.9707C11.6443 46.1201 11.7152 46.3088 11.7185 46.5046L11.4549 46.4669C11.4522 46.337 11.4032 46.2123 11.3168 46.1152C11.2101 45.977 11.0972 45.9519 11.0093 46.0147C10.9214 46.0775 10.9151 46.1466 11.0093 46.2785L11.1348 46.4795C11.1782 46.5221 11.2114 46.574 11.2318 46.6313C11.2522 46.6886 11.2594 46.7498 11.2527 46.8103C11.2461 46.8708 11.2258 46.929 11.1934 46.9805C11.161 47.032 11.1174 47.0754 11.0658 47.1076C10.821 47.296 10.5385 47.183 10.3251 46.9003" fill="white"/>
    <path d="M11.022 47.7168L11.2103 47.9492L12.3338 47.007L12.1455 46.7809L11.022 47.7168ZM12.3652 46.5862L12.5598 46.8249L12.7983 46.6239L12.6037 46.3915L12.3652 46.5862Z" fill="white"/>
    <path d="M12.5975 48.5146L12.3653 48.2633C12.2398 48.1377 12.1268 48.1251 12.0264 48.2131C11.9259 48.301 11.9322 48.4203 12.0578 48.5522C12.0859 48.5929 12.1222 48.6273 12.1644 48.6533C12.2065 48.6792 12.2535 48.6962 12.3025 48.703C12.3426 48.7006 12.3817 48.6898 12.4173 48.6714C12.453 48.6531 12.4845 48.6274 12.5097 48.5962L12.5975 48.5146ZM12.1205 48.9668L12.2209 48.8726C12.1479 48.8721 12.076 48.8549 12.0107 48.8222C11.9455 48.7895 11.8885 48.7423 11.8443 48.6841C11.791 48.6369 11.7483 48.5789 11.7191 48.514C11.6899 48.449 11.6748 48.3785 11.6749 48.3073C11.6844 48.1911 11.7384 48.0831 11.8255 48.0058C11.8718 47.9626 11.927 47.9301 11.9873 47.9105C12.0475 47.891 12.1113 47.8849 12.1741 47.8927C12.2369 47.9004 12.2973 47.9219 12.3509 47.9556C12.4046 47.9892 12.4502 48.0342 12.4846 48.0875L12.7482 48.3764L12.8298 48.3073C12.9616 48.1817 12.9679 48.0498 12.8298 47.8802C12.7919 47.8305 12.7422 47.7913 12.6851 47.766C12.6281 47.7407 12.5656 47.7303 12.5034 47.7357V47.4719C12.6035 47.4682 12.703 47.4885 12.7936 47.5311C12.8842 47.5737 12.9633 47.6374 13.0244 47.7169C13.2943 48.0184 13.3131 48.2822 13.062 48.5083L12.3402 49.1741L12.1205 48.9668Z" fill="white"/>
    <path d="M13.6897 50.5119C13.5825 50.4301 13.4945 50.3259 13.4316 50.2066C13.3687 50.0873 13.3326 49.9557 13.3256 49.821H13.6143C13.6229 49.9171 13.6507 50.0106 13.6959 50.0958C13.7412 50.181 13.8031 50.2563 13.878 50.3172C14.0851 50.4994 14.2734 50.5182 14.4115 50.3612C14.4645 50.3028 14.4936 50.2265 14.4931 50.1476C14.4818 50.0653 14.4418 49.9897 14.3801 49.9341L14.2232 49.7456C14.1238 49.6402 14.0602 49.5061 14.0411 49.3625C14.0368 49.2901 14.0473 49.2177 14.0721 49.1496C14.097 49.0815 14.1356 49.0193 14.1855 48.9668C14.2443 48.903 14.3156 48.8521 14.395 48.8173C14.4744 48.7825 14.5602 48.7646 14.6468 48.7646C14.7335 48.7646 14.8193 48.7825 14.8987 48.8173C14.9781 48.8521 15.0494 48.903 15.1082 48.9668C15.2017 49.044 15.2783 49.1395 15.3334 49.2476C15.3884 49.3556 15.4207 49.4738 15.4283 49.5949H15.1458C15.1387 49.5139 15.115 49.4353 15.0761 49.364C15.0372 49.2927 14.984 49.2302 14.9199 49.1803C14.8892 49.1445 14.8512 49.1158 14.8084 49.0961C14.7656 49.0764 14.7191 49.0661 14.6719 49.0661C14.6248 49.0661 14.5783 49.0764 14.5355 49.0961C14.4927 49.1158 14.4547 49.1445 14.424 49.1803C14.3997 49.2063 14.381 49.2369 14.3691 49.2705C14.3572 49.304 14.3524 49.3396 14.355 49.375C14.3678 49.4605 14.4073 49.5397 14.468 49.6012L14.6186 49.7833C14.7157 49.8878 14.7792 50.0191 14.8006 50.1602C14.807 50.237 14.7968 50.3143 14.7708 50.3869C14.7449 50.4595 14.7036 50.5257 14.65 50.581C14.5884 50.6488 14.5127 50.7023 14.4282 50.7377C14.3437 50.7731 14.2526 50.7896 14.161 50.786C14.0695 50.7824 13.9799 50.7588 13.8985 50.7169C13.8171 50.675 13.7458 50.6157 13.6897 50.5433" fill="white"/>
    <path d="M15.102 51.6864C15.0233 51.6316 14.9582 51.5595 14.9117 51.4756C14.8651 51.3917 14.8384 51.2983 14.8336 51.2025C14.8287 51.1067 14.8459 51.011 14.8837 50.9229C14.9215 50.8347 14.979 50.7564 15.0518 50.694C15.0951 50.6087 15.1572 50.5344 15.2336 50.4768C15.3099 50.4192 15.3983 50.3798 15.4922 50.3617C15.586 50.3435 15.6828 50.347 15.7751 50.3719C15.8674 50.3969 15.9527 50.4426 16.0247 50.5055C16.1002 50.5547 16.1626 50.6216 16.2063 50.7004C16.2501 50.7793 16.2739 50.8676 16.2757 50.9578L15.9996 50.9892C16.0001 50.9346 15.9878 50.8806 15.9639 50.8315C15.9399 50.7825 15.9048 50.7397 15.8615 50.7065C15.8217 50.6741 15.7748 50.6515 15.7246 50.6406C15.6745 50.6296 15.6224 50.6307 15.5728 50.6437C15.4529 50.6861 15.3511 50.768 15.284 50.8761C15.194 50.965 15.1383 51.0829 15.1271 51.209C15.1276 51.2617 15.1403 51.3135 15.1643 51.3604C15.1883 51.4072 15.2228 51.4479 15.2652 51.4791C15.3068 51.5151 15.3569 51.5398 15.4108 51.5508C15.4646 51.5618 15.5204 51.5587 15.5728 51.5419L15.6104 51.8183C15.5212 51.8343 15.4295 51.8309 15.3418 51.8081C15.254 51.7853 15.1722 51.7438 15.102 51.6864Z" fill="white"/>
    <path d="M15.8361 52.2139L16.0746 52.3835L16.9283 51.1838L16.6835 51.0142L15.8361 52.2139ZM16.8467 50.763L17.104 50.9451L17.286 50.6939L17.0287 50.5118L16.8467 50.763Z" fill="white"/>
    <path d="M17.8322 52.2705C17.8415 52.2098 17.8328 52.1477 17.8071 52.0919C17.7815 52.036 17.74 51.989 17.6879 51.9565C17.6373 51.9211 17.577 51.9021 17.5153 51.9021C17.4535 51.9021 17.3933 51.9211 17.3427 51.9565C17.2847 51.9916 17.237 52.0414 17.2046 52.101L17.7569 52.459C17.7968 52.4031 17.8226 52.3385 17.8322 52.2705ZM17.0916 52.2705C17.0567 52.3112 17.0313 52.359 17.017 52.4106C17.0027 52.4622 17 52.5163 17.009 52.569C17.0179 52.6218 17.0384 52.6719 17.069 52.7159C17.0996 52.7598 17.1394 52.7965 17.1857 52.8233C17.2407 52.8619 17.3037 52.8877 17.37 52.8986C17.4363 52.9094 17.5042 52.9052 17.5686 52.8861L17.6377 53.1373C17.538 53.1651 17.4334 53.1704 17.3314 53.153C17.2294 53.1357 17.1325 53.096 17.0477 53.0368C16.9616 52.9912 16.8873 52.9262 16.8306 52.8469C16.774 52.7676 16.7366 52.6762 16.7214 52.5799C16.7061 52.4836 16.7135 52.3851 16.7429 52.2922C16.7723 52.1992 16.8229 52.1144 16.8907 52.0444C16.9236 51.9564 16.9757 51.8769 17.0434 51.8117C17.111 51.7465 17.1924 51.6973 17.2815 51.6678C17.3706 51.6382 17.4653 51.6291 17.5584 51.641C17.6516 51.6529 17.7408 51.6856 17.8197 51.7367C17.8959 51.7841 17.9611 51.8473 18.0109 51.9221C18.0606 51.9969 18.0938 52.0815 18.1081 52.1703C18.1223 52.259 18.1174 52.3497 18.0937 52.4364C18.0699 52.523 18.0278 52.6035 17.9703 52.6725L17.895 52.7793L17.0916 52.2705Z" fill="white"/>
    <path d="M18.774 54.0543L19.2008 53.2629C19.234 53.2286 19.258 53.1864 19.2706 53.1403C19.2831 53.0942 19.2838 53.0457 19.2725 52.9993C19.2612 52.9529 19.2384 52.9101 19.2061 52.8749C19.1738 52.8397 19.1331 52.8133 19.0878 52.7981C19.0516 52.776 19.0109 52.7621 18.9687 52.7575C18.9265 52.7529 18.8838 52.7576 18.8436 52.7714C18.8034 52.7852 18.7668 52.8077 18.7363 52.8373C18.7059 52.8669 18.6823 52.9028 18.6673 52.9426L18.2405 53.734L17.9768 53.5895L18.6798 52.2956L18.9372 52.4338L18.8681 52.5657C18.9367 52.5406 19.0099 52.531 19.0826 52.5375C19.1553 52.544 19.2257 52.5665 19.2887 52.6034C19.4091 52.6651 19.5013 52.7708 19.546 52.8986C19.5639 52.9718 19.5671 53.0478 19.5552 53.1223C19.5434 53.1967 19.5168 53.268 19.477 53.332L19.0313 54.1548L18.774 54.0543Z" fill="white"/>
    <path d="M20.048 54.6826C19.8981 54.5819 19.7889 54.431 19.7401 54.2571C19.6913 54.0832 19.706 53.8975 19.7815 53.7335C19.8571 53.5694 19.9886 53.4376 20.1524 53.3618C20.3163 53.2859 20.5018 53.271 20.6756 53.3196C20.7588 53.3553 20.8333 53.4086 20.894 53.4758C20.9546 53.543 21.0001 53.6226 21.0271 53.709L20.7572 53.8032C20.7474 53.7495 20.7244 53.6991 20.6905 53.6564C20.6566 53.6137 20.6127 53.58 20.5627 53.5583C20.5163 53.5335 20.4646 53.5206 20.412 53.5206C20.3595 53.5206 20.3077 53.5335 20.2614 53.5583C20.152 53.6237 20.0696 53.7262 20.0291 53.8472C19.9616 53.9535 19.9349 54.0807 19.9538 54.2052C19.9651 54.2575 19.9887 54.3064 20.0225 54.3479C20.0563 54.3894 20.0994 54.4223 20.1484 54.4439C20.197 54.4687 20.2508 54.4816 20.3053 54.4816C20.3599 54.4816 20.4136 54.4687 20.4622 54.4439L20.5627 54.7077C20.48 54.7459 20.3901 54.7658 20.299 54.7658C20.208 54.7658 20.118 54.7459 20.0354 54.7077" fill="white"/>
    <path d="M22.0752 54.381C22.0718 54.3188 22.0504 54.259 22.0137 54.2088C21.9769 54.1586 21.9263 54.1202 21.868 54.0983C21.8122 54.0741 21.7503 54.0678 21.6908 54.0802C21.6312 54.0925 21.5769 54.123 21.5354 54.1674C21.4826 54.2123 21.4435 54.271 21.4224 54.337L22.0501 54.582C22.0766 54.5184 22.0894 54.4499 22.0877 54.381M21.3596 54.5317C21.3337 54.5779 21.3181 54.6292 21.3141 54.682C21.31 54.7349 21.3175 54.788 21.336 54.8376C21.3545 54.8872 21.3836 54.9322 21.4213 54.9694C21.459 55.0066 21.5044 55.0352 21.5542 55.0531C21.6152 55.0812 21.6816 55.0958 21.7488 55.0958C21.816 55.0958 21.8823 55.0812 21.9433 55.0531L22.0563 55.2854C21.9593 55.3356 21.8517 55.3617 21.7425 55.3617C21.6333 55.3617 21.5257 55.3356 21.4287 55.2854C21.0834 55.1535 20.8826 54.8646 21.0897 54.3433C21.2969 53.822 21.5919 53.7152 21.9433 53.8722C22.0261 53.9049 22.101 53.9549 22.163 54.0188C22.225 54.0827 22.2728 54.159 22.303 54.2428C22.3333 54.3265 22.3454 54.4158 22.3386 54.5046C22.3318 54.5934 22.3062 54.6797 22.2635 54.7579L22.2132 54.8772L21.3596 54.5317Z" fill="white"/>
    <path d="M24.3411 54.3244C24.3156 54.3148 24.2883 54.3108 24.2611 54.3127C24.234 54.3146 24.2075 54.3224 24.1837 54.3355C24.1598 54.3487 24.1391 54.3668 24.1229 54.3888C24.1067 54.4107 24.0955 54.4359 24.09 54.4626C24.0816 54.5746 24.1079 54.6864 24.1653 54.7829L24.2783 54.7452C24.3724 54.7076 24.454 54.6699 24.4854 54.5756C24.4989 54.5232 24.4914 54.4675 24.4644 54.4206C24.4374 54.3736 24.3932 54.3391 24.3411 54.3244ZM23.9958 55.0844C23.8201 55.1472 23.6695 55.2038 23.6255 55.3859C23.6114 55.4321 23.6072 55.4808 23.6131 55.5288C23.619 55.5767 23.6349 55.6229 23.6597 55.6643C23.6846 55.7058 23.7178 55.7415 23.7573 55.7693C23.7969 55.7971 23.8418 55.8162 23.8891 55.8256C24.0297 55.8659 24.1805 55.8502 24.3097 55.7816L23.9958 55.0844ZM24.5294 56.2652L24.4227 56.0266C24.3274 56.0782 24.2229 56.1103 24.1151 56.1211C24.0074 56.1319 23.8985 56.1211 23.795 56.0894C23.712 56.0717 23.6335 56.0375 23.5641 55.9886C23.4948 55.9398 23.436 55.8773 23.3914 55.8051C23.3469 55.7329 23.3174 55.6524 23.3047 55.5685C23.2921 55.4846 23.2966 55.399 23.318 55.3168C23.363 55.2 23.4376 55.0969 23.5344 55.0176C23.6312 54.9383 23.747 54.8856 23.8703 54.8646C23.8239 54.794 23.7922 54.7148 23.7771 54.6317C23.762 54.5486 23.7638 54.4633 23.7824 54.3809C23.8235 54.2615 23.9086 54.1623 24.0202 54.1035C24.1318 54.0446 24.2617 54.0306 24.3833 54.0642C24.505 54.0979 24.6092 54.1766 24.6748 54.2845C24.7404 54.3923 24.7625 54.5212 24.7365 54.6447C24.715 54.7174 24.6747 54.783 24.6195 54.8349C24.5644 54.8867 24.4964 54.923 24.4227 54.94L24.2532 55.0028L24.5356 55.6309C24.6445 55.5333 24.7193 55.4034 24.749 55.2603L25.0252 55.3357C24.9736 55.5591 24.8418 55.7558 24.6549 55.8884L24.8809 56.3783L24.5294 56.2652Z" fill="white"/>
    <path d="M26.2865 54.827L26.8451 54.9149L26.5627 56.6799L26.8702 56.7301L27.159 54.9715L27.7176 55.0594L27.7615 54.7767L26.3305 54.5506L26.2865 54.827Z" fill="white"/>
    <path d="M28.8159 55.8885C28.7961 55.8296 28.7593 55.7778 28.7102 55.7398C28.661 55.7018 28.6017 55.6792 28.5397 55.675C28.4779 55.6679 28.4155 55.6797 28.3606 55.7089C28.3057 55.738 28.2609 55.7831 28.2321 55.8383C28.2008 55.8985 28.1836 55.9651 28.1819 56.033L28.8096 56.0958C28.8233 56.0274 28.8233 55.9569 28.8096 55.8885M28.1819 56.234C28.1819 56.4915 28.2823 56.6611 28.5209 56.6799C28.5871 56.6911 28.6551 56.6867 28.7193 56.6671C28.7836 56.6475 28.8424 56.6132 28.8912 56.5669L29.0606 56.7553C28.9847 56.8259 28.8942 56.8789 28.7954 56.9104C28.6967 56.9418 28.5922 56.9511 28.4895 56.9375C28.1254 56.9375 27.8618 56.6862 27.8995 56.1209C27.9371 55.5556 28.2133 55.3986 28.5899 55.43C28.6794 55.4376 28.7663 55.4644 28.8446 55.5085C28.9229 55.5526 28.9909 55.613 29.0438 55.6857C29.0968 55.7583 29.1335 55.8415 29.1516 55.9296C29.1697 56.0177 29.1686 56.1087 29.1485 56.1963V56.3219L28.1819 56.234Z" fill="white"/>
    <path d="M30.153 57.0317C29.8267 57.0317 29.5254 56.8119 29.5254 56.2591C29.5254 55.7064 29.8769 55.518 30.2033 55.5243C30.2939 55.5243 30.3835 55.5439 30.4659 55.5818C30.5482 55.6198 30.6214 55.6751 30.6803 55.7441L30.4732 55.9388C30.4413 55.8946 30.4 55.8581 30.3522 55.832C30.3044 55.806 30.2514 55.7909 30.197 55.7881C30.1443 55.7856 30.0918 55.7957 30.0438 55.8175C29.9957 55.8394 29.9536 55.8723 29.9208 55.9137C29.846 56.0149 29.8103 56.1399 29.8204 56.2654C29.8066 56.3925 29.8352 56.5207 29.902 56.6297C29.9316 56.6737 29.972 56.7094 30.0191 56.7336C30.0663 56.7577 30.1189 56.7696 30.1719 56.7679C30.2262 56.7712 30.2805 56.7609 30.3298 56.7379C30.3792 56.7148 30.422 56.6798 30.4543 56.636L30.6552 56.837C30.5919 56.9038 30.5146 56.9559 30.4289 56.9896C30.3432 57.0232 30.2512 57.0376 30.1593 57.0317" fill="white"/>
    <path d="M31.992 56.9939L31.9606 56.0895C31.9606 55.8634 31.8163 55.7691 31.6531 55.7754C31.6112 55.7749 31.5697 55.7836 31.5314 55.8008C31.4932 55.818 31.4591 55.8433 31.4317 55.875C31.4042 55.9066 31.3839 55.9439 31.3723 55.9842C31.3607 56.0245 31.358 56.0669 31.3644 56.1083V57.0128H31.0694L30.994 54.9401H31.2953V55.6875C31.3416 55.6338 31.3983 55.59 31.4619 55.5587C31.5256 55.5274 31.5948 55.5092 31.6656 55.5053C31.7366 55.4998 31.8079 55.5096 31.8747 55.534C31.9415 55.5585 32.0023 55.597 32.0529 55.6471C32.1035 55.6971 32.1428 55.7575 32.168 55.8241C32.1933 55.8907 32.2039 55.9619 32.1992 56.033L32.2368 56.9814L31.992 56.9939Z" fill="white"/>
    <path d="M33.7182 56.8495L33.624 55.9387C33.624 55.7063 33.4608 55.6247 33.2976 55.6435C33.2558 55.6463 33.215 55.658 33.1781 55.6777C33.1411 55.6975 33.1087 55.725 33.0832 55.7583C33.0576 55.7916 33.0395 55.8299 33.0299 55.8708C33.0204 55.9116 33.0196 55.9541 33.0278 55.9952L33.1219 56.8871H32.8269L32.6763 55.4299H32.965V55.5744C33.0262 55.4842 33.1148 55.4161 33.2177 55.3801C33.3206 55.3441 33.4323 55.3421 33.5364 55.3745C33.6405 55.4068 33.7314 55.4718 33.7958 55.5598C33.8602 55.6479 33.8946 55.7543 33.8939 55.8633L33.9881 56.7929L33.7182 56.8495Z" fill="white"/>
    <path d="M35.143 55.4928C35.111 55.469 35.0744 55.4521 35.0354 55.4435C34.9965 55.4348 34.9561 55.4345 34.9171 55.4426C34.8783 55.4486 34.8412 55.4622 34.8078 55.4827C34.7744 55.5032 34.7454 55.5301 34.7225 55.5619C34.6706 55.6952 34.6706 55.8432 34.7225 55.9765C34.7243 56.0474 34.7402 56.1173 34.7693 56.182C34.7984 56.2467 34.8401 56.3049 34.892 56.3533C34.9234 56.3783 34.9599 56.3962 34.9988 56.406C35.0378 56.4157 35.0784 56.4171 35.1179 56.4099C35.1962 56.3938 35.2656 56.349 35.3125 56.2842C35.3782 56.1536 35.3894 56.0023 35.3439 55.8634C35.3416 55.7935 35.3254 55.7247 35.2963 55.6611C35.2672 55.5975 35.2258 55.5403 35.1744 55.4928M35.5636 56.4161C35.4676 56.5492 35.3234 56.6394 35.1619 56.6674C35.0827 56.6829 35.0012 56.6819 34.9223 56.6647C34.8435 56.6474 34.7691 56.6141 34.7037 56.5669C34.6247 56.4996 34.5602 56.4171 34.5138 56.3243C34.4674 56.2315 34.4402 56.1303 34.4338 56.0267C34.3996 55.9232 34.388 55.8135 34.4 55.7052C34.4119 55.5968 34.4469 55.4922 34.5028 55.3986C34.5482 55.3313 34.6076 55.2746 34.677 55.2323C34.7463 55.19 34.8239 55.1632 34.9045 55.1537C35.0657 55.1231 35.2324 55.1569 35.369 55.2479C35.5068 55.3988 35.5984 55.5862 35.6329 55.7878C35.6674 55.9893 35.6433 56.1965 35.5636 56.3847" fill="white"/>
    <path d="M36.6054 56.3533C36.5537 56.3693 36.4992 56.3738 36.4456 56.3665C36.392 56.3591 36.3406 56.3401 36.2951 56.3108C36.2497 56.2814 36.2112 56.2425 36.1824 56.1967C36.1536 56.1508 36.1351 56.0992 36.1284 56.0455L35.7581 54.425L36.0468 54.3622L36.4108 55.9387C36.4108 56.0455 36.4862 56.0958 36.5991 56.0706H36.7309L36.7812 56.3156L36.6054 56.3533Z" fill="white"/>
    <path d="M37.6348 54.9024C37.5981 54.8867 37.5586 54.8785 37.5187 54.8785C37.4787 54.8785 37.4392 54.8867 37.4025 54.9024C37.3641 54.9111 37.328 54.9279 37.2966 54.9517C37.2652 54.9756 37.2393 55.0059 37.2205 55.0406C37.1704 55.1742 37.1704 55.3215 37.2205 55.4551C37.2458 55.5967 37.319 55.7253 37.4276 55.8194C37.4643 55.8351 37.5038 55.8432 37.5438 55.8432C37.5837 55.8432 37.6232 55.8351 37.6599 55.8194C37.7383 55.7961 37.8053 55.7446 37.8482 55.6749C37.8776 55.537 37.873 55.394 37.8347 55.2583C37.7965 55.1226 37.7257 54.9982 37.6285 54.8961M38.1118 55.788C38.0262 55.9288 37.8887 56.0304 37.7289 56.0706C37.6528 56.0964 37.572 56.1059 37.492 56.0983C37.412 56.0907 37.3344 56.0663 37.2645 56.0267C37.1079 55.892 36.9947 55.714 36.9388 55.5151C36.883 55.3162 36.8871 55.1052 36.9506 54.9087C36.99 54.837 37.0438 54.7744 37.1086 54.7246C37.1734 54.6749 37.2479 54.6392 37.3272 54.6197C37.4847 54.5744 37.6536 54.5924 37.798 54.67C37.884 54.7282 37.9573 54.8033 38.0134 54.8908C38.0695 54.9783 38.1073 55.0762 38.1244 55.1787C38.1665 55.2781 38.1882 55.3849 38.1882 55.4928C38.1882 55.6007 38.1665 55.7075 38.1244 55.8068" fill="white"/>
    <path d="M38.9023 54.4125C38.6513 54.5004 38.6889 54.7265 38.7705 54.9464C38.8521 55.1662 38.9525 55.3672 39.2036 55.2855C39.4547 55.2039 39.4107 54.9652 39.3354 54.7454C39.2601 54.5255 39.1534 54.3245 38.9023 54.4125ZM39.4735 56.1523C39.3866 56.1911 39.2925 56.2112 39.1973 56.2112C39.1022 56.2112 39.0081 56.1911 38.9212 56.1523L39.0341 55.9073C39.0894 55.9323 39.1493 55.9452 39.2099 55.9452C39.2705 55.9452 39.3304 55.9323 39.3856 55.9073C39.4317 55.8934 39.4741 55.8695 39.5099 55.8373C39.5456 55.805 39.5738 55.7653 39.5924 55.7208C39.611 55.6764 39.6195 55.6284 39.6174 55.5803C39.6153 55.5322 39.6026 55.4852 39.5802 55.4426L39.5237 55.2604C39.4976 55.3233 39.4594 55.3805 39.4111 55.4285C39.3628 55.4765 39.3055 55.5145 39.2424 55.5402C39.1794 55.5659 39.1119 55.5788 39.0438 55.5782C38.9757 55.5777 38.9084 55.5636 38.8458 55.5368C38.6812 55.4053 38.5569 55.2302 38.487 55.0314C38.4171 54.8326 38.4044 54.6181 38.4504 54.4125C38.5112 54.2978 38.6151 54.2119 38.7391 54.1738C38.8071 54.1459 38.8808 54.1347 38.954 54.1413C39.0272 54.1478 39.0977 54.1719 39.1597 54.2115L39.1095 54.0544L39.3793 53.9602L39.8626 55.3358C39.8951 55.4128 39.9106 55.496 39.9081 55.5796C39.9056 55.6632 39.8853 55.7452 39.8484 55.8203C39.8115 55.8953 39.7589 55.9615 39.6943 56.0145C39.6296 56.0674 39.5543 56.1059 39.4735 56.1272" fill="white"/>
    <path d="M40.9551 55.2352C40.9699 55.3035 40.9699 55.3742 40.9551 55.4425C40.9058 55.5444 40.821 55.6248 40.7166 55.6686L40.6099 55.7126L40.5032 55.4676H40.5723C40.6852 55.4174 40.7104 55.3671 40.7041 55.2415V54.9965L39.681 53.9036L39.9697 53.7843L40.6978 54.6008L40.6036 53.5142L40.8986 53.3886L40.9551 55.2352Z" fill="white"/>
    <path d="M43.0637 53.9037C42.9775 53.9547 42.8817 53.9871 42.7823 53.999C42.6829 54.0109 42.5821 54.002 42.4863 53.9728C42.2101 53.8912 42.1034 53.6902 41.9151 53.3447C41.7268 52.9993 41.6138 52.792 41.6954 52.5219C41.7238 52.4248 41.7712 52.3343 41.8348 52.2556C41.8983 52.1769 41.9768 52.1116 42.0657 52.0634C42.2212 51.9716 42.4058 51.9426 42.5819 51.9823C42.758 52.022 42.9124 52.1273 43.0135 52.2769L42.7373 52.4214C42.6771 52.3411 42.5894 52.2857 42.491 52.266C42.3925 52.2463 42.2903 52.2636 42.2038 52.3146C42.153 52.3397 42.1078 52.3749 42.0711 52.4181C42.0344 52.4613 42.0069 52.5116 41.9904 52.5659C41.9528 52.7166 41.9904 52.8297 42.1913 53.194C42.3921 53.5583 42.4674 53.6525 42.6055 53.7027C42.6595 53.7198 42.7165 53.7253 42.7728 53.7188C42.829 53.7123 42.8832 53.694 42.9319 53.6651C43.0225 53.6202 43.0936 53.5436 43.1318 53.4499C43.1699 53.3562 43.1725 53.2518 43.139 53.1563L43.4089 53.0055C43.4781 53.1719 43.4808 53.3584 43.4166 53.5267C43.3523 53.6949 43.226 53.8321 43.0637 53.91" fill="white"/>
    <path d="M44.1935 51.9001C44.1553 51.8906 44.1155 51.889 44.0767 51.8955C44.0378 51.902 44.0007 51.9164 43.9676 51.9377C43.899 51.9804 43.8496 52.0479 43.8295 52.1262C43.8214 52.2701 43.8686 52.4116 43.9613 52.5219C44.0492 52.6601 44.137 52.7794 44.2626 52.8108C44.3428 52.827 44.4261 52.8112 44.4948 52.7668C44.5601 52.7221 44.607 52.6551 44.6266 52.5784C44.6347 52.4345 44.5875 52.293 44.4948 52.1827C44.4665 52.1175 44.4252 52.0588 44.3733 52.0102C44.3215 51.9616 44.2603 51.9241 44.1935 51.9001ZM44.9091 52.6098C44.8716 52.7696 44.7731 52.9084 44.6347 52.9964C44.4963 53.0844 44.3289 53.1148 44.1684 53.0809C44.069 53.0482 43.9771 52.9957 43.8984 52.9266C43.8196 52.8576 43.7557 52.7733 43.7102 52.6789C43.6459 52.5984 43.5983 52.5057 43.5702 52.4065C43.5422 52.3073 43.5343 52.2034 43.547 52.1011C43.5631 52.0212 43.5961 51.9457 43.6437 51.8796C43.6913 51.8135 43.7525 51.7584 43.8232 51.7179C43.9614 51.6253 44.1308 51.5914 44.294 51.6237C44.3917 51.6564 44.482 51.7082 44.5596 51.7762C44.6372 51.8441 44.7005 51.9268 44.7459 52.0194C44.8129 52.1009 44.862 52.1956 44.8901 52.2973C44.9182 52.399 44.9247 52.5055 44.9091 52.6098Z" fill="white"/>
    <path d="M45.4493 50.983C45.4103 50.978 45.3707 50.981 45.3329 50.9918C45.2952 51.0026 45.26 51.021 45.2296 51.0458C45.1961 51.0676 45.1676 51.0962 45.146 51.1297C45.1243 51.1633 45.11 51.2011 45.104 51.2406C45.1287 51.3754 45.1847 51.5025 45.2676 51.6116C45.3505 51.7207 45.4579 51.8088 45.5811 51.8687C45.621 51.8738 45.6616 51.8709 45.7004 51.8602C45.7392 51.8494 45.7755 51.8309 45.807 51.8058C45.8399 51.7841 45.8676 51.7554 45.8882 51.7217C45.9088 51.6881 45.9218 51.6503 45.9263 51.6111C45.9284 51.5398 45.9156 51.4689 45.8885 51.4029C45.8615 51.3369 45.8209 51.2773 45.7694 51.228C45.7364 51.1641 45.6911 51.1074 45.6362 51.061C45.5813 51.0147 45.5177 50.9796 45.4493 50.9579M46.215 51.6237C46.1855 51.7831 46.0955 51.9249 45.9639 52.0194C45.9003 52.0706 45.8266 52.1077 45.7476 52.1282C45.6687 52.1488 45.5862 52.1524 45.5057 52.1387C45.4047 52.1141 45.3097 52.069 45.2266 52.0064C45.1435 51.9438 45.0741 51.8648 45.0224 51.7744C44.9533 51.6982 44.8999 51.609 44.8654 51.5119C44.831 51.4149 44.8161 51.312 44.8216 51.2092C44.833 51.1283 44.8613 51.0508 44.9045 50.9815C44.9478 50.9123 45.0051 50.8529 45.0727 50.8072C45.1363 50.756 45.21 50.7189 45.289 50.6983C45.368 50.6778 45.4504 50.6742 45.5309 50.6878C45.6311 50.7126 45.7251 50.7577 45.8072 50.8204C45.8892 50.8831 45.9576 50.9619 46.0079 51.0521C46.0795 51.1282 46.1349 51.2182 46.1705 51.3165C46.2061 51.4148 46.2213 51.5193 46.215 51.6237Z" fill="white"/>
    <path d="M46.5414 50.0157C46.3342 50.1916 46.4535 50.3926 46.623 50.5873C46.7924 50.782 46.9682 50.939 47.169 50.7632C47.3699 50.5873 47.2569 50.3926 47.0874 50.1916C46.918 49.9906 46.7422 49.8461 46.5414 50.0157ZM47.5896 50.5873C47.5709 50.7163 47.5035 50.8332 47.4013 50.9139C47.3499 50.9662 47.2861 51.0046 47.2158 51.0254C47.1455 51.0463 47.0711 51.049 46.9996 51.0333L47.4829 51.6048L47.2569 51.7995L45.92 50.2167L46.1459 50.0346L46.2401 50.1539C46.237 50.0794 46.2525 50.0053 46.2854 49.9383C46.3183 49.8714 46.3675 49.8138 46.4284 49.7708C46.5257 49.6814 46.6542 49.6341 46.7862 49.6389C47.0022 49.6878 47.1911 49.8183 47.3134 50.0032C47.4762 50.1558 47.5749 50.3646 47.5896 50.5873Z" fill="white"/>
    <path d="M48.0348 48.8852C47.9798 48.8593 47.9181 48.8514 47.8583 48.8627C47.7986 48.874 47.7439 48.9038 47.7022 48.948C47.6555 48.9894 47.6222 49.0438 47.6066 49.1042C47.5909 49.1646 47.5936 49.2283 47.6143 49.2872C47.6407 49.3504 47.6791 49.408 47.7273 49.4567L48.2043 48.9982C48.1584 48.9466 48.1001 48.9077 48.0348 48.8852ZM47.8716 49.6075C47.903 49.6498 47.9432 49.6847 47.9893 49.71C48.0355 49.7352 48.0866 49.7501 48.1391 49.7537C48.1916 49.7573 48.2443 49.7495 48.2934 49.7307C48.3426 49.712 48.3872 49.6828 48.424 49.6452C48.4742 49.6002 48.5142 49.545 48.5413 49.4832C48.5684 49.4215 48.5819 49.3546 48.5809 49.2872H48.8382C48.84 49.39 48.8197 49.4921 48.7785 49.5864C48.7374 49.6807 48.6764 49.765 48.5997 49.8336C48.3361 50.0911 47.9721 50.1539 47.6017 49.752C47.5247 49.6989 47.4605 49.6292 47.4138 49.5481C47.3672 49.467 47.3392 49.3765 47.332 49.2832C47.3248 49.1898 47.3385 49.0961 47.3721 49.0088C47.4057 48.9214 47.4585 48.8427 47.5264 48.7784C47.5905 48.716 47.6672 48.668 47.7513 48.6376C47.8355 48.6073 47.9251 48.5953 48.0142 48.6024C48.1034 48.6095 48.19 48.6357 48.2682 48.679C48.3465 48.7224 48.4146 48.7819 48.4679 48.8538L48.5558 48.948L47.8716 49.6075Z" fill="white"/>
    <path d="M49.0831 47.6793C49.0415 47.676 48.9999 47.6829 48.9616 47.6993C48.9234 47.7157 48.8896 47.7412 48.8634 47.7735C48.8358 47.8051 48.815 47.8421 48.8022 47.8821C48.7895 47.922 48.785 47.9642 48.7891 48.006C48.7932 48.0477 48.8058 48.0882 48.8262 48.1249C48.8465 48.1617 48.8741 48.1938 48.9073 48.2195L49.535 48.8476L49.3341 49.0674L48.2545 48.0624L48.4491 47.8552L48.5621 47.9619C48.5525 47.8879 48.5599 47.8126 48.5839 47.7418C48.6078 47.671 48.6476 47.6067 48.7002 47.5537C48.7416 47.5037 48.7934 47.4632 48.8519 47.435C48.9103 47.4069 48.9742 47.3916 49.0391 47.3904L49.0831 47.6793Z" fill="white"/>
    <path d="M50.2757 47.0008L50.0497 47.2709C49.943 47.4028 49.9493 47.5222 50.0497 47.6101C50.1501 47.698 50.2631 47.6792 50.3824 47.5285C50.4197 47.496 50.4488 47.4552 50.4673 47.4093C50.4858 47.3635 50.4933 47.3139 50.4891 47.2646C50.4839 47.2257 50.4699 47.1885 50.4481 47.1559C50.4264 47.1232 50.3974 47.096 50.3635 47.0762L50.2757 47.0008ZM50.7778 47.4091L50.6774 47.3275C50.685 47.399 50.6772 47.4714 50.6544 47.5396C50.6317 47.6079 50.5946 47.6705 50.5456 47.7232C50.5066 47.7833 50.4549 47.8342 50.3942 47.8721C50.3335 47.9101 50.2652 47.9343 50.1941 47.943C50.0776 47.9501 49.9629 47.9118 49.874 47.8362C49.6794 47.6792 49.6543 47.4342 49.874 47.1704L50.1188 46.8689L50.0372 46.8061C49.8928 46.6868 49.7673 46.7056 49.6229 46.8815C49.5771 46.9236 49.544 46.9777 49.5274 47.0376C49.5107 47.0976 49.5112 47.161 49.5287 47.2207H49.2651C49.2459 47.1236 49.2513 47.0233 49.2809 46.9289C49.3106 46.8346 49.3634 46.7491 49.4346 46.6805C49.6857 46.3665 49.9493 46.3162 50.2066 46.5298L50.9661 47.1579L50.7778 47.4091Z" fill="white"/>
    <path d="M51.569 46.3727C51.5398 46.4185 51.5012 46.4574 51.4557 46.4868C51.4102 46.5162 51.3589 46.5354 51.3052 46.5432C51.2516 46.5509 51.1969 46.547 51.145 46.5317C51.093 46.5164 51.0449 46.49 51.0041 46.4544L50.3764 45.977L50.276 46.1089L50.094 45.977L50.1944 45.8389L49.8429 45.5751L50.0186 45.3364L50.3764 45.6002L50.5459 45.3741L50.7279 45.506L50.5584 45.7384L51.1861 46.2094C51.2024 46.2249 51.222 46.2365 51.2434 46.2434C51.2648 46.2502 51.2874 46.2522 51.3097 46.2492C51.332 46.2462 51.3533 46.2383 51.3721 46.2259C51.3909 46.2136 51.4067 46.1973 51.4183 46.178L51.4937 46.0838L51.6945 46.2283L51.569 46.3727Z" fill="white"/>
    <path d="M50.7216 45.0286L51.9392 45.8514L52.1024 45.6065L50.8848 44.7836L50.7216 45.0286ZM50.2132 44.6894L50.4768 44.8716L50.6525 44.6141L50.3889 44.4319L50.2132 44.6894Z" fill="white"/>
    <path d="M51.8325 43.8917C51.7536 43.911 51.6855 43.9608 51.6432 44.0303C51.6008 44.0997 51.5877 44.1831 51.6066 44.2622C51.6066 44.3879 51.7635 44.4758 51.9016 44.5574C52.013 44.6474 52.1541 44.6923 52.297 44.6831C52.3361 44.6741 52.373 44.6572 52.4054 44.6334C52.4378 44.6096 52.465 44.5795 52.4853 44.5449C52.5281 44.4755 52.5417 44.3919 52.523 44.3125C52.523 44.1869 52.3661 44.0926 52.2342 44.0173C52.1222 43.924 51.9778 43.8788 51.8325 43.8917ZM52.7929 44.212C52.8308 44.3727 52.804 44.5418 52.7183 44.6829C52.6325 44.824 52.4947 44.9256 52.3347 44.9657C52.2308 44.9807 52.125 44.9745 52.0236 44.9475C51.9223 44.9205 51.8274 44.8733 51.7447 44.8087C51.6505 44.7662 51.5662 44.7046 51.4971 44.6278C51.428 44.5511 51.3755 44.4608 51.343 44.3627C51.3031 44.2012 51.329 44.0304 51.4149 43.8879C51.5008 43.7454 51.6398 43.6428 51.8012 43.6027C52.0086 43.579 52.2173 43.6351 52.3849 43.7598C52.4796 43.8041 52.5644 43.867 52.6345 43.9447C52.7046 44.0223 52.7584 44.1132 52.7929 44.212Z" fill="white"/>
    <path d="M53.6842 42.9056L52.8934 42.4911C52.8597 42.4656 52.8208 42.448 52.7794 42.4395C52.7381 42.4311 52.6954 42.432 52.6544 42.4422C52.6135 42.4525 52.5754 42.4718 52.5428 42.4987C52.5103 42.5256 52.4843 42.5595 52.4666 42.5978C52.4444 42.6341 52.4306 42.6748 52.426 42.717C52.4214 42.7593 52.4261 42.802 52.4399 42.8422C52.4537 42.8824 52.4762 42.919 52.5057 42.9495C52.5353 42.98 52.5712 43.0036 52.6109 43.0187L53.4081 43.4332L53.27 43.697L51.9707 43.0124L52.1025 42.7486L52.2343 42.8177C52.2093 42.7491 52.1996 42.6758 52.2062 42.603C52.2127 42.5303 52.2351 42.4599 52.272 42.3968C52.3289 42.2759 52.43 42.1815 52.5544 42.133C52.6285 42.1134 52.7057 42.1095 52.7814 42.1214C52.857 42.1333 52.9293 42.1608 52.9938 42.2021L53.8223 42.6355L53.6842 42.9056Z" fill="white"/>
    <path d="M54.657 40.7513C54.6222 40.8459 54.5688 40.9325 54.4997 41.0059C54.4307 41.0793 54.3475 41.138 54.2553 41.1784C53.9916 41.2914 53.7782 41.1784 53.4079 41.059C53.0376 40.9397 52.8242 40.8329 52.7112 40.5691C52.6708 40.4759 52.6499 40.3755 52.6499 40.2739C52.6499 40.1723 52.6708 40.0718 52.7112 39.9787C52.7701 39.808 52.8919 39.6662 53.0516 39.5821C53.2114 39.4981 53.3972 39.4782 53.5711 39.5265L53.4519 39.8279C53.3538 39.8047 53.2506 39.818 53.1616 39.8654C53.0727 39.9128 53.004 39.9911 52.9686 40.0855C52.9468 40.1372 52.9356 40.1927 52.9356 40.2488C52.9356 40.3049 52.9468 40.3604 52.9686 40.4121C53.0376 40.5503 53.138 40.6131 53.5272 40.7701C53.9163 40.9271 54.0293 40.946 54.1548 40.8894C54.2074 40.8669 54.2549 40.8343 54.2948 40.7933C54.3346 40.7524 54.366 40.7039 54.3871 40.6508C54.4252 40.5572 54.4284 40.4531 54.3961 40.3574C54.3639 40.2617 54.2983 40.1808 54.2113 40.1294L54.3306 39.8342C54.4883 39.9199 54.608 40.0617 54.6661 40.2315C54.7243 40.4014 54.7165 40.5869 54.6444 40.7513" fill="white"/>
    <path d="M54.3115 38.49C54.2503 38.4929 54.1919 38.5161 54.1453 38.5559C54.0987 38.5957 54.0666 38.6498 54.0542 38.7099C54.0331 38.7677 54.0303 38.8306 54.046 38.8901C54.0617 38.9496 54.0952 39.0029 54.1421 39.0428C54.1907 39.0899 54.2516 39.1225 54.3178 39.137L54.5187 38.5089C54.4508 38.4908 54.3794 38.4908 54.3115 38.5089M54.5124 39.2186C54.5605 39.2417 54.613 39.2539 54.6663 39.2544C54.7196 39.2548 54.7724 39.2436 54.8209 39.2214C54.8694 39.1993 54.9124 39.1667 54.947 39.1261C54.9815 39.0854 55.0067 39.0377 55.0208 38.9862C55.0431 38.9235 55.0512 38.8567 55.0447 38.7904C55.0382 38.7242 55.0172 38.6602 54.9831 38.6031L55.2028 38.4712C55.2609 38.5641 55.2963 38.6693 55.3061 38.7785C55.3159 38.8876 55.2999 38.9975 55.2593 39.0993C55.1526 39.451 54.8764 39.6709 54.3492 39.5013C53.8219 39.3317 53.7215 39.0428 53.8157 38.6847C53.8423 38.5997 53.8867 38.5214 53.946 38.4549C54.0052 38.3884 54.0779 38.3353 54.1592 38.299C54.2406 38.2628 54.3287 38.2443 54.4177 38.2447C54.5067 38.2452 54.5946 38.2645 54.6756 38.3016L54.8011 38.3456L54.5124 39.2186Z" fill="white"/>
    <path d="M55.7679 37.0956L54.8954 36.8883C54.8564 36.8728 54.8145 36.8659 54.7726 36.8682C54.7307 36.8705 54.6898 36.8819 54.6528 36.9017C54.6157 36.9214 54.5834 36.949 54.5581 36.9825C54.5328 37.016 54.5151 37.0546 54.5062 37.0956C54.4941 37.1371 54.4911 37.1807 54.4976 37.2234C54.5041 37.2661 54.5198 37.3068 54.5438 37.3428C54.5677 37.3787 54.5992 37.4089 54.6361 37.4314C54.673 37.4538 54.7144 37.4678 54.7573 37.4725L55.6298 37.686L55.5607 37.9687L54.1296 37.6295L54.1987 37.3406L54.3368 37.3783C54.2973 37.3165 54.2714 37.2471 54.2605 37.1745C54.2497 37.102 54.2543 37.0281 54.274 36.9574C54.2854 36.8929 54.3096 36.8313 54.3451 36.7763C54.3807 36.7212 54.427 36.6739 54.4811 36.6371C54.5465 36.5976 54.6199 36.5732 54.6959 36.5656C54.7719 36.558 54.8486 36.5674 54.9205 36.5931L55.8369 36.813L55.7679 37.0956Z" fill="white"/>
    <path d="M56.0191 35.8394C56.0128 35.8931 55.9951 35.9447 55.9671 35.9909C55.9391 36.0371 55.9015 36.0768 55.8569 36.1072C55.8122 36.1375 55.7616 36.1579 55.7083 36.167C55.6551 36.1761 55.6006 36.1736 55.5484 36.1597L54.7513 36.0153V36.1786L54.5316 36.1409V35.9776L54.0922 35.8959L54.1487 35.607L54.5818 35.6887L54.6383 35.406L54.858 35.4437L54.8077 35.7263L55.5861 35.8645C55.6075 35.8723 55.6304 35.875 55.6531 35.8726C55.6758 35.8702 55.6976 35.8626 55.717 35.8505C55.7363 35.8385 55.7527 35.8221 55.7648 35.8028C55.7769 35.7834 55.7845 35.7616 55.7869 35.7389V35.6196L56.038 35.6635L56.0191 35.8394Z" fill="white"/>
    <path d="M55.197 34.2126C55.1375 34.2282 55.0843 34.262 55.0449 34.3093C55.0055 34.3566 54.9819 34.415 54.9773 34.4764C54.9663 34.5373 54.9743 34.6 55.0001 34.6562C55.0259 34.7124 55.0684 34.7593 55.1217 34.7905C55.1808 34.8262 55.2474 34.8477 55.3163 34.8533L55.4042 34.1938C55.3358 34.1801 55.2654 34.1801 55.197 34.1938M55.5234 34.8596C55.574 34.8736 55.6271 34.8763 55.6789 34.8675C55.7306 34.8587 55.7798 34.8386 55.823 34.8086C55.8661 34.7786 55.9021 34.7395 55.9285 34.6941C55.9548 34.6486 55.9708 34.5979 55.9753 34.5455C55.9887 34.4792 55.9866 34.4107 55.9692 34.3453C55.9517 34.28 55.9195 34.2195 55.8749 34.1687L56.0695 34.0054C56.1375 34.0825 56.1874 34.1738 56.2156 34.2727C56.2439 34.3716 56.2497 34.4755 56.2327 34.5769C56.1825 34.9412 55.9502 35.205 55.3979 35.1422C54.8455 35.0794 54.6823 34.803 54.7326 34.4262C54.7467 34.3417 54.7779 34.261 54.8243 34.189C54.8707 34.117 54.9314 34.0553 55.0025 34.0077C55.0736 33.96 55.1538 33.9274 55.2379 33.9119C55.3221 33.8964 55.4086 33.8983 55.492 33.9174H55.6176L55.5234 34.8596Z" fill="white"/>
    <path d="M55.2597 32.6362C55.2262 32.6612 55.1988 32.6933 55.1792 32.7302C55.1597 32.7672 55.1486 32.808 55.1467 32.8497C55.1449 32.8914 55.1518 32.9331 55.167 32.972C55.1821 33.0109 55.2052 33.0462 55.2347 33.0757C55.2642 33.1053 55.2995 33.1283 55.3384 33.1435C55.3772 33.1586 55.4188 33.1655 55.4605 33.1638L56.3455 33.2203V33.5155L54.8642 33.4213V33.1324H55.0212C54.9672 33.0812 54.9256 33.0184 54.8995 32.9488C54.8734 32.8791 54.8635 32.8044 54.8705 32.7304C54.873 32.6657 54.8887 32.6021 54.9168 32.5438C54.9449 32.4854 54.9847 32.4335 55.0337 32.3912L55.2597 32.6362Z" fill="white"/>
    <path d="M78.4266 48.8111L77.008 46.3175L76.1544 47.3413V48.8111H75.3887V43.7549H76.1544V46.2987L78.2194 43.7549H79.1609L77.5165 45.7334L79.3304 48.8111H78.4266Z" fill="#898989"/>
    <path d="M81.6529 46.016C81.5092 45.8793 81.3175 45.8049 81.1194 45.8087C80.9231 45.8051 80.7335 45.8797 80.5921 46.016C80.3873 46.3013 80.2976 46.6535 80.3411 47.0021C80.2979 47.3527 80.3875 47.7067 80.5921 47.9945C80.7335 48.1308 80.9231 48.2053 81.1194 48.2018C81.3175 48.2056 81.5092 48.1311 81.6529 47.9945C81.8559 47.7061 81.9433 47.3519 81.8977 47.0021C81.9429 46.6543 81.8555 46.3022 81.6529 46.016ZM82.199 48.4279C82.0572 48.5684 81.8885 48.6788 81.7029 48.7522C81.5174 48.8256 81.3188 48.8606 81.1194 48.855C80.9208 48.8612 80.723 48.8265 80.5384 48.753C80.3538 48.6795 80.1862 48.5689 80.0461 48.4279C79.8835 48.2307 79.7619 48.003 79.6886 47.7582C79.6153 47.5133 79.5918 47.2562 79.6193 47.0021C79.5925 46.7509 79.6165 46.4969 79.6899 46.2552C79.7632 46.0135 79.8843 45.7891 80.0461 45.5951C80.1853 45.4529 80.3527 45.3414 80.5375 45.2679C80.7224 45.1943 80.9206 45.1603 81.1194 45.168C81.319 45.161 81.518 45.1952 81.7038 45.2687C81.8895 45.3422 82.0581 45.4534 82.199 45.5951C82.3596 45.7895 82.4796 46.0143 82.5518 46.2559C82.6241 46.4976 82.6471 46.7513 82.6195 47.0021C82.6497 47.2559 82.628 47.5131 82.5557 47.7582C82.4834 48.0033 82.362 48.2312 82.199 48.4279Z" fill="#898989"/>
    <path d="M85.4001 46.0536C85.3365 45.9726 85.2541 45.9085 85.16 45.8668C85.0658 45.8252 84.9629 45.8074 84.8603 45.8149C84.7593 45.8171 84.6599 45.84 84.5682 45.8823C84.4766 45.9247 84.3946 45.9854 84.3274 46.0609C84.2603 46.1363 84.2094 46.2248 84.178 46.3208C84.1465 46.4169 84.1352 46.5183 84.1447 46.6189V48.8047H83.4229V45.2057H84.1322V45.6077C84.2471 45.4668 84.393 45.3544 84.5585 45.2792C84.724 45.204 84.9046 45.1681 85.0862 45.1743C85.2456 45.1649 85.4051 45.1904 85.5536 45.2489C85.7021 45.3075 85.8361 45.3978 85.9461 45.5134L85.4001 46.0536Z" fill="#898989"/>
    <path d="M88.4064 46.2358C88.3479 46.0973 88.2488 45.9799 88.1221 45.8992C87.9954 45.8184 87.8472 45.7781 87.6971 45.7836C87.5461 45.7777 87.3969 45.8177 87.2692 45.8985C87.1414 45.9792 87.0411 46.0968 86.9816 46.2358C86.9149 46.3903 86.8828 46.5575 86.8874 46.7257H88.5068C88.5125 46.5567 88.4781 46.3888 88.4064 46.2358ZM86.8749 47.2156C86.8574 47.3445 86.8683 47.4757 86.9068 47.5999C86.9453 47.7241 87.0105 47.8384 87.0978 47.9347C87.1851 48.0311 87.2924 48.1071 87.4122 48.1576C87.532 48.2081 87.6614 48.2317 87.7913 48.2269C87.9554 48.237 88.1197 48.2088 88.2711 48.1445C88.4226 48.0802 88.557 47.9815 88.6637 47.8563L89.1282 48.2897C88.96 48.4791 88.7514 48.6283 88.5178 48.7262C88.2842 48.824 88.0316 48.868 87.7787 48.855C86.8749 48.855 86.1593 48.3776 86.1593 46.9707C86.1593 45.8087 86.787 45.1366 87.6845 45.1366C88.5821 45.1366 89.2098 45.8464 89.2098 46.8702V47.1842L86.8749 47.2156Z" fill="#898989"/>
    <path d="M91.9278 47.2156H91.0805C90.6537 47.2156 90.4528 47.4103 90.4528 47.7369C90.4528 48.0635 90.6599 48.2457 91.1118 48.2457C91.2331 48.2617 91.3563 48.2515 91.4733 48.2158C91.5903 48.18 91.6982 48.1195 91.7897 48.0384C91.8497 47.9653 91.8944 47.881 91.9214 47.7904C91.9483 47.6998 91.9569 47.6048 91.9466 47.5108L91.9278 47.2156ZM91.9278 48.811V48.4843C91.8048 48.6129 91.6549 48.7127 91.4889 48.7768C91.323 48.8408 91.1449 48.8675 90.9675 48.8549C90.7922 48.8685 90.616 48.8459 90.4497 48.7887C90.2835 48.7314 90.1307 48.6407 90.0009 48.522C89.8103 48.3108 89.7091 48.0339 89.7184 47.7495C89.7184 47.1214 90.139 46.7131 90.9738 46.7131H91.9278V46.4619C91.9278 46.0034 91.7018 45.7835 91.137 45.7835C90.9872 45.7654 90.8354 45.7879 90.6974 45.8487C90.5594 45.9095 90.4402 46.0063 90.3524 46.129L89.8753 45.683C90.0316 45.4966 90.2312 45.3516 90.4567 45.2606C90.6822 45.1697 90.9266 45.1357 91.1683 45.1617C92.1538 45.1617 92.6496 45.5825 92.6496 46.4179V48.8235L91.9278 48.811Z" fill="#898989"/>
    <path d="M97.0935 44.4393H95.9574V46.0284H97.0935C97.2037 46.0383 97.3147 46.025 97.4195 45.9895C97.5243 45.9541 97.6206 45.8972 97.7023 45.8224C97.7839 45.7477 97.8491 45.6568 97.8937 45.5554C97.9383 45.4541 97.9613 45.3446 97.9613 45.2339C97.9613 45.1232 97.9383 45.0137 97.8937 44.9124C97.8491 44.811 97.7839 44.7201 97.7023 44.6454C97.6206 44.5706 97.5243 44.5137 97.4195 44.4783C97.3147 44.4428 97.2037 44.4295 97.0935 44.4393ZM97.9848 48.836L96.9177 46.7068H95.9574V48.836H95.1917V43.8112H97.15C97.3525 43.7935 97.5565 43.8187 97.7486 43.8853C97.9407 43.952 98.1166 44.0584 98.2647 44.1978C98.4129 44.3371 98.5299 44.5062 98.6082 44.6939C98.6866 44.8817 98.7243 45.0839 98.7191 45.2873C98.7313 45.5926 98.6381 45.8929 98.4553 46.1376C98.2724 46.3823 98.011 46.5567 97.7149 46.6314L98.8761 48.8675L97.9848 48.836Z" fill="#898989"/>
    <path d="M101.744 48.8109V48.4466C101.624 48.5788 101.476 48.6836 101.312 48.754C101.147 48.8244 100.969 48.8588 100.79 48.8549C100.463 48.8636 100.146 48.7441 99.9054 48.522C99.7748 48.3899 99.674 48.2313 99.6101 48.0568C99.5462 47.8823 99.5206 47.696 99.5351 47.5107V45.2056H100.263V47.404C100.248 47.5066 100.256 47.6112 100.286 47.7104C100.317 47.8095 100.368 47.9008 100.438 47.9776C100.508 48.0544 100.593 48.1149 100.689 48.1547C100.785 48.1945 100.888 48.2127 100.991 48.2079C101.095 48.2124 101.199 48.1941 101.295 48.1544C101.391 48.1146 101.477 48.0544 101.548 47.9779C101.619 47.9013 101.671 47.8104 101.703 47.7112C101.735 47.6121 101.745 47.5073 101.732 47.404V45.2056H102.454V48.8109H101.744Z" fill="#898989"/>
    <path d="M104.588 48.8549C104.314 48.8782 104.039 48.8438 103.779 48.754C103.52 48.6642 103.282 48.521 103.081 48.3336L103.552 47.8562C103.69 47.9865 103.853 48.0872 104.031 48.152C104.209 48.2168 104.398 48.2444 104.588 48.2331C105.027 48.2331 105.379 48.0761 105.379 47.7369C105.379 47.4919 105.247 47.3412 104.895 47.3098L104.324 47.2595C103.646 47.203 103.257 46.8952 103.257 46.2671C103.257 45.639 103.885 45.168 104.606 45.168C105.086 45.1348 105.561 45.2777 105.943 45.5699L105.491 46.0285C105.235 45.8428 104.922 45.7518 104.606 45.7709C104.167 45.7709 103.947 45.9594 103.947 46.2295C103.947 46.4995 104.067 46.6063 104.45 46.6377L105.014 46.6942C105.692 46.7445 106.088 47.0711 106.088 47.7055C106.088 48.4592 105.46 48.8549 104.588 48.8549Z" fill="#898989"/>
    <path d="M107.952 48.855C107.678 48.8784 107.401 48.8441 107.141 48.7543C106.88 48.6645 106.641 48.5212 106.439 48.3337L106.916 47.8563C107.054 47.9872 107.217 48.0883 107.395 48.1532C107.573 48.218 107.763 48.2453 107.952 48.2332C108.391 48.2332 108.737 48.0762 108.737 47.737C108.737 47.492 108.605 47.3413 108.26 47.3099L107.682 47.2596C107.004 47.2031 106.615 46.8953 106.615 46.2672C106.615 45.6391 107.243 45.1681 107.971 45.1681C108.45 45.1372 108.925 45.2799 109.308 45.57L108.85 46.0285C108.593 45.8429 108.281 45.7519 107.965 45.771C107.532 45.771 107.337 45.9595 107.337 46.2295C107.337 46.4996 107.45 46.6064 107.833 46.6378L108.398 46.6943C109.076 46.7446 109.471 47.0712 109.471 47.7056C109.471 48.4593 108.843 48.855 107.977 48.855" fill="#898989"/>
    <path d="M110.149 48.811H110.871V45.2057H110.149V48.811ZM110.149 44.496H110.915V43.7234H110.099L110.149 44.496Z" fill="#898989"/>
    <path d="M113.764 47.2155H112.923C112.496 47.2155 112.296 47.4102 112.296 47.7368C112.296 48.0634 112.503 48.2456 112.955 48.2456C113.075 48.2619 113.197 48.2519 113.313 48.2161C113.429 48.1803 113.536 48.1196 113.626 48.0383C113.686 47.9652 113.731 47.8809 113.758 47.7903C113.785 47.6997 113.793 47.6046 113.783 47.5107L113.764 47.2155ZM113.764 48.8108V48.4842C113.642 48.6135 113.492 48.7138 113.326 48.7779C113.16 48.842 112.981 48.8683 112.804 48.8548C112.629 48.8703 112.452 48.8486 112.285 48.7913C112.119 48.7339 111.966 48.6422 111.837 48.5219C111.647 48.3107 111.546 48.0338 111.555 47.7494C111.555 47.1213 111.969 46.713 112.81 46.713H113.758V46.4618C113.758 46.0032 113.532 45.7834 112.973 45.7834C112.823 45.7661 112.67 45.789 112.532 45.8497C112.393 45.9103 112.272 46.0067 112.183 46.1289L111.712 45.6829C111.864 45.5012 112.057 45.359 112.276 45.2682C112.494 45.1774 112.731 45.1409 112.967 45.1616C113.953 45.1616 114.455 45.5824 114.455 46.4178V48.8234L113.764 48.8108Z" fill="#898989"/>
    <path d="M118.371 48.8548C118.042 48.8774 117.712 48.8291 117.404 48.7131C117.095 48.5972 116.815 48.4163 116.582 48.1827L117.097 47.6802C117.265 47.8491 117.467 47.9797 117.69 48.0632C117.914 48.1467 118.152 48.181 118.39 48.1639C119.017 48.1639 119.432 47.8812 119.432 47.3913C119.438 47.294 119.424 47.1965 119.389 47.1054C119.355 47.0143 119.3 46.9318 119.231 46.8637C119.076 46.7316 118.881 46.6563 118.678 46.6502L118.082 46.5685C117.729 46.5313 117.394 46.3891 117.122 46.1602C116.996 46.0341 116.899 45.8826 116.836 45.7158C116.773 45.549 116.746 45.3708 116.758 45.193C116.759 44.9815 116.804 44.7727 116.892 44.5804C116.98 44.3881 117.108 44.2167 117.267 44.0777C117.426 43.9386 117.613 43.8351 117.815 43.774C118.018 43.7129 118.23 43.6955 118.44 43.7232C118.728 43.7061 119.017 43.7486 119.288 43.8481C119.559 43.9475 119.806 44.1017 120.015 44.3011L119.519 44.7784C119.374 44.6418 119.202 44.5367 119.014 44.4697C118.826 44.4027 118.626 44.3752 118.427 44.389C117.8 44.389 117.498 44.7282 117.498 45.1804C117.497 45.2671 117.514 45.3532 117.547 45.4332C117.581 45.5132 117.63 45.5854 117.693 45.6452C117.855 45.7751 118.051 45.8558 118.258 45.8776L118.835 45.9655C119.182 45.9862 119.512 46.1184 119.777 46.3424C119.918 46.4738 120.029 46.6349 120.1 46.8141C120.172 46.9933 120.203 47.1861 120.191 47.3787C120.191 48.3083 119.432 48.8673 118.371 48.8673" fill="#898989"/>
    <path d="M122.376 48.8547C121.566 48.8547 120.769 48.3523 120.769 46.9704C120.769 45.5886 121.566 45.1364 122.376 45.1364C122.599 45.1249 122.821 45.1642 123.027 45.2512C123.232 45.3382 123.415 45.4708 123.562 45.6389L123.066 46.1162C122.986 46.0099 122.881 45.924 122.761 45.8651C122.641 45.8062 122.509 45.7761 122.376 45.7771C122.247 45.7734 122.118 45.8005 122.002 45.8562C121.885 45.9119 121.783 45.9945 121.704 46.0974C121.537 46.3559 121.464 46.6642 121.497 46.9704C121.463 47.2806 121.536 47.5931 121.704 47.8561C121.784 47.957 121.887 48.0379 122.003 48.0925C122.12 48.147 122.247 48.1736 122.376 48.1701C122.51 48.1726 122.642 48.1431 122.762 48.0841C122.882 48.0251 122.987 47.9383 123.066 47.8309L123.562 48.3083C123.416 48.478 123.233 48.6124 123.028 48.7016C122.823 48.7907 122.6 48.8324 122.376 48.8233" fill="#898989"/>
    <path d="M124.215 48.811H124.943V45.2057H124.215V48.811ZM124.215 44.496H124.987V43.7234H124.215V44.496Z" fill="#898989"/>
    <path d="M127.962 46.2359C127.904 46.0974 127.805 45.98 127.678 45.8992C127.551 45.8185 127.403 45.7781 127.253 45.7836C127.102 45.7777 126.953 45.8178 126.825 45.8985C126.697 45.9793 126.597 46.0969 126.537 46.2359C126.471 46.3904 126.439 46.5576 126.443 46.7258H128.063C128.068 46.5568 128.034 46.3889 127.962 46.2359ZM126.418 47.2157C126.401 47.3446 126.412 47.4757 126.45 47.5999C126.489 47.7242 126.554 47.8384 126.641 47.9348C126.728 48.0311 126.836 48.1072 126.955 48.1577C127.075 48.2081 127.205 48.2318 127.335 48.2269C127.499 48.2361 127.663 48.2075 127.814 48.1432C127.965 48.079 128.1 47.9808 128.207 47.8564L128.665 48.2897C128.498 48.4791 128.291 48.6282 128.058 48.7261C127.826 48.824 127.574 48.8681 127.322 48.855C126.418 48.855 125.703 48.3777 125.703 46.9707C125.703 45.8087 126.33 45.1367 127.228 45.1367C128.125 45.1367 128.753 45.8464 128.753 46.8702V47.1843L126.418 47.2157Z" fill="#898989"/>
    <path d="M131.747 48.8111V46.6127C131.762 46.5107 131.754 46.4066 131.724 46.3079C131.694 46.2092 131.643 46.1183 131.574 46.0416C131.505 45.9649 131.42 45.9043 131.326 45.864C131.231 45.8238 131.128 45.8049 131.025 45.8087C130.921 45.8043 130.818 45.8226 130.721 45.8623C130.625 45.902 130.539 45.9623 130.468 46.0388C130.398 46.1153 130.345 46.2063 130.313 46.3054C130.281 46.4046 130.272 46.5094 130.285 46.6127V48.8111H129.556V45.2058H130.266V45.5701C130.386 45.4379 130.534 45.3331 130.699 45.2627C130.863 45.1923 131.041 45.1579 131.22 45.1618C131.548 45.1497 131.868 45.267 132.111 45.4884C132.24 45.6241 132.339 45.7853 132.402 45.9617C132.464 46.138 132.489 46.3256 132.475 46.5122V48.8111H131.747Z" fill="#898989"/>
    <path d="M134.829 48.855C134.019 48.855 133.222 48.3525 133.222 46.9707C133.222 45.5889 134.019 45.1367 134.829 45.1367C135.051 45.1247 135.273 45.1638 135.477 45.2509C135.682 45.338 135.863 45.4708 136.009 45.6391L135.513 46.1165C135.434 46.01 135.33 45.9237 135.212 45.8648C135.093 45.8058 134.961 45.7758 134.829 45.7773C134.699 45.7731 134.571 45.8 134.454 45.8557C134.337 45.9115 134.235 45.9944 134.157 46.0977C133.988 46.3553 133.912 46.6638 133.944 46.9707C133.911 47.2817 133.987 47.5944 134.157 47.8563C134.238 47.9584 134.341 48.0408 134.459 48.0975C134.576 48.1541 134.705 48.1835 134.835 48.1835C134.965 48.1835 135.094 48.1541 135.211 48.0975C135.329 48.0408 135.432 47.9584 135.513 47.8563L136.009 48.3337C135.864 48.5036 135.683 48.6382 135.478 48.7275C135.274 48.8167 135.052 48.8582 134.829 48.8487" fill="#898989"/>
    <path d="M138.72 46.2358C138.662 46.0974 138.563 45.98 138.436 45.8992C138.309 45.8184 138.161 45.7781 138.011 45.7836C137.86 45.7777 137.711 45.8178 137.583 45.8985C137.455 45.9793 137.355 46.0969 137.295 46.2358C137.226 46.3894 137.194 46.5573 137.201 46.7257H138.821C138.823 46.5571 138.789 46.3898 138.72 46.2358ZM137.201 47.2282C137.184 47.3571 137.195 47.4883 137.233 47.6125C137.272 47.7367 137.337 47.851 137.424 47.9473C137.512 48.0437 137.619 48.1197 137.739 48.1702C137.858 48.2207 137.988 48.2443 138.118 48.2395C138.282 48.2487 138.446 48.22 138.597 48.1558C138.748 48.0915 138.883 47.9934 138.99 47.8689L139.448 48.3023C139.28 48.4921 139.072 48.6415 138.838 48.7394C138.605 48.8373 138.352 48.8811 138.099 48.8676C137.201 48.8676 136.486 48.3902 136.486 46.9833C136.486 45.8213 137.113 45.1492 138.011 45.1492C138.909 45.1492 139.536 45.859 139.536 46.8828V47.1968L137.201 47.2282Z" fill="#898989"/>
    <path d="M143.453 44.3516C143.387 44.3479 143.321 44.3583 143.259 44.3819C143.197 44.4056 143.141 44.442 143.094 44.4888C143.047 44.5357 143.011 44.5918 142.987 44.6537C142.964 44.7155 142.953 44.7817 142.957 44.8478C142.957 45.0488 143.095 45.2435 143.346 45.545L143.591 45.3754C143.694 45.3296 143.782 45.2571 143.847 45.1654C143.912 45.0737 143.952 44.9662 143.961 44.8541C143.964 44.7868 143.952 44.7197 143.928 44.6571C143.903 44.5945 143.866 44.5377 143.818 44.4904C143.77 44.4431 143.713 44.4064 143.65 44.3825C143.587 44.3585 143.52 44.348 143.453 44.3516ZM143.145 46.3803C142.775 46.6379 142.461 46.8703 142.461 47.3351C142.46 47.4535 142.483 47.5709 142.53 47.6799C142.576 47.7889 142.644 47.8872 142.73 47.9686C142.816 48.0499 142.918 48.1126 143.029 48.1528C143.141 48.1929 143.259 48.2096 143.377 48.2018C143.557 48.2042 143.735 48.1703 143.901 48.1023C144.067 48.0344 144.218 47.9336 144.344 47.8061L143.145 46.3803ZM145.191 48.8174L144.777 48.3212C144.398 48.6765 143.896 48.8703 143.377 48.8613C143.167 48.8882 142.954 48.8687 142.753 48.8042C142.551 48.7398 142.366 48.6319 142.21 48.4882C142.055 48.3446 141.933 48.1686 141.852 47.9726C141.772 47.7767 141.736 47.5655 141.745 47.3539C141.772 47.0486 141.878 46.7555 142.053 46.5041C142.228 46.2527 142.466 46.0519 142.743 45.9218C142.444 45.6373 142.259 45.2531 142.222 44.8415C142.245 44.5343 142.382 44.2468 142.607 44.0369C142.833 43.8271 143.129 43.7104 143.437 43.7104C143.745 43.7104 144.041 43.8271 144.267 44.0369C144.492 44.2468 144.629 44.5343 144.652 44.8415C144.646 45.0233 144.594 45.2007 144.501 45.3568C144.407 45.5129 144.276 45.6425 144.118 45.7334L143.748 45.9909L144.808 47.2471C145.011 46.9483 145.106 46.5896 145.078 46.2296H145.775C145.795 46.7917 145.618 47.343 145.273 47.7873L146.114 48.7985L145.191 48.8174Z" fill="#898989"/>
    <path d="M150.156 44.4458V48.8111H149.391V44.4458H148.003V43.7549H151.55V44.4458H150.156Z" fill="#898989"/>
    <path d="M154.205 46.2358C154.146 46.0974 154.047 45.98 153.92 45.8992C153.794 45.8184 153.645 45.7781 153.495 45.7836C153.344 45.7777 153.195 45.8178 153.067 45.8985C152.94 45.9793 152.839 46.0969 152.78 46.2358C152.71 46.3894 152.678 46.5573 152.686 46.7258H154.305C154.311 46.5568 154.276 46.3889 154.205 46.2358ZM152.686 47.2282C152.668 47.3571 152.679 47.4883 152.718 47.6125C152.756 47.7367 152.821 47.851 152.909 47.9473C152.996 48.0437 153.103 48.1198 153.223 48.1702C153.343 48.2207 153.472 48.2443 153.602 48.2395C153.766 48.2487 153.93 48.22 154.081 48.1558C154.233 48.0915 154.367 47.9934 154.474 47.8689L154.939 48.3023C154.77 48.4914 154.562 48.6403 154.328 48.7382C154.095 48.836 153.842 48.8802 153.589 48.8676C152.686 48.8676 151.97 48.3902 151.97 46.9833C151.97 45.8213 152.598 45.1492 153.495 45.1492C154.393 45.1492 155.021 45.859 155.021 46.8828V47.1968L152.686 47.2282Z" fill="#898989"/>
    <path d="M157.218 48.8549C156.408 48.8549 155.617 48.3524 155.617 46.9706C155.617 45.5888 156.408 45.1366 157.218 45.1366C157.441 45.1246 157.663 45.1636 157.869 45.2507C158.074 45.3378 158.257 45.4706 158.404 45.639L157.908 46.1164C157.828 46.009 157.724 45.9222 157.604 45.8632C157.484 45.8042 157.352 45.7747 157.218 45.7772C157.089 45.774 156.962 45.8014 156.846 45.8571C156.731 45.9128 156.63 45.9952 156.552 46.0975C156.383 46.3552 156.307 46.6637 156.339 46.9706C156.307 47.2816 156.382 47.5943 156.552 47.8562C156.634 47.9583 156.737 48.0407 156.854 48.0974C156.971 48.154 157.1 48.1834 157.23 48.1834C157.361 48.1834 157.489 48.154 157.607 48.0974C157.724 48.0407 157.827 47.9583 157.908 47.8562L158.404 48.3336C158.258 48.5036 158.076 48.6383 157.87 48.7275C157.665 48.8167 157.442 48.8581 157.218 48.8486" fill="#898989"/>
    <path d="M161.241 48.8109V46.6C161.255 46.4987 161.246 46.3956 161.216 46.298C161.186 46.2004 161.134 46.1106 161.065 46.0351C160.996 45.9596 160.912 45.9002 160.817 45.861C160.723 45.8219 160.621 45.804 160.519 45.8086C160.416 45.8032 160.313 45.8204 160.218 45.8591C160.123 45.8978 160.037 45.957 159.967 46.0324C159.897 46.1079 159.844 46.1979 159.813 46.296C159.781 46.394 159.772 46.4978 159.785 46.6V48.8109H159.057V43.7861H159.778V45.6014C159.896 45.4724 160.04 45.3694 160.2 45.2991C160.36 45.2288 160.533 45.1927 160.707 45.1931C160.881 45.1839 161.054 45.2125 161.215 45.2769C161.376 45.3412 161.521 45.4398 161.641 45.5658C161.76 45.6918 161.851 45.8422 161.906 46.0067C161.962 46.1712 161.981 46.3457 161.963 46.5184V48.8424L161.241 48.8109Z" fill="#898989"/>
    <path d="M165.088 48.811V46.6126C165.088 46.0536 164.774 45.8087 164.366 45.8087C164.263 45.8042 164.159 45.8225 164.063 45.8622C163.967 45.902 163.88 45.9622 163.81 46.0387C163.739 46.1153 163.686 46.2063 163.655 46.3054C163.623 46.4045 163.613 46.5093 163.626 46.6126V48.811H162.898V45.2057H163.607V45.57C163.73 45.4389 163.879 45.3349 164.044 45.2646C164.21 45.1943 164.388 45.1593 164.567 45.1617C164.894 45.1513 165.211 45.2685 165.452 45.4883C165.581 45.624 165.68 45.7852 165.743 45.9616C165.806 46.1379 165.831 46.3255 165.816 46.5121V48.811H165.088Z" fill="#898989"/>
    <path d="M168.603 46.0159C168.534 45.9479 168.451 45.8945 168.361 45.8589C168.27 45.8233 168.173 45.8062 168.076 45.8086C167.88 45.8051 167.69 45.8796 167.549 46.0159C167.346 46.3021 167.259 46.6542 167.304 47.002C167.258 47.3518 167.346 47.706 167.549 47.9944C167.69 48.1307 167.88 48.2052 168.076 48.2017C168.173 48.2042 168.27 48.1871 168.361 48.1515C168.451 48.1159 168.534 48.0625 168.603 47.9944C168.808 47.7066 168.898 47.3526 168.854 47.002C168.898 46.6534 168.808 46.3012 168.603 46.0159ZM169.156 48.4278C169.014 48.5678 168.845 48.6777 168.659 48.7511C168.474 48.8245 168.275 48.8598 168.076 48.8549C167.878 48.8611 167.68 48.8264 167.495 48.7529C167.311 48.6795 167.143 48.5688 167.003 48.4278C166.84 48.2307 166.719 48.003 166.645 47.7581C166.572 47.5132 166.549 47.2562 166.576 47.002C166.549 46.7509 166.573 46.4969 166.647 46.2552C166.72 46.0135 166.841 45.789 167.003 45.5951C167.142 45.4529 167.309 45.3414 167.494 45.2678C167.679 45.1942 167.877 45.1602 168.076 45.168C168.276 45.1617 168.474 45.1963 168.66 45.2697C168.846 45.3432 169.014 45.4539 169.156 45.5951C169.317 45.789 169.439 46.0135 169.512 46.2552C169.585 46.4969 169.609 46.7509 169.583 47.002C169.61 47.2562 169.586 47.5132 169.513 47.7581C169.44 48.003 169.318 48.2307 169.156 48.4278Z" fill="#898989"/>
    <path d="M171.346 48.8111C171.213 48.8216 171.079 48.8029 170.953 48.7563C170.828 48.7098 170.714 48.6365 170.619 48.5414C170.525 48.4464 170.452 48.332 170.407 48.2061C170.361 48.0802 170.343 47.9459 170.355 47.8124V43.7549H171.083V47.7684C171.083 48.0511 171.183 48.1955 171.472 48.1955H171.792V48.8236L171.346 48.8111Z" fill="#898989"/>
    <path d="M174.265 46.0159C174.12 45.883 173.931 45.8093 173.735 45.8093C173.538 45.8093 173.349 45.883 173.204 46.0159C173.002 46.3021 172.914 46.6542 172.959 47.002C172.914 47.3518 173.001 47.706 173.204 47.9944C173.349 48.1273 173.538 48.201 173.735 48.201C173.931 48.201 174.12 48.1273 174.265 47.9944C174.47 47.7066 174.559 47.3526 174.516 47.002C174.559 46.6534 174.47 46.3012 174.265 46.0159ZM174.811 48.4278C174.67 48.5682 174.503 48.6784 174.318 48.7519C174.134 48.8253 173.936 48.8604 173.738 48.8549C173.539 48.8619 173.341 48.8275 173.156 48.754C172.972 48.6805 172.804 48.5694 172.664 48.4278C172.502 48.2306 172.38 48.0029 172.307 47.7581C172.234 47.5132 172.21 47.2561 172.238 47.002C172.211 46.7508 172.235 46.4968 172.308 46.2551C172.382 46.0135 172.503 45.789 172.664 45.5951C172.803 45.4525 172.971 45.3408 173.156 45.2672C173.341 45.1936 173.539 45.1598 173.738 45.1679C173.936 45.161 174.134 45.1954 174.319 45.2689C174.504 45.3424 174.671 45.4535 174.811 45.5951C174.973 45.789 175.094 46.0135 175.167 46.2551C175.241 46.4968 175.265 46.7508 175.238 47.002C175.265 47.2561 175.242 47.5132 175.168 47.7581C175.095 48.0029 174.974 48.2306 174.811 48.4278Z" fill="#898989"/>
    <path d="M177.328 45.8086C176.7 45.8086 176.587 46.3739 176.587 46.9392C176.587 47.5045 176.675 48.0698 177.328 48.0698C177.981 48.0698 178.056 47.5108 178.056 46.9392C178.056 46.3677 177.981 45.8086 177.328 45.8086ZM177.246 50.3058C177.015 50.3187 176.784 50.2829 176.568 50.2007C176.352 50.1184 176.155 49.9916 175.991 49.8285L176.455 49.37C176.555 49.4762 176.675 49.5598 176.81 49.6151C176.944 49.6703 177.089 49.696 177.234 49.6903C177.352 49.696 177.471 49.6755 177.58 49.6303C177.69 49.5851 177.789 49.5163 177.869 49.4288C177.949 49.3414 178.009 49.2373 178.045 49.124C178.08 49.0107 178.091 48.891 178.075 48.7733V48.3148C177.964 48.4512 177.823 48.5595 177.663 48.6305C177.502 48.7014 177.327 48.7332 177.152 48.723C176.995 48.7302 176.837 48.7055 176.69 48.6504C176.542 48.5954 176.407 48.5111 176.292 48.4027C176.025 47.9613 175.884 47.4552 175.884 46.9392C175.884 46.4233 176.025 45.9172 176.292 45.4757C176.529 45.2633 176.84 45.1527 177.158 45.168C177.338 45.1551 177.518 45.1868 177.682 45.2602C177.846 45.3336 177.99 45.4465 178.1 45.5888V45.2057H178.803V48.7858C178.814 48.99 178.782 49.1942 178.708 49.3849C178.634 49.5756 178.521 49.7485 178.376 49.8922C178.23 50.0359 178.056 50.147 177.865 50.2184C177.673 50.2897 177.469 50.3195 177.265 50.3058" fill="#898989"/>
    <path d="M180.88 49.5271C180.829 49.6943 180.738 49.8471 180.617 49.973C180.517 50.0643 180.4 50.1347 180.273 50.18C180.146 50.2253 180.011 50.2446 179.876 50.2368H179.587V49.6087H179.776C180.077 49.6087 180.19 49.5145 180.29 49.2193L180.491 48.6666L179.236 45.2309H180.002L180.855 47.7433L181.696 45.2309H182.468L180.88 49.5271Z" fill="#898989"/>
    <path d="M186.134 48.8549C185.888 48.8579 185.645 48.8117 185.417 48.7189C185.19 48.6262 184.983 48.4887 184.81 48.3148C184.314 47.8123 184.32 47.2533 184.32 46.2797C184.32 45.3062 184.32 44.7471 184.81 44.2509C184.982 44.0758 185.189 43.9376 185.416 43.8447C185.644 43.7519 185.888 43.7063 186.134 43.7108C186.576 43.6922 187.008 43.8419 187.343 44.1299C187.679 44.4179 187.893 44.8226 187.942 45.2622H187.157C187.123 45.0752 187.038 44.9011 186.912 44.7586C186.786 44.616 186.624 44.5104 186.443 44.453C186.262 44.3956 186.068 44.3885 185.883 44.4326C185.699 44.4767 185.529 44.5702 185.393 44.7032C185.142 44.9733 185.086 45.2622 185.086 46.2797C185.086 47.2972 185.142 47.5862 185.393 47.8562C185.489 47.9563 185.604 48.0354 185.731 48.0884C185.859 48.1414 185.996 48.1671 186.134 48.164C186.382 48.1687 186.623 48.0835 186.814 47.9243C187.004 47.765 187.13 47.5423 187.17 47.2972H187.929C187.88 47.7374 187.667 48.1427 187.331 48.4317C186.996 48.7207 186.564 48.8719 186.121 48.8549" fill="#898989"/>
    <path d="M190.552 46.0159C190.482 45.9479 190.398 45.8946 190.306 45.8591C190.215 45.8235 190.117 45.8064 190.019 45.8086C189.923 45.8066 189.827 45.824 189.738 45.8596C189.648 45.8952 189.567 45.9483 189.498 46.0159C189.293 46.3012 189.203 46.6534 189.247 47.002C189.204 47.3526 189.293 47.7066 189.498 47.9944C189.567 48.062 189.648 48.1151 189.738 48.1507C189.827 48.1863 189.923 48.2036 190.019 48.2017C190.117 48.2039 190.215 48.1868 190.306 48.1512C190.398 48.1156 190.482 48.0623 190.552 47.9944C190.757 47.7066 190.847 47.3526 190.804 47.002C190.847 46.6534 190.757 46.3012 190.552 46.0159ZM191.099 48.4278C190.957 48.5686 190.788 48.6792 190.603 48.7526C190.417 48.826 190.218 48.8608 190.019 48.8549C189.821 48.861 189.625 48.8262 189.441 48.7527C189.257 48.6792 189.091 48.5686 188.952 48.4278C188.789 48.2306 188.668 48.0029 188.595 47.7581C188.521 47.5132 188.498 47.2561 188.525 47.002C188.498 46.7508 188.522 46.4968 188.596 46.2551C188.669 46.0134 188.79 45.789 188.952 45.5951C189.09 45.453 189.256 45.3416 189.44 45.268C189.624 45.1944 189.821 45.1603 190.019 45.1679C190.219 45.1605 190.418 45.1946 190.604 45.2681C190.789 45.3416 190.958 45.453 191.099 45.5951C191.26 45.789 191.381 46.0134 191.455 46.2551C191.528 46.4968 191.552 46.7508 191.525 47.002C191.555 47.2562 191.532 47.5137 191.459 47.7589C191.385 48.004 191.263 48.2316 191.099 48.4278Z" fill="#898989"/>
    <path d="M194.206 46.0159C194.136 45.9478 194.054 45.8944 193.963 45.8588C193.873 45.8232 193.776 45.8062 193.679 45.8086C193.482 45.8051 193.293 45.8796 193.151 46.0159C192.947 46.3012 192.857 46.6534 192.9 47.002C192.857 47.3526 192.947 47.7066 193.151 47.9944C193.293 48.1307 193.482 48.2052 193.679 48.2017C193.776 48.2041 193.873 48.1871 193.963 48.1515C194.054 48.1158 194.136 48.0624 194.206 47.9944C194.413 47.708 194.503 47.3528 194.457 47.002C194.504 46.6532 194.414 46.2998 194.206 46.0159ZM194.758 48.4278C194.617 48.5684 194.448 48.6787 194.262 48.7521C194.077 48.8255 193.878 48.8605 193.679 48.8549C193.48 48.8619 193.282 48.8275 193.097 48.754C192.913 48.6805 192.745 48.5694 192.605 48.4278C192.443 48.2306 192.321 48.0029 192.248 47.7581C192.175 47.5132 192.151 47.2561 192.179 47.002C192.152 46.7508 192.176 46.4968 192.249 46.2551C192.323 46.0135 192.444 45.789 192.605 45.5951C192.744 45.4525 192.912 45.3408 193.097 45.2672C193.282 45.1936 193.48 45.1598 193.679 45.1679C193.878 45.1609 194.077 45.1952 194.263 45.2687C194.449 45.3422 194.617 45.4533 194.758 45.5951C194.919 45.7895 195.039 46.0142 195.111 46.2558C195.183 46.4975 195.206 46.7513 195.179 47.002C195.209 47.2558 195.187 47.513 195.115 47.7582C195.043 48.0033 194.921 48.2311 194.758 48.4278Z" fill="#898989"/>
    <path d="M197.432 45.8087C196.804 45.8087 196.679 46.3677 196.679 47.0021C196.679 47.6365 196.779 48.2017 197.432 48.2017C198.085 48.2017 198.173 47.6427 198.173 47.0021C198.173 46.3614 198.085 45.8087 197.432 45.8087ZM198.499 48.5346C198.259 48.7469 197.947 48.8593 197.627 48.8487C197.447 48.8624 197.267 48.8325 197.102 48.7614C196.937 48.6902 196.792 48.5801 196.679 48.4404V50.2619H195.957V45.2371H196.666V45.6077C196.778 45.4644 196.924 45.351 197.09 45.2776C197.257 45.2042 197.439 45.173 197.62 45.1869C197.943 45.1747 198.257 45.2871 198.499 45.5009C198.762 45.9664 198.901 46.4922 198.901 47.0272C198.901 47.5622 198.762 48.088 198.499 48.5535" fill="#898989"/>
    <path d="M201.738 46.2358C201.679 46.0974 201.58 45.98 201.453 45.8992C201.327 45.8184 201.179 45.7781 201.028 45.7836C200.878 45.7777 200.728 45.8178 200.601 45.8985C200.473 45.9793 200.373 46.0969 200.313 46.2358C200.243 46.3894 200.211 46.5573 200.219 46.7258H201.838C201.841 46.5571 201.807 46.3898 201.738 46.2358ZM200.219 47.2282C200.201 47.3571 200.212 47.4883 200.251 47.6125C200.289 47.7367 200.354 47.851 200.442 47.9473C200.529 48.0437 200.636 48.1198 200.756 48.1702C200.876 48.2207 201.005 48.2443 201.135 48.2395C201.299 48.2487 201.463 48.22 201.615 48.1558C201.766 48.0915 201.9 47.9934 202.008 47.8689L202.466 48.3023C202.299 48.4916 202.091 48.6408 201.859 48.7387C201.626 48.8365 201.375 48.8806 201.123 48.8676C200.219 48.8676 199.497 48.3902 199.497 46.9833C199.497 45.8213 200.125 45.1492 201.028 45.1492C201.932 45.1492 202.554 45.859 202.554 46.8828V47.1968L200.219 47.2282Z" fill="#898989"/>
    <path d="M205.322 46.0537C205.259 45.9736 205.177 45.91 205.084 45.8684C204.991 45.8268 204.89 45.8085 204.788 45.815C204.687 45.8171 204.588 45.8401 204.496 45.8824C204.404 45.9247 204.322 45.9855 204.255 46.061C204.188 46.1364 204.137 46.2249 204.106 46.3209C204.074 46.4169 204.063 46.5184 204.073 46.619V48.8048H203.344V45.2057H204.054V45.6077C204.169 45.4676 204.315 45.3557 204.481 45.2806C204.646 45.2055 204.826 45.1691 205.008 45.1743C205.167 45.165 205.327 45.1904 205.475 45.249C205.624 45.3076 205.758 45.3978 205.868 45.5135L205.322 46.0537Z" fill="#898989"/>
    <path d="M208.203 47.2156H207.387C206.966 47.2156 206.759 47.4103 206.759 47.7369C206.759 48.0635 206.966 48.2457 207.418 48.2457C207.539 48.2621 207.661 48.252 207.777 48.2162C207.893 48.1804 208 48.1197 208.09 48.0384C208.15 47.9654 208.195 47.8811 208.221 47.7905C208.248 47.6999 208.257 47.6048 208.247 47.5108L208.203 47.2156ZM208.203 48.811V48.4844C208.081 48.6128 207.932 48.7126 207.767 48.7766C207.602 48.8407 207.425 48.8675 207.249 48.8549C207.073 48.8704 206.897 48.8488 206.73 48.7914C206.564 48.7341 206.411 48.6423 206.282 48.5221C206.092 48.3108 205.99 48.0339 206 47.7495C206 47.1214 206.42 46.7131 207.255 46.7131H208.203V46.4619C208.203 46.0034 207.977 45.7835 207.418 45.7835C207.268 45.7656 207.115 45.7882 206.976 45.8489C206.837 45.9096 206.717 46.0063 206.627 46.129L206.15 45.683C206.307 45.4971 206.507 45.3523 206.732 45.2614C206.957 45.1706 207.202 45.1363 207.443 45.1617C208.429 45.1617 208.925 45.5825 208.925 46.4179V48.8235L208.203 48.811Z" fill="#898989"/>
    <path d="M210.933 48.811C210.8 48.8184 210.667 48.7974 210.542 48.7494C210.417 48.7013 210.305 48.6273 210.211 48.5323C210.117 48.4373 210.044 48.3233 209.998 48.1981C209.952 48.0729 209.932 47.9393 209.941 47.806V45.8275H209.533V45.2685H209.941V44.1756H210.669V45.2685H211.366V45.8275H210.669V47.7683C210.669 48.0321 210.795 48.1954 211.065 48.1954H211.366V48.8235L210.933 48.811Z" fill="#898989"/>
    <path d="M212.107 48.811H212.829V45.2057H212.107V48.811ZM212.107 44.496H212.873V43.7234H212.107V44.496Z" fill="#898989"/>
    <path d="M215.666 46.0162C215.522 45.8795 215.33 45.8051 215.132 45.8089C214.936 45.8053 214.746 45.8799 214.605 46.0162C214.402 46.3024 214.315 46.6545 214.36 47.0023C214.314 47.3521 214.402 47.7063 214.605 47.9947C214.746 48.131 214.936 48.2055 215.132 48.202C215.33 48.2058 215.522 48.1313 215.666 47.9947C215.869 47.7063 215.956 47.3521 215.91 47.0023C215.956 46.6545 215.868 46.3024 215.666 46.0162ZM216.212 48.4281C216.07 48.568 215.901 48.678 215.715 48.7514C215.53 48.8247 215.331 48.86 215.132 48.8552C214.934 48.8614 214.736 48.8267 214.551 48.7532C214.367 48.6797 214.199 48.5691 214.059 48.4281C213.896 48.2309 213.775 48.0032 213.701 47.7584C213.628 47.5135 213.604 47.2564 213.632 47.0023C213.605 46.7511 213.629 46.4971 213.703 46.2554C213.776 46.0137 213.897 45.7893 214.059 45.5953C214.198 45.4531 214.365 45.3416 214.55 45.2681C214.735 45.1945 214.933 45.1605 215.132 45.1682C215.332 45.1619 215.53 45.1965 215.716 45.27C215.902 45.3435 216.07 45.4542 216.212 45.5953C216.373 45.7893 216.495 46.0137 216.568 46.2554C216.641 46.4971 216.665 46.7511 216.638 47.0023C216.666 47.2564 216.642 47.5135 216.569 47.7584C216.496 48.0032 216.374 48.2309 216.212 48.4281Z" fill="#898989"/>
    <path d="M219.626 48.8113V46.6129C219.64 46.5109 219.633 46.4068 219.603 46.3081C219.573 46.2094 219.522 46.1185 219.453 46.0418C219.384 45.9651 219.299 45.9045 219.204 45.8642C219.109 45.824 219.007 45.8051 218.904 45.8089C218.799 45.8035 218.695 45.8211 218.598 45.8604C218.501 45.8997 218.414 45.9598 218.343 46.0365C218.272 46.1131 218.218 46.2045 218.186 46.304C218.154 46.4036 218.144 46.5091 218.157 46.6129V48.8113H217.429V45.206H218.138V45.5703C218.378 45.3244 218.702 45.1792 219.045 45.164C219.387 45.1488 219.723 45.2649 219.983 45.4886C220.111 45.6248 220.209 45.7863 220.271 45.9626C220.332 46.1389 220.356 46.3262 220.341 46.5124V48.8113H219.626Z" fill="#898989"/>
    <path d="M224.528 48.8551C224.03 48.858 223.552 48.6638 223.197 48.315C222.701 47.8125 222.708 47.2535 222.708 46.2799C222.708 45.3064 222.708 44.7474 223.197 44.2512C223.371 44.0758 223.578 43.9376 223.807 43.8447C224.036 43.7519 224.281 43.7064 224.528 43.711C224.969 43.6925 225.4 43.8425 225.735 44.1306C226.069 44.4187 226.282 44.8233 226.329 45.2624H225.545C225.51 45.0754 225.425 44.9013 225.299 44.7588C225.174 44.6163 225.012 44.5106 224.83 44.4532C224.649 44.3958 224.456 44.3887 224.271 44.4328C224.086 44.4769 223.917 44.5704 223.781 44.7034C223.536 44.9735 223.48 45.2624 223.48 46.2799C223.48 47.2974 223.536 47.5864 223.781 47.8565C223.877 47.957 223.993 48.0363 224.122 48.0893C224.25 48.1423 224.389 48.1678 224.528 48.1642C224.775 48.1687 225.016 48.0833 225.205 47.924C225.394 47.7646 225.519 47.542 225.557 47.2974H226.329C226.282 47.7371 226.069 48.1424 225.735 48.4315C225.401 48.7206 224.969 48.872 224.528 48.8551Z" fill="#898989"/>
    <path d="M229.135 46.236C229.076 46.0976 228.977 45.9802 228.851 45.8994C228.724 45.8186 228.576 45.7783 228.426 45.7838C228.275 45.7779 228.125 45.818 227.998 45.8987C227.87 45.9795 227.77 46.0971 227.71 46.236C227.643 46.3905 227.611 46.5577 227.616 46.726H229.235C229.238 46.5573 229.204 46.3901 229.135 46.236ZM227.616 47.2284C227.599 47.3573 227.609 47.4885 227.648 47.6127C227.686 47.7369 227.752 47.8512 227.839 47.9475C227.926 48.0439 228.034 48.12 228.153 48.1704C228.273 48.2209 228.402 48.2445 228.532 48.2397C228.697 48.2493 228.861 48.2209 229.012 48.1566C229.163 48.0924 229.298 47.994 229.405 47.8691L229.863 48.3025C229.696 48.4918 229.489 48.641 229.256 48.7389C229.023 48.8367 228.772 48.8808 228.52 48.8678C227.616 48.8678 226.9 48.3904 226.9 46.9835C226.9 45.8215 227.528 45.1494 228.426 45.1494C229.323 45.1494 229.951 45.8592 229.951 46.883V47.197L227.616 47.2284Z" fill="#898989"/>
    <path d="M232.92 48.8111V46.6128C232.934 46.5107 232.926 46.4067 232.897 46.308C232.867 46.2093 232.816 46.1184 232.747 46.0417C232.678 45.965 232.593 45.9043 232.498 45.8641C232.403 45.8239 232.301 45.805 232.198 45.8088C232.094 45.8044 231.99 45.8227 231.894 45.8624C231.798 45.9021 231.712 45.9623 231.641 46.0389C231.57 46.1154 231.518 46.2064 231.486 46.3055C231.454 46.4046 231.444 46.5095 231.457 46.6128V48.8111H230.729V45.2059H231.438V45.5702C231.561 45.4391 231.71 45.3351 231.875 45.2648C232.041 45.1945 232.219 45.1594 232.399 45.1619C232.725 45.1515 233.042 45.2686 233.284 45.4885C233.412 45.6242 233.511 45.7854 233.574 45.9617C233.637 46.1381 233.662 46.3257 233.648 46.5123V48.8111H232.92Z" fill="#898989"/>
    <path d="M235.631 48.811C235.499 48.8175 235.366 48.7959 235.242 48.7474C235.118 48.6989 235.006 48.6248 234.913 48.5299C234.82 48.4349 234.748 48.3214 234.702 48.1966C234.656 48.0719 234.637 47.9388 234.646 47.8061V45.8276H234.232V45.2685H234.646V44.1757H235.374V45.2685H236.064V45.8276H235.374V47.7684C235.374 48.0322 235.499 48.1955 235.769 48.1955H236.064V48.8236L235.631 48.811Z" fill="#898989"/>
    <path d="M238.883 46.236C238.819 46.1002 238.718 45.9853 238.591 45.9049C238.464 45.8244 238.317 45.7817 238.167 45.7817C238.017 45.7817 237.87 45.8244 237.744 45.9049C237.617 45.9853 237.516 46.1002 237.452 46.236C237.385 46.3905 237.353 46.5577 237.358 46.726H238.977C238.982 46.5577 238.95 46.3905 238.883 46.236ZM237.358 47.2284C237.34 47.3573 237.351 47.4885 237.39 47.6127C237.428 47.7369 237.493 47.8512 237.581 47.9475C237.668 48.0439 237.775 48.12 237.895 48.1704C238.015 48.2209 238.144 48.2445 238.274 48.2397C238.439 48.2494 238.604 48.221 238.757 48.1567C238.909 48.0925 239.044 47.9941 239.153 47.8691L239.611 48.3025C239.443 48.492 239.234 48.6411 239.001 48.739C238.767 48.8368 238.514 48.8809 238.262 48.8678C237.358 48.8678 236.648 48.3904 236.648 46.9835C236.648 45.8215 237.245 45.1494 238.167 45.1494C239.09 45.1494 239.693 45.8592 239.693 46.883V47.197L237.358 47.2284Z" fill="#898989"/>
    <path d="M242.454 46.0538C242.388 45.9755 242.305 45.9133 242.212 45.8719C242.118 45.8306 242.016 45.8111 241.914 45.8151C241.813 45.8172 241.714 45.8402 241.622 45.8825C241.531 45.9248 241.449 45.9856 241.381 46.0611C241.314 46.1365 241.263 46.225 241.232 46.321C241.2 46.417 241.189 46.5185 241.199 46.6191V48.8049H240.471V45.2058H241.18V45.6078C241.297 45.4675 241.444 45.3556 241.61 45.2806C241.777 45.2055 241.958 45.1692 242.14 45.1744C242.299 45.1659 242.459 45.1918 242.607 45.2503C242.755 45.3088 242.889 45.3986 243 45.5136L242.454 46.0538Z" fill="#898989"/>
    <path d="M75.916 13.072H81.8098V24.3716L88.3877 13.072H94.5639L86.9566 25.5524L95.3485 38.1709H88.1743L81.8098 27.3173V38.1709H75.916V13.072Z" fill="#343434"/>
    <path d="M101.619 25.5836C101.619 29.4213 104.017 33.014 107.977 33.014C112.157 33.014 114.185 28.8749 114.185 25.6527C114.185 22.4305 112.157 18.2223 107.908 18.2223C103.822 18.2223 101.631 22.0223 101.631 25.5522L101.619 25.5836ZM95.7251 25.8914C95.7251 17.6821 101.525 12.5945 107.889 12.5945C114.994 12.5945 120.085 18.6305 120.085 25.615C120.085 32.5995 115.026 38.6418 107.858 38.6418C100.589 38.6418 95.7251 32.3608 95.7251 25.9228V25.8914Z" fill="#343434"/>
    <path d="M124.045 13.072H131.577C135.199 13.072 137.439 13.7818 138.72 14.8684C140.653 16.4952 141.526 18.9699 141.526 21.721C141.555 23.313 141.156 24.8836 140.371 26.2684C139.667 27.4439 138.623 28.3772 137.377 28.9441L142.153 38.1709H136.065L130.058 26.0674H131.025C132.525 26.0674 133.805 25.923 134.584 25.3828C135.02 25.0006 135.365 24.5249 135.592 23.9909C135.819 23.4569 135.923 22.8785 135.895 22.2988C135.918 21.7373 135.804 21.1787 135.565 20.6703C135.326 20.1619 134.967 19.7187 134.521 19.3782C133.798 18.9334 132.965 18.7005 132.117 18.7061H129.939V38.1772H124.045V13.072Z" fill="#343434"/>
    <path d="M151.022 13.072V28.2344C150.982 29.2575 151.12 30.2799 151.43 31.2555C151.609 31.7983 151.96 32.2675 152.431 32.591C152.901 32.9144 153.465 33.0741 154.035 33.0456C154.582 33.0986 155.131 32.9674 155.595 32.6727C156.059 32.378 156.411 31.9367 156.596 31.4188C156.902 30.4016 157.027 29.3388 156.966 28.2783V13.072H162.823V28.2344C162.823 32.4364 161.982 34.3081 160.519 35.9349C159.705 36.8299 158.705 37.536 157.589 38.0036C156.473 38.4712 155.269 38.6891 154.06 38.642C152.378 38.642 149.322 38.2023 147.42 35.9663C145.518 33.7303 145.11 31.9276 145.11 28.2344V13.072H151.022Z" fill="#343434"/>
    <path d="M172.294 29.861C172.294 32.7754 173.951 33.2841 174.691 33.2841C175.308 33.2628 175.891 32.9975 176.312 32.5465C176.733 32.0955 176.959 31.4956 176.938 30.8785C176.938 29.5532 175.972 29.1449 172.419 27.5182C170.8 26.8084 166.77 25.0058 166.77 20.3264C166.77 15.3016 170.976 12.5945 174.848 12.5945C178.024 12.5945 182.518 14.3594 182.612 20.3955H176.781C176.656 19.5476 176.468 17.9522 174.654 17.9522C174.392 17.948 174.132 17.9956 173.888 18.0923C173.645 18.1889 173.423 18.3327 173.235 18.5153C173.048 18.6979 172.898 18.9159 172.794 19.1566C172.691 19.3973 172.636 19.6561 172.633 19.9181C172.633 21.0738 173.26 21.3816 177.403 23.4167C181.709 25.5145 182.801 27.6877 182.801 30.6084C182.801 34.6094 180.868 38.6418 174.754 38.6418C168.641 38.6418 166.274 34.779 166.425 29.8484L172.294 29.861Z" fill="#343434"/>
    <path d="M189.172 18.7061H184.615V13.072H199.585V18.7061H195.065V38.1709H189.172V18.7061Z" fill="#343434"/>
    <path d="M202.742 13.072H215.81V18.7061H208.635V22.6066H215.59V28.2344H208.635V32.5431H215.81V38.1709H202.742V13.072Z" fill="#343434"/>
    <path d="M242.881 28.7744C241.538 34.7099 236.799 38.6418 231.213 38.6418C223.982 38.6418 219.049 32.3608 219.049 25.5899C219.049 19.177 223.606 12.5945 231.15 12.5945C238.387 12.5945 242.254 18.6682 242.881 22.6001H236.705C236.077 20.7158 234.307 18.2034 231.119 18.2034C227.158 18.2034 224.949 21.972 224.949 25.5271C224.949 29.3271 227.315 32.9889 231.15 32.9889C234.835 32.9889 236.328 29.6286 236.705 28.7492L242.881 28.7744Z" fill="#343434"/>
</svg>
