<svg width="37" height="37" viewBox="0 0 37 37" fill="none" xmlns="http://www.w3.org/2000/svg">
    <path d="M22 6L28.5 13M22 6C19.5834 6 13.1047 6 10.0872 6C9.53844 6 9.26407 6 9.05302 6.10546C8.85931 6.20225 8.70225 6.35931 8.60546 6.55302C8.5 6.76407 8.5 7.03938 8.5 7.59V15.41C8.5 15.9606 8.5 16.2359 8.60546 16.447C8.70225 16.6407 8.85931 16.7978 9.05302 16.8945C9.26407 17 9.53938 17 10.09 17H26.91C27.4606 17 27.7359 17 27.947 16.8945C28.1407 16.7978 28.2978 16.6407 28.3945 16.447C28.5 16.2359 28.5 15.9606 28.5 15.41V13M22 6V11.41C22 11.9606 22 12.2359 22.1055 12.447C22.2022 12.6407 22.3593 12.7978 22.553 12.8945C22.7641 13 23.0394 13 23.59 13H28.5" fill="transparent" stroke="black" stroke-miterlimit="16"/>
    <rect x="5" y="16" width="27" height="18" rx="3" fill="#FA3737"/>
    <path d="M13.0322 25.2119H11.4795V24.4453H13.0322C13.3252 24.4453 13.5612 24.3867 13.7402 24.2695C13.9225 24.1523 14.0544 23.9896 14.1357 23.7812C14.2204 23.5729 14.2627 23.3353 14.2627 23.0684C14.2627 22.8242 14.2204 22.5947 14.1357 22.3799C14.0544 22.165 13.9225 21.9925 13.7402 21.8623C13.5612 21.7288 13.3252 21.6621 13.0322 21.6621H11.665V28H10.7666V20.8906H13.0322C13.4912 20.8906 13.8786 20.9834 14.1943 21.1689C14.5101 21.3545 14.7493 21.6117 14.9121 21.9404C15.0781 22.266 15.1611 22.6387 15.1611 23.0586C15.1611 23.5143 15.0781 23.9033 14.9121 24.2256C14.7493 24.5479 14.5101 24.7936 14.1943 24.9629C13.8786 25.1289 13.4912 25.2119 13.0322 25.2119ZM17.9248 28H16.7139L16.7236 27.2334H17.9248C18.3512 27.2334 18.6979 27.152 18.9648 26.9893C19.2318 26.8232 19.4287 26.5791 19.5557 26.2568C19.6826 25.9313 19.7461 25.5293 19.7461 25.0508V23.835C19.7461 23.4574 19.7103 23.1318 19.6387 22.8584C19.5671 22.585 19.4596 22.3604 19.3164 22.1846C19.1732 22.0088 18.9925 21.8786 18.7744 21.7939C18.5563 21.7061 18.3008 21.6621 18.0078 21.6621H16.6895V20.8906H18.0078C18.4082 20.8906 18.7695 20.9541 19.0918 21.0811C19.4141 21.2048 19.6908 21.3919 19.9219 21.6426C20.153 21.89 20.3288 22.1976 20.4492 22.5654C20.5729 22.9333 20.6348 23.3597 20.6348 23.8447V25.0508C20.6348 25.5358 20.5729 25.9622 20.4492 26.3301C20.3288 26.6979 20.1514 27.0055 19.917 27.2529C19.6826 27.5003 19.3978 27.6875 19.0625 27.8145C18.7305 27.9382 18.3512 28 17.9248 28ZM17.2119 20.8906V28H16.3135V20.8906H17.2119ZM22.9248 20.8906V28H22.0264V20.8906H22.9248ZM25.3223 24.0889V24.8604H22.7539V24.0889H25.3223ZM25.7275 20.8906V21.6621H22.7539V20.8906H25.7275Z" fill="white"/>
</svg>
