<svg width="30" height="30" viewBox="0 0 30 30" fill="none" xmlns="http://www.w3.org/2000/svg">
    <path d="M29.5 15C29.5 22.7161 23.0242 29 15 29C6.97576 29 0.5 22.7161 0.5 15C0.5 7.28386 6.97576 1 15 1C23.0242 1 29.5 7.28386 29.5 15Z" fill="white" stroke="#0A00FF"/>
    <path d="M17.583 7.79175C16.855 7.79107 16.1309 7.89921 15.4349 8.11258C15.9729 8.35498 16.444 8.72434 16.8078 9.18893C17.1715 9.65353 17.4171 10.1995 17.5234 10.7799C17.6297 11.3603 17.5935 11.9579 17.4179 12.5212C17.2424 13.0846 16.9328 13.5969 16.5156 14.0142C16.0984 14.4315 15.5862 14.7413 15.0229 14.917C14.4596 15.0927 13.862 15.1291 13.2816 15.023C12.7011 14.9169 12.1551 14.6715 11.6904 14.3078C11.2257 13.9442 10.8562 13.4732 10.6136 12.9353C10.1614 14.4023 10.1837 15.9745 10.6773 17.4281C11.1709 18.8816 12.1107 20.1423 13.3627 21.0305C14.6147 21.9188 16.1151 22.3892 17.6501 22.3748C19.1851 22.3604 20.6765 21.8619 21.9116 20.9503C23.1467 20.0388 24.0627 18.7606 24.5289 17.2981C24.9952 15.8355 24.9879 14.2631 24.5082 12.8049C24.0285 11.3467 23.1009 10.0771 21.8574 9.17692C20.6139 8.27677 19.1181 7.79203 17.583 7.79175Z" fill="#0A00FF"/>
</svg>
