<svg xmlns="http://www.w3.org/2000/svg" xmlns:xlink="http://www.w3.org/1999/xlink"><symbol id="chevron-down" viewBox="0 0 14 8"><path d="M1 1l5.867 6L13 1" fill="transparent"/></symbol><symbol id="chevron-right" viewBox="0 0 14 24"><path d="M1 1l11 11L1 23" fill="transparent"/></symbol><symbol id="close-2" viewBox="0 0 20 20"><rect x="1.414" width="26" height="2" rx="1" transform="rotate(45 1.414 0)"/><rect x="19.799" y="1.414" width="26" height="2" rx="1" transform="rotate(135 19.8 1.414)"/></symbol><symbol id="close" viewBox="0 0 7 7"><path d="M1 1l5 5M1 6l5-5"/></symbol><symbol id="download" viewBox="0 0 19 18"><path d="M9.34 12.81a.204.204 0 00.249.057.204.204 0 00.071-.057l2.845-3.623a.204.204 0 00-.16-.33h-1.882V.205A.204.204 0 0010.259 0H8.735a.204.204 0 00-.203.205v8.65H6.655a.204.204 0 00-.16.33L9.34 12.81zm9.457-.895h-1.524a.204.204 0 00-.203.204v3.938H1.93v-3.938a.204.204 0 00-.203-.204H.203a.204.204 0 00-.203.204v5.063c0 .452.363.818.813.818h17.374c.45 0 .813-.366.813-.818v-5.063a.204.204 0 00-.203-.204z"/></symbol><symbol id="fb" viewBox="0 0 19 19"><path d="M19 9.5C19 4.256 14.744 0 9.5 0S0 4.256 0 9.5c0 4.598 3.268 8.427 7.6 9.31v-6.46H5.7V9.5h1.9V7.125A3.329 3.329 0 0110.925 3.8H13.3v2.85h-1.9a.953.953 0 00-.95.95v1.9h2.85v2.85h-2.85v6.603A9.499 9.499 0 0019 9.5z" fill="#F5F5F5"/></symbol><symbol id="logo-2" viewBox="0 0 145 37"><path d="M18.472 37c3.653 0 7.225-1.084 10.262-3.116a18.5 18.5 0 002.8-28.443 18.468 18.468 0 00-20.131-4.007 18.475 18.475 0 00-8.29 6.808A18.497 18.497 0 005.41 31.585 18.464 18.464 0 0018.472 37z" fill="#fff"/><path d="M18.46 0h-.231v5.383h.232a13.072 13.072 0 018.482 3.133 13.091 13.091 0 014.424 7.89h5.435a18.48 18.48 0 00-6.047-11.71A18.452 18.452 0 0018.45 0" fill="#E60013"/><path d="M31.555 18.416v.063a13.128 13.128 0 01-3.84 9.277 13.108 13.108 0 01-9.27 3.843h-.314v5.378h.341a18.447 18.447 0 0013.056-5.41 18.476 18.476 0 005.409-13.065v-.064l-5.382-.022z" fill="#008CD6"/><path d="M13.056 10.893l.049.063.067.255.18.259-.045.375.22.22.113.316-.165.277-.1.611.351.997.551.412.22.679.29.986s.692.888.7.922c.135.08.277.15.423.21l-.221-.375-.221-.454.21-.228-.09-.24h.225l.123-.611.536-.176.075-.701.374-.649-.255-.566-.902-.375-.322-.554-.424-.124-.258-.405-.711-.258-.326.344-.199-.202-.033-.532-.154-.146.22-.469-.085-.169-.191.146.288-.75.277-.1.165.464.101-.476.502-.416.243-.554.225.086.61-.21.278-.334.101.233.28-.147.12-.566-.186-.22-.622.322.018-.293.412-.187.469-.214.022.236.412-.157v-.232l-.019-.124a5.767 5.767 0 00-3.921 3.8z" fill="#45BDCF"/><path d="M23.854 12.298l-.023-.727-.288.068-.303-.323-.457-.903.48.513.235.375.277-.232-.198-.716-.203-.262.192-.102h.056a5.773 5.773 0 00-3.146-2.755v.203l-.349-.09h-.3l-.209.307.277.259.423-.056.068.213h-.375l-.007.199-.176.157-.27.09.213.199-.09.142h-.303l-.13.323.288.21.412-.08.265-.43.293-.09.475.288-.03.255.199-.097-.176-.435.374.345.233.056.067-.333.022-.315.547.28-.348.136-.098.255.3.153.3-.045.135.484h-.412l-.469-.124-.078.146-.667-.146-.18-.375-.644.124-.243.146-.315.023-.243.532-.375.244-.202.75.075.505.902.994 1.146-.3.113.22h.374l.124.158-.124.356.3.431v.66l-.221.266.135.746-.131.266.13.424-.082.315.615-.158.88-.78v-.445l.528-.904-.034-.468.446-1.125z" fill="#ABCD05"/><path d="M17.595 7.114l-.044.158-.21.101-.169.322.075.165.536-.345.438-.033.25-.199.068-.292-.386-.023-.558.146z" fill="#45BDCF"/><path d="M19.22 8.007l-.201.1.022.143.146.023.135-.21.09.123-.06.2h.202l.214-.188-.334-.236-.213-.09v.135z" fill="#ABCD05"/><path d="M13.865 10.885l.39.277.232-.258-.655-.3.033.281zm4.454-3.335l.067.145.36-.067-.203-.146-.224.067z" fill="#45BDCF"/><path d="M17.993 27.948l-.633.854a.607.607 0 01-.854.06.598.598 0 01-.191-.828l.629-.855a.659.659 0 011.049.75m-2.266-.315a.607.607 0 11-.918-.75l.918-1.124a.61.61 0 11.917.75l-.917 1.124zm-2.465-.686c-.288-.21-.277-.72.027-1.125l1.056-1.439c.307-.412.786-.577 1.075-.375.288.203.277.716-.027 1.125l-1.056 1.435c-.307.416-.786.578-1.075.375m-1.266-1.5a.555.555 0 01-.19-.749l.557-.75a.543.543 0 01.75-.04.555.555 0 01.19.749l-.554.75a.55.55 0 01-.771.037m13.483-1.848c-.319-.213-1.199-.967-1.199-.967-1.33-1.072-5.382-3.392-5.382-3.392-.42.173-.849.324-1.284.453a11.95 11.95 0 01-.495.533c-1.217 1.634-1.966.948-1.966.948-.345-.109.749-1.5.749-1.5l.858-1.311c.063-.319 1.779-.405 1.779-.405 1.973-.345 3.063 0 3.063 0 1.91.686 2.81.191 2.81.191l5.295-4.498c-.108-.24-.22-.48-.34-.712l-5.143 4.438a1.052 1.052 0 01-.914.255 15.636 15.636 0 00-3.37-.487s-2.858-.027-3.544.63l-.374.374c-.75-.169-5.794-2.777-8.708-4.307a7.134 7.134 0 00-.225.589c2.431 1.184 6.525 3.325 6.525 3.325.712.316 1.402.68 2.067 1.087-1.09 1.574-1.172 2.057-1.172 2.057-.143 1.174 1.172 1.001 1.172 1.001 1.255-.112 2.318-1.612 2.318-1.612.663-.322.88-.217.88-.217 1.873.862 4.495 2.834 4.495 2.834a18.342 18.342 0 012.056 1.675c.082 1.069-.88.769-.88.769l-3.229-1.912c-.415-.169-.513 0-.513 0a.375.375 0 00-.037.525l3.258 1.949c0 .926-.943.678-.943.678l-2.69-1.555c-.509-.188-.576.086-.576.086-.259.277.082.514.082.514l2.723 1.521c-.082 1.125-1.124.604-1.124.604l-1.951-.967c-.49-.334-.663.045-.663.045-.258.45.3.6.3.6l1.906.877c-.685 1.098-2.678.13-2.678.13.236-.194.236-.708.236-.708.172-1.158-1.075-1.416-1.075-1.416 0-1.5-1.176-1.654-1.176-1.654-.195-.854-.513-1.049-.513-1.049a1.18 1.18 0 00-1.873.345c-.899-1.33-2.123-.345-2.123-.345l-5.146-1.77c.075.267.153.537.243.8l4.46 1.536s-.572.978-.04 1.574a1.125 1.125 0 001.03.6s-.229 1.346 1.543 1.458c0 0 .4 1.26 1.629.945 0 0 .172 1.233 1.558.914.358-.1.662-.337.846-.66 0 0 2.315 1.076 3.397.03a1.5 1.5 0 00.345-.543s1.498.146 1.543-1.17a1.344 1.344 0 001.43-1.21 1.365 1.365 0 001.23-.652 1.189 1.189 0 00.115-1.286s.397-.277 1.262-.93l3.229-2.159c.06-.303.097-.607.139-.918a476.1 476.1 0 01-5.203 3.441" fill="#008CD6"/><path d="M5.367 18.48v-.064H0v.063c0 4.843 1.9 9.491 5.292 12.945a18.45 18.45 0 0012.84 5.523v-5.379a13.104 13.104 0 01-9.018-3.961 13.125 13.125 0 01-3.717-9.128" fill="#293BDB"/><path d="M18.12.012A18.446 18.446 0 005.434 5.384 18.475 18.475 0 000 18.052h5.386a13.094 13.094 0 013.85-8.87A13.074 13.074 0 0118.12 5.38h.108V.012h-.108z" fill="#D7083B"/><path d="M31.555 18.416h5.37v-.353h-5.39v.353m-13.306-.349h-.105v.352h.105v-.352z" fill="#fff"/><path d="M45.3 11.285h3.517v6.743l3.925-6.743h3.685l-4.54 7.448 5.008 7.53h-4.28l-3.798-6.477v6.477H45.3V11.285zm15.337 7.467c0 2.29 1.43 4.434 3.794 4.434 2.494 0 3.704-2.47 3.704-4.393 0-1.923-1.21-4.434-3.745-4.434-2.438 0-3.746 2.267-3.746 4.374l-.007.019zm-3.517.183c0-4.899 3.46-7.935 7.259-7.935 4.24 0 7.277 3.602 7.277 7.77 0 4.169-3.02 7.774-7.296 7.774-4.337 0-7.24-3.748-7.24-7.59v-.019zm16.899-7.65h4.494c2.161 0 3.498.424 4.262 1.072 1.154.97 1.674 2.448 1.674 4.09.018.95-.22 1.887-.689 2.713a4.024 4.024 0 01-1.786 1.597l2.85 5.506h-3.633l-3.584-7.223h.577c.895 0 1.659-.086 2.123-.408a2.301 2.301 0 00.783-1.84 2.089 2.089 0 00-.82-1.744 2.703 2.703 0 00-1.435-.4h-1.3v11.62H74.02V11.284zm16.097 0v9.049c-.024.61.058 1.22.244 1.802a1.555 1.555 0 001.554 1.069 1.471 1.471 0 001.528-.971 5.437 5.437 0 00.221-1.874v-9.075h3.495v9.049c0 2.507-.502 3.624-1.375 4.595a4.95 4.95 0 01-3.854 1.616c-1.004 0-2.828-.263-3.962-1.597-1.135-1.335-1.379-2.41-1.379-4.614v-9.049h3.528zm12.693 10.019c0 1.74.989 2.043 1.431 2.043a1.388 1.388 0 001.341-1.436c0-.79-.577-1.034-2.697-2.005-.966-.423-3.37-1.5-3.37-4.292 0-2.998 2.509-4.614 4.819-4.614 1.896 0 4.577 1.053 4.633 4.655h-3.479c-.075-.506-.187-1.458-1.27-1.458a1.186 1.186 0 00-1.206 1.174c0 .69.375.873 2.847 2.087 2.569 1.252 3.221 2.55 3.221 4.292 0 2.388-1.154 4.794-4.802 4.794-3.648 0-5.06-2.305-4.97-5.247l3.502.007zm10.071-6.657h-2.719v-3.362h8.933v3.362h-2.697v11.616h-3.517V14.647zm8.098-3.362h7.797v3.362h-4.28v2.328h4.149v3.358h-4.149v2.572h4.28v3.358h-7.797V11.285zm23.951 9.371c-.801 3.542-3.629 5.888-6.962 5.888-4.315 0-7.259-3.748-7.259-7.789 0-3.827 2.719-7.755 7.221-7.755 4.319 0 6.626 3.625 7 5.971h-3.685c-.375-1.124-1.431-2.624-3.333-2.624-2.364 0-3.682 2.25-3.682 4.37 0 2.269 1.412 4.454 3.7 4.454 2.199 0 3.09-2.005 3.315-2.53l3.685.015z" fill="#343434"/></symbol><symbol id="logo-footer-2" viewBox="0 0 145 37"><path d="M18.472 37c3.653 0 7.225-1.084 10.262-3.116a18.5 18.5 0 002.8-28.443 18.468 18.468 0 00-20.131-4.007 18.475 18.475 0 00-8.29 6.808A18.497 18.497 0 005.41 31.585 18.464 18.464 0 0018.472 37z" fill="#fff"/><path d="M18.46 0h-.231v5.383h.232a13.072 13.072 0 018.482 3.133 13.091 13.091 0 014.424 7.89h5.435a18.48 18.48 0 00-6.047-11.71A18.452 18.452 0 0018.45 0" fill="#E60013"/><path d="M31.555 18.416v.063a13.128 13.128 0 01-3.84 9.277 13.108 13.108 0 01-9.27 3.843h-.314v5.378h.341a18.447 18.447 0 0013.056-5.41 18.476 18.476 0 005.409-13.065v-.064l-5.382-.022z" fill="#008CD6"/><path d="M13.056 10.893l.049.063.067.255.18.259-.045.375.22.22.113.316-.165.277-.1.611.351.997.551.412.22.679.29.986s.692.888.7.922c.135.08.277.15.423.21l-.221-.375-.221-.454.21-.228-.09-.24h.225l.123-.611.536-.176.075-.701.374-.649-.255-.566-.902-.375-.322-.554-.424-.124-.258-.405-.711-.258-.326.344-.199-.202-.033-.532-.154-.146.22-.469-.085-.169-.191.146.288-.75.277-.1.165.464.101-.476.502-.416.243-.554.225.086.61-.21.278-.334.101.233.28-.147.12-.566-.186-.22-.622.322.018-.293.412-.187.469-.214.022.236.412-.157v-.232l-.019-.124a5.767 5.767 0 00-3.921 3.8z" fill="#45BDCF"/><path d="M23.854 12.298l-.023-.727-.288.068-.303-.323-.457-.903.48.513.235.375.277-.232-.198-.716-.203-.262.192-.102h.056a5.773 5.773 0 00-3.146-2.755v.203l-.349-.09h-.3l-.209.307.277.259.423-.056.068.213h-.375l-.007.199-.176.157-.27.09.213.199-.09.142h-.303l-.13.323.288.21.412-.08.265-.43.293-.09.475.288-.03.255.199-.097-.176-.435.374.345.233.056.067-.333.022-.315.547.28-.348.136-.098.255.3.153.3-.045.135.484h-.412l-.469-.124-.078.146-.667-.146-.18-.375-.644.124-.243.146-.315.023-.243.532-.375.244-.202.75.075.505.902.994 1.146-.3.113.22h.374l.124.158-.124.356.3.431v.66l-.221.266.135.746-.131.266.13.424-.082.315.615-.158.88-.78v-.445l.528-.904-.034-.468.446-1.125z" fill="#ABCD05"/><path d="M17.595 7.114l-.044.158-.21.101-.169.322.075.165.536-.345.438-.033.25-.199.068-.292-.386-.023-.558.146z" fill="#45BDCF"/><path d="M19.22 8.007l-.201.1.022.143.146.023.135-.21.09.123-.06.2h.202l.214-.188-.334-.236-.213-.09v.135z" fill="#ABCD05"/><path d="M13.865 10.885l.39.277.232-.258-.655-.3.033.281zm4.454-3.335l.067.145.36-.067-.203-.146-.224.067z" fill="#45BDCF"/><path d="M17.993 27.948l-.633.854a.607.607 0 01-.854.06.598.598 0 01-.191-.828l.629-.855a.659.659 0 011.049.75m-2.266-.315a.607.607 0 11-.918-.75l.918-1.124a.61.61 0 11.917.75l-.917 1.124zm-2.465-.686c-.288-.21-.277-.72.027-1.125l1.056-1.439c.307-.412.786-.577 1.075-.375.288.203.277.716-.027 1.125l-1.056 1.435c-.307.416-.786.578-1.075.375m-1.266-1.5a.555.555 0 01-.19-.749l.557-.75a.543.543 0 01.75-.04.555.555 0 01.19.749l-.554.75a.55.55 0 01-.771.037m13.483-1.848c-.319-.213-1.199-.967-1.199-.967-1.33-1.072-5.382-3.392-5.382-3.392-.42.173-.849.324-1.284.453a11.95 11.95 0 01-.495.533c-1.217 1.634-1.966.948-1.966.948-.345-.109.749-1.5.749-1.5l.858-1.311c.063-.319 1.779-.405 1.779-.405 1.973-.345 3.063 0 3.063 0 1.91.686 2.81.191 2.81.191l5.295-4.498c-.108-.24-.22-.48-.34-.712l-5.143 4.438a1.052 1.052 0 01-.914.255 15.636 15.636 0 00-3.37-.487s-2.858-.027-3.544.63l-.374.374c-.75-.169-5.794-2.777-8.708-4.307a7.134 7.134 0 00-.225.589c2.431 1.184 6.525 3.325 6.525 3.325.712.316 1.402.68 2.067 1.087-1.09 1.574-1.172 2.057-1.172 2.057-.143 1.174 1.172 1.001 1.172 1.001 1.255-.112 2.318-1.612 2.318-1.612.663-.322.88-.217.88-.217 1.873.862 4.495 2.834 4.495 2.834a18.342 18.342 0 012.056 1.675c.082 1.069-.88.769-.88.769l-3.229-1.912c-.415-.169-.513 0-.513 0a.375.375 0 00-.037.525l3.258 1.949c0 .926-.943.678-.943.678l-2.69-1.555c-.509-.188-.576.086-.576.086-.259.277.082.514.082.514l2.723 1.521c-.082 1.125-1.124.604-1.124.604l-1.951-.967c-.49-.334-.663.045-.663.045-.258.45.3.6.3.6l1.906.877c-.685 1.098-2.678.13-2.678.13.236-.194.236-.708.236-.708.172-1.158-1.075-1.416-1.075-1.416 0-1.5-1.176-1.654-1.176-1.654-.195-.854-.513-1.049-.513-1.049a1.18 1.18 0 00-1.873.345c-.899-1.33-2.123-.345-2.123-.345l-5.146-1.77c.075.267.153.537.243.8l4.46 1.536s-.572.978-.04 1.574a1.125 1.125 0 001.03.6s-.229 1.346 1.543 1.458c0 0 .4 1.26 1.629.945 0 0 .172 1.233 1.558.914.358-.1.662-.337.846-.66 0 0 2.315 1.076 3.397.03a1.5 1.5 0 00.345-.543s1.498.146 1.543-1.17a1.344 1.344 0 001.43-1.21 1.365 1.365 0 001.23-.652 1.189 1.189 0 00.115-1.286s.397-.277 1.262-.93l3.229-2.159c.06-.303.097-.607.139-.918a476.1 476.1 0 01-5.203 3.441" fill="#008CD6"/><path d="M5.367 18.48v-.064H0v.063c0 4.843 1.9 9.491 5.292 12.945a18.45 18.45 0 0012.84 5.523v-5.379a13.104 13.104 0 01-9.018-3.961 13.125 13.125 0 01-3.717-9.128" fill="#293BDB"/><path d="M18.12.012A18.446 18.446 0 005.434 5.384 18.475 18.475 0 000 18.052h5.386a13.094 13.094 0 013.85-8.87A13.074 13.074 0 0118.12 5.38h.108V.012h-.108z" fill="#D7083B"/><path d="M31.555 18.416h5.37v-.353h-5.39v.353m-13.306-.349h-.105v.352h.105v-.352z" fill="#fff"/><path d="M45.3 11.285h3.517v6.743l3.925-6.743h3.685l-4.54 7.448 5.008 7.53h-4.28l-3.799-6.477v6.477H45.3V11.285zm15.337 7.467c0 2.29 1.43 4.434 3.794 4.434 2.494 0 3.704-2.47 3.704-4.393 0-1.923-1.21-4.434-3.745-4.434-2.439 0-3.746 2.267-3.746 4.374l-.007.019zm-3.517.183c0-4.899 3.46-7.935 7.258-7.935 4.24 0 7.278 3.602 7.278 7.77 0 4.169-3.02 7.774-7.296 7.774-4.337 0-7.24-3.748-7.24-7.59v-.019zm16.899-7.65h4.494c2.161 0 3.498.424 4.262 1.072 1.154.97 1.674 2.448 1.674 4.09.018.95-.22 1.887-.689 2.713a4.024 4.024 0 01-1.786 1.597l2.85 5.506H81.19l-3.584-7.223h.576c.896 0 1.66-.086 2.124-.408a2.302 2.302 0 00.783-1.84 2.089 2.089 0 00-.82-1.744 2.703 2.703 0 00-1.435-.4h-1.3v11.62H74.02V11.284zm16.097 0v9.049c-.024.61.058 1.22.244 1.802a1.554 1.554 0 001.554 1.069 1.47 1.47 0 001.528-.971 5.442 5.442 0 00.221-1.874v-9.075h3.495v9.049c0 2.507-.502 3.624-1.375 4.595a4.95 4.95 0 01-3.854 1.616c-1.004 0-2.828-.263-3.963-1.597-1.134-1.335-1.378-2.41-1.378-4.614v-9.049h3.528zm12.693 10.019c0 1.74.989 2.043 1.431 2.043a1.39 1.39 0 001.341-1.436c0-.79-.577-1.034-2.697-2.005-.966-.423-3.37-1.5-3.37-4.292 0-2.998 2.508-4.614 4.819-4.614 1.895 0 4.577 1.053 4.633 4.655h-3.479c-.075-.506-.187-1.458-1.27-1.458a1.186 1.186 0 00-1.206 1.174c0 .69.375.873 2.847 2.087 2.569 1.252 3.221 2.55 3.221 4.292 0 2.388-1.154 4.794-4.802 4.794-3.648 0-5.06-2.305-4.97-5.247l3.502.007zm10.071-6.657h-2.719v-3.362h8.933v3.362h-2.697v11.616h-3.517V14.647zm8.098-3.362h7.797v3.362h-4.281v2.328h4.15v3.358h-4.15v2.572h4.281v3.358h-7.797V11.285zm23.951 9.371c-.801 3.542-3.629 5.888-6.962 5.888-4.315 0-7.259-3.748-7.259-7.789 0-3.827 2.719-7.755 7.221-7.755 4.318 0 6.626 3.625 7 5.971h-3.685c-.375-1.124-1.431-2.624-3.334-2.624-2.363 0-3.681 2.25-3.681 4.37 0 2.269 1.412 4.454 3.7 4.454 2.199 0 3.09-2.005 3.315-2.53l3.685.015z" fill="#F5F5F5"/></symbol><symbol id="logo-footer" viewBox="0 0 251 64"><path d="M31.976 63.997a31.976 31.976 0 100-63.952 31.976 31.976 0 000 63.952z" fill="#fff"/><path d="M31.956 0h-.402v9.31h.402a22.64 22.64 0 0122.342 19.067h9.407A31.956 31.956 0 0031.937 0" fill="#E60013"/><path d="M54.622 31.852v.11A22.691 22.691 0 0131.93 54.654h-.544v9.303h.59a31.956 31.956 0 0031.962-31.956v-.11l-9.316-.039z" fill="#008CD6"/><path d="M22.6 18.84l.085.11.116.442.312.447-.078.648.382.383.195.544-.285.48-.176 1.057.61 1.724.953.713.382 1.174.5 1.705s1.199 1.537 1.212 1.595c.235.14.48.26.733.363l-.383-.648-.382-.785.363-.395-.156-.415h.39l.213-1.057.927-.305.13-1.212.648-1.122-.44-.979-1.563-.648-.558-.96-.732-.213-.448-.7-1.232-.448-.564.596-.343-.35-.059-.92-.265-.253.382-.81-.149-.292-.33.253.499-1.297.48-.175.285.804.175-.823.868-.72.422-.96.389.15 1.057-.364.48-.577.174.402.487-.253.207-.979-.324-.382-1.076.557.032-.505.713-.324.81-.37.04.409.713-.273v-.402l-.033-.214A9.983 9.983 0 0022.6 18.84z" fill="#45BDCF"/><path d="M41.292 21.272l-.039-1.258-.5.117-.524-.558-.791-1.563.83.889.408.648.48-.402-.344-1.238-.35-.454.33-.175h.098a9.991 9.991 0 00-5.446-4.765v.35l-.603-.156h-.519l-.363.532.48.447.733-.097.116.37h-.648l-.013.343-.305.272-.466.156.37.344-.156.246h-.526l-.226.557.499.364.713-.137.46-.745.506-.156.823.5-.052.44.344-.168-.305-.752.649.596.402.097.116-.577.04-.544.946.486-.603.233-.169.441.519.266.519-.078.233.837h-.713l-.81-.214-.137.253-1.154-.253-.311-.649-1.115.214-.422.253-.544.04-.422.92-.648.421-.35 1.297.13.875 1.562 1.718 1.984-.519.195.383h.648l.214.272-.214.616.519.746v1.14l-.383.461.233 1.29-.227.46.227.733-.142.545 1.063-.273 1.524-1.348v-.771l.914-1.563-.059-.81.772-1.945z" fill="#ABCD05"/><path d="M30.458 12.305l-.077.273-.364.175-.291.557.13.285.926-.596.759-.058.434-.344.117-.506-.668-.038-.966.252z" fill="#45BDCF"/><path d="M33.272 13.848l-.35.175.039.247.253.039.233-.363.156.214-.104.343h.35l.37-.324-.577-.408-.37-.156v.233z" fill="#ABCD05"/><path d="M24.001 18.827l.675.48.402-.447-1.135-.519.058.486zm7.709-5.77l.117.253.622-.117-.35-.252-.389.116z" fill="#45BDCF"/><path d="M31.146 48.34l-1.096 1.477a1.05 1.05 0 01-1.478.104 1.037 1.037 0 01-.33-1.433l1.088-1.478a1.141 1.141 0 011.816 1.297m-3.922-.545a1.051 1.051 0 11-1.589-1.297l1.588-1.945a1.056 1.056 0 111.589 1.297l-1.588 1.945zm-4.267-1.186c-.499-.363-.48-1.245.046-1.945l1.828-2.49c.532-.713 1.362-.998 1.86-.648.5.35.48 1.238-.044 1.945l-1.829 2.483c-.531.72-1.361.998-1.86.648m-2.192-2.593a.96.96 0 01-.33-1.297l.965-1.296a.94.94 0 011.297-.072.96.96 0 01.33 1.297l-.959 1.297a.953.953 0 01-1.335.064m23.34-3.196c-.552-.37-2.075-1.673-2.075-1.673-2.302-1.854-9.317-5.867-9.317-5.867-.727.3-1.47.56-2.223.785-.448.512-.856.92-.856.92-2.107 2.827-3.404 1.64-3.404 1.64-.596-.188 1.297-2.593 1.297-2.593l1.485-2.269c.11-.551 3.079-.7 3.079-.7 3.417-.597 5.303 0 5.303 0 3.307 1.186 4.863.33 4.863.33l9.167-7.78c-.188-.414-.382-.83-.59-1.231l-8.901 7.676a1.822 1.822 0 01-1.582.44 27.086 27.086 0 00-5.835-.842s-4.947-.045-6.133 1.09l-.649.647c-1.296-.291-10.03-4.804-15.073-7.449a12.5 12.5 0 00-.39 1.018c4.208 2.049 11.295 5.75 11.295 5.75a30.687 30.687 0 013.578 1.88c-1.886 2.724-2.029 3.56-2.029 3.56-.246 2.03 2.03 1.731 2.03 1.731 2.171-.194 4.012-2.788 4.012-2.788 1.148-.557 1.524-.376 1.524-.376 3.242 1.492 7.78 4.902 7.78 4.902a31.757 31.757 0 013.56 2.898c.142 1.847-1.524 1.329-1.524 1.329l-5.589-3.307c-.72-.291-.888 0-.888 0a.648.648 0 00-.065.908l5.64 3.371c0 1.602-1.633 1.174-1.633 1.174l-4.655-2.69c-.882-.325-.999.148-.999.148-.447.48.143.889.143.889l4.713 2.632c-.142 1.945-1.945 1.044-1.945 1.044l-3.378-1.673c-.849-.577-1.147.078-1.147.078-.447.778.519 1.037.519 1.037l3.3 1.517c-1.187 1.9-4.636.227-4.636.227.409-.337.409-1.225.409-1.225.298-2.004-1.861-2.451-1.861-2.451 0-2.593-2.036-2.86-2.036-2.86-.337-1.477-.888-1.814-.888-1.814a2.042 2.042 0 00-3.242.596c-1.556-2.302-3.676-.596-3.676-.596l-8.908-3.06c.13.46.266.927.422 1.38l7.721 2.659s-.992 1.692-.071 2.723a1.945 1.945 0 001.783 1.037s-.396 2.327 2.67 2.522c0 0 .695 2.178 2.821 1.634 0 0 .298 2.133 2.697 1.582a2.45 2.45 0 001.465-1.142s4.007 1.861 5.88.052c.265-.266.469-.587.597-.94 0 0 2.593.253 2.671-2.023a2.328 2.328 0 002.477-2.094 2.367 2.367 0 002.126-1.128 2.056 2.056 0 00.201-2.223s.688-.48 2.185-1.608l5.589-3.735c.104-.525.168-1.05.24-1.588-4.143 2.788-9.006 5.952-9.006 5.952" fill="#008CD6"/><path d="M9.29 31.962v-.11H0v.11a31.95 31.95 0 0031.386 31.944v-9.304a22.691 22.691 0 01-22.044-22.64" fill="#293BDB"/><path d="M31.385.04A31.943 31.943 0 00.02 31.242h9.323a22.64 22.64 0 0122.043-21.92h.188V.04h-.188z" fill="#D7083B"/><path d="M54.622 31.852h9.297v-.609h-9.33v.61m-23.035-.603h-.181v.609h.181v-.61zm-12.078-20.5l-2.288-1.252-.065.985.855 1.271-.758.506-2.84-4.214.759-.513 1.238 1.842.13-2.756.927-.616-.162 2.535 3.086 1.615-.882.596zm2.081-5.447a.772.772 0 00-.649 0 .746.746 0 00-.434.487c-.084.265-.032.499.35 1.4.383.901.512 1.102.759 1.232a.765.765 0 00.648 0 .745.745 0 00.434-.486c.078-.26 0-.5-.343-1.4-.344-.902-.525-1.096-.772-1.226m1.945 2.917a1.616 1.616 0 01-.946 1.005 1.646 1.646 0 01-1.388 0c-.648-.291-.869-.881-1.212-1.692-.344-.81-.603-1.387-.37-2.049a1.653 1.653 0 01.953-1.004 1.628 1.628 0 011.381 0c.649.291.875.875 1.22 1.685.343.81.596 1.394.362 2.049M26.16 3.69l-.843.18.285 1.297.836-.181a.649.649 0 00.506-.798.649.649 0 00-.784-.512m1.575 3.948l-1.297-1.789-.648.143.421 1.945-.888.194-1.07-4.92 1.79-.39a1.472 1.472 0 011.809 1.2 1.361 1.361 0 01-.558 1.484l1.485 1.945-1.044.188zm3.695-.298a1.68 1.68 0 01-1.756-1.737l-.065-3.346h.908l.07 3.3c0 .584.338.927.824.914.486-.013.804-.37.798-.953l-.072-3.3h.908l.065 3.333a1.685 1.685 0 01-1.68 1.822m4.273.265a2.1 2.1 0 01-1.575-.94l.694-.538a1.452 1.452 0 001.043.603c.532.091.85-.084.914-.486a.648.648 0 00-.07-.447.687.687 0 00-.377-.24l-.544-.175a1.543 1.543 0 01-.83-.564 1.42 1.42 0 01-.162-1.038 1.492 1.492 0 011.854-1.264 1.945 1.945 0 011.394.83l-.649.519a1.257 1.257 0 00-.888-.5.649.649 0 00-.82.717.506.506 0 00.075.185c.102.126.24.219.395.265l.532.175a1.297 1.297 0 01.998 1.654 1.56 1.56 0 01-1.945 1.244m5.848-2.826l-1.38 3.961-.856-.305L40.728 4.5l-1.154-.402.285-.837 3.17 1.102-.284.837-1.154-.402zm.707 4.804l2.47-4.435 2.684 1.504-.428.765-1.886-1.05-.584 1.037 1.614.902-.434.771-1.608-.901-.596 1.083 1.886 1.05-.428.778-2.69-1.504zm4.83 3.189a1.645 1.645 0 01-.649-1.225c-.038-.7.37-1.186.928-1.867.557-.68.953-1.18 1.646-1.297a1.66 1.66 0 011.297.37 1.699 1.699 0 01.318 2.334l-.72-.59a.804.804 0 00-.156-1.057.713.713 0 00-.648-.162c-.272.052-.467.201-1.083.966-.616.765-.739.973-.732 1.251a.737.737 0 00.278.577.804.804 0 001.07-.058l.713.584a1.698 1.698 0 01-2.347.155M5.362 34.109l.025.317.623-.052.46.312-.992.693.033.376 1.219-.875.894.616-.039-.396-1.14-.764 1.063-.098-.026-.324-2.12.195zm1.51 2.651a.324.324 0 00.052-.233.298.298 0 00-.123-.208.57.57 0 00-.434 0 .603.603 0 00-.39.169.292.292 0 00-.051.233.299.299 0 00.123.208.59.59 0 00.428.039.6.6 0 00.395-.175m-.966.395a.596.596 0 01-.253-.421.61.61 0 01.104-.474.777.777 0 01.564-.278.803.803 0 01.616.077c.135.1.226.25.253.415a.648.648 0 01-.097.487.823.823 0 01-.564.272.798.798 0 01-.649-.078m1.31 1.206a.291.291 0 00.052-.246.31.31 0 00-.395-.214l-.902.2-.07-.291 1.477-.337.072.292-.163.032a.52.52 0 01.266.357.466.466 0 01-.058.382l-.279-.175zm.305 1.388a.331.331 0 00-.162-.578.415.415 0 00-.214 0l.2.649a.416.416 0 00.176-.098m-.577-.499a.375.375 0 00-.298.493.454.454 0 00.253.311l-.124.234a.7.7 0 01-.382-.474c-.104-.37 0-.713.55-.875.552-.162.818 0 .928.396a.648.648 0 01-.519.823l-.13.039-.278-.947zm.706 2.192l-.123-.33c-.058-.176-.168-.234-.298-.183-.13.052-.175.156-.104.331.072.175.072.195.175.24a.298.298 0 00.234 0l.116-.058zm-.648.24l.13-.046a.506.506 0 01-.286-.33.545.545 0 010-.428.48.48 0 01.273-.227c.233-.091.467 0 .59.343l.136.383.104-.046c.175-.064.233-.188.149-.408a.338.338 0 00-.247-.26l.104-.252a.647.647 0 01.396.44c.142.39.045.649-.28.766l-.952.35-.117-.285zm2.671 1.497l-.214-.434-.596.291.207.435a.312.312 0 00.454.175.324.324 0 00.15-.467zM8.15 44.326l.616-.797-.181-.37-.804.396-.143-.292 1.945-.927.357.745a.604.604 0 01-.272.863.565.565 0 01-.694-.13l-.648.85-.176-.338zm.868 1.576l.13-.078a.518.518 0 01-.344-.26.5.5 0 01-.071-.395.532.532 0 01.292-.344l.842-.492.156.265-.804.467a.291.291 0 00-.143.428.304.304 0 00.454.104l.798-.46.155.259-1.296.765-.169-.26zm.732 1.193a.862.862 0 01-.174-.649l.285.052a.577.577 0 00.11.454c.104.149.24.24.357.156.117-.085.104-.137.032-.266l-.117-.214c-.136-.253-.116-.46.104-.603a.495.495 0 01.7.214c.125.16.187.36.175.564l-.265-.058a.602.602 0 00-.117-.37c-.104-.15-.227-.182-.318-.117-.09.065-.104.13 0 .273l.117.188a.415.415 0 01-.104.648c-.26.175-.55.045-.752-.26m.895 1.284a.856.856 0 01-.214-.648l.285.039a.578.578 0 00.136.44c.11.15.253.228.364.143.11-.084.103-.149 0-.272l-.13-.208c-.156-.246-.15-.447.058-.609a.5.5 0 01.72.175c.13.154.204.35.207.551l-.272-.039a.564.564 0 00-.143-.363c-.11-.142-.226-.168-.317-.104-.091.065-.098.137 0 .273l.13.207a.416.416 0 01-.072.649c-.253.194-.544.077-.765-.214m.72.843l.194.24 1.16-.973-.194-.233-1.16.966zm1.387-1.167l.201.246.247-.208-.201-.24-.247.202zm.24 1.99l-.24-.26c-.13-.13-.246-.142-.35-.051-.103.09-.097.214.033.35a.37.37 0 00.253.155.298.298 0 00.213-.11l.091-.084zm-.492.467l.103-.097a.493.493 0 01-.389-.195.52.52 0 01-.175-.389.467.467 0 01.156-.311.449.449 0 01.68.084l.273.298.084-.071c.136-.13.143-.266 0-.44a.382.382 0 00-.337-.15v-.272a.649.649 0 01.538.253c.279.31.298.583.039.816l-.746.688-.226-.214zm1.62 1.595a.96.96 0 01-.376-.714h.299a.747.747 0 00.272.513c.214.188.408.207.55.045a.324.324 0 00.085-.22.363.363 0 00-.117-.22l-.162-.195a.713.713 0 01-.188-.396.546.546 0 01.15-.408.648.648 0 01.953 0 .916.916 0 01.33.648h-.291a.61.61 0 00-.234-.428.34.34 0 00-.397-.087.338.338 0 00-.172.18.264.264 0 00-.014.108.42.42 0 00.116.233l.156.188c.1.108.166.244.188.39a.558.558 0 01-.156.434.648.648 0 01-.992-.039m1.46 1.179a.648.648 0 01-.053-1.023.648.648 0 011.005-.195.57.57 0 01.26.467l-.286.032a.363.363 0 00-.142-.291.337.337 0 00-.299-.065.577.577 0 00-.298.24.551.551 0 00-.162.343.351.351 0 00.143.279.33.33 0 00.317.065l.04.285a.648.648 0 01-.526-.136zm.758.545l.246.175.882-1.238-.253-.175-.875 1.238zm1.043-1.497l.266.188.188-.26-.266-.188-.188.26zm1.019 1.556a.324.324 0 00-.15-.324.311.311 0 00-.356 0 .396.396 0 00-.143.149l.57.37a.44.44 0 00.078-.195zm-.766 0a.376.376 0 00.098.57.46.46 0 00.395.065l.071.26a.727.727 0 01-.61-.104.65.65 0 01-.161-1.024.649.649 0 01.96-.318.646.646 0 01.155.966l-.078.11-.83-.525zm1.738 1.841l.44-.817a.293.293 0 00-.116-.48.298.298 0 00-.434.15l-.441.816-.272-.149.726-1.335.266.142-.072.136a.512.512 0 01.435.04c.124.063.22.172.265.304a.583.583 0 01-.07.448l-.461.849-.266-.104zm1.316.649a.784.784 0 01.648-1.407.647.647 0 01.363.402l-.278.097a.344.344 0 00-.201-.253.331.331 0 00-.312 0 .552.552 0 00-.24.298.538.538 0 00-.077.37.35.35 0 00.2.246.357.357 0 00.325 0l.104.272a.648.648 0 01-.545 0m2.107-.337a.331.331 0 00-.214-.291.305.305 0 00-.344.07.384.384 0 00-.116.176l.648.253a.507.507 0 00.039-.208m-.752.156a.375.375 0 00.2.538.48.48 0 00.403 0l.116.24a.707.707 0 01-.648 0c-.356-.136-.564-.434-.35-.973.214-.538.519-.648.882-.486a.65.65 0 01.33.914l-.051.123-.882-.356zm3.079-.214a.193.193 0 00-.259.143.564.564 0 00.078.33l.117-.039c.097-.039.181-.078.213-.175a.214.214 0 00-.149-.26zm-.356.784c-.182.065-.337.123-.383.312a.357.357 0 00.273.453.58.58 0 00.434-.045l-.324-.72zm.55 1.22l-.11-.247a.842.842 0 01-.648.065.65.65 0 01-.492-.798.746.746 0 01.57-.467.647.647 0 01-.09-.499.512.512 0 01.985.273.441.441 0 01-.324.304l-.175.065.291.648c.113-.1.19-.234.22-.382l.286.078a.966.966 0 01-.382.57l.233.506-.363-.117zm1.816-1.485l.577.09-.292 1.822.318.052.298-1.815.577.09.046-.291-1.479-.234-.045.286zm2.613 1.095a.325.325 0 00-.286-.22.318.318 0 00-.317.168.46.46 0 00-.052.201l.648.065a.542.542 0 000-.214m-.648.357c0 .266.103.44.35.46a.447.447 0 00.382-.116l.175.194a.727.727 0 01-.59.188c-.376 0-.648-.26-.609-.843.039-.583.324-.745.713-.713a.648.648 0 01.577.791v.13l-.998-.091zm2.036.823c-.337 0-.649-.227-.649-.797 0-.57.363-.765.7-.759a.646.646 0 01.493.227l-.214.201a.377.377 0 00-.285-.155.342.342 0 00-.285.13.538.538 0 00-.104.362.597.597 0 00.084.376.324.324 0 00.28.143.336.336 0 00.29-.136l.208.207a.65.65 0 01-.512.201m1.893-.038l-.032-.934c0-.234-.15-.33-.318-.324a.298.298 0 00-.298.343v.934h-.305l-.078-2.14h.312v.772a.546.546 0 01.782-.042.514.514 0 01.151.398l.04.98-.254.012zm1.783-.15l-.097-.94c0-.24-.169-.324-.337-.305a.306.306 0 00-.279.363l.097.921h-.304l-.156-1.504h.298v.15a.525.525 0 01.96.297l.097.96-.279.058zm1.472-1.4a.291.291 0 00-.233-.052.305.305 0 00-.201.123.59.59 0 000 .428.551.551 0 00.175.39.291.291 0 00.233.058.33.33 0 00.201-.13.57.57 0 00.032-.435.547.547 0 00-.175-.382m.402.953a.649.649 0 01-.888.156.797.797 0 01-.279-.558.785.785 0 01.072-.648.583.583 0 01.415-.253.648.648 0 01.48.097 1.103 1.103 0 01.2 1.174m1.076-.033a.383.383 0 01-.492-.318l-.383-1.672.298-.065.377 1.627c0 .11.077.162.194.136h.136l.052.253-.181.04zm1.064-1.498a.305.305 0 00-.24 0 .286.286 0 00-.188.143.61.61 0 000 .428.648.648 0 00.214.376.305.305 0 00.24 0 .344.344 0 00.194-.15.894.894 0 00-.227-.803m.5.92a.648.648 0 01-.396.292.589.589 0 01-.48-.045 1.083 1.083 0 01-.324-1.154.61.61 0 01.39-.298.648.648 0 01.485.052.791.791 0 01.337.525.83.83 0 010 .648m.804-1.439c-.26.09-.22.324-.136.55.084.228.188.435.447.35.26-.083.214-.33.136-.557-.077-.227-.188-.434-.447-.343zm.59 1.796a.699.699 0 01-.57 0l.116-.253a.44.44 0 00.363 0 .337.337 0 00.201-.48l-.058-.188a.532.532 0 01-.7.285 1.162 1.162 0 01-.409-1.16.506.506 0 01.298-.247.474.474 0 01.435.04l-.052-.163.279-.097.499 1.42a.602.602 0 01-.402.817m1.53-.921a.504.504 0 010 .214.479.479 0 01-.246.233l-.11.046-.11-.253h.071c.117-.052.143-.104.136-.233v-.253l-1.057-1.129.299-.123.752.843-.098-1.121.305-.13.058 1.906zm2.178-1.374a.747.747 0 01-.596.071c-.285-.084-.395-.292-.59-.648-.195-.357-.311-.57-.227-.85a.793.793 0 01.383-.473.733.733 0 01.979.22l-.286.15a.421.421 0 00-.55-.11.428.428 0 00-.221.259c-.04.155 0 .272.207.648.208.376.286.473.428.525a.415.415 0 00.337-.039.428.428 0 00.214-.525l.279-.156a.726.726 0 01-.357.934m1.167-2.075a.3.3 0 00-.233.04.325.325 0 00-.143.194.584.584 0 00.137.408c.09.143.181.266.31.298.084.017.17 0 .24-.045a.337.337 0 00.137-.194.584.584 0 00-.136-.409.538.538 0 00-.312-.292zm.74.733a.649.649 0 01-.765.486.804.804 0 01-.474-.415.8.8 0 01-.168-.596.59.59 0 01.285-.396.649.649 0 01.486-.097.805.805 0 01.467.409.78.78 0 01.169.61zm.558-1.679a.299.299 0 00-.227.065.294.294 0 00-.13.2.901.901 0 00.493.649.31.31 0 00.233-.065.28.28 0 00.123-.2.526.526 0 00-.162-.396.564.564 0 00-.33-.279m.79.687a.648.648 0 01-.259.409.598.598 0 01-.473.123.792.792 0 01-.5-.376.802.802 0 01-.207-.584.602.602 0 01.26-.415.596.596 0 01.473-.123.776.776 0 01.492.376.79.79 0 01.215.59zm.338-1.66c-.214.182-.091.39.084.59.175.201.356.364.564.182.207-.182.09-.383-.084-.59-.175-.208-.357-.357-.564-.182zm1.082.59a.525.525 0 01-.194.337.448.448 0 01-.415.124l.5.59-.234.2-1.381-1.633.233-.188.097.123a.462.462 0 01.195-.395.519.519 0 01.37-.137.89.89 0 01.544.377c.168.157.27.373.285.602zm.46-1.756a.298.298 0 00-.343.064.324.324 0 00-.091.35.55.55 0 00.116.175l.493-.473a.415.415 0 00-.175-.117zm-.168.745a.376.376 0 00.57.039.487.487 0 00.162-.37h.266a.74.74 0 01-.246.564c-.273.266-.649.331-1.031-.084a.647.647 0 01-.078-1.005.649.649 0 01.973.078l.09.097-.706.681zm1.251-1.99a.267.267 0 00-.227.097.32.32 0 00.045.46l.649.649-.208.227-1.115-1.038.201-.214.117.11a.506.506 0 01.142-.42.467.467 0 01.35-.17l.046.299zm1.231-.701l-.233.28c-.11.135-.103.259 0 .35.104.09.22.07.344-.085a.325.325 0 00.11-.272.267.267 0 00-.13-.195l-.09-.078zm.52.422l-.104-.084a.52.52 0 01-.136.408.505.505 0 01-.364.227.466.466 0 01-.33-.11c-.201-.162-.227-.415 0-.688l.253-.31-.084-.066c-.15-.123-.28-.103-.428.078a.343.343 0 00-.098.35h-.272a.61.61 0 01.175-.557c.26-.324.532-.376.797-.156l.785.648-.194.26zm.817-1.07a.389.389 0 01-.584.084l-.648-.492-.104.136-.188-.136.104-.143-.363-.272.181-.247.37.273.175-.234.188.136-.175.24.648.487a.156.156 0 00.24-.033l.078-.097.207.149-.13.15zm-.876-1.387l1.258.849.169-.253-1.258-.85-.169.254zm-.525-.35l.273.188.181-.266-.272-.188-.182.266zm1.673-.824a.318.318 0 00-.233.383c0 .13.162.22.304.304a.59.59 0 00.409.13.306.306 0 00.194-.143.317.317 0 00.04-.24c0-.13-.163-.226-.3-.304a.57.57 0 00-.414-.13zm.992.33a.649.649 0 01-.473.779.806.806 0 01-.61-.162.771.771 0 01-.415-.46.648.648 0 01.474-.785.85.85 0 01.602.162.81.81 0 01.422.467zm.921-1.348l-.817-.428a.291.291 0 00-.441.11.3.3 0 00.04.364c.03.031.068.056.109.071l.823.428-.142.272-1.342-.706.136-.273.136.072a.511.511 0 01.039-.435.538.538 0 01.292-.272.572.572 0 01.453.071l.856.447-.142.28zm1.004-2.223a.771.771 0 01-.415.44c-.272.117-.492 0-.875-.123-.382-.123-.603-.233-.72-.505a.765.765 0 010-.61.732.732 0 01.889-.467l-.123.312a.428.428 0 00-.5.265.433.433 0 000 .338c.072.142.175.207.577.369.402.162.519.182.649.123a.447.447 0 00.249-.549.434.434 0 00-.19-.235l.122-.305a.74.74 0 01.324.947M56.1 39.73a.285.285 0 00-.266.227.312.312 0 00.09.343c.05.049.114.082.182.097l.207-.648a.415.415 0 00-.213 0m.207.733a.376.376 0 00.525-.24.467.467 0 00-.039-.396l.227-.136a.72.72 0 01.058.648c-.11.364-.395.59-.94.415-.544-.175-.648-.473-.55-.843a.647.647 0 01.888-.395l.13.045-.299.902zm1.297-2.192l-.901-.214a.298.298 0 00-.402.214.305.305 0 00.259.39l.901.22-.071.291-1.478-.35.071-.298.143.039a.54.54 0 01-.065-.434.504.504 0 01.214-.331.532.532 0 01.454-.045l.946.227-.071.291zm.259-1.296a.388.388 0 01-.486.33l-.823-.149v.169l-.227-.04v-.168l-.454-.084.058-.298.448.084.058-.292.227.04-.052.29.804.144a.156.156 0 00.208-.13v-.123l.259.045-.02.182zm-.849-1.68a.305.305 0 00-.227.273.311.311 0 00.15.324.46.46 0 00.2.065l.091-.681a.543.543 0 00-.214 0m.337.687a.37.37 0 00.467-.324.454.454 0 00-.104-.389l.201-.169a.714.714 0 01.169.59c-.052.377-.292.649-.862.584-.57-.065-.74-.35-.688-.74a.648.648 0 01.785-.524h.13l-.098.972zm-.272-2.295a.292.292 0 00-.096.347.31.31 0 00.303.198l.914.058v.305l-1.53-.097v-.299h.163a.506.506 0 01-.156-.415.487.487 0 01.169-.35l.233.253z" fill="#fff"/><path d="M81.008 49.377l-1.465-2.574-.882 1.057v1.517h-.79v-5.22h.79v2.626l2.133-2.625h.973L80.068 46.2l1.874 3.177h-.934zm3.332-2.885a.778.778 0 00-.55-.214.765.765 0 00-.545.214 1.44 1.44 0 00-.26 1.018c-.044.361.049.727.26 1.024.146.14.342.218.545.214a.778.778 0 00.55-.214c.21-.298.3-.663.254-1.024a1.44 1.44 0 00-.253-1.018zm.565 2.49a1.522 1.522 0 01-1.115.44 1.499 1.499 0 01-1.109-.44 1.978 1.978 0 01-.44-1.472 1.944 1.944 0 01.44-1.453 1.473 1.473 0 011.109-.44 1.499 1.499 0 011.115.44 1.946 1.946 0 01.434 1.453 1.946 1.946 0 01-.434 1.471zm3.307-2.452a.648.648 0 00-.558-.246.758.758 0 00-.74.83v2.256h-.745v-3.715h.733v.415a1.218 1.218 0 01.985-.447 1.134 1.134 0 01.888.35l-.564.558zm3.105.188a.764.764 0 00-.733-.466.77.77 0 00-.739.466c-.069.16-.102.333-.097.506h1.672a1.102 1.102 0 00-.103-.505zm-1.582 1.012a.921.921 0 00.946 1.044 1.095 1.095 0 00.902-.383l.48.448a1.744 1.744 0 01-1.395.583c-.933 0-1.672-.493-1.672-1.945 0-1.2.648-1.893 1.575-1.893.927 0 1.576.733 1.576 1.79v.323l-2.412.033zm5.219 0h-.875c-.441 0-.648.2-.648.538 0 .337.213.525.68.525a.881.881 0 00.7-.214.734.734 0 00.163-.544l-.02-.305zm0 1.647v-.338a1.25 1.25 0 01-.992.383 1.329 1.329 0 01-.998-.344 1.134 1.134 0 01-.292-.797c0-.648.434-1.07 1.297-1.07h.985v-.26c0-.472-.233-.7-.817-.7a.869.869 0 00-.81.357l-.493-.46a1.53 1.53 0 011.336-.538c1.017 0 1.53.434 1.53 1.297v2.483l-.746-.013zm5.336-4.513h-1.174v1.64h1.174a.825.825 0 00.337-1.6.826.826 0 00-.337-.04zm.92 4.539l-1.102-2.198h-.992v2.198h-.79v-5.187h2.022a1.496 1.496 0 011.152.399 1.496 1.496 0 01.469 1.125 1.372 1.372 0 01-1.037 1.387l1.199 2.308-.921-.032zm3.884-.026V49a1.296 1.296 0 01-.985.422 1.3 1.3 0 01-.915-.344 1.335 1.335 0 01-.382-1.044v-2.379h.752v2.27a.736.736 0 00.18.591.729.729 0 00.572.238.743.743 0 00.575-.237.741.741 0 00.19-.592v-2.27h.746v3.722h-.733zm2.937.045a2.028 2.028 0 01-1.556-.538l.486-.493a1.433 1.433 0 001.07.39c.454 0 .817-.163.817-.513 0-.253-.137-.409-.5-.44l-.59-.053c-.7-.058-1.102-.376-1.102-1.024s.649-1.135 1.394-1.135a2.04 2.04 0 011.381.415l-.467.474a1.412 1.412 0 00-.914-.266c-.454 0-.681.194-.681.473 0 .279.124.389.519.421l.584.059c.7.052 1.108.389 1.108 1.044 0 .778-.648 1.186-1.549 1.186zm3.475 0a2.04 2.04 0 01-1.563-.538l.493-.493a1.42 1.42 0 001.07.39c.454 0 .81-.163.81-.513 0-.253-.136-.408-.492-.44l-.597-.053c-.7-.058-1.102-.376-1.102-1.024s.648-1.135 1.4-1.135c.496-.031.986.116 1.381.415l-.473.474a1.414 1.414 0 00-.914-.266c-.447 0-.648.194-.648.473 0 .279.116.39.512.421l.583.059c.7.052 1.109.389 1.109 1.044 0 .778-.648 1.186-1.543 1.186m2.243-.045h.746v-3.722h-.746v3.722zm0-4.454h.791v-.798h-.842l.051.798zm3.734 2.807h-.868c-.441 0-.649.2-.649.538 0 .337.214.525.681.525a.865.865 0 00.694-.214.734.734 0 00.162-.544l-.02-.305zm0 1.647v-.338a1.236 1.236 0 01-.991.383 1.296 1.296 0 01-.999-.344 1.137 1.137 0 01-.292-.797c0-.648.428-1.07 1.297-1.07h.979v-.26c0-.473-.233-.7-.81-.7a.89.89 0 00-.817.357l-.487-.46a1.52 1.52 0 011.297-.538c1.018 0 1.537.434 1.537 1.296v2.483l-.714-.013zm4.759.045a2.376 2.376 0 01-1.848-.694l.532-.519a1.701 1.701 0 001.335.5c.649 0 1.076-.292 1.076-.798a.697.697 0 00-.207-.545.922.922 0 00-.571-.22l-.616-.084a1.838 1.838 0 01-.991-.421 1.3 1.3 0 01-.376-.999 1.533 1.533 0 011.737-1.517 2.173 2.173 0 011.627.596l-.512.493a1.495 1.495 0 00-1.128-.402c-.648 0-.959.35-.959.817a.632.632 0 00.201.48c.167.134.37.217.583.24l.596.09c.358.022.699.158.973.39a1.349 1.349 0 01.428 1.07c0 .959-.785 1.536-1.88 1.536m4.137-.013c-.837 0-1.66-.519-1.66-1.945 0-1.426.823-1.893 1.66-1.893a1.524 1.524 0 011.225.518l-.512.493a.898.898 0 00-.713-.35.844.844 0 00-.694.33 1.378 1.378 0 00-.214.902c-.035.32.041.643.214.914a.848.848 0 00.694.324.869.869 0 00.713-.35l.512.493a1.537 1.537 0 01-1.225.531m1.899-.012h.752v-3.722h-.752v3.722zm0-4.454h.798v-.798h-.798v.798zm3.871 1.796a.769.769 0 00-.733-.467.772.772 0 00-.739.467c-.069.16-.102.332-.097.505h1.673a1.116 1.116 0 00-.104-.505zm-1.595 1.011a.918.918 0 00.946 1.044 1.113 1.113 0 00.902-.383l.473.448a1.73 1.73 0 01-1.387.583c-.934 0-1.673-.493-1.673-1.945 0-1.2.648-1.893 1.575-1.893.927 0 1.576.733 1.576 1.79v.324l-2.412.032zm5.504 1.647v-2.27a.73.73 0 00-.745-.83.738.738 0 00-.765.83v2.27h-.752v-3.722h.732v.376a1.296 1.296 0 01.986-.421 1.29 1.29 0 01.92.337 1.37 1.37 0 01.376 1.057v2.373h-.752zm3.183.045c-.836 0-1.659-.519-1.659-1.945 0-1.426.823-1.893 1.659-1.893a1.504 1.504 0 011.219.519l-.512.492a.868.868 0 00-.707-.35.838.838 0 00-.693.33 1.386 1.386 0 00-.221.902 1.41 1.41 0 00.221.914.898.898 0 001.089.25.898.898 0 00.311-.25l.512.493a1.515 1.515 0 01-1.219.532m4.02-2.697a.762.762 0 00-.733-.467.77.77 0 00-.739.467 1.1 1.1 0 00-.097.505h1.673a1.205 1.205 0 00-.104-.505zm-1.569 1.024a.918.918 0 00.555.972.921.921 0 00.392.072 1.11 1.11 0 00.901-.383l.473.448a1.738 1.738 0 01-1.394.583c-.927 0-1.666-.493-1.666-1.945 0-1.2.648-1.893 1.575-1.893.927 0 1.576.733 1.576 1.79v.324l-2.412.032zm6.457-2.969a.487.487 0 00-.512.512c0 .207.143.408.402.72l.253-.176a.648.648 0 00.382-.538.487.487 0 00-.148-.375.492.492 0 00-.377-.143zm-.317 2.094c-.383.265-.707.505-.707.985a.889.889 0 00.947.895 1.376 1.376 0 00.998-.409l-1.238-1.471zm2.113 2.515l-.428-.512a2.06 2.06 0 01-1.445.558 1.5 1.5 0 01-1.686-1.556 1.801 1.801 0 011.031-1.478 1.744 1.744 0 01-.538-1.116 1.252 1.252 0 011.254-1.167 1.258 1.258 0 011.255 1.167 1.109 1.109 0 01-.551.921l-.383.266 1.096 1.296c.209-.308.307-.678.278-1.05h.72c.021.58-.163 1.15-.519 1.608l.869 1.044-.953.02zm5.129-4.513v4.507h-.791V44.87h-1.433v-.713h3.663v.713H155.1zm4.181 1.849a.767.767 0 00-.732-.467.77.77 0 00-.74.467 1.113 1.113 0 00-.097.505h1.673a1.103 1.103 0 00-.104-.505zm-1.569 1.024a.918.918 0 00.555.972.924.924 0 00.392.072 1.107 1.107 0 00.901-.383l.48.448a1.753 1.753 0 01-1.394.583c-.934 0-1.673-.493-1.673-1.945 0-1.2.648-1.893 1.576-1.893.927 0 1.575.733 1.575 1.79v.324l-2.412.032zm4.682 1.679c-.837 0-1.654-.519-1.654-1.945 0-1.426.817-1.893 1.654-1.893a1.513 1.513 0 011.225.518l-.512.493a.868.868 0 00-.713-.35.839.839 0 00-.688.33 1.38 1.38 0 00-.22.902c-.034.321.044.644.22.914a.899.899 0 001.089.249.899.899 0 00.312-.249l.512.493a1.527 1.527 0 01-1.225.532m4.155-.039v-2.283a.716.716 0 00-.181-.583.73.73 0 00-.565-.233.722.722 0 00-.57.23.723.723 0 00-.188.586v2.283h-.752V44.19h.745v1.874a1.303 1.303 0 01.96-.422 1.237 1.237 0 011.297 1.368v2.399l-.746-.032zm3.974 0v-2.27c0-.576-.324-.83-.745-.83a.738.738 0 00-.765.83v2.27h-.753v-3.722h.733v.376a1.334 1.334 0 01.992-.421c.337-.01.665.11.914.337a1.371 1.371 0 01.376 1.057v2.373h-.752zm3.631-2.885a.75.75 0 00-.545-.214.765.765 0 00-.544.214c-.21.295-.3.658-.253 1.017-.047.361.043.727.253 1.025a.77.77 0 00.544.214.748.748 0 00.545-.214 1.46 1.46 0 00.259-1.025 1.436 1.436 0 00-.259-1.017zm.57 2.49a1.53 1.53 0 01-1.115.44 1.497 1.497 0 01-1.108-.44 1.965 1.965 0 01-.441-1.473 1.933 1.933 0 01.441-1.452 1.47 1.47 0 011.108-.44 1.515 1.515 0 011.115.44 1.933 1.933 0 01.441 1.452 1.98 1.98 0 01-.441 1.472zm2.263.395a.953.953 0 01-1.024-1.031v-4.188h.752V48.3c0 .292.104.441.402.441h.33v.649l-.46-.013zm3.015-2.885a.812.812 0 00-1.096 0 1.445 1.445 0 00-.253 1.017c-.047.361.044.727.253 1.025a.812.812 0 001.096 0 1.46 1.46 0 00.259-1.025 1.437 1.437 0 00-.259-1.017zm.564 2.49a1.505 1.505 0 01-1.109.44 1.483 1.483 0 01-1.108-.44 1.983 1.983 0 01-.441-1.473 1.933 1.933 0 01.441-1.452 1.457 1.457 0 011.108-.44 1.485 1.485 0 011.109.44 1.95 1.95 0 01.441 1.452 1.98 1.98 0 01-.441 1.472zm2.6-2.704c-.649 0-.765.583-.765 1.167 0 .583.09 1.167.765 1.167.674 0 .752-.577.752-1.167 0-.59-.078-1.167-.752-1.167zm-.085 4.642a1.7 1.7 0 01-1.296-.493l.48-.473a1.042 1.042 0 00.803.33.833.833 0 00.838-.584.837.837 0 00.031-.362v-.474a1.145 1.145 0 01-.953.422 1.215 1.215 0 01-.888-.33 2.915 2.915 0 010-3.022c.245-.22.566-.333.895-.318a1.124 1.124 0 01.972.435v-.396h.726v3.696a1.483 1.483 0 01-.441 1.142 1.489 1.489 0 01-1.147.427m3.734-.804c-.053.172-.147.33-.272.46a1.048 1.048 0 01-.765.272h-.298V50.2h.194c.311 0 .428-.097.532-.402l.207-.57-1.296-3.547h.791l.881 2.594.869-2.594h.797l-1.64 4.435zm5.427-.694a1.902 1.902 0 01-1.368-.558c-.512-.518-.506-1.095-.506-2.1 0-1.005 0-1.582.506-2.094a1.868 1.868 0 011.368-.558 1.803 1.803 0 011.867 1.602h-.811a1.076 1.076 0 00-.737-.836 1.084 1.084 0 00-1.084.259c-.26.278-.318.577-.318 1.627s.058 1.348.318 1.627a1.018 1.018 0 00.765.318 1.064 1.064 0 001.069-.895h.785a1.81 1.81 0 01-1.867 1.608m4.577-2.93a.778.778 0 00-.551-.214.743.743 0 00-.539.214 1.441 1.441 0 00-.259 1.017c-.044.362.048.728.259 1.025a.753.753 0 00.539.214.767.767 0 00.551-.214 1.46 1.46 0 00.259-1.025 1.441 1.441 0 00-.259-1.017zm.564 2.49a1.522 1.522 0 01-1.115.44 1.48 1.48 0 01-1.103-.44 1.98 1.98 0 01-.44-1.472 1.933 1.933 0 01.073-.771c.075-.25.2-.482.367-.682a1.465 1.465 0 011.103-.44 1.488 1.488 0 011.115.44 1.95 1.95 0 01.441 1.452 1.957 1.957 0 01-.441 1.472zm3.209-2.49a.747.747 0 00-.544-.214.766.766 0 00-.545.214 1.441 1.441 0 00-.259 1.017 1.46 1.46 0 00.259 1.025c.146.14.342.217.545.214a.757.757 0 00.544-.214c.215-.296.308-.663.26-1.025a1.407 1.407 0 00-.26-1.017zm.571 2.49a1.525 1.525 0 01-1.115.44 1.487 1.487 0 01-1.109-.44 1.98 1.98 0 01-.441-1.473 1.95 1.95 0 01.441-1.452 1.47 1.47 0 011.109-.44 1.494 1.494 0 011.115.44 1.932 1.932 0 01.434 1.452 1.942 1.942 0 01-.434 1.472zm2.762-2.704c-.649 0-.778.577-.778 1.232 0 .654.103 1.238.778 1.238.674 0 .765-.577.765-1.238 0-.662-.091-1.232-.765-1.232zm1.102 2.813c-.248.22-.571.335-.901.325a1.151 1.151 0 01-.979-.422v1.88h-.746v-5.186h.733v.382a1.134 1.134 0 01.985-.434c.333-.013.658.103.908.324a3.198 3.198 0 010 3.15m3.345-2.391a.767.767 0 00-.732-.467.772.772 0 00-.739.467 1.1 1.1 0 00-.098.505h1.673a1.19 1.19 0 00-.104-.505zm-1.569 1.024a.918.918 0 00.555.972.924.924 0 00.392.072 1.107 1.107 0 00.901-.383l.473.448a1.721 1.721 0 01-1.387.583c-.934 0-1.679-.493-1.679-1.945 0-1.2.648-1.893 1.582-1.893.933 0 1.575.733 1.575 1.79v.324l-2.412.032zm5.271-1.213a.649.649 0 00-.551-.246.762.762 0 00-.705.522.763.763 0 00-.034.308v2.256h-.752v-3.715h.732v.415a1.233 1.233 0 01.986-.447 1.138 1.138 0 01.888.35l-.564.558zm2.976 1.2h-.843c-.434 0-.648.2-.648.538 0 .337.214.525.681.525a.859.859 0 00.693-.214.718.718 0 00.162-.544l-.045-.305zm0 1.647v-.338a1.235 1.235 0 01-.985.383 1.297 1.297 0 01-.999-.344 1.137 1.137 0 01-.292-.797c0-.648.435-1.07 1.297-1.07h.979v-.26c0-.472-.233-.7-.81-.7a.88.88 0 00-.817.357l-.493-.46a1.537 1.537 0 011.336-.538c1.018 0 1.53.434 1.53 1.297v2.483l-.746-.013zm2.82 0a.975.975 0 01-1.024-1.038v-2.042h-.422v-.577h.422v-1.128h.752v1.128h.72v.577h-.72V48.3c0 .273.13.441.408.441h.312v.649l-.448-.013zm1.213 0h.745v-3.722h-.745v3.722zm0-4.454h.791v-.798h-.791v.798zm3.676 1.569a.78.78 0 00-.551-.214.766.766 0 00-.545.214 1.44 1.44 0 00-.253 1.018c-.047.36.043.726.253 1.024.146.14.342.218.545.214a.78.78 0 00.551-.214c.209-.298.3-.663.252-1.024a1.439 1.439 0 00-.252-1.018zm.564 2.49a1.544 1.544 0 01-1.115.44 1.5 1.5 0 01-1.109-.44 1.98 1.98 0 01-.441-1.472 1.933 1.933 0 01.441-1.453 1.475 1.475 0 011.109-.44 1.512 1.512 0 011.115.44 1.95 1.95 0 01.441 1.453 1.98 1.98 0 01-.441 1.471zm3.526.395v-2.27a.728.728 0 00-.746-.83.738.738 0 00-.771.83v2.27h-.752v-3.721h.732v.376a1.397 1.397 0 011.907-.085c.132.14.233.307.296.49.064.181.089.375.073.567v2.373h-.739zm5.063.045a1.946 1.946 0 01-1.374-.557c-.512-.519-.506-1.096-.506-2.1 0-1.006 0-1.583.506-2.095a1.892 1.892 0 011.374-.558 1.795 1.795 0 011.861 1.602h-.81a1.085 1.085 0 00-1.822-.577c-.253.279-.311.577-.311 1.627s.058 1.349.311 1.627a1.025 1.025 0 00.771.318 1.06 1.06 0 001.064-.895h.797a1.803 1.803 0 01-1.861 1.608zm4.759-2.703a.76.76 0 00-.732-.467.772.772 0 00-.739.467c-.069.16-.102.332-.098.505h1.673a1.19 1.19 0 00-.104-.505zm-1.569 1.024a.928.928 0 00.555.972.925.925 0 00.392.072 1.1 1.1 0 00.901-.383l.473.448a1.721 1.721 0 01-1.387.583c-.934 0-1.673-.492-1.673-1.945 0-1.2.649-1.893 1.576-1.893s1.575.733 1.575 1.79v.324l-2.412.032zm5.479 1.634v-2.27a.728.728 0 00-.746-.83.743.743 0 00-.575.238.74.74 0 00-.19.592v2.27h-.752v-3.722h.732v.376a1.336 1.336 0 01.992-.421 1.3 1.3 0 01.915.337 1.385 1.385 0 01.376 1.057v2.373h-.752zm2.801 0a.969.969 0 01-.96-.635.955.955 0 01-.058-.403v-2.042h-.428v-.577h.428v-1.128h.752v1.128h.713v.577h-.713v2.004c0 .272.129.44.408.44h.305v.649l-.447-.013zm3.358-2.658a.815.815 0 00-1.478 0c-.069.16-.102.332-.097.505h1.672a1.187 1.187 0 00-.097-.505zm-1.575 1.024a.918.918 0 00.946 1.044 1.117 1.117 0 00.908-.383l.473.448a1.74 1.74 0 01-1.394.583c-.933 0-1.666-.492-1.666-1.945 0-1.2.616-1.893 1.569-1.893s1.576.733 1.576 1.79v.324l-2.412.032zm5.264-1.213a.698.698 0 00-.558-.246.753.753 0 00-.704.523.747.747 0 00-.035.307v2.256h-.752v-3.715h.733v.415a1.244 1.244 0 01.992-.447 1.148 1.148 0 01.888.35l-.564.558z" fill="#898989"/><path d="M78.415 12.487h6.088V24.15l6.794-11.663h6.38l-7.858 12.882 8.668 13.025h-7.41l-6.574-11.203v11.203h-6.088V12.487zm26.549 12.914c0 3.962 2.477 7.67 6.568 7.67 4.318 0 6.412-4.272 6.412-7.598 0-3.326-2.094-7.67-6.483-7.67-4.221 0-6.484 3.922-6.484 7.566l-.013.032zm-6.088.318c0-8.474 5.991-13.725 12.565-13.725 7.339 0 12.597 6.23 12.597 13.44 0 7.21-5.225 13.446-12.629 13.446-7.508 0-12.533-6.483-12.533-13.129v-.032zm29.253-13.232h7.78c3.741 0 6.055.732 7.378 1.854 1.997 1.68 2.898 4.234 2.898 7.073a9.173 9.173 0 01-1.193 4.694 6.964 6.964 0 01-3.093 2.762l4.934 9.524h-6.289l-6.204-12.493h.998c1.55 0 2.872-.15 3.676-.707a3.984 3.984 0 001.355-3.183 3.611 3.611 0 00-1.42-3.015 4.678 4.678 0 00-2.483-.694h-2.249v20.099h-6.088V12.486zm27.865 0v15.65a9.08 9.08 0 00.422 3.119 2.691 2.691 0 002.69 1.848 2.55 2.55 0 002.645-1.68 9.379 9.379 0 00.383-3.241V12.487h6.049v15.65c0 4.338-.869 6.27-2.379 7.949a8.585 8.585 0 01-6.672 2.794c-1.737 0-4.895-.454-6.859-2.762-1.964-2.308-2.386-4.168-2.386-7.98V12.486h6.107zm21.972 17.329c0 3.009 1.711 3.534 2.476 3.534a2.405 2.405 0 002.321-2.483c0-1.368-.998-1.79-4.668-3.469-1.672-.732-5.834-2.593-5.834-7.423 0-5.187 4.343-7.981 8.343-7.981 3.281 0 7.923 1.822 8.02 8.052h-6.023c-.129-.875-.324-2.522-2.197-2.522a2.055 2.055 0 00-2.088 2.03c0 1.192.648 1.51 4.927 3.61 4.448 2.166 5.576 4.41 5.576 7.424 0 4.13-1.997 8.292-8.312 8.292-6.314 0-8.759-3.987-8.603-9.077l6.062.013zm17.433-11.514h-4.706v-5.815h15.462v5.815h-4.668v20.092h-6.088V18.302zm14.017-5.815h13.498v5.815h-7.41v4.026h7.184v5.81h-7.184v4.447h7.41v5.809h-13.498V12.487zm41.461 16.208c-1.387 6.127-6.282 10.185-12.052 10.185-7.469 0-12.565-6.483-12.565-13.472 0-6.62 4.707-13.414 12.5-13.414 7.475 0 11.469 6.27 12.117 10.328h-6.379c-.649-1.945-2.477-4.538-5.77-4.538-4.091 0-6.374 3.89-6.374 7.559 0 3.922 2.445 7.702 6.406 7.702 3.806 0 5.349-3.468 5.738-4.376l6.379.026z" fill="#F5F5F5"/></symbol><symbol id="logo" viewBox="0 0 243 62"><path d="M30.956 62a30.941 30.941 0 0017.199-5.22 30.973 30.973 0 0011.401-13.903 30.999 30.999 0 00-6.71-33.76A30.936 30.936 0 0019.11 2.402a30.961 30.961 0 00-13.893 11.41 30.993 30.993 0 003.85 39.115A30.945 30.945 0 0030.957 62z" fill="#fff"/><path d="M30.938 0h-.39v9.02h.39a21.91 21.91 0 0114.214 5.25 21.937 21.937 0 017.415 13.222h9.107A30.966 30.966 0 0051.542 7.87 30.925 30.925 0 0030.919 0" fill="#E60013"/><path d="M52.881 30.858v.107a21.997 21.997 0 01-6.434 15.545 21.967 21.967 0 01-15.534 6.439h-.527v9.013h.57a30.92 30.92 0 0021.881-9.065 30.961 30.961 0 009.064-21.894v-.107l-9.02-.038z" fill="#008CD6"/><path d="M21.88 18.253l.082.106.113.427.3.434-.074.628.37.37.188.528-.276.465-.17 1.024.59 1.67.923.691.37 1.137.484 1.652s1.161 1.489 1.174 1.545c.227.135.464.253.709.352l-.37-.628-.37-.76.35-.383-.15-.402h.377l.207-1.024.897-.295.126-1.175.628-1.086-.427-.949-1.513-.628-.54-.93-.709-.207-.433-.678-1.193-.434-.546.578-.332-.339-.057-.892-.257-.245.37-.785-.144-.282-.32.245.483-1.257.464-.17.277.78.169-.798.841-.697.408-.93.377.145 1.023-.352.464-.56.17.39.47-.245.201-.948-.313-.37-1.042.54.031-.49.69-.315.785-.358.038.396.69-.264v-.39l-.031-.206a9.664 9.664 0 00-6.572 6.369z" fill="#45BDCF"/><path d="M39.976 20.608l-.038-1.219-.483.114-.508-.54-.766-1.514.803.86.396.628.464-.39-.333-1.199-.339-.44.32-.17h.095a9.675 9.675 0 00-5.273-4.616v.34l-.583-.151h-.503l-.351.515.465.433.709-.094.113.358h-.628l-.013.333-.295.264-.451.15.357.333-.15.239h-.509l-.22.54.484.352.69-.132.446-.722.49-.151.797.484-.05.427.332-.164-.295-.728.628.578.389.094.113-.56.038-.527.916.471-.584.226-.163.428.502.257.502-.075.226.81h-.69l-.785-.207-.132.245-1.117-.245-.301-.628-1.08.207-.408.245-.527.038-.408.891-.628.409-.338 1.256.125.848 1.513 1.664 1.92-.502.189.37h.627l.207.264-.207.597.502.722v1.106l-.37.446.226 1.25-.22.445.22.71-.138.528 1.03-.264 1.474-1.306v-.748l.885-1.514-.056-.785.747-1.884z" fill="#ABCD05"/><path d="M29.488 11.921l-.076.264-.351.17-.283.54.126.276.897-.577.735-.057.42-.333.113-.49-.646-.037-.935.244z" fill="#45BDCF"/><path d="M32.212 13.416l-.34.17.038.239.245.037.226-.351.15.207-.1.333h.34l.357-.314-.559-.396-.357-.15v.225z" fill="#ABCD05"/><path d="M23.236 18.24l.653.465.39-.434-1.1-.502.057.47zm7.464-5.59l.112.245.603-.113-.34-.245-.376.113z" fill="#45BDCF"/><path d="M30.153 46.831l-1.06 1.432a1.017 1.017 0 01-1.432.1 1.006 1.006 0 01-.32-1.388l1.055-1.432a1.104 1.104 0 011.757 1.257m-3.797-.528a1.018 1.018 0 11-1.538-1.256l1.538-1.884a1.023 1.023 0 111.538 1.256l-1.538 1.884zm-4.13-1.15c-.483-.351-.465-1.205.044-1.884l1.77-2.412c.514-.69 1.318-.967 1.801-.628.483.34.465 1.2-.044 1.885l-1.77 2.405c-.515.697-1.318.968-1.801.628m-2.122-2.512a.93.93 0 01-.32-1.256l.935-1.256a.91.91 0 011.256-.07.93.93 0 01.32 1.257l-.93 1.256a.923.923 0 01-1.292.063M42.669 39.5c-.534-.358-2.009-1.62-2.009-1.62-2.228-1.797-9.02-5.685-9.02-5.685a22.15 22.15 0 01-2.152.76 20.17 20.17 0 01-.829.892c-2.04 2.739-3.295 1.59-3.295 1.59-.577-.183 1.255-2.513 1.255-2.513l1.438-2.198c.107-.534 2.981-.679 2.981-.679 3.308-.578 5.134 0 5.134 0 3.202 1.15 4.708.32 4.708.32l8.875-7.537c-.182-.402-.37-.804-.571-1.193l-8.618 7.437a1.762 1.762 0 01-1.531.427 26.21 26.21 0 00-5.65-.817s-4.788-.044-5.937 1.055l-.628.629c-1.255-.283-9.71-4.655-14.593-7.217-.138.32-.257.628-.377.986 4.074 1.984 10.934 5.571 10.934 5.571a29.697 29.697 0 013.465 1.822c-1.826 2.638-1.964 3.448-1.964 3.448-.239 1.966 1.964 1.677 1.964 1.677 2.103-.189 3.885-2.701 3.885-2.701 1.111-.54 1.475-.364 1.475-.364 3.139 1.444 7.532 4.748 7.532 4.748a30.759 30.759 0 013.446 2.808c.138 1.79-1.475 1.287-1.475 1.287l-5.41-3.203c-.697-.283-.86 0-.86 0a.628.628 0 00-.063.88l5.46 3.266c0 1.55-1.581 1.136-1.581 1.136l-4.507-2.606c-.853-.314-.966.144-.966.144-.433.465.138.86.138.86l4.563 2.55c-.138 1.885-1.883 1.012-1.883 1.012l-3.27-1.62c-.822-.56-1.111.075-1.111.075-.433.754.502 1.005.502 1.005l3.195 1.47c-1.149 1.84-4.488.22-4.488.22.396-.327.396-1.188.396-1.188.288-1.94-1.802-2.374-1.802-2.374 0-2.512-1.97-2.77-1.97-2.77-.327-1.432-.86-1.758-.86-1.758a1.975 1.975 0 00-3.139.577c-1.506-2.23-3.559-.578-3.559-.578l-8.624-2.964c.126.446.257.898.408 1.338l7.476 2.575s-.96 1.64-.07 2.638a1.884 1.884 0 001.727 1.005s-.383 2.255 2.585 2.443c0 0 .672 2.11 2.73 1.583 0 0 .29 2.067 2.612 1.533a2.373 2.373 0 001.418-1.106s3.88 1.803 5.693.05a2.5 2.5 0 00.578-.91s2.51.245 2.586-1.96a2.252 2.252 0 002.398-2.029 2.29 2.29 0 002.058-1.093 1.992 1.992 0 00.195-2.154s.665-.465 2.115-1.558l5.41-3.618c.1-.508.164-1.017.233-1.538-4.011 2.7-8.718 5.765-8.718 5.765" fill="#008CD6"/><path d="M8.994 30.965v-.107H0v.107a30.964 30.964 0 008.868 21.692 30.92 30.92 0 0021.517 9.255v-9.014a21.961 21.961 0 01-15.112-6.638 21.991 21.991 0 01-6.228-15.295" fill="#293BDB"/><path d="M30.385.038A30.915 30.915 0 009.125 9.04 30.957 30.957 0 00.018 30.268h9.026a21.94 21.94 0 016.453-14.862 21.91 21.91 0 0114.888-6.374h.182V.038h-.182z" fill="#D7083B"/><path d="M52.881 30.858h9v-.59H52.85v.59m-22.301-.584h-.176v.59h.176v-.59zm-11.694-19.86L16.64 9.202l-.063.954.828 1.231-.734.49-2.75-4.082.735-.497 1.2 1.784.125-2.67.897-.596-.157 2.456 2.988 1.564-.854.578zm2.015-5.276a.746.746 0 00-.628 0 .722.722 0 00-.42.471c-.082.258-.032.484.338 1.357s.496 1.067.735 1.193a.74.74 0 00.627 0 .722.722 0 00.42-.471c.076-.251 0-.484-.332-1.357s-.508-1.061-.747-1.187m1.883 2.827a1.565 1.565 0 01-.916.973 1.593 1.593 0 01-1.343 0c-.628-.282-.841-.854-1.174-1.64-.333-.784-.584-1.343-.358-1.984a1.602 1.602 0 01.923-.973 1.575 1.575 0 011.337 0c.628.282.847.847 1.18 1.633.332.785.577 1.35.351 1.984m2.58-4.39l-.816.176.276 1.256.81-.176a.628.628 0 00.49-.772.63.63 0 00-.76-.497m1.525 3.826l-1.255-1.734-.628.138.408 1.884-.86.189-1.036-4.767 1.733-.377a1.424 1.424 0 011.75 1.162 1.32 1.32 0 01-.539 1.438l1.438 1.884-1.011.183zm3.578-.289a1.625 1.625 0 01-1.701-1.684l-.063-3.24h.879l.069 3.196c0 .566.326.898.797.886.47-.013.778-.358.772-.923l-.069-3.197h.879l.063 3.228a1.635 1.635 0 01-1.626 1.765m4.136.258a2.033 2.033 0 01-1.525-.911l.672-.521a1.406 1.406 0 001.01.584c.515.088.822-.082.885-.471a.629.629 0 00-.069-.434.666.666 0 00-.364-.232l-.527-.17a1.494 1.494 0 01-.803-.546 1.376 1.376 0 01-.157-1.005 1.445 1.445 0 011.795-1.225 1.882 1.882 0 011.35.804l-.629.502a1.218 1.218 0 00-.86-.483.627.627 0 00-.79.502.49.49 0 00.069.37.778.778 0 00.383.258l.514.17a1.254 1.254 0 01.967 1.602 1.515 1.515 0 01-1.883 1.206m5.662-2.739l-1.337 3.838-.828-.295 1.33-3.832-1.117-.39.276-.81 3.07 1.068-.277.81-1.117-.389zm.684 4.654l2.391-4.296 2.599 1.457-.414.741-1.827-1.017-.565 1.005 1.563.873-.42.747-1.557-.873-.578 1.05 1.827 1.017-.414.753-2.605-1.457zm4.676 3.091a1.597 1.597 0 01-.628-1.188c-.038-.678.358-1.15.898-1.809.54-.66.922-1.143 1.594-1.256a1.606 1.606 0 011.255.358 1.646 1.646 0 01.308 2.261l-.697-.571a.78.78 0 00-.15-1.024.69.69 0 00-.628-.157c-.264.05-.452.195-1.048.936-.597.741-.716.942-.71 1.212a.716.716 0 00.27.56.778.778 0 001.036-.057l.69.565a1.644 1.644 0 01-2.272.15M5.19 33.044l.026.308.602-.05.446.301-.96.672.031.365 1.18-.848.866.596-.037-.383-1.105-.74 1.03-.095-.026-.314-2.052.188zm1.463 2.569a.314.314 0 00.05-.226.289.289 0 00-.119-.2.552.552 0 00-.42 0 .584.584 0 00-.377.163.283.283 0 00-.05.226.29.29 0 00.12.2.57.57 0 00.413.038.577.577 0 00.383-.17m-.935.384a.578.578 0 01-.245-.408.591.591 0 01.1-.459.753.753 0 01.547-.27.777.777 0 01.596.075c.13.098.218.242.245.402a.628.628 0 01-.094.471.797.797 0 01-.546.264.77.77 0 01-.628-.075m1.268 1.168a.283.283 0 00.05-.238.301.301 0 00-.383-.208l-.872.195-.07-.283 1.432-.326.069.282-.157.032a.503.503 0 01.257.345.452.452 0 01-.056.37l-.27-.169zm.295 1.344a.32.32 0 00-.157-.559.402.402 0 00-.207 0l.195.628a.401.401 0 00.17-.094m-.56-.483a.365.365 0 00-.288.477.44.44 0 00.245.301l-.12.226a.678.678 0 01-.37-.458c-.1-.358 0-.69.533-.848.534-.157.791 0 .898.383a.628.628 0 01-.502.798l-.126.038-.27-.917zm.684 2.123l-.119-.32c-.056-.17-.163-.227-.289-.177-.125.05-.17.151-.1.32.069.17.069.19.17.233a.289.289 0 00.225 0l.113-.056zm-.627.232l.125-.044a.49.49 0 01-.276-.32.529.529 0 010-.415.464.464 0 01.264-.22c.226-.088.452 0 .57.333l.133.37.1-.043c.17-.063.226-.182.144-.396a.326.326 0 00-.238-.251l.1-.245a.628.628 0 01.383.427c.138.377.044.628-.27.741l-.922.34-.113-.277zm2.586 1.451l-.208-.421-.577.283.2.42a.302.302 0 00.44.17.315.315 0 00.145-.452zm-1.45 1.105l.596-.772-.176-.358-.778.383-.138-.283 1.883-.898.345.722a.585.585 0 01-.264.836.546.546 0 01-.671-.126l-.628.823-.17-.327zm.84 1.527l.126-.076a.501.501 0 01-.332-.251.484.484 0 01-.07-.383.516.516 0 01.283-.333l.816-.477.15.257-.778.452a.283.283 0 00-.138.415.295.295 0 00.44.1l.772-.446.15.252-1.255.74-.163-.25zm.71 1.155a.835.835 0 01-.17-.628l.277.05a.56.56 0 00.106.44c.1.145.233.232.346.15.113-.08.1-.131.031-.257l-.113-.207c-.132-.245-.113-.446.1-.584a.475.475 0 01.678.207c.12.156.181.35.17.547l-.258-.057a.584.584 0 00-.112-.358c-.101-.144-.22-.176-.308-.113-.088.063-.1.126 0 .264l.113.182a.403.403 0 01-.1.628c-.252.17-.534.044-.729-.251m.867 1.244a.83.83 0 01-.207-.629l.276.038a.56.56 0 00.132.427c.106.145.244.22.351.138.107-.081.1-.144 0-.264l-.126-.2c-.15-.24-.144-.434.057-.59a.483.483 0 01.697.169.85.85 0 01.2.534l-.263-.038a.546.546 0 00-.138-.352c-.107-.138-.22-.163-.308-.1s-.094.132 0 .264l.126.2a.401.401 0 01-.07.629c-.244.188-.526.075-.74-.208m.697.817l.188.232 1.124-.942-.188-.226-1.124.936zm1.343-1.13l.195.238.238-.201-.194-.233-.239.195zm.233 1.928l-.233-.252c-.125-.125-.238-.138-.339-.05-.1.088-.094.207.032.34a.357.357 0 00.245.15.287.287 0 00.207-.107l.088-.081zm-.478.452l.1-.094a.477.477 0 01-.376-.189.503.503 0 01-.17-.377.452.452 0 01.152-.301.433.433 0 01.659.081l.263.29.082-.07c.132-.125.138-.257 0-.427a.37.37 0 00-.327-.144v-.264a.628.628 0 01.521.245c.27.301.29.565.038.791l-.722.666-.22-.207zm1.57 1.545a.929.929 0 01-.364-.691h.288a.724.724 0 00.264.496c.207.182.395.201.534.044a.315.315 0 00.081-.213.352.352 0 00-.113-.214l-.157-.188a.691.691 0 01-.182-.384.53.53 0 01.144-.395.627.627 0 01.923 0 .885.885 0 01.32.628h-.282a.59.59 0 00-.226-.415.327.327 0 00-.55.09.256.256 0 00-.015.105.408.408 0 00.113.226l.15.182a.71.71 0 01.183.377.54.54 0 01-.151.421.627.627 0 01-.96-.038m1.412 1.143a.628.628 0 01-.05-.992.628.628 0 01.973-.189.553.553 0 01.25.453l-.275.031a.353.353 0 00-.275-.348.325.325 0 00-.152.003.56.56 0 00-.289.232.534.534 0 00-.157.333.34.34 0 00.138.27.32.32 0 00.308.063l.037.276a.628.628 0 01-.508-.132zm.734.528l.239.17.853-1.2-.245-.17-.847 1.2zm1.01-1.451l.258.182.182-.251-.257-.182-.182.251zm.986 1.507a.313.313 0 00-.144-.314.301.301 0 00-.345 0 .382.382 0 00-.138.145l.552.358a.427.427 0 00.075-.189zm-.74 0a.365.365 0 00.094.553.447.447 0 00.383.063l.069.251a.701.701 0 01-.59-.1.628.628 0 01-.157-.993.628.628 0 01.929-.307.629.629 0 01.15.935l-.075.107-.803-.509zm1.682 1.784l.427-.791a.284.284 0 00-.113-.465.289.289 0 00-.42.145l-.427.791-.264-.145.703-1.293.257.138-.069.132a.496.496 0 01.42.037.53.53 0 01.258.296.566.566 0 01-.069.433l-.446.823-.257-.1zm1.274.629a.76.76 0 01.628-1.363.628.628 0 01.351.389l-.27.094a.332.332 0 00-.194-.245.32.32 0 00-.302 0 .534.534 0 00-.232.29.522.522 0 00-.075.357.34.34 0 00.194.239.345.345 0 00.314 0l.1.264a.629.629 0 01-.527 0m2.04-.327a.322.322 0 00-.207-.283.294.294 0 00-.333.07.37.37 0 00-.113.169l.628.245a.491.491 0 00.038-.201m-.728.15a.364.364 0 00.194.522.465.465 0 00.39 0l.112.232a.683.683 0 01-.627 0c-.346-.131-.546-.42-.34-.942.208-.521.503-.628.854-.47a.627.627 0 01.32.885l-.05.12-.853-.346zm2.981-.207a.19.19 0 00-.218.065.188.188 0 00-.033.074.547.547 0 00.075.32l.113-.038c.094-.037.176-.075.207-.17a.207.207 0 00-.144-.25zm-.345.76c-.176.063-.326.12-.37.302a.345.345 0 00.263.44c.14.04.291.024.42-.044l-.313-.698zm.533 1.181l-.106-.238a.817.817 0 01-.628.062.628.628 0 01-.477-.772.723.723 0 01.552-.452.629.629 0 01-.088-.484.496.496 0 01.954.264.427.427 0 01-.313.295l-.17.063.283.628a.685.685 0 00.213-.37l.276.075a.936.936 0 01-.37.552l.226.49-.352-.113zm1.758-1.438l.558.088-.282 1.765.307.05.289-1.758.559.087.044-.282-1.431-.226-.044.276zm2.529 1.062a.315.315 0 00-.276-.214.307.307 0 00-.308.163.446.446 0 00-.05.195l.628.063a.528.528 0 000-.207m-.628.345c0 .258.1.427.339.446a.433.433 0 00.37-.113l.17.188a.703.703 0 01-.572.182c-.364 0-.627-.25-.59-.816.038-.565.314-.722.69-.691a.627.627 0 01.56.766v.126l-.967-.088zm1.971.798c-.326 0-.628-.22-.628-.773s.352-.741.678-.735a.628.628 0 01.477.22l-.207.195a.365.365 0 00-.276-.15.332.332 0 00-.276.125.522.522 0 00-.1.351.578.578 0 00.081.365.314.314 0 00.27.138.327.327 0 00.282-.132l.201.201a.629.629 0 01-.496.195m1.833-.038l-.031-.904c0-.227-.145-.32-.308-.315a.289.289 0 00-.289.333v.905h-.295l-.075-2.073h.301v.748a.528.528 0 01.758-.04.495.495 0 01.146.385l.038.948-.245.013zm1.726-.144l-.094-.911c0-.233-.163-.314-.326-.295a.296.296 0 00-.27.351l.094.892h-.295l-.15-1.457h.288v.144a.508.508 0 01.929.29l.094.929-.27.056zm1.425-1.357a.282.282 0 00-.226-.05.295.295 0 00-.195.119.571.571 0 000 .415.534.534 0 00.17.376.282.282 0 00.226.057.32.32 0 00.194-.126.553.553 0 00.032-.42.528.528 0 00-.17-.371m.39.923a.628.628 0 01-.86.15.772.772 0 01-.27-.54.759.759 0 01.069-.627.564.564 0 01.401-.245.627.627 0 01.465.094 1.068 1.068 0 01.195 1.137m1.041-.032a.371.371 0 01-.477-.308l-.37-1.62.289-.063.364 1.577c0 .106.075.157.188.132h.132l.05.245-.176.037zm1.03-1.451a.295.295 0 00-.232 0 .276.276 0 00-.182.139.59.59 0 000 .414c.025.142.098.27.207.364a.295.295 0 00.232 0 .332.332 0 00.188-.144.868.868 0 00-.22-.779m.484.892a.627.627 0 01-.383.283.57.57 0 01-.465-.044 1.049 1.049 0 01-.313-1.118.591.591 0 01.376-.29.628.628 0 01.471.051.765.765 0 01.326.509.805.805 0 010 .628m.778-1.394c-.25.087-.213.314-.132.533.082.22.182.421.434.34.25-.082.207-.32.131-.54-.075-.22-.182-.422-.433-.334zm.572 1.74a.677.677 0 01-.553 0l.113-.246a.427.427 0 00.352 0 .327.327 0 00.194-.464l-.056-.183a.515.515 0 01-.678.277 1.124 1.124 0 01-.396-1.124.49.49 0 01.29-.24.458.458 0 01.42.038l-.05-.157.27-.094.483 1.376a.582.582 0 01-.39.791m1.482-.892a.49.49 0 010 .208.465.465 0 01-.238.226l-.107.044-.107-.245h.07c.112-.05.137-.1.131-.227v-.245l-1.023-1.092.289-.12.728.817-.094-1.087.295-.125.056 1.846zm2.109-1.331a.72.72 0 01-.578.069c-.276-.082-.383-.283-.57-.628-.19-.346-.302-.553-.22-.823a.766.766 0 01.37-.459.709.709 0 01.947.214l-.276.144a.408.408 0 00-.533-.106.416.416 0 00-.214.25c-.037.152 0 .265.201.629s.276.459.414.509a.402.402 0 00.327-.038.415.415 0 00.207-.509l.27-.15a.704.704 0 01-.345.904m1.13-2.01a.287.287 0 00-.226.038.314.314 0 00-.139.188.566.566 0 00.132.396c.088.138.176.257.302.289.08.016.163 0 .232-.044a.326.326 0 00.132-.189.566.566 0 00-.132-.395.52.52 0 00-.301-.283zm.715.71a.628.628 0 01-.74.47.778.778 0 01-.459-.401.775.775 0 01-.163-.578.573.573 0 01.276-.383.627.627 0 01.471-.094.777.777 0 01.452.395.754.754 0 01.163.59zm.541-1.627a.29.29 0 00-.22.063.283.283 0 00-.126.195.873.873 0 00.477.628.304.304 0 00.226-.063.268.268 0 00.12-.195.508.508 0 00-.158-.383.548.548 0 00-.32-.27m.766.666a.628.628 0 01-.251.395.575.575 0 01-.458.12.765.765 0 01-.484-.365.78.78 0 01-.2-.565.585.585 0 01.25-.402.577.577 0 01.459-.12.753.753 0 01.477.365.767.767 0 01.207.572zm.326-1.608c-.207.176-.087.377.082.571.17.195.345.352.546.176.2-.176.088-.37-.082-.571-.169-.201-.345-.346-.546-.176zm1.049.571a.51.51 0 01-.189.327.432.432 0 01-.401.12l.483.57-.226.196-1.337-1.583.226-.182.094.119a.447.447 0 01.188-.383.502.502 0 01.358-.132.86.86 0 01.527.364.88.88 0 01.277.584zm.445-1.702a.288.288 0 00-.333.063.314.314 0 00-.088.34c.027.062.065.12.113.169l.477-.459a.402.402 0 00-.17-.113zm-.163.723a.366.366 0 00.552.037.472.472 0 00.157-.358h.257a.716.716 0 01-.238.547c-.264.257-.628.32-.998-.082a.629.629 0 01-.076-.974.629.629 0 01.942.076l.088.094-.684.66zm1.211-1.928a.257.257 0 00-.22.093.308.308 0 00.044.446l.628.629-.2.22-1.08-1.006.194-.207.113.107a.49.49 0 01.138-.408.452.452 0 01.34-.164l.043.29zm1.193-.68l-.226.27c-.107.133-.1.252 0 .34.1.088.213.07.332-.081a.314.314 0 00.107-.264.257.257 0 00-.125-.189l-.088-.075zm.502.41l-.1-.082a.502.502 0 01-.132.395.49.49 0 01-.352.22.452.452 0 01-.32-.107c-.195-.157-.22-.402 0-.666l.245-.301-.082-.063c-.144-.12-.27-.1-.414.076a.333.333 0 00-.094.339h-.264a.592.592 0 01.17-.54c.25-.314.514-.365.772-.151l.76.628-.19.251zm.791-1.037a.377.377 0 01-.565.081l-.628-.477-.1.132-.182-.132.1-.138-.351-.264.176-.239.357.264.17-.226.182.132-.17.232.628.471a.15.15 0 00.232-.031l.076-.094.2.144-.125.145zm-.847-1.344l1.217.822.163-.245-1.217-.822-.163.245zm-.509-.34l.264.183.176-.258-.264-.182-.176.257zm1.62-.797a.307.307 0 00-.226.37c0 .126.157.214.295.295a.57.57 0 00.395.126.295.295 0 00.188-.138.308.308 0 00.038-.233c0-.125-.157-.22-.289-.295a.551.551 0 00-.401-.125zm.96.32a.629.629 0 01-.458.754.777.777 0 01-.59-.157.745.745 0 01-.402-.446.628.628 0 01.458-.76.822.822 0 01.584.157.783.783 0 01.408.452zm.891-1.306l-.79-.415a.283.283 0 00-.427.107.288.288 0 00.144.42l.797.415-.138.264-1.3-.685.133-.263.131.069a.496.496 0 01.038-.421.521.521 0 01.282-.264.552.552 0 01.44.07l.828.432-.138.27zm.973-2.155a.748.748 0 01-.402.427c-.263.113-.477 0-.847-.119-.37-.12-.584-.226-.697-.49a.742.742 0 010-.59.71.71 0 01.86-.453l-.12.302a.415.415 0 00-.482.258.42.42 0 000 .326c.069.138.169.201.558.358.39.157.502.176.628.12a.433.433 0 00.241-.533.42.42 0 00-.185-.228l.12-.295a.716.716 0 01.313.917m-.332-2.261a.276.276 0 00-.258.22.301.301 0 00.088.333c.049.047.11.08.176.094l.2-.628a.402.402 0 00-.206 0m.2.71a.363.363 0 00.509-.233.452.452 0 00-.038-.383l.22-.132a.697.697 0 01.056.628c-.106.352-.383.572-.91.402-.527-.17-.627-.458-.533-.816a.626.626 0 01.86-.383l.125.044-.289.873zm1.256-2.123l-.873-.208a.29.29 0 00-.389.208.297.297 0 00.251.377l.873.213-.07.283-1.43-.34.069-.288.138.037a.522.522 0 01-.063-.42.492.492 0 01.207-.32.515.515 0 01.44-.045l.916.22-.07.283zm.252-1.256a.377.377 0 01-.472.32l-.797-.145v.164l-.22-.038v-.163l-.439-.082.057-.289.433.082.056-.283.22.038-.05.282.778.139a.15.15 0 00.179-.062.15.15 0 00.022-.064v-.12l.251.044-.019.176zm-.823-1.627a.296.296 0 00-.22.263.302.302 0 00.145.315.443.443 0 00.194.062l.088-.66a.527.527 0 00-.207 0m.326.667a.358.358 0 00.452-.315.44.44 0 00-.1-.376l.194-.164a.69.69 0 01.164.572c-.05.364-.283.628-.835.565-.553-.063-.716-.339-.665-.716a.629.629 0 01.759-.509h.126l-.095.943zm-.263-2.224a.282.282 0 00-.093.336.3.3 0 00.294.192l.885.056v.296l-1.482-.095v-.289h.157a.49.49 0 01-.15-.402.472.472 0 01.163-.339l.226.245z" fill="#fff"/><path d="M78.427 48.811l-1.419-2.493-.854 1.023v1.47h-.765v-5.056h.765v2.544l2.065-2.544h.942l-1.645 1.978 1.814 3.078h-.903zm3.226-2.795a.753.753 0 00-.534-.207.74.74 0 00-.527.207 1.395 1.395 0 00-.25.986c-.044.35.046.705.25.992a.74.74 0 00.527.208c.198.004.39-.07.534-.207.203-.289.29-.643.245-.993.045-.348-.042-.7-.245-.986zm.546 2.412a1.476 1.476 0 01-1.08.427 1.449 1.449 0 01-1.073-.427 1.917 1.917 0 01-.427-1.426 1.883 1.883 0 01.427-1.407 1.424 1.424 0 011.073-.427 1.45 1.45 0 011.08.427 1.885 1.885 0 01.42 1.407 1.885 1.885 0 01-.42 1.426zm3.201-2.374a.63.63 0 00-.54-.24.735.735 0 00-.715.805v2.186h-.722v-3.6h.71v.403a1.18 1.18 0 01.953-.434 1.099 1.099 0 01.86.34l-.546.54zm3.006.182a.74.74 0 00-.709-.452.746.746 0 00-.715.452 1.156 1.156 0 00-.095.49h1.62a1.07 1.07 0 00-.1-.49zm-1.531.98a.893.893 0 00.916 1.01 1.06 1.06 0 00.873-.37l.464.434a1.69 1.69 0 01-1.35.565c-.903 0-1.619-.477-1.619-1.884 0-1.162.628-1.834 1.525-1.834.898 0 1.526.71 1.526 1.733v.314l-2.335.032zm5.053 0h-.847c-.427 0-.628.194-.628.52 0 .328.207.51.659.51a.855.855 0 00.678-.208.71.71 0 00.157-.527l-.02-.295zm0 1.595v-.327a1.21 1.21 0 01-.96.37 1.286 1.286 0 01-.967-.332 1.1 1.1 0 01-.283-.773c0-.628.421-1.036 1.256-1.036h.954v-.251c0-.459-.226-.679-.791-.679a.84.84 0 00-.785.346l-.477-.446a1.483 1.483 0 011.293-.521c.986 0 1.482.42 1.482 1.256v2.406l-.722-.013zm5.166-4.371h-1.137v1.588h1.137a.794.794 0 00.867-.794.798.798 0 00-.867-.795zm.89 4.396l-1.066-2.13h-.96v2.13h-.766v-5.025h1.958a1.444 1.444 0 011.57 1.476 1.332 1.332 0 01-1.005 1.344l1.161 2.236-.891-.031zm3.76-.026v-.363a1.25 1.25 0 01-.954.408 1.255 1.255 0 01-.885-.333 1.295 1.295 0 01-.37-1.011v-2.305h.728v2.198a.706.706 0 00.426.75c.096.04.199.059.302.054a.715.715 0 00.741-.804v-2.198h.722v3.605h-.71zm2.844.045a1.965 1.965 0 01-1.507-.521l.471-.478a1.39 1.39 0 001.036.377c.439 0 .791-.157.791-.496 0-.245-.132-.396-.484-.427l-.571-.05c-.678-.057-1.067-.365-1.067-.993s.628-1.099 1.349-1.099c.48-.033.955.11 1.337.402l-.452.459a1.367 1.367 0 00-.885-.258c-.439 0-.659.188-.659.459 0 .27.12.376.503.408l.564.056c.678.05 1.074.377 1.074 1.011 0 .754-.628 1.15-1.5 1.15zm3.364 0a1.973 1.973 0 01-1.513-.521l.477-.478a1.386 1.386 0 001.036.377c.439 0 .785-.157.785-.496 0-.245-.132-.396-.477-.427l-.578-.05c-.678-.057-1.067-.365-1.067-.993s.628-1.099 1.356-1.099c.479-.03.954.112 1.337.402l-.458.459a1.37 1.37 0 00-.885-.258c-.433 0-.628.188-.628.459 0 .27.113.376.496.408l.565.056c.678.05 1.073.377 1.073 1.012 0 .753-.628 1.149-1.494 1.149m2.172-.044h.722v-3.605h-.722v3.605zm0-4.315h.766v-.773h-.816l.05.773zm3.615 2.719h-.841c-.427 0-.627.195-.627.522 0 .326.207.509.659.509a.833.833 0 00.671-.208.711.711 0 00.157-.527l-.019-.296zm0 1.596v-.327a1.193 1.193 0 01-.96.37 1.258 1.258 0 01-.967-.332 1.103 1.103 0 01-.282-.773c0-.628.414-1.036 1.255-1.036h.948v-.251c0-.459-.226-.679-.785-.679a.855.855 0 00-.79.346l-.471-.446a1.468 1.468 0 011.255-.521c.986 0 1.488.42 1.488 1.256v2.405l-.691-.012zm4.607.044a2.298 2.298 0 01-1.789-.672l.515-.503a1.654 1.654 0 001.293.484c.627 0 1.042-.283 1.042-.773a.68.68 0 00-.201-.527.894.894 0 00-.553-.214l-.596-.081a1.782 1.782 0 01-.96-.409 1.255 1.255 0 01-.364-.967 1.488 1.488 0 011.682-1.47 2.1 2.1 0 011.575.578l-.496.477a1.443 1.443 0 00-1.092-.389c-.627 0-.929.34-.929.791a.644.644 0 00.195.465c.162.13.358.21.565.233l.577.087c.347.021.677.153.942.377a1.301 1.301 0 01.414 1.037c0 .93-.759 1.488-1.82 1.488m4.005-.012c-.81 0-1.607-.503-1.607-1.885 0-1.381.797-1.834 1.607-1.834a1.476 1.476 0 011.186.503l-.496.477a.85.85 0 00-.69-.339.813.813 0 00-.672.32c-.167.259-.24.567-.207.873-.034.31.039.623.207.886a.837.837 0 00.672.314.838.838 0 00.69-.34l.496.478a1.488 1.488 0 01-1.186.515m1.839-.012h.728v-3.605h-.728v3.605zm0-4.315h.772v-.773h-.772v.773zm3.747 1.74a.736.736 0 00-.709-.452.747.747 0 00-.716.452 1.176 1.176 0 00-.094.49h1.62a1.075 1.075 0 00-.101-.49zm-1.544.98a.903.903 0 00.537.942.9.9 0 00.38.069 1.07 1.07 0 00.872-.37l.458.433a1.672 1.672 0 01-1.343.565c-.904 0-1.619-.477-1.619-1.884 0-1.162.627-1.834 1.525-1.834.897 0 1.525.71 1.525 1.733v.314l-2.335.032zm5.329 1.595v-2.198a.699.699 0 00-.173-.571.71.71 0 00-.549-.233.72.72 0 00-.712.496.71.71 0 00-.028.308v2.198h-.729v-3.605h.71v.364a1.244 1.244 0 01.954-.408c.328-.012.648.105.891.326a1.342 1.342 0 01.364 1.024v2.3h-.728zm3.082.044c-.81 0-1.607-.502-1.607-1.884s.797-1.834 1.607-1.834a1.452 1.452 0 011.18.502l-.496.477a.846.846 0 00-.684-.339.81.81 0 00-.672.32 1.34 1.34 0 00-.213.874c-.033.31.043.623.213.885a.861.861 0 00.678.328.865.865 0 00.678-.328l.496.478a1.469 1.469 0 01-1.18.515m3.891-2.613a.736.736 0 00-.709-.452.747.747 0 00-.716.452 1.086 1.086 0 00-.094.49h1.62a1.164 1.164 0 00-.101-.49zm-1.519.992a.902.902 0 00.538.942c.119.05.249.074.379.07a1.071 1.071 0 00.872-.371l.458.433a1.68 1.68 0 01-1.349.566c-.898 0-1.613-.478-1.613-1.885 0-1.162.627-1.834 1.525-1.834.898 0 1.525.71 1.525 1.734v.314l-2.335.031zm6.252-2.876a.471.471 0 00-.496.496c0 .2.138.395.389.697l.245-.17a.624.624 0 00.37-.52.49.49 0 00-.143-.365.483.483 0 00-.365-.138zm-.308 2.028c-.37.258-.684.49-.684.955a.852.852 0 00.269.634.864.864 0 00.647.233 1.335 1.335 0 00.967-.396l-1.199-1.426zm2.046 2.437l-.414-.496c-.379.355-.881.55-1.4.54a1.442 1.442 0 01-1.167-.373 1.466 1.466 0 01-.465-1.134 1.759 1.759 0 01.998-1.432 1.701 1.701 0 01-.521-1.08 1.22 1.22 0 012.43 0 1.076 1.076 0 01-.534.891l-.37.258 1.06 1.256a1.59 1.59 0 00.27-1.017h.697a2.4 2.4 0 01-.502 1.557l.841 1.011-.923.02zm4.965-4.371v4.365h-.765v-4.365h-1.388v-.691h3.547v.69h-1.394zm4.049 1.79a.744.744 0 00-.71-.452.747.747 0 00-.715.452 1.06 1.06 0 00-.094.49h1.619a1.075 1.075 0 00-.1-.49zm-1.519.992a.877.877 0 00.032.384.884.884 0 00.884.627 1.071 1.071 0 00.872-.37l.465.433a1.698 1.698 0 01-1.35.566c-.903 0-1.619-.478-1.619-1.885 0-1.162.628-1.834 1.525-1.834.898 0 1.526.71 1.526 1.734v.314l-2.335.031zm4.532 1.627c-.81 0-1.601-.503-1.601-1.884 0-1.382.791-1.834 1.601-1.834a1.467 1.467 0 011.186.502l-.496.477a.843.843 0 00-.69-.339.811.811 0 00-.666.32 1.34 1.34 0 00-.213.874 1.37 1.37 0 00.213.885.88.88 0 00.678.327.87.87 0 00.678-.327l.496.478a1.477 1.477 0 01-1.186.515m4.023-.039V46.6a.702.702 0 00-.424-.739.695.695 0 00-.298-.052.701.701 0 00-.734.791v2.21h-.728v-5.024h.721v1.815a1.258 1.258 0 01.929-.408 1.196 1.196 0 011.199.814 1.2 1.2 0 01.057.511v2.324l-.722-.031zm3.847.001v-2.198c0-.56-.314-.804-.722-.804a.714.714 0 00-.74.804v2.198h-.728v-3.605h.709v.364a1.296 1.296 0 01.96-.408c.327-.01.644.107.885.326a1.342 1.342 0 01.364 1.024v2.299h-.728zm3.515-2.795a.726.726 0 00-.527-.207.74.74 0 00-.527.207c-.203.286-.29.638-.245.986-.046.35.042.704.245.992a.74.74 0 00.527.208.731.731 0 00.527-.208c.205-.287.295-.641.251-.992.044-.349-.046-.7-.251-.986zm.553 2.412a1.483 1.483 0 01-1.08.427 1.452 1.452 0 01-1.073-.427 1.922 1.922 0 01-.427-1.426 1.875 1.875 0 01.427-1.407 1.42 1.42 0 011.073-.427 1.463 1.463 0 011.08.427 1.891 1.891 0 01.427 1.407 1.933 1.933 0 01-.427 1.426zm2.19.383a.923.923 0 01-.991-.999v-4.057h.728v4.013c0 .283.1.428.389.428h.32v.628l-.446-.013zm2.919-2.795a.784.784 0 00-1.061 0 1.4 1.4 0 00-.245.986c-.045.35.042.704.245.992a.785.785 0 001.061 0 1.41 1.41 0 00.251-.992c.043-.349-.046-.7-.251-.986zm.546 2.412a1.464 1.464 0 01-1.073.427 1.439 1.439 0 01-1.074-.427 1.921 1.921 0 01-.426-1.426 1.886 1.886 0 01.426-1.407 1.42 1.42 0 011.074-.427 1.439 1.439 0 011.073.427 1.875 1.875 0 01.427 1.407 1.914 1.914 0 01-.427 1.426zm2.517-2.619c-.628 0-.741.565-.741 1.13 0 .566.088 1.13.741 1.13s.728-.558.728-1.13c0-.571-.075-1.13-.728-1.13zm-.082 4.497a1.648 1.648 0 01-1.255-.477l.464-.459a1.016 1.016 0 00.779.32.805.805 0 00.635-.261.818.818 0 00.206-.656v-.458a1.114 1.114 0 01-.923.408 1.167 1.167 0 01-.86-.32 2.827 2.827 0 010-2.927 1.21 1.21 0 01.866-.308 1.092 1.092 0 01.942.42v-.382h.703v3.58a1.441 1.441 0 01-.938 1.432 1.444 1.444 0 01-.6.088m3.615-.779c-.051.167-.142.32-.263.446a1.017 1.017 0 01-.741.264h-.289v-.628h.189c.301 0 .414-.095.514-.39l.201-.552-1.255-3.436h.766l.853 2.512.841-2.512h.772l-1.588 4.296zm5.254-.672a1.84 1.84 0 01-1.324-.54c-.496-.503-.49-1.062-.49-2.035 0-.974 0-1.533.49-2.03a1.812 1.812 0 011.324-.54 1.746 1.746 0 011.808 1.551h-.785a1.042 1.042 0 00-.714-.808 1.05 1.05 0 00-1.05.25c-.251.27-.307.56-.307 1.577s.056 1.306.307 1.576a1.005 1.005 0 00.741.308 1.031 1.031 0 001.036-.867h.759a1.75 1.75 0 01-1.808 1.558m4.431-2.839a.73.73 0 00-.533-.207.718.718 0 00-.521.207 1.392 1.392 0 00-.251.986c-.043.35.046.705.251.992a.722.722 0 00.521.208.744.744 0 00.533-.208c.205-.287.295-.641.252-.992.043-.349-.047-.7-.252-.986zm.547 2.412a1.48 1.48 0 01-1.08.427 1.436 1.436 0 01-1.067-.427 1.914 1.914 0 01-.427-1.426 1.874 1.874 0 01.427-1.407 1.41 1.41 0 011.067-.427 1.446 1.446 0 011.08.427 1.886 1.886 0 01.426 1.407 1.88 1.88 0 01-.426 1.426zm3.107-2.412a.729.729 0 00-.527-.207.742.742 0 00-.528.207 1.401 1.401 0 00-.251.986c-.043.35.047.705.251.992a.742.742 0 00.528.208.725.725 0 00.527-.208c.207-.286.297-.641.251-.992a1.361 1.361 0 00-.251-.986zm.552 2.412a1.463 1.463 0 01-1.079.427 1.439 1.439 0 01-1.074-.427 1.921 1.921 0 01-.426-1.426 1.886 1.886 0 01.426-1.407 1.42 1.42 0 011.074-.427 1.451 1.451 0 011.079.427 1.876 1.876 0 01.421 1.407 1.895 1.895 0 01-.421 1.426zm2.674-2.619c-.628 0-.753.559-.753 1.193s.1 1.2.753 1.2.741-.56.741-1.2c0-.64-.088-1.193-.741-1.193zm1.067 2.726c-.24.212-.552.324-.872.314a1.113 1.113 0 01-.948-.409v1.822h-.722v-5.025h.709v.37a1.106 1.106 0 01.954-.42c.323-.012.637.1.879.314a3.104 3.104 0 010 3.053m3.239-2.318a.744.744 0 00-.71-.452.744.744 0 00-.715.452 1.06 1.06 0 00-.094.49h1.619a1.148 1.148 0 00-.1-.49zm-1.519.992a.877.877 0 00.032.384.884.884 0 00.884.627 1.078 1.078 0 00.873-.37l.458.433a1.682 1.682 0 01-1.343.566c-.904 0-1.626-.478-1.626-1.885 0-1.162.628-1.834 1.531-1.834.904 0 1.526.71 1.526 1.734v.314l-2.335.031zm5.103-1.174a.63.63 0 00-.534-.239.734.734 0 00-.715.804v2.186h-.729v-3.6h.71v.403a1.183 1.183 0 01.954-.434 1.097 1.097 0 01.86.34l-.546.54zm2.881 1.162h-.816c-.421 0-.628.194-.628.52 0 .328.207.51.659.51a.835.835 0 00.672-.208.715.715 0 00.157-.528l-.044-.294zm0 1.595v-.327a1.2 1.2 0 01-.954.37 1.254 1.254 0 01-.967-.332 1.099 1.099 0 01-.282-.773c0-.628.42-1.036 1.255-1.036h.948v-.251c0-.459-.226-.679-.785-.679a.853.853 0 00-.791.346l-.477-.446a1.496 1.496 0 011.293-.521c.986 0 1.482.42 1.482 1.256v2.406l-.722-.013zm2.73 0a.944.944 0 01-.992-1.005v-1.978h-.408v-.56h.408v-1.092h.728v1.093h.697v.559h-.697v1.94c0 .264.126.427.396.427h.301v.629l-.433-.013zm1.174 0h.722v-3.605h-.722v3.605zm0-4.315h.766v-.773h-.766v.773zm3.559 1.52a.755.755 0 00-.534-.207.74.74 0 00-.527.207c-.203.286-.29.639-.245.986-.046.35.042.704.245.993a.74.74 0 00.527.207c.198.004.39-.07.534-.207.203-.289.29-.643.244-.993.046-.348-.042-.7-.244-.986zm.546 2.412a1.485 1.485 0 01-1.08.427 1.452 1.452 0 01-1.073-.427 1.923 1.923 0 01-.427-1.426 1.876 1.876 0 01.427-1.407 1.42 1.42 0 011.073-.427 1.461 1.461 0 011.08.427 1.892 1.892 0 01.426 1.407 1.914 1.914 0 01-.426 1.426zm3.414.383v-2.198a.714.714 0 00-.173-.571.705.705 0 00-.549-.233.715.715 0 00-.747.804v2.198h-.728v-3.605h.709v.364a1.35 1.35 0 011.845-.081 1.342 1.342 0 01.358 1.023v2.3h-.715zm4.902.044a1.883 1.883 0 01-1.331-.54c-.496-.502-.489-1.061-.489-2.035 0-.974 0-1.533.489-2.029a1.825 1.825 0 011.331-.54 1.739 1.739 0 011.801 1.551h-.784a1.053 1.053 0 00-1.274-.83 1.048 1.048 0 00-.49.271c-.245.27-.301.56-.301 1.577s.056 1.306.301 1.576a.993.993 0 00.747.308 1.022 1.022 0 001.029-.867h.772a1.746 1.746 0 01-1.801 1.558zm4.607-2.619a.74.74 0 00-.709-.452.745.745 0 00-.716.452 1.146 1.146 0 00-.094.49h1.619a1.149 1.149 0 00-.1-.49zm-1.519.992a.893.893 0 00.916 1.012 1.066 1.066 0 00.873-.37l.458.433a1.674 1.674 0 01-1.343.565c-.904 0-1.62-.478-1.62-1.885 0-1.161.628-1.834 1.526-1.834.897 0 1.525.71 1.525 1.734v.314l-2.335.031zm5.304 1.583v-2.198a.704.704 0 00-.722-.804.717.717 0 00-.741.804v2.198h-.728v-3.605h.709v.364a1.296 1.296 0 01.961-.408c.326-.01.643.107.885.327a1.354 1.354 0 01.364 1.023v2.3h-.728zm2.711 0a.942.942 0 01-.985-1.005v-1.978h-.414v-.56h.414v-1.092h.728v1.093h.69v.559h-.69v1.94c0 .264.125.428.395.428h.295v.628l-.433-.013zm3.252-2.575a.79.79 0 00-1.431 0 1.146 1.146 0 00-.094.49h1.619a1.146 1.146 0 00-.094-.49zm-1.525.992a.877.877 0 00.032.385.884.884 0 00.884.627 1.082 1.082 0 00.879-.37l.458.433a1.69 1.69 0 01-1.349.565c-.904 0-1.614-.478-1.614-1.885 0-1.161.597-1.834 1.519-1.834.923 0 1.526.71 1.526 1.734v.314l-2.335.031zm5.096-1.174a.677.677 0 00-.54-.239.734.734 0 00-.715.804v2.186h-.728v-3.6h.709v.403a1.207 1.207 0 01.96-.434 1.112 1.112 0 01.86.34l-.546.54z" fill="#898989"/><path d="M75.916 13.072h5.894v11.3l6.578-11.3h6.176l-7.607 12.48 8.392 12.619h-7.175L81.81 27.317v10.854h-5.894V13.072zm25.703 12.512c0 3.837 2.398 7.43 6.358 7.43 4.18 0 6.208-4.14 6.208-7.361 0-3.223-2.028-7.43-6.277-7.43-4.086 0-6.277 3.8-6.277 7.33l-.012.03zm-5.894.307c0-8.209 5.8-13.296 12.164-13.296 7.105 0 12.196 6.036 12.196 13.02 0 6.985-5.059 13.027-12.227 13.027-7.269 0-12.133-6.281-12.133-12.72v-.03zm28.32-12.819h7.532c3.622 0 5.862.71 7.143 1.796 1.933 1.627 2.806 4.102 2.806 6.853a8.893 8.893 0 01-1.155 4.547 6.748 6.748 0 01-2.994 2.676l4.776 9.227h-6.088l-6.007-12.104h.967c1.5 0 2.78-.144 3.559-.684a3.86 3.86 0 001.311-3.084 3.493 3.493 0 00-1.374-2.92 4.531 4.531 0 00-2.404-.673h-2.178v19.471h-5.894V13.072zm26.977 0v15.162a8.837 8.837 0 00.408 3.021 2.611 2.611 0 002.605 1.79 2.466 2.466 0 002.561-1.626 9.09 9.09 0 00.37-3.14V13.071h5.857v15.162c0 4.202-.841 6.074-2.304 7.7a8.292 8.292 0 01-6.459 2.708c-1.682 0-4.738-.44-6.64-2.676-1.902-2.236-2.31-4.038-2.31-7.732V13.072h5.912zm21.272 16.789c0 2.914 1.657 3.423 2.397 3.423a2.327 2.327 0 002.247-2.405c0-1.326-.966-1.734-4.519-3.36-1.619-.71-5.649-2.513-5.649-7.193 0-5.024 4.206-7.732 8.078-7.732 3.176 0 7.67 1.765 7.764 7.801h-5.831c-.125-.847-.313-2.443-2.127-2.443a1.991 1.991 0 00-2.021 1.966c0 1.156.627 1.464 4.77 3.499 4.306 2.098 5.398 4.27 5.398 7.191 0 4.001-1.933 8.034-8.047 8.034-6.113 0-8.48-3.863-8.329-8.794l5.869.013zm16.878-11.155h-4.557v-5.634h14.97v5.634h-4.52v19.465h-5.893V18.706zm13.57-5.634h13.068v5.634h-7.175v3.9h6.955v5.628h-6.955v4.31h7.175v5.627h-13.068V13.072zm40.139 15.702c-1.343 5.936-6.082 9.868-11.668 9.868-7.231 0-12.164-6.281-12.164-13.052 0-6.413 4.557-12.995 12.101-12.995 7.237 0 11.104 6.073 11.731 10.005h-6.176c-.628-1.884-2.398-4.397-5.586-4.397-3.961 0-6.17 3.769-6.17 7.324 0 3.8 2.366 7.462 6.201 7.462 3.685 0 5.178-3.36 5.555-4.24l6.176.025z" fill="#343434"/></symbol><symbol id="pdf" viewBox="0 0 37 37"><path d="M22 6l6.5 7M22 6H10.087c-.549 0-.823 0-1.034.105a1 1 0 00-.448.448C8.5 6.764 8.5 7.039 8.5 7.59v7.82c0 .55 0 .826.105 1.037a1 1 0 00.448.448c.211.105.486.105 1.037.105h16.82c.55 0 .826 0 1.037-.105a.999.999 0 00.448-.448c.105-.211.105-.486.105-1.037V13M22 6v5.41c0 .55 0 .826.105 1.037.097.194.254.35.448.448.211.105.486.105 1.037.105h4.91" fill="transparent" stroke="#000" stroke-miterlimit="16"/><rect x="5" y="16" width="27" height="18" rx="3" fill="#FA3737"/><path d="M13.032 25.212H11.48v-.767h1.553c.293 0 .53-.058.708-.175a.994.994 0 00.396-.489 1.88 1.88 0 00.127-.713 1.86 1.86 0 00-.127-.688 1.099 1.099 0 00-.396-.518c-.179-.133-.415-.2-.708-.2h-1.367V28h-.898v-7.11h2.265c.46 0 .847.093 1.162.279.316.186.555.443.718.771.166.326.25.699.25 1.119 0 .455-.084.844-.25 1.167a1.672 1.672 0 01-.718.737c-.315.166-.703.249-1.162.249zM17.925 28h-1.211l.01-.767h1.2c.427 0 .774-.081 1.04-.244a1.46 1.46 0 00.592-.732c.127-.326.19-.728.19-1.206v-1.216c0-.378-.036-.703-.107-.977a1.757 1.757 0 00-.323-.673 1.286 1.286 0 00-.542-.391 2.045 2.045 0 00-.766-.132h-1.319v-.771h1.319c.4 0 .762.063 1.084.19.322.124.599.31.83.562.231.247.407.555.527.922.124.368.186.795.186 1.28v1.206c0 .485-.062.911-.186 1.28-.12.367-.298.675-.532.922-.234.247-.52.434-.855.561a3.245 3.245 0 01-1.137.186zm-.713-7.11V28h-.898v-7.11h.898zm5.713 0V28h-.899v-7.11h.899zm2.397 3.199v.771h-2.568v-.771h2.568zm.405-3.198v.771h-2.973v-.771h2.973z" fill="#fff"/></symbol><symbol id="views" viewBox="0 0 30 30"><path d="M29.5 15c0 7.716-6.476 14-14.5 14C6.976 29 .5 22.716.5 15S6.976 1 15 1c8.024 0 14.5 6.284 14.5 14z" fill="#fff" stroke="#0A00FF"/><path d="M17.583 7.792a7.34 7.34 0 00-2.148.32 3.646 3.646 0 11-4.821 4.823 7.292 7.292 0 106.969-5.143z" fill="#0A00FF"/></symbol></svg>